G75*
%MOIN*%
%OFA0B0*%
%FSLAX24Y24*%
%IPPOS*%
%LPD*%
%AMOC8*
5,1,8,0,0,1.08239X$1,22.5*
%
%ADD10C,0.0110*%
%ADD11C,0.0591*%
%ADD12C,0.0740*%
%ADD13C,0.0800*%
%ADD14C,0.0480*%
%ADD15C,0.0650*%
%ADD16C,0.0495*%
%ADD17C,0.0915*%
%ADD18OC8,0.0740*%
%ADD19C,0.0900*%
%ADD20C,0.0130*%
%ADD21C,0.0360*%
%ADD22C,0.0150*%
%ADD23C,0.0160*%
%ADD24C,0.0250*%
%ADD25C,0.0100*%
D10*
X016064Y011972D02*
X015838Y012294D01*
X015951Y012133D02*
X016435Y012471D01*
X016387Y012197D01*
X016273Y011845D02*
X016193Y011788D01*
X016249Y011708D01*
X016330Y011764D01*
X016273Y011845D01*
X016393Y011502D02*
X016619Y011180D01*
X016506Y011341D02*
X016990Y011680D01*
X016941Y011405D01*
X017085Y011200D02*
X016876Y010813D01*
X017311Y010877D01*
D11*
X020175Y006356D03*
X020175Y005569D03*
X020175Y004781D03*
X020175Y003994D03*
X006175Y025994D03*
X006175Y026781D03*
X006175Y027569D03*
X006175Y028356D03*
X034175Y028356D03*
X034175Y027569D03*
X034175Y026781D03*
X034175Y025994D03*
D12*
X021675Y027675D03*
X018675Y027675D03*
X010621Y019720D03*
X010062Y018891D03*
X009503Y018062D03*
X008943Y017233D03*
X008384Y016404D03*
X007825Y015575D03*
X019045Y011465D03*
X019045Y009685D03*
X021605Y009685D03*
X021605Y011465D03*
D13*
X019125Y014175D03*
X018025Y014175D03*
X016175Y014175D03*
X013175Y014175D03*
X011725Y014175D03*
X010625Y014175D03*
X016925Y027625D03*
X016925Y028725D03*
X023425Y028725D03*
X023425Y027625D03*
X027875Y016625D03*
X027875Y015525D03*
X027875Y014425D03*
X030875Y014425D03*
X030875Y015525D03*
X030875Y016625D03*
D14*
X026425Y016665D02*
X026425Y016185D01*
X025425Y016185D02*
X025425Y016665D01*
X024425Y016665D02*
X024425Y016185D01*
X023425Y016185D02*
X023425Y016665D01*
X022425Y016665D02*
X022425Y016185D01*
X021425Y016185D02*
X021425Y016665D01*
X020425Y016665D02*
X020425Y016185D01*
X019425Y016185D02*
X019425Y016665D01*
X018425Y016665D02*
X018425Y016185D01*
X017425Y016185D02*
X017425Y016665D01*
X016425Y016665D02*
X016425Y016185D01*
X015425Y016185D02*
X015425Y016665D01*
X014425Y016665D02*
X014425Y016185D01*
X013425Y016185D02*
X013425Y016665D01*
X013425Y019185D02*
X013425Y019665D01*
X014425Y019665D02*
X014425Y019185D01*
X015425Y019185D02*
X015425Y019665D01*
X016425Y019665D02*
X016425Y019185D01*
X017425Y019185D02*
X017425Y019665D01*
X018425Y019665D02*
X018425Y019185D01*
X019425Y019185D02*
X019425Y019665D01*
X020425Y019665D02*
X020425Y019185D01*
X021425Y019185D02*
X021425Y019665D01*
X022425Y019665D02*
X022425Y019185D01*
X023425Y019185D02*
X023425Y019665D01*
X024425Y019665D02*
X024425Y019185D01*
X025425Y019185D02*
X025425Y019665D01*
X026425Y019665D02*
X026425Y019185D01*
D15*
X022935Y014175D03*
X021935Y014175D03*
X020935Y014175D03*
X020175Y031090D03*
X020175Y033060D03*
D16*
X031028Y023024D03*
X031475Y023675D03*
X031922Y024326D03*
D17*
X032390Y025006D03*
X030560Y022344D03*
D18*
X021675Y023675D03*
X020675Y023675D03*
X020675Y024675D03*
X021675Y024675D03*
X019675Y024675D03*
X019675Y023675D03*
D19*
X027425Y023925D03*
X010625Y023925D03*
D20*
X004615Y011310D02*
X005093Y011059D01*
X005614Y010920D01*
X006153Y010898D01*
X006683Y010996D01*
X007179Y011208D01*
X007616Y011525D01*
X007973Y011929D01*
X008232Y012403D01*
X008380Y012921D01*
X008410Y013188D01*
X008411Y013193D01*
X008413Y013243D01*
X008415Y013245D01*
X008415Y013248D01*
X008437Y013292D01*
X008459Y013338D01*
X008461Y013339D01*
X008463Y013342D01*
X008500Y013374D01*
X008538Y013408D01*
X008540Y013409D01*
X008543Y013411D01*
X008590Y013426D01*
X008637Y013443D01*
X008640Y013442D01*
X008643Y013443D01*
X008693Y013439D01*
X008743Y013437D01*
X008745Y013435D01*
X014657Y012981D01*
X014710Y012977D01*
X014732Y012975D01*
X014763Y012973D01*
X014763Y012973D01*
X014902Y012962D01*
X014902Y012962D01*
X015260Y012819D01*
X015260Y012819D01*
X015559Y012577D01*
X015559Y012577D01*
X015630Y012470D01*
X015640Y012484D01*
X015728Y012546D01*
X015832Y012569D01*
X015938Y012551D01*
X016011Y012504D01*
X016236Y012662D01*
X016236Y012662D01*
X016264Y012681D01*
X016324Y012723D01*
X016429Y012747D01*
X016429Y012747D01*
X016429Y012747D01*
X016447Y012744D01*
X016535Y012728D01*
X016625Y012670D01*
X016625Y012670D01*
X016625Y012670D01*
X016643Y012645D01*
X016687Y012582D01*
X016710Y012477D01*
X016710Y012477D01*
X016710Y012477D01*
X016706Y012454D01*
X016692Y012372D01*
X016692Y012372D01*
X016643Y012098D01*
X016586Y012007D01*
X016521Y011962D01*
X016523Y011958D01*
X016582Y011875D01*
X016605Y011770D01*
X016605Y011770D01*
X016600Y011739D01*
X016599Y011736D01*
X016791Y011870D01*
X016791Y011870D01*
X016818Y011889D01*
X016879Y011931D01*
X016984Y011955D01*
X016984Y011955D01*
X017001Y011952D01*
X017089Y011936D01*
X017180Y011878D01*
X017180Y011878D01*
X017180Y011878D01*
X017198Y011853D01*
X017242Y011790D01*
X017265Y011686D01*
X017265Y011686D01*
X017261Y011662D01*
X017246Y011580D01*
X017246Y011580D01*
X017220Y011434D01*
X017261Y011412D01*
X017329Y011328D01*
X017359Y011225D01*
X017351Y011146D01*
X017429Y011126D01*
X017515Y011062D01*
X017570Y010970D01*
X017586Y010864D01*
X017560Y010760D01*
X017496Y010673D01*
X017404Y010618D01*
X016934Y010549D01*
X016915Y010543D01*
X018866Y007616D01*
X018866Y007616D01*
X018925Y007528D01*
X018945Y007425D01*
X018925Y007321D01*
X018866Y007234D01*
X018865Y007233D01*
X018822Y007204D01*
X018605Y007042D01*
X018233Y006651D01*
X017956Y006187D01*
X017787Y005673D01*
X017736Y005135D01*
X017805Y004599D01*
X017990Y004091D01*
X018282Y003636D01*
X018668Y003257D01*
X019127Y002972D01*
X019638Y002796D01*
X020175Y002736D01*
X020712Y002796D01*
X021223Y002972D01*
X021682Y003257D01*
X022068Y003636D01*
X022068Y003636D01*
X022360Y004091D01*
X022545Y004599D01*
X022614Y005135D01*
X022563Y005673D01*
X022394Y006187D01*
X022117Y006651D01*
X021745Y007042D01*
X021528Y007204D01*
X021484Y007234D01*
X021425Y007321D01*
X021405Y007425D01*
X021425Y007528D01*
X021430Y007535D01*
X021484Y007616D01*
X021484Y007616D01*
X022699Y009439D01*
X022639Y009379D01*
X020465Y007205D01*
X020465Y006788D01*
X020608Y006645D01*
X020685Y006458D01*
X020685Y006255D01*
X020608Y006067D01*
X020503Y005962D01*
X020608Y005858D01*
X020685Y005670D01*
X020685Y005467D01*
X020608Y005280D01*
X020466Y005138D01*
X020475Y005132D01*
X020526Y005081D01*
X020569Y005023D01*
X020602Y004958D01*
X020624Y004889D01*
X020635Y004818D01*
X020635Y004815D01*
X020208Y004815D01*
X020208Y004748D01*
X020635Y004748D01*
X020635Y004745D01*
X020624Y004674D01*
X020602Y004605D01*
X020569Y004540D01*
X020526Y004481D01*
X020475Y004430D01*
X020466Y004424D01*
X020608Y004283D01*
X020685Y004095D01*
X020685Y003892D01*
X020608Y003705D01*
X020464Y003561D01*
X020276Y003484D01*
X020073Y003484D01*
X019886Y003561D01*
X019742Y003705D01*
X019731Y003732D01*
X019692Y003748D01*
X019111Y004329D01*
X019029Y004411D01*
X018985Y004517D01*
X018985Y008783D01*
X019029Y008889D01*
X020435Y010295D01*
X020435Y011833D01*
X020479Y011939D01*
X021029Y012489D01*
X021111Y012571D01*
X021217Y012615D01*
X022705Y012615D01*
X024099Y014009D01*
X024181Y014091D01*
X024287Y014135D01*
X027329Y014135D01*
X027260Y014303D01*
X027260Y014547D01*
X027354Y014773D01*
X027527Y014946D01*
X027596Y014975D01*
X027527Y015004D01*
X027354Y015177D01*
X027260Y015403D01*
X027260Y015647D01*
X027354Y015873D01*
X027527Y016046D01*
X027596Y016075D01*
X027527Y016104D01*
X027354Y016277D01*
X027260Y016503D01*
X027260Y016747D01*
X027284Y016806D01*
X026805Y017285D01*
X017995Y017285D01*
X017722Y017012D01*
X017811Y016923D01*
X017880Y016756D01*
X017880Y016094D01*
X017811Y015927D01*
X017683Y015799D01*
X017516Y015730D01*
X017334Y015730D01*
X017167Y015799D01*
X017039Y015927D01*
X016970Y016094D01*
X016970Y016756D01*
X017039Y016923D01*
X017135Y017018D01*
X017135Y017183D01*
X017179Y017289D01*
X017629Y017739D01*
X017711Y017821D01*
X017817Y017865D01*
X026983Y017865D01*
X027089Y017821D01*
X027694Y017216D01*
X027753Y017240D01*
X027997Y017240D01*
X028223Y017146D01*
X028396Y016973D01*
X028490Y016747D01*
X028490Y016503D01*
X028396Y016277D01*
X028223Y016104D01*
X028154Y016075D01*
X028223Y016046D01*
X028396Y015873D01*
X028490Y015647D01*
X028490Y015403D01*
X028396Y015177D01*
X028223Y015004D01*
X028154Y014975D01*
X028223Y014946D01*
X028396Y014773D01*
X028490Y014547D01*
X028490Y014303D01*
X028421Y014135D01*
X029225Y014135D01*
X029485Y014395D01*
X029485Y015583D01*
X029529Y015689D01*
X030187Y016347D01*
X030111Y016379D01*
X030029Y016461D01*
X028611Y017879D01*
X028529Y017961D01*
X028485Y018067D01*
X028485Y023333D01*
X028529Y023439D01*
X031075Y025985D01*
X006685Y025985D01*
X006685Y025892D01*
X006608Y025705D01*
X006464Y025561D01*
X006276Y025484D01*
X006073Y025484D01*
X005886Y025561D01*
X005742Y025705D01*
X005665Y025892D01*
X005665Y026095D01*
X005742Y026283D01*
X005884Y026424D01*
X005875Y026430D01*
X005824Y026481D01*
X005781Y026540D01*
X005748Y026605D01*
X005726Y026674D01*
X005715Y026745D01*
X005715Y026748D01*
X006142Y026748D01*
X006142Y026815D01*
X005715Y026815D01*
X005715Y026818D01*
X005726Y026889D01*
X005748Y026958D01*
X005781Y027023D01*
X005824Y027081D01*
X005875Y027132D01*
X005884Y027138D01*
X005742Y027280D01*
X005665Y027467D01*
X005665Y027670D01*
X005742Y027858D01*
X005847Y027962D01*
X005742Y028067D01*
X005665Y028255D01*
X005665Y028458D01*
X005742Y028645D01*
X005886Y028789D01*
X006073Y028866D01*
X006276Y028866D01*
X006464Y028789D01*
X006608Y028645D01*
X006685Y028458D01*
X006685Y028256D01*
X007776Y027165D01*
X008410Y027165D01*
X008407Y027207D01*
X008408Y027210D01*
X008394Y027437D01*
X008272Y027949D01*
X008035Y028418D01*
X007696Y028821D01*
X007274Y029134D01*
X006792Y029343D01*
X006274Y029434D01*
X005749Y029405D01*
X005245Y029255D01*
X004789Y028993D01*
X004405Y028633D01*
X004115Y028195D01*
X003933Y027701D01*
X003869Y027179D01*
X003928Y026657D01*
X004105Y026161D01*
X004391Y025720D01*
X004771Y025357D01*
X005224Y025090D01*
X005224Y025090D01*
X005727Y024936D01*
X006252Y024901D01*
X006770Y024987D01*
X007001Y025069D01*
X007020Y025081D01*
X007044Y025086D01*
X007067Y025095D01*
X007096Y025095D01*
X007123Y025101D01*
X007148Y025096D01*
X007173Y025096D01*
X007199Y025085D01*
X007227Y025079D01*
X007247Y025065D01*
X007270Y025056D01*
X007290Y025036D01*
X007314Y025020D01*
X007327Y024999D01*
X007345Y024982D01*
X007356Y024955D01*
X010058Y020836D01*
X010058Y020836D01*
X010132Y020723D01*
X010132Y020723D01*
X010238Y020362D01*
X010238Y020362D01*
X010236Y020092D01*
X010272Y020128D01*
X010341Y020178D01*
X010416Y020216D01*
X010496Y020242D01*
X010579Y020255D01*
X010663Y020255D01*
X010746Y020242D01*
X010826Y020216D01*
X010891Y020183D01*
X010612Y019769D01*
X010670Y019730D01*
X010949Y020143D01*
X010969Y020128D01*
X011029Y020069D01*
X011079Y020001D01*
X011117Y019926D01*
X011143Y019845D01*
X011156Y019762D01*
X011156Y019678D01*
X011143Y019595D01*
X011117Y019515D01*
X011084Y019450D01*
X010670Y019730D01*
X010630Y019672D01*
X010351Y019257D01*
X010110Y018901D01*
X010052Y018940D01*
X010332Y019354D01*
X010332Y019354D01*
X010572Y019711D01*
X010630Y019672D01*
X011044Y019393D01*
X011029Y019372D01*
X010969Y019312D01*
X010901Y019263D01*
X010826Y019224D01*
X010746Y019198D01*
X010663Y019185D01*
X010579Y019185D01*
X010500Y019198D01*
X010519Y019172D01*
X010558Y019097D01*
X010584Y019016D01*
X010597Y018933D01*
X010597Y018849D01*
X010584Y018766D01*
X010558Y018686D01*
X010525Y018621D01*
X010110Y018901D01*
X010071Y018843D01*
X010485Y018563D01*
X010470Y018543D01*
X010410Y018483D01*
X010342Y018434D01*
X010267Y018395D01*
X010187Y018369D01*
X010104Y018356D01*
X010020Y018356D01*
X010014Y018357D01*
X010088Y018178D01*
X010088Y017946D01*
X009999Y017731D01*
X009834Y017566D01*
X009730Y017523D01*
X014175Y017523D01*
X014281Y017479D01*
X014580Y017180D01*
X014592Y017175D01*
X014675Y017092D01*
X014699Y017035D01*
X014811Y016923D01*
X014880Y016756D01*
X014880Y016094D01*
X014811Y015927D01*
X014683Y015799D01*
X014516Y015730D01*
X014334Y015730D01*
X014167Y015799D01*
X014039Y015927D01*
X013970Y016094D01*
X013970Y016756D01*
X014033Y016907D01*
X013997Y016943D01*
X013790Y016943D01*
X013811Y016923D01*
X013880Y016756D01*
X013880Y016094D01*
X013811Y015927D01*
X013683Y015799D01*
X013516Y015730D01*
X013334Y015730D01*
X013167Y015799D01*
X013039Y015927D01*
X012970Y016094D01*
X012970Y016756D01*
X013039Y016923D01*
X013060Y016943D01*
X009456Y016943D01*
X009439Y016902D01*
X009275Y016737D01*
X009171Y016694D01*
X011504Y016694D01*
X011610Y016650D01*
X012540Y015720D01*
X015053Y015720D01*
X015130Y015797D01*
X015130Y015837D01*
X015039Y015927D01*
X014970Y016094D01*
X014970Y016756D01*
X015039Y016923D01*
X015167Y017051D01*
X015334Y017120D01*
X015516Y017120D01*
X015683Y017051D01*
X015811Y016923D01*
X015880Y016756D01*
X015880Y016094D01*
X015811Y015927D01*
X015720Y015837D01*
X015720Y015616D01*
X015675Y015508D01*
X015425Y015258D01*
X015425Y015258D01*
X015342Y015175D01*
X015234Y015130D01*
X012366Y015130D01*
X012258Y015175D01*
X012175Y015258D01*
X012170Y015270D01*
X011326Y016114D01*
X008897Y016114D01*
X008880Y016073D01*
X008716Y015908D01*
X008501Y015819D01*
X008357Y015819D01*
X008410Y015691D01*
X008410Y015459D01*
X008321Y015244D01*
X008156Y015079D01*
X007941Y014990D01*
X007709Y014990D01*
X007494Y015079D01*
X007329Y015244D01*
X007240Y015459D01*
X007240Y015503D01*
X007225Y015500D01*
X007194Y015489D01*
X007173Y015490D01*
X007154Y015486D01*
X007121Y015493D01*
X007088Y015495D01*
X007070Y015504D01*
X007050Y015508D01*
X007028Y015524D01*
X006792Y015622D01*
X006792Y015622D01*
X006266Y015745D01*
X005727Y015748D01*
X005200Y015633D01*
X004711Y015405D01*
X004284Y015074D01*
X003941Y014658D01*
X003698Y014176D01*
X003567Y013653D01*
X003554Y013114D01*
X003661Y012585D01*
X003881Y012092D01*
X004204Y011660D01*
X004615Y011310D01*
X004619Y011308D02*
X007318Y011308D01*
X007496Y011437D02*
X004467Y011437D01*
X004316Y011565D02*
X007653Y011565D01*
X007766Y011694D02*
X004179Y011694D01*
X004083Y011822D02*
X007879Y011822D01*
X007985Y011951D02*
X003987Y011951D01*
X003891Y012079D02*
X005736Y012079D01*
X005808Y012060D02*
X006142Y012060D01*
X006463Y012146D01*
X006752Y012313D01*
X006987Y012548D01*
X007154Y012837D01*
X007240Y013158D01*
X007240Y013492D01*
X007154Y013813D01*
X006987Y014102D01*
X006752Y014337D01*
X006463Y014504D01*
X006142Y014590D01*
X005808Y014590D01*
X005487Y014504D01*
X005198Y014337D01*
X004963Y014102D01*
X004796Y013813D01*
X004710Y013492D01*
X004710Y013158D01*
X004796Y012837D01*
X004963Y012548D01*
X005198Y012313D01*
X005487Y012146D01*
X005808Y012060D01*
X006214Y012079D02*
X008055Y012079D01*
X008126Y012208D02*
X006570Y012208D01*
X006775Y012336D02*
X008196Y012336D01*
X008250Y012465D02*
X006904Y012465D01*
X007013Y012593D02*
X008287Y012593D01*
X008323Y012722D02*
X007088Y012722D01*
X007157Y012850D02*
X008360Y012850D01*
X008387Y012979D02*
X007192Y012979D01*
X007226Y013107D02*
X008401Y013107D01*
X008413Y013236D02*
X007240Y013236D01*
X007240Y013364D02*
X008489Y013364D01*
X009667Y013364D02*
X023454Y013364D01*
X023326Y013236D02*
X011337Y013236D01*
X011454Y013621D02*
X010896Y013621D01*
X010973Y013654D02*
X011146Y013827D01*
X011175Y013896D01*
X011204Y013827D01*
X011377Y013654D01*
X011603Y013560D01*
X011847Y013560D01*
X012073Y013654D01*
X012246Y013827D01*
X012340Y014053D01*
X012340Y014297D01*
X012246Y014523D01*
X012073Y014696D01*
X011847Y014790D01*
X011603Y014790D01*
X011377Y014696D01*
X011204Y014523D01*
X011175Y014454D01*
X011146Y014523D01*
X010973Y014696D01*
X010747Y014790D01*
X010503Y014790D01*
X010277Y014696D01*
X010104Y014523D01*
X010010Y014297D01*
X010010Y014053D01*
X010104Y013827D01*
X010277Y013654D01*
X010503Y013560D01*
X010747Y013560D01*
X010973Y013654D01*
X011070Y013750D02*
X011280Y013750D01*
X011182Y013878D02*
X011168Y013878D01*
X011147Y014521D02*
X011203Y014521D01*
X011330Y014649D02*
X011020Y014649D01*
X010776Y014778D02*
X011574Y014778D01*
X011876Y014778D02*
X013024Y014778D01*
X013053Y014790D02*
X012827Y014696D01*
X012654Y014523D01*
X012560Y014297D01*
X012560Y014053D01*
X012654Y013827D01*
X012827Y013654D01*
X013053Y013560D01*
X013297Y013560D01*
X013523Y013654D01*
X013696Y013827D01*
X013790Y014053D01*
X013790Y014297D01*
X013696Y014523D01*
X013523Y014696D01*
X013297Y014790D01*
X013053Y014790D01*
X013326Y014778D02*
X016024Y014778D01*
X016053Y014790D02*
X015827Y014696D01*
X015654Y014523D01*
X015560Y014297D01*
X015560Y014053D01*
X015654Y013827D01*
X015827Y013654D01*
X016053Y013560D01*
X016297Y013560D01*
X016523Y013654D01*
X016696Y013827D01*
X016790Y014053D01*
X016790Y014297D01*
X016696Y014523D01*
X016523Y014696D01*
X016297Y014790D01*
X016053Y014790D01*
X016326Y014778D02*
X017874Y014778D01*
X017903Y014790D02*
X017677Y014696D01*
X017504Y014523D01*
X017410Y014297D01*
X017410Y014053D01*
X017504Y013827D01*
X017677Y013654D01*
X017903Y013560D01*
X018147Y013560D01*
X018373Y013654D01*
X018546Y013827D01*
X018601Y013959D01*
X018601Y013958D01*
X018642Y013879D01*
X018694Y013807D01*
X018757Y013744D01*
X018829Y013692D01*
X018908Y013651D01*
X018993Y013624D01*
X019081Y013610D01*
X019090Y013610D01*
X019090Y014140D01*
X019160Y014140D01*
X019160Y014210D01*
X019690Y014210D01*
X019690Y014219D01*
X019676Y014307D01*
X019649Y014392D01*
X019608Y014471D01*
X019556Y014543D01*
X019493Y014606D01*
X019421Y014658D01*
X019342Y014699D01*
X019257Y014726D01*
X019169Y014740D01*
X019160Y014740D01*
X019160Y014210D01*
X019090Y014210D01*
X019090Y014740D01*
X019081Y014740D01*
X018993Y014726D01*
X018908Y014699D01*
X018829Y014658D01*
X018757Y014606D01*
X018694Y014543D01*
X018642Y014471D01*
X018601Y014392D01*
X018601Y014391D01*
X018546Y014523D01*
X018373Y014696D01*
X018147Y014790D01*
X017903Y014790D01*
X018176Y014778D02*
X027358Y014778D01*
X027302Y014649D02*
X023201Y014649D01*
X023241Y014633D02*
X023042Y014715D01*
X022828Y014715D01*
X022629Y014633D01*
X022477Y014481D01*
X022406Y014310D01*
X022389Y014363D01*
X022354Y014432D01*
X022309Y014494D01*
X022254Y014549D01*
X022192Y014594D01*
X022123Y014629D01*
X022050Y014653D01*
X021974Y014665D01*
X021953Y014665D01*
X021953Y014193D01*
X021917Y014193D01*
X021917Y014665D01*
X021896Y014665D01*
X021820Y014653D01*
X021747Y014629D01*
X021678Y014594D01*
X021616Y014549D01*
X021561Y014494D01*
X021516Y014432D01*
X021481Y014363D01*
X021464Y014310D01*
X021393Y014481D01*
X021241Y014633D01*
X021042Y014715D01*
X020828Y014715D01*
X020629Y014633D01*
X020477Y014481D01*
X020395Y014282D01*
X020395Y014068D01*
X020477Y013869D01*
X020629Y013717D01*
X020828Y013635D01*
X021042Y013635D01*
X021241Y013717D01*
X021393Y013869D01*
X021464Y014040D01*
X021481Y013987D01*
X021516Y013918D01*
X021561Y013856D01*
X021616Y013801D01*
X021678Y013756D01*
X021747Y013721D01*
X021820Y013697D01*
X021896Y013685D01*
X021917Y013685D01*
X021917Y014157D01*
X021953Y014157D01*
X021953Y013685D01*
X021974Y013685D01*
X022050Y013697D01*
X022123Y013721D01*
X022192Y013756D01*
X022254Y013801D01*
X022309Y013856D01*
X022354Y013918D01*
X022389Y013987D01*
X022406Y014040D01*
X022477Y013869D01*
X022629Y013717D01*
X022828Y013635D01*
X023042Y013635D01*
X023241Y013717D01*
X023393Y013869D01*
X023475Y014068D01*
X023475Y014282D01*
X023393Y014481D01*
X023241Y014633D01*
X023353Y014521D02*
X027260Y014521D01*
X027260Y014392D02*
X023429Y014392D01*
X023475Y014264D02*
X027276Y014264D01*
X027329Y014135D02*
X023475Y014135D01*
X023450Y014007D02*
X024097Y014007D01*
X023968Y013878D02*
X023397Y013878D01*
X023274Y013750D02*
X023840Y013750D01*
X023711Y013621D02*
X019242Y013621D01*
X019257Y013624D02*
X019342Y013651D01*
X019421Y013692D01*
X019493Y013744D01*
X019556Y013807D01*
X019608Y013879D01*
X019649Y013958D01*
X019676Y014043D01*
X019690Y014131D01*
X019690Y014140D01*
X019160Y014140D01*
X019160Y013610D01*
X019169Y013610D01*
X019257Y013624D01*
X019160Y013621D02*
X019090Y013621D01*
X019008Y013621D02*
X018296Y013621D01*
X018470Y013750D02*
X018751Y013750D01*
X018642Y013878D02*
X018568Y013878D01*
X018601Y014392D02*
X018602Y014392D01*
X018547Y014521D02*
X018678Y014521D01*
X018817Y014649D02*
X018420Y014649D01*
X019090Y014649D02*
X019160Y014649D01*
X019160Y014521D02*
X019090Y014521D01*
X019090Y014392D02*
X019160Y014392D01*
X019160Y014264D02*
X019090Y014264D01*
X019090Y014135D02*
X019160Y014135D01*
X019160Y014007D02*
X019090Y014007D01*
X019090Y013878D02*
X019160Y013878D01*
X019160Y013750D02*
X019090Y013750D01*
X019499Y013750D02*
X020596Y013750D01*
X020473Y013878D02*
X019608Y013878D01*
X019664Y014007D02*
X020420Y014007D01*
X020395Y014135D02*
X019690Y014135D01*
X019683Y014264D02*
X020395Y014264D01*
X020441Y014392D02*
X019648Y014392D01*
X019572Y014521D02*
X020517Y014521D01*
X020669Y014649D02*
X019433Y014649D01*
X019516Y015730D02*
X019334Y015730D01*
X019167Y015799D01*
X019039Y015927D01*
X018970Y016094D01*
X018970Y016756D01*
X019039Y016923D01*
X019167Y017051D01*
X019334Y017120D01*
X019516Y017120D01*
X019683Y017051D01*
X019811Y016923D01*
X019880Y016756D01*
X019880Y016094D01*
X019811Y015927D01*
X019683Y015799D01*
X019516Y015730D01*
X019689Y015806D02*
X020282Y015806D01*
X020307Y015796D02*
X020385Y015780D01*
X020410Y015780D01*
X020410Y016410D01*
X020440Y016410D01*
X020440Y016440D01*
X020830Y016440D01*
X020830Y016705D01*
X020814Y016783D01*
X020784Y016857D01*
X020740Y016923D01*
X020683Y016980D01*
X020617Y017024D01*
X020543Y017054D01*
X020465Y017070D01*
X020440Y017070D01*
X020440Y016440D01*
X020410Y016440D01*
X020410Y017070D01*
X020385Y017070D01*
X020307Y017054D01*
X020233Y017024D01*
X020167Y016980D01*
X020110Y016923D01*
X020066Y016857D01*
X020036Y016783D01*
X020020Y016705D01*
X020020Y016440D01*
X020410Y016440D01*
X020410Y016410D01*
X020020Y016410D01*
X020020Y016145D01*
X020036Y016067D01*
X020066Y015993D01*
X020110Y015927D01*
X020167Y015870D01*
X020233Y015826D01*
X020307Y015796D01*
X020410Y015806D02*
X020440Y015806D01*
X020440Y015780D02*
X020465Y015780D01*
X020543Y015796D01*
X020617Y015826D01*
X020683Y015870D01*
X020740Y015927D01*
X020784Y015993D01*
X020814Y016067D01*
X020830Y016145D01*
X020830Y016410D01*
X020440Y016410D01*
X020440Y015780D01*
X020568Y015806D02*
X021161Y015806D01*
X021167Y015799D02*
X021334Y015730D01*
X021516Y015730D01*
X021683Y015799D01*
X021811Y015927D01*
X021880Y016094D01*
X021880Y016756D01*
X021811Y016923D01*
X021683Y017051D01*
X021516Y017120D01*
X021334Y017120D01*
X021167Y017051D01*
X021039Y016923D01*
X020970Y016756D01*
X020970Y016094D01*
X021039Y015927D01*
X021167Y015799D01*
X021036Y015934D02*
X020745Y015934D01*
X020813Y016063D02*
X020983Y016063D01*
X020970Y016191D02*
X020830Y016191D01*
X020830Y016320D02*
X020970Y016320D01*
X020970Y016448D02*
X020830Y016448D01*
X020830Y016577D02*
X020970Y016577D01*
X020970Y016705D02*
X020830Y016705D01*
X020793Y016834D02*
X021003Y016834D01*
X021079Y016962D02*
X020700Y016962D01*
X020440Y016962D02*
X020410Y016962D01*
X020410Y016834D02*
X020440Y016834D01*
X020440Y016705D02*
X020410Y016705D01*
X020410Y016577D02*
X020440Y016577D01*
X020440Y016448D02*
X020410Y016448D01*
X020410Y016320D02*
X020440Y016320D01*
X020440Y016191D02*
X020410Y016191D01*
X020410Y016063D02*
X020440Y016063D01*
X020440Y015934D02*
X020410Y015934D01*
X020105Y015934D02*
X019814Y015934D01*
X019867Y016063D02*
X020037Y016063D01*
X020020Y016191D02*
X019880Y016191D01*
X019880Y016320D02*
X020020Y016320D01*
X020020Y016448D02*
X019880Y016448D01*
X019880Y016577D02*
X020020Y016577D01*
X020020Y016705D02*
X019880Y016705D01*
X019847Y016834D02*
X020057Y016834D01*
X020150Y016962D02*
X019771Y016962D01*
X019586Y017091D02*
X021264Y017091D01*
X021586Y017091D02*
X022264Y017091D01*
X022334Y017120D02*
X022167Y017051D01*
X022039Y016923D01*
X021970Y016756D01*
X021970Y016094D01*
X022039Y015927D01*
X022167Y015799D01*
X022334Y015730D01*
X022516Y015730D01*
X022683Y015799D01*
X022811Y015927D01*
X022880Y016094D01*
X022880Y016756D01*
X022811Y016923D01*
X022683Y017051D01*
X022516Y017120D01*
X022334Y017120D01*
X022586Y017091D02*
X023264Y017091D01*
X023334Y017120D02*
X023167Y017051D01*
X023039Y016923D01*
X022970Y016756D01*
X022970Y016094D01*
X023039Y015927D01*
X023167Y015799D01*
X023334Y015730D01*
X023516Y015730D01*
X023683Y015799D01*
X023811Y015927D01*
X023880Y016094D01*
X023880Y016756D01*
X023811Y016923D01*
X023683Y017051D01*
X023516Y017120D01*
X023334Y017120D01*
X023586Y017091D02*
X024264Y017091D01*
X024334Y017120D02*
X024167Y017051D01*
X024039Y016923D01*
X023970Y016756D01*
X023970Y016094D01*
X024039Y015927D01*
X024167Y015799D01*
X024334Y015730D01*
X024516Y015730D01*
X024683Y015799D01*
X024811Y015927D01*
X024880Y016094D01*
X024880Y016756D01*
X024811Y016923D01*
X024683Y017051D01*
X024516Y017120D01*
X024334Y017120D01*
X024586Y017091D02*
X025264Y017091D01*
X025334Y017120D02*
X025167Y017051D01*
X025039Y016923D01*
X024970Y016756D01*
X024970Y016094D01*
X025039Y015927D01*
X025167Y015799D01*
X025334Y015730D01*
X025516Y015730D01*
X025683Y015799D01*
X025811Y015927D01*
X025880Y016094D01*
X025880Y016756D01*
X025811Y016923D01*
X025683Y017051D01*
X025516Y017120D01*
X025334Y017120D01*
X025586Y017091D02*
X026264Y017091D01*
X026334Y017120D02*
X026167Y017051D01*
X026039Y016923D01*
X025970Y016756D01*
X025970Y016094D01*
X026039Y015927D01*
X026167Y015799D01*
X026334Y015730D01*
X026516Y015730D01*
X026683Y015799D01*
X026811Y015927D01*
X026880Y016094D01*
X026880Y016756D01*
X026811Y016923D01*
X026683Y017051D01*
X026516Y017120D01*
X026334Y017120D01*
X026586Y017091D02*
X026999Y017091D01*
X027127Y016962D02*
X026771Y016962D01*
X026847Y016834D02*
X027256Y016834D01*
X027260Y016705D02*
X026880Y016705D01*
X026880Y016577D02*
X027260Y016577D01*
X027282Y016448D02*
X026880Y016448D01*
X026880Y016320D02*
X027336Y016320D01*
X027439Y016191D02*
X026880Y016191D01*
X026867Y016063D02*
X027567Y016063D01*
X027415Y015934D02*
X026814Y015934D01*
X026689Y015806D02*
X027326Y015806D01*
X027272Y015677D02*
X015720Y015677D01*
X015720Y015806D02*
X016161Y015806D01*
X016167Y015799D02*
X016334Y015730D01*
X016516Y015730D01*
X016683Y015799D01*
X016811Y015927D01*
X016880Y016094D01*
X016880Y016756D01*
X016811Y016923D01*
X016683Y017051D01*
X016516Y017120D01*
X016334Y017120D01*
X016167Y017051D01*
X016039Y016923D01*
X015970Y016756D01*
X015970Y016094D01*
X016039Y015927D01*
X016167Y015799D01*
X016036Y015934D02*
X015814Y015934D01*
X015867Y016063D02*
X015983Y016063D01*
X015970Y016191D02*
X015880Y016191D01*
X015880Y016320D02*
X015970Y016320D01*
X015970Y016448D02*
X015880Y016448D01*
X015880Y016577D02*
X015970Y016577D01*
X015970Y016705D02*
X015880Y016705D01*
X015847Y016834D02*
X016003Y016834D01*
X016079Y016962D02*
X015771Y016962D01*
X015586Y017091D02*
X016264Y017091D01*
X016586Y017091D02*
X017135Y017091D01*
X017150Y017219D02*
X014541Y017219D01*
X014412Y017348D02*
X017238Y017348D01*
X017366Y017476D02*
X014284Y017476D01*
X014676Y017091D02*
X015264Y017091D01*
X015079Y016962D02*
X014771Y016962D01*
X014847Y016834D02*
X015003Y016834D01*
X014970Y016705D02*
X014880Y016705D01*
X014880Y016577D02*
X014970Y016577D01*
X014970Y016448D02*
X014880Y016448D01*
X014880Y016320D02*
X014970Y016320D01*
X014970Y016191D02*
X014880Y016191D01*
X014867Y016063D02*
X014983Y016063D01*
X015036Y015934D02*
X014814Y015934D01*
X014689Y015806D02*
X015130Y015806D01*
X015588Y015420D02*
X027260Y015420D01*
X027260Y015549D02*
X015692Y015549D01*
X015459Y015292D02*
X027306Y015292D01*
X027367Y015163D02*
X015315Y015163D01*
X015780Y014649D02*
X013570Y014649D01*
X013697Y014521D02*
X015653Y014521D01*
X015599Y014392D02*
X013751Y014392D01*
X013790Y014264D02*
X015560Y014264D01*
X015560Y014135D02*
X013790Y014135D01*
X013771Y014007D02*
X015579Y014007D01*
X015632Y013878D02*
X013718Y013878D01*
X013620Y013750D02*
X015730Y013750D01*
X015904Y013621D02*
X013446Y013621D01*
X013008Y013107D02*
X023197Y013107D01*
X023069Y012979D02*
X014678Y012979D01*
X015182Y012850D02*
X022940Y012850D01*
X022812Y012722D02*
X016544Y012722D01*
X016679Y012593D02*
X021165Y012593D01*
X021005Y012465D02*
X016708Y012465D01*
X016685Y012336D02*
X020876Y012336D01*
X020748Y012208D02*
X016663Y012208D01*
X016632Y012079D02*
X020619Y012079D01*
X020491Y011951D02*
X019386Y011951D01*
X019376Y011961D02*
X019161Y012050D01*
X018929Y012050D01*
X018714Y011961D01*
X018549Y011796D01*
X018460Y011581D01*
X018460Y011349D01*
X018549Y011134D01*
X018714Y010969D01*
X018929Y010880D01*
X019161Y010880D01*
X019376Y010969D01*
X019541Y011134D01*
X019630Y011349D01*
X019630Y011581D01*
X019541Y011796D01*
X019376Y011961D01*
X019515Y011822D02*
X020435Y011822D01*
X020435Y011694D02*
X019583Y011694D01*
X019630Y011565D02*
X020435Y011565D01*
X020435Y011437D02*
X019630Y011437D01*
X019613Y011308D02*
X020435Y011308D01*
X020435Y011180D02*
X019560Y011180D01*
X019459Y011051D02*
X020435Y011051D01*
X020435Y010923D02*
X019265Y010923D01*
X018825Y010923D02*
X017577Y010923D01*
X017569Y010794D02*
X020435Y010794D01*
X020435Y010666D02*
X017483Y010666D01*
X017521Y011051D02*
X018631Y011051D01*
X018530Y011180D02*
X017355Y011180D01*
X017335Y011308D02*
X018477Y011308D01*
X018460Y011437D02*
X017221Y011437D01*
X017244Y011565D02*
X018460Y011565D01*
X018507Y011694D02*
X017263Y011694D01*
X017219Y011822D02*
X018575Y011822D01*
X018704Y011951D02*
X017005Y011951D01*
X016967Y011951D02*
X016528Y011951D01*
X016593Y011822D02*
X016723Y011822D01*
X016139Y012593D02*
X015539Y012593D01*
X015380Y012722D02*
X016322Y012722D01*
X016446Y013621D02*
X017754Y013621D01*
X017580Y013750D02*
X016620Y013750D01*
X016718Y013878D02*
X017482Y013878D01*
X017429Y014007D02*
X016771Y014007D01*
X016790Y014135D02*
X017410Y014135D01*
X017410Y014264D02*
X016790Y014264D01*
X016751Y014392D02*
X017449Y014392D01*
X017503Y014521D02*
X016697Y014521D01*
X016570Y014649D02*
X017630Y014649D01*
X018167Y015799D02*
X018334Y015730D01*
X018516Y015730D01*
X018683Y015799D01*
X018811Y015927D01*
X018880Y016094D01*
X018880Y016756D01*
X018811Y016923D01*
X018683Y017051D01*
X018516Y017120D01*
X018334Y017120D01*
X018167Y017051D01*
X018039Y016923D01*
X017970Y016756D01*
X017970Y016094D01*
X018039Y015927D01*
X018167Y015799D01*
X018161Y015806D02*
X017689Y015806D01*
X017814Y015934D02*
X018036Y015934D01*
X017983Y016063D02*
X017867Y016063D01*
X017880Y016191D02*
X017970Y016191D01*
X017970Y016320D02*
X017880Y016320D01*
X017880Y016448D02*
X017970Y016448D01*
X017970Y016577D02*
X017880Y016577D01*
X017880Y016705D02*
X017970Y016705D01*
X018003Y016834D02*
X017847Y016834D01*
X017771Y016962D02*
X018079Y016962D01*
X018264Y017091D02*
X017801Y017091D01*
X017930Y017219D02*
X026870Y017219D01*
X027305Y017605D02*
X028885Y017605D01*
X029013Y017476D02*
X027434Y017476D01*
X027562Y017348D02*
X029142Y017348D01*
X029270Y017219D02*
X028047Y017219D01*
X028279Y017091D02*
X029399Y017091D01*
X029527Y016962D02*
X028401Y016962D01*
X028454Y016834D02*
X029656Y016834D01*
X029784Y016705D02*
X028490Y016705D01*
X028490Y016577D02*
X029913Y016577D01*
X030041Y016448D02*
X028468Y016448D01*
X028414Y016320D02*
X030160Y016320D01*
X030031Y016191D02*
X028311Y016191D01*
X028183Y016063D02*
X029903Y016063D01*
X029774Y015934D02*
X028335Y015934D01*
X028424Y015806D02*
X029646Y015806D01*
X029524Y015677D02*
X028478Y015677D01*
X028490Y015549D02*
X029485Y015549D01*
X029485Y015420D02*
X028490Y015420D01*
X028444Y015292D02*
X029485Y015292D01*
X029485Y015163D02*
X028383Y015163D01*
X028255Y015035D02*
X029485Y015035D01*
X029485Y014906D02*
X028263Y014906D01*
X028392Y014778D02*
X029485Y014778D01*
X029485Y014649D02*
X028448Y014649D01*
X028490Y014521D02*
X029485Y014521D01*
X029482Y014392D02*
X028490Y014392D01*
X028474Y014264D02*
X029354Y014264D01*
X029225Y014135D02*
X028421Y014135D01*
X027487Y014906D02*
X004146Y014906D01*
X004040Y014778D02*
X010474Y014778D01*
X010230Y014649D02*
X003937Y014649D01*
X003872Y014521D02*
X005551Y014521D01*
X005294Y014392D02*
X003807Y014392D01*
X003742Y014264D02*
X005125Y014264D01*
X004997Y014135D02*
X003688Y014135D01*
X003655Y014007D02*
X004908Y014007D01*
X004834Y013878D02*
X003623Y013878D01*
X003591Y013750D02*
X004779Y013750D01*
X004745Y013621D02*
X003566Y013621D01*
X003563Y013493D02*
X004710Y013493D01*
X004710Y013364D02*
X003560Y013364D01*
X003557Y013236D02*
X004710Y013236D01*
X004724Y013107D02*
X003555Y013107D01*
X003581Y012979D02*
X004758Y012979D01*
X004793Y012850D02*
X003607Y012850D01*
X003633Y012722D02*
X004862Y012722D01*
X004937Y012593D02*
X003659Y012593D01*
X003714Y012465D02*
X005046Y012465D01*
X005175Y012336D02*
X003772Y012336D01*
X003829Y012208D02*
X005380Y012208D01*
X004863Y011180D02*
X007113Y011180D01*
X006813Y011051D02*
X005122Y011051D01*
X005602Y010923D02*
X006287Y010923D01*
X007240Y013493D02*
X023583Y013493D01*
X022596Y013750D02*
X022180Y013750D01*
X022325Y013878D02*
X022473Y013878D01*
X022420Y014007D02*
X022396Y014007D01*
X022374Y014392D02*
X022441Y014392D01*
X022517Y014521D02*
X022282Y014521D01*
X022060Y014649D02*
X022669Y014649D01*
X021953Y014649D02*
X021917Y014649D01*
X021810Y014649D02*
X021201Y014649D01*
X021353Y014521D02*
X021588Y014521D01*
X021496Y014392D02*
X021429Y014392D01*
X021450Y014007D02*
X021474Y014007D01*
X021545Y013878D02*
X021397Y013878D01*
X021274Y013750D02*
X021690Y013750D01*
X021917Y013750D02*
X021953Y013750D01*
X021953Y013878D02*
X021917Y013878D01*
X021917Y014007D02*
X021953Y014007D01*
X021953Y014135D02*
X021917Y014135D01*
X021917Y014264D02*
X021953Y014264D01*
X021953Y014392D02*
X021917Y014392D01*
X021917Y014521D02*
X021953Y014521D01*
X022161Y015806D02*
X021689Y015806D01*
X021814Y015934D02*
X022036Y015934D01*
X021983Y016063D02*
X021867Y016063D01*
X021880Y016191D02*
X021970Y016191D01*
X021970Y016320D02*
X021880Y016320D01*
X021880Y016448D02*
X021970Y016448D01*
X021970Y016577D02*
X021880Y016577D01*
X021880Y016705D02*
X021970Y016705D01*
X022003Y016834D02*
X021847Y016834D01*
X021771Y016962D02*
X022079Y016962D01*
X022771Y016962D02*
X023079Y016962D01*
X023003Y016834D02*
X022847Y016834D01*
X022880Y016705D02*
X022970Y016705D01*
X022970Y016577D02*
X022880Y016577D01*
X022880Y016448D02*
X022970Y016448D01*
X022970Y016320D02*
X022880Y016320D01*
X022880Y016191D02*
X022970Y016191D01*
X022983Y016063D02*
X022867Y016063D01*
X022814Y015934D02*
X023036Y015934D01*
X023161Y015806D02*
X022689Y015806D01*
X023689Y015806D02*
X024161Y015806D01*
X024036Y015934D02*
X023814Y015934D01*
X023867Y016063D02*
X023983Y016063D01*
X023970Y016191D02*
X023880Y016191D01*
X023880Y016320D02*
X023970Y016320D01*
X023970Y016448D02*
X023880Y016448D01*
X023880Y016577D02*
X023970Y016577D01*
X023970Y016705D02*
X023880Y016705D01*
X023847Y016834D02*
X024003Y016834D01*
X024079Y016962D02*
X023771Y016962D01*
X024771Y016962D02*
X025079Y016962D01*
X025003Y016834D02*
X024847Y016834D01*
X024880Y016705D02*
X024970Y016705D01*
X024970Y016577D02*
X024880Y016577D01*
X024880Y016448D02*
X024970Y016448D01*
X024970Y016320D02*
X024880Y016320D01*
X024880Y016191D02*
X024970Y016191D01*
X024983Y016063D02*
X024867Y016063D01*
X024814Y015934D02*
X025036Y015934D01*
X025161Y015806D02*
X024689Y015806D01*
X025689Y015806D02*
X026161Y015806D01*
X026036Y015934D02*
X025814Y015934D01*
X025867Y016063D02*
X025983Y016063D01*
X025970Y016191D02*
X025880Y016191D01*
X025880Y016320D02*
X025970Y016320D01*
X025970Y016448D02*
X025880Y016448D01*
X025880Y016577D02*
X025970Y016577D01*
X025970Y016705D02*
X025880Y016705D01*
X025847Y016834D02*
X026003Y016834D01*
X026079Y016962D02*
X025771Y016962D01*
X026990Y017862D02*
X028628Y017862D01*
X028517Y017990D02*
X010088Y017990D01*
X010088Y018119D02*
X028485Y018119D01*
X028485Y018247D02*
X010059Y018247D01*
X010208Y018376D02*
X028485Y018376D01*
X028485Y018504D02*
X010432Y018504D01*
X010382Y018633D02*
X010507Y018633D01*
X010531Y018633D02*
X028485Y018633D01*
X028485Y018761D02*
X026592Y018761D01*
X026516Y018730D02*
X026683Y018799D01*
X026811Y018927D01*
X026880Y019094D01*
X026880Y019756D01*
X026811Y019923D01*
X026683Y020051D01*
X026516Y020120D01*
X026334Y020120D01*
X026167Y020051D01*
X026039Y019923D01*
X025970Y019756D01*
X025970Y019094D01*
X026039Y018927D01*
X026167Y018799D01*
X026334Y018730D01*
X026516Y018730D01*
X026258Y018761D02*
X025592Y018761D01*
X025516Y018730D02*
X025683Y018799D01*
X025811Y018927D01*
X025880Y019094D01*
X025880Y019756D01*
X025811Y019923D01*
X025683Y020051D01*
X025516Y020120D01*
X025334Y020120D01*
X025167Y020051D01*
X025039Y019923D01*
X024970Y019756D01*
X024970Y019094D01*
X025039Y018927D01*
X025167Y018799D01*
X025334Y018730D01*
X025516Y018730D01*
X025258Y018761D02*
X024592Y018761D01*
X024516Y018730D02*
X024683Y018799D01*
X024811Y018927D01*
X024880Y019094D01*
X024880Y019756D01*
X024811Y019923D01*
X024683Y020051D01*
X024655Y020062D01*
X024650Y020075D01*
X021585Y023140D01*
X021640Y023140D01*
X021640Y023640D01*
X021710Y023640D01*
X021710Y023710D01*
X022210Y023710D01*
X022210Y023897D01*
X021967Y024140D01*
X022260Y024433D01*
X022260Y024917D01*
X021917Y025260D01*
X021433Y025260D01*
X021175Y025002D01*
X020917Y025260D01*
X020433Y025260D01*
X020175Y025002D01*
X019917Y025260D01*
X019433Y025260D01*
X019090Y024917D01*
X019090Y024433D01*
X019348Y024175D01*
X019090Y023917D01*
X019090Y023433D01*
X019433Y023090D01*
X019917Y023090D01*
X020175Y023348D01*
X020433Y023090D01*
X020885Y023090D01*
X024046Y019929D01*
X024039Y019923D01*
X023970Y019756D01*
X023970Y019094D01*
X024039Y018927D01*
X024167Y018799D01*
X024334Y018730D01*
X024516Y018730D01*
X024258Y018761D02*
X023592Y018761D01*
X023516Y018730D02*
X023683Y018799D01*
X023811Y018927D01*
X023880Y019094D01*
X023880Y019756D01*
X023811Y019923D01*
X023683Y020051D01*
X023516Y020120D01*
X023334Y020120D01*
X023167Y020051D01*
X023039Y019923D01*
X022970Y019756D01*
X022970Y019094D01*
X023039Y018927D01*
X023167Y018799D01*
X023334Y018730D01*
X023516Y018730D01*
X023258Y018761D02*
X022592Y018761D01*
X022516Y018730D02*
X022683Y018799D01*
X022811Y018927D01*
X022880Y019094D01*
X022880Y019756D01*
X022811Y019923D01*
X022683Y020051D01*
X022516Y020120D01*
X022334Y020120D01*
X022167Y020051D01*
X022039Y019923D01*
X021970Y019756D01*
X021970Y019094D01*
X022039Y018927D01*
X022167Y018799D01*
X022334Y018730D01*
X022516Y018730D01*
X022258Y018761D02*
X021592Y018761D01*
X021516Y018730D02*
X021683Y018799D01*
X021811Y018927D01*
X021880Y019094D01*
X021880Y019756D01*
X021811Y019923D01*
X021683Y020051D01*
X021516Y020120D01*
X021334Y020120D01*
X021167Y020051D01*
X021039Y019923D01*
X020970Y019756D01*
X020970Y019094D01*
X021039Y018927D01*
X021167Y018799D01*
X021334Y018730D01*
X021516Y018730D01*
X021258Y018761D02*
X020592Y018761D01*
X020516Y018730D02*
X020683Y018799D01*
X020811Y018927D01*
X020880Y019094D01*
X020880Y019756D01*
X020811Y019923D01*
X020683Y020051D01*
X020516Y020120D01*
X020334Y020120D01*
X020167Y020051D01*
X020039Y019923D01*
X019970Y019756D01*
X019970Y019094D01*
X020039Y018927D01*
X020167Y018799D01*
X020334Y018730D01*
X020516Y018730D01*
X020258Y018761D02*
X018592Y018761D01*
X018516Y018730D02*
X018683Y018799D01*
X018811Y018927D01*
X018880Y019094D01*
X018880Y019756D01*
X018811Y019923D01*
X018683Y020051D01*
X018516Y020120D01*
X018334Y020120D01*
X018167Y020051D01*
X018039Y019923D01*
X017970Y019756D01*
X017970Y019094D01*
X018039Y018927D01*
X018167Y018799D01*
X018334Y018730D01*
X018516Y018730D01*
X018258Y018761D02*
X017592Y018761D01*
X017516Y018730D02*
X017683Y018799D01*
X017811Y018927D01*
X017880Y019094D01*
X017880Y019756D01*
X017811Y019923D01*
X017683Y020051D01*
X017516Y020120D01*
X017334Y020120D01*
X017167Y020051D01*
X017039Y019923D01*
X016970Y019756D01*
X016970Y019094D01*
X017039Y018927D01*
X017167Y018799D01*
X017334Y018730D01*
X017516Y018730D01*
X017258Y018761D02*
X016592Y018761D01*
X016516Y018730D02*
X016683Y018799D01*
X016811Y018927D01*
X016880Y019094D01*
X016880Y019756D01*
X016811Y019923D01*
X016683Y020051D01*
X016516Y020120D01*
X016334Y020120D01*
X016167Y020051D01*
X016039Y019923D01*
X015970Y019756D01*
X015970Y019094D01*
X016039Y018927D01*
X016167Y018799D01*
X016334Y018730D01*
X016516Y018730D01*
X016258Y018761D02*
X015592Y018761D01*
X015516Y018730D02*
X015683Y018799D01*
X015811Y018927D01*
X015880Y019094D01*
X015880Y019756D01*
X015811Y019923D01*
X015683Y020051D01*
X015516Y020120D01*
X015334Y020120D01*
X015167Y020051D01*
X015039Y019923D01*
X014970Y019756D01*
X014970Y019094D01*
X015039Y018927D01*
X015167Y018799D01*
X015334Y018730D01*
X015516Y018730D01*
X015258Y018761D02*
X014592Y018761D01*
X014516Y018730D02*
X014683Y018799D01*
X014811Y018927D01*
X014880Y019094D01*
X014880Y019756D01*
X014811Y019923D01*
X014683Y020051D01*
X014516Y020120D01*
X014334Y020120D01*
X014167Y020051D01*
X014039Y019923D01*
X013970Y019756D01*
X013970Y019094D01*
X014039Y018927D01*
X014167Y018799D01*
X014334Y018730D01*
X014516Y018730D01*
X014258Y018761D02*
X013592Y018761D01*
X013516Y018730D02*
X013683Y018799D01*
X013811Y018927D01*
X013880Y019094D01*
X013880Y019756D01*
X013811Y019923D01*
X013683Y020051D01*
X013516Y020120D01*
X013334Y020120D01*
X013167Y020051D01*
X013039Y019923D01*
X012970Y019756D01*
X012970Y019094D01*
X013039Y018927D01*
X013167Y018799D01*
X013334Y018730D01*
X013516Y018730D01*
X013258Y018761D02*
X010582Y018761D01*
X010597Y018890D02*
X013077Y018890D01*
X013001Y019018D02*
X010583Y019018D01*
X010532Y019147D02*
X012970Y019147D01*
X012970Y019275D02*
X010919Y019275D01*
X011027Y019404D02*
X012970Y019404D01*
X012970Y019532D02*
X011123Y019532D01*
X011153Y019661D02*
X012970Y019661D01*
X012984Y019789D02*
X011152Y019789D01*
X011119Y019918D02*
X013037Y019918D01*
X013163Y020046D02*
X011045Y020046D01*
X010883Y020046D02*
X010799Y020046D01*
X010797Y019918D02*
X010712Y019918D01*
X010710Y019789D02*
X010625Y019789D01*
X010623Y019661D02*
X010539Y019661D01*
X010646Y019661D02*
X010771Y019661D01*
X010837Y019532D02*
X010962Y019532D01*
X010537Y019532D02*
X010452Y019532D01*
X010450Y019404D02*
X010365Y019404D01*
X010363Y019275D02*
X010279Y019275D01*
X010351Y019257D02*
X010351Y019257D01*
X010277Y019147D02*
X010192Y019147D01*
X010190Y019018D02*
X010105Y019018D01*
X010103Y018890D02*
X010126Y018890D01*
X010191Y018761D02*
X010317Y018761D01*
X010053Y017862D02*
X017810Y017862D01*
X017623Y017733D02*
X010000Y017733D01*
X009873Y017605D02*
X017495Y017605D01*
X017079Y016962D02*
X016771Y016962D01*
X016847Y016834D02*
X017003Y016834D01*
X016970Y016705D02*
X016880Y016705D01*
X016880Y016577D02*
X016970Y016577D01*
X016970Y016448D02*
X016880Y016448D01*
X016880Y016320D02*
X016970Y016320D01*
X016970Y016191D02*
X016880Y016191D01*
X016867Y016063D02*
X016983Y016063D01*
X017036Y015934D02*
X016814Y015934D01*
X016689Y015806D02*
X017161Y015806D01*
X018689Y015806D02*
X019161Y015806D01*
X019036Y015934D02*
X018814Y015934D01*
X018867Y016063D02*
X018983Y016063D01*
X018970Y016191D02*
X018880Y016191D01*
X018880Y016320D02*
X018970Y016320D01*
X018970Y016448D02*
X018880Y016448D01*
X018880Y016577D02*
X018970Y016577D01*
X018970Y016705D02*
X018880Y016705D01*
X018847Y016834D02*
X019003Y016834D01*
X019079Y016962D02*
X018771Y016962D01*
X018586Y017091D02*
X019264Y017091D01*
X019385Y018780D02*
X019307Y018796D01*
X019233Y018826D01*
X019167Y018870D01*
X019110Y018927D01*
X019066Y018993D01*
X019036Y019067D01*
X019020Y019145D01*
X019020Y019410D01*
X019410Y019410D01*
X019440Y019410D01*
X019440Y019440D01*
X019830Y019440D01*
X019830Y019705D01*
X019814Y019783D01*
X019784Y019857D01*
X019740Y019923D01*
X019683Y019980D01*
X019617Y020024D01*
X019543Y020054D01*
X019465Y020070D01*
X019440Y020070D01*
X019440Y019440D01*
X019410Y019440D01*
X019410Y020070D01*
X019385Y020070D01*
X019307Y020054D01*
X019233Y020024D01*
X019167Y019980D01*
X019110Y019923D01*
X019066Y019857D01*
X019036Y019783D01*
X019020Y019705D01*
X019020Y019440D01*
X019410Y019440D01*
X019410Y019410D01*
X019410Y018780D01*
X019385Y018780D01*
X019440Y018780D02*
X019465Y018780D01*
X019543Y018796D01*
X019617Y018826D01*
X019683Y018870D01*
X019740Y018927D01*
X019784Y018993D01*
X019814Y019067D01*
X019830Y019145D01*
X019830Y019410D01*
X019440Y019410D01*
X019440Y018780D01*
X019440Y018890D02*
X019410Y018890D01*
X019410Y019018D02*
X019440Y019018D01*
X019440Y019147D02*
X019410Y019147D01*
X019410Y019275D02*
X019440Y019275D01*
X019440Y019404D02*
X019410Y019404D01*
X019410Y019532D02*
X019440Y019532D01*
X019440Y019661D02*
X019410Y019661D01*
X019410Y019789D02*
X019440Y019789D01*
X019440Y019918D02*
X019410Y019918D01*
X019410Y020046D02*
X019440Y020046D01*
X019562Y020046D02*
X020163Y020046D01*
X020037Y019918D02*
X019743Y019918D01*
X019812Y019789D02*
X019984Y019789D01*
X019970Y019661D02*
X019830Y019661D01*
X019830Y019532D02*
X019970Y019532D01*
X019970Y019404D02*
X019830Y019404D01*
X019830Y019275D02*
X019970Y019275D01*
X019970Y019147D02*
X019830Y019147D01*
X019794Y019018D02*
X020001Y019018D01*
X020077Y018890D02*
X019703Y018890D01*
X019147Y018890D02*
X018773Y018890D01*
X018849Y019018D02*
X019056Y019018D01*
X019020Y019147D02*
X018880Y019147D01*
X018880Y019275D02*
X019020Y019275D01*
X019020Y019404D02*
X018880Y019404D01*
X018880Y019532D02*
X019020Y019532D01*
X019020Y019661D02*
X018880Y019661D01*
X018866Y019789D02*
X019038Y019789D01*
X019107Y019918D02*
X018813Y019918D01*
X018687Y020046D02*
X019288Y020046D01*
X018163Y020046D02*
X017687Y020046D01*
X017813Y019918D02*
X018037Y019918D01*
X017984Y019789D02*
X017866Y019789D01*
X017880Y019661D02*
X017970Y019661D01*
X017970Y019532D02*
X017880Y019532D01*
X017880Y019404D02*
X017970Y019404D01*
X017970Y019275D02*
X017880Y019275D01*
X017880Y019147D02*
X017970Y019147D01*
X018001Y019018D02*
X017849Y019018D01*
X017773Y018890D02*
X018077Y018890D01*
X017077Y018890D02*
X016773Y018890D01*
X016849Y019018D02*
X017001Y019018D01*
X016970Y019147D02*
X016880Y019147D01*
X016880Y019275D02*
X016970Y019275D01*
X016970Y019404D02*
X016880Y019404D01*
X016880Y019532D02*
X016970Y019532D01*
X016970Y019661D02*
X016880Y019661D01*
X016866Y019789D02*
X016984Y019789D01*
X017037Y019918D02*
X016813Y019918D01*
X016687Y020046D02*
X017163Y020046D01*
X016163Y020046D02*
X015687Y020046D01*
X015813Y019918D02*
X016037Y019918D01*
X015984Y019789D02*
X015866Y019789D01*
X015880Y019661D02*
X015970Y019661D01*
X015970Y019532D02*
X015880Y019532D01*
X015880Y019404D02*
X015970Y019404D01*
X015970Y019275D02*
X015880Y019275D01*
X015880Y019147D02*
X015970Y019147D01*
X016001Y019018D02*
X015849Y019018D01*
X015773Y018890D02*
X016077Y018890D01*
X015077Y018890D02*
X014773Y018890D01*
X014849Y019018D02*
X015001Y019018D01*
X014970Y019147D02*
X014880Y019147D01*
X014880Y019275D02*
X014970Y019275D01*
X014970Y019404D02*
X014880Y019404D01*
X014880Y019532D02*
X014970Y019532D01*
X014970Y019661D02*
X014880Y019661D01*
X014866Y019789D02*
X014984Y019789D01*
X015037Y019918D02*
X014813Y019918D01*
X014687Y020046D02*
X015163Y020046D01*
X014163Y020046D02*
X013687Y020046D01*
X013813Y019918D02*
X014037Y019918D01*
X013984Y019789D02*
X013866Y019789D01*
X013880Y019661D02*
X013970Y019661D01*
X013970Y019532D02*
X013880Y019532D01*
X013880Y019404D02*
X013970Y019404D01*
X013970Y019275D02*
X013880Y019275D01*
X013880Y019147D02*
X013970Y019147D01*
X014001Y019018D02*
X013849Y019018D01*
X013773Y018890D02*
X014077Y018890D01*
X014003Y016834D02*
X013847Y016834D01*
X013880Y016705D02*
X013970Y016705D01*
X013970Y016577D02*
X013880Y016577D01*
X013880Y016448D02*
X013970Y016448D01*
X013970Y016320D02*
X013880Y016320D01*
X013880Y016191D02*
X013970Y016191D01*
X013983Y016063D02*
X013867Y016063D01*
X013814Y015934D02*
X014036Y015934D01*
X014161Y015806D02*
X013689Y015806D01*
X013161Y015806D02*
X012454Y015806D01*
X012326Y015934D02*
X013036Y015934D01*
X012983Y016063D02*
X012197Y016063D01*
X012069Y016191D02*
X012970Y016191D01*
X012970Y016320D02*
X011940Y016320D01*
X011812Y016448D02*
X012970Y016448D01*
X012970Y016577D02*
X011683Y016577D01*
X011377Y016063D02*
X008870Y016063D01*
X008742Y015934D02*
X011505Y015934D01*
X011634Y015806D02*
X008363Y015806D01*
X008410Y015677D02*
X011762Y015677D01*
X011891Y015549D02*
X008410Y015549D01*
X008394Y015420D02*
X012019Y015420D01*
X012148Y015292D02*
X008341Y015292D01*
X008241Y015163D02*
X012285Y015163D01*
X012120Y014649D02*
X012780Y014649D01*
X012653Y014521D02*
X012247Y014521D01*
X012301Y014392D02*
X012599Y014392D01*
X012560Y014264D02*
X012340Y014264D01*
X012340Y014135D02*
X012560Y014135D01*
X012579Y014007D02*
X012321Y014007D01*
X012268Y013878D02*
X012632Y013878D01*
X012730Y013750D02*
X012170Y013750D01*
X011996Y013621D02*
X012904Y013621D01*
X010354Y013621D02*
X007205Y013621D01*
X007171Y013750D02*
X010180Y013750D01*
X010082Y013878D02*
X007116Y013878D01*
X007042Y014007D02*
X010029Y014007D01*
X010010Y014135D02*
X006953Y014135D01*
X006825Y014264D02*
X010010Y014264D01*
X010049Y014392D02*
X006656Y014392D01*
X006399Y014521D02*
X010103Y014521D01*
X008050Y015035D02*
X027495Y015035D01*
X027691Y017219D02*
X027703Y017219D01*
X027177Y017733D02*
X028756Y017733D01*
X029756Y018504D02*
X030996Y018504D01*
X031083Y018376D02*
X029884Y018376D01*
X030013Y018247D02*
X031171Y018247D01*
X031259Y018119D02*
X030141Y018119D01*
X030270Y017990D02*
X031347Y017990D01*
X031333Y017865D02*
X030395Y017865D01*
X029665Y018595D01*
X029665Y022855D01*
X031717Y024907D01*
X031717Y024872D01*
X031763Y024761D01*
X031660Y024718D01*
X031530Y024588D01*
X031460Y024418D01*
X031460Y024234D01*
X031500Y024137D01*
X031383Y024137D01*
X031213Y024067D01*
X031083Y023937D01*
X031013Y023767D01*
X031013Y023583D01*
X031052Y023486D01*
X030936Y023486D01*
X030766Y023416D01*
X030635Y023286D01*
X030565Y023116D01*
X030565Y023017D01*
X030426Y023017D01*
X030179Y022914D01*
X029990Y022725D01*
X029888Y022478D01*
X029888Y022210D01*
X029990Y021963D01*
X030179Y021774D01*
X030426Y021672D01*
X030694Y021672D01*
X030941Y021774D01*
X030962Y021795D01*
X030372Y020932D01*
X030342Y020889D01*
X030234Y020731D01*
X030121Y020366D01*
X030121Y019984D01*
X030121Y019984D01*
X030234Y019619D01*
X030234Y019619D01*
X030312Y019504D01*
X030331Y019478D01*
X030342Y019461D01*
X030346Y019454D01*
X031514Y017747D01*
X031439Y017821D01*
X031333Y017865D01*
X031340Y017862D02*
X031435Y017862D01*
X030908Y018633D02*
X029665Y018633D01*
X029665Y018761D02*
X030820Y018761D01*
X030732Y018890D02*
X029665Y018890D01*
X029665Y019018D02*
X030644Y019018D01*
X030557Y019147D02*
X029665Y019147D01*
X029665Y019275D02*
X030469Y019275D01*
X030381Y019404D02*
X029665Y019404D01*
X029665Y019532D02*
X030293Y019532D01*
X030312Y019504D02*
X030312Y019504D01*
X030221Y019661D02*
X029665Y019661D01*
X029665Y019789D02*
X030181Y019789D01*
X030142Y019918D02*
X029665Y019918D01*
X029665Y020046D02*
X030121Y020046D01*
X030121Y020175D02*
X029665Y020175D01*
X029665Y020304D02*
X030121Y020304D01*
X030121Y020366D02*
X030121Y020366D01*
X030142Y020432D02*
X029665Y020432D01*
X029665Y020561D02*
X030182Y020561D01*
X030221Y020689D02*
X029665Y020689D01*
X029665Y020818D02*
X030293Y020818D01*
X030234Y020731D02*
X030234Y020731D01*
X030372Y020932D02*
X030372Y020932D01*
X030381Y020946D02*
X029665Y020946D01*
X029665Y021075D02*
X030469Y021075D01*
X030557Y021203D02*
X029665Y021203D01*
X029665Y021332D02*
X030645Y021332D01*
X030733Y021460D02*
X029665Y021460D01*
X029665Y021589D02*
X030821Y021589D01*
X030804Y021717D02*
X030909Y021717D01*
X030317Y021717D02*
X029665Y021717D01*
X029665Y021846D02*
X030108Y021846D01*
X029986Y021974D02*
X029665Y021974D01*
X029665Y022103D02*
X029932Y022103D01*
X029888Y022231D02*
X029665Y022231D01*
X029665Y022360D02*
X029888Y022360D01*
X029892Y022488D02*
X029665Y022488D01*
X029665Y022617D02*
X029945Y022617D01*
X030010Y022745D02*
X029665Y022745D01*
X029684Y022874D02*
X030139Y022874D01*
X030391Y023002D02*
X029812Y023002D01*
X029941Y023131D02*
X030571Y023131D01*
X030624Y023259D02*
X030069Y023259D01*
X030198Y023388D02*
X030737Y023388D01*
X031040Y023516D02*
X030326Y023516D01*
X030455Y023645D02*
X031013Y023645D01*
X031015Y023773D02*
X030583Y023773D01*
X030712Y023902D02*
X031068Y023902D01*
X031176Y024030D02*
X030840Y024030D01*
X030969Y024159D02*
X031491Y024159D01*
X031460Y024287D02*
X031097Y024287D01*
X031226Y024416D02*
X031460Y024416D01*
X031512Y024544D02*
X031354Y024544D01*
X031483Y024673D02*
X031615Y024673D01*
X031611Y024801D02*
X031747Y024801D01*
X030790Y025701D02*
X006603Y025701D01*
X006659Y025829D02*
X030919Y025829D01*
X031047Y025958D02*
X006685Y025958D01*
X006475Y025572D02*
X030662Y025572D01*
X030533Y025444D02*
X004680Y025444D01*
X004546Y025572D02*
X005875Y025572D01*
X005747Y025701D02*
X004412Y025701D01*
X004320Y025829D02*
X005691Y025829D01*
X005665Y025958D02*
X004237Y025958D01*
X004154Y026086D02*
X005665Y026086D01*
X005714Y026215D02*
X004086Y026215D01*
X004040Y026343D02*
X005802Y026343D01*
X005834Y026472D02*
X003994Y026472D01*
X003948Y026600D02*
X005751Y026600D01*
X005717Y026729D02*
X003920Y026729D01*
X003905Y026857D02*
X005721Y026857D01*
X005762Y026986D02*
X003891Y026986D01*
X003877Y027114D02*
X005857Y027114D01*
X005780Y027243D02*
X003877Y027243D01*
X003893Y027371D02*
X005705Y027371D01*
X005665Y027500D02*
X003908Y027500D01*
X003924Y027628D02*
X005665Y027628D01*
X005700Y027757D02*
X003953Y027757D01*
X004001Y027885D02*
X005770Y027885D01*
X005796Y028014D02*
X004048Y028014D01*
X004095Y028142D02*
X005711Y028142D01*
X005665Y028271D02*
X004165Y028271D01*
X004250Y028399D02*
X005665Y028399D01*
X005694Y028528D02*
X004335Y028528D01*
X004430Y028656D02*
X005753Y028656D01*
X005882Y028785D02*
X004567Y028785D01*
X004704Y028913D02*
X007572Y028913D01*
X007727Y028785D02*
X006468Y028785D01*
X006597Y028656D02*
X007835Y028656D01*
X007943Y028528D02*
X006656Y028528D01*
X006685Y028399D02*
X008045Y028399D01*
X008109Y028271D02*
X006685Y028271D01*
X006799Y028142D02*
X008174Y028142D01*
X008239Y028014D02*
X006928Y028014D01*
X007056Y027885D02*
X008287Y027885D01*
X008318Y027757D02*
X007185Y027757D01*
X007313Y027628D02*
X008348Y027628D01*
X008379Y027500D02*
X007442Y027500D01*
X007570Y027371D02*
X008398Y027371D01*
X008406Y027243D02*
X007699Y027243D01*
X007399Y029042D02*
X004874Y029042D01*
X005097Y029170D02*
X007192Y029170D01*
X006894Y029299D02*
X005392Y029299D01*
X006143Y029427D02*
X006316Y029427D01*
X004842Y025315D02*
X030405Y025315D01*
X030276Y025187D02*
X021991Y025187D01*
X022119Y025058D02*
X030148Y025058D01*
X030019Y024930D02*
X022248Y024930D01*
X022260Y024801D02*
X029891Y024801D01*
X029762Y024673D02*
X022260Y024673D01*
X022260Y024544D02*
X027182Y024544D01*
X027293Y024590D02*
X027048Y024489D01*
X026861Y024302D01*
X026760Y024057D01*
X026760Y023793D01*
X026861Y023548D01*
X027048Y023361D01*
X027293Y023260D01*
X027557Y023260D01*
X027802Y023361D01*
X027989Y023548D01*
X028090Y023793D01*
X028090Y024057D01*
X027989Y024302D01*
X027802Y024489D01*
X027557Y024590D01*
X027293Y024590D01*
X026975Y024416D02*
X022243Y024416D01*
X022114Y024287D02*
X026855Y024287D01*
X026802Y024159D02*
X021986Y024159D01*
X022077Y024030D02*
X026760Y024030D01*
X026760Y023902D02*
X022205Y023902D01*
X022210Y023773D02*
X026768Y023773D01*
X026821Y023645D02*
X021710Y023645D01*
X021710Y023640D02*
X022210Y023640D01*
X022210Y023453D01*
X021897Y023140D01*
X021710Y023140D01*
X021710Y023640D01*
X021710Y023516D02*
X021640Y023516D01*
X021640Y023388D02*
X021710Y023388D01*
X021710Y023259D02*
X021640Y023259D01*
X021594Y023131D02*
X028485Y023131D01*
X028485Y023259D02*
X022016Y023259D01*
X022144Y023388D02*
X027022Y023388D01*
X026894Y023516D02*
X022210Y023516D01*
X021723Y023002D02*
X028485Y023002D01*
X028485Y022874D02*
X021851Y022874D01*
X021980Y022745D02*
X028485Y022745D01*
X028485Y022617D02*
X022108Y022617D01*
X022237Y022488D02*
X028485Y022488D01*
X028485Y022360D02*
X022365Y022360D01*
X022494Y022231D02*
X028485Y022231D01*
X028485Y022103D02*
X022622Y022103D01*
X022751Y021974D02*
X028485Y021974D01*
X028485Y021846D02*
X022879Y021846D01*
X023008Y021717D02*
X028485Y021717D01*
X028485Y021589D02*
X023136Y021589D01*
X023265Y021460D02*
X028485Y021460D01*
X028485Y021332D02*
X023393Y021332D01*
X023522Y021203D02*
X028485Y021203D01*
X028485Y021075D02*
X023650Y021075D01*
X023779Y020946D02*
X028485Y020946D01*
X028485Y020818D02*
X023907Y020818D01*
X024036Y020689D02*
X028485Y020689D01*
X028485Y020561D02*
X024164Y020561D01*
X024293Y020432D02*
X028485Y020432D01*
X028485Y020304D02*
X024421Y020304D01*
X024550Y020175D02*
X028485Y020175D01*
X028485Y020046D02*
X026687Y020046D01*
X026813Y019918D02*
X028485Y019918D01*
X028485Y019789D02*
X026866Y019789D01*
X026880Y019661D02*
X028485Y019661D01*
X028485Y019532D02*
X026880Y019532D01*
X026880Y019404D02*
X028485Y019404D01*
X028485Y019275D02*
X026880Y019275D01*
X026880Y019147D02*
X028485Y019147D01*
X028485Y019018D02*
X026849Y019018D01*
X026773Y018890D02*
X028485Y018890D01*
X026077Y018890D02*
X025773Y018890D01*
X025849Y019018D02*
X026001Y019018D01*
X025970Y019147D02*
X025880Y019147D01*
X025880Y019275D02*
X025970Y019275D01*
X025970Y019404D02*
X025880Y019404D01*
X025880Y019532D02*
X025970Y019532D01*
X025970Y019661D02*
X025880Y019661D01*
X025866Y019789D02*
X025984Y019789D01*
X026037Y019918D02*
X025813Y019918D01*
X025687Y020046D02*
X026163Y020046D01*
X025163Y020046D02*
X024687Y020046D01*
X024813Y019918D02*
X025037Y019918D01*
X024984Y019789D02*
X024866Y019789D01*
X024880Y019661D02*
X024970Y019661D01*
X024970Y019532D02*
X024880Y019532D01*
X024880Y019404D02*
X024970Y019404D01*
X024970Y019275D02*
X024880Y019275D01*
X024880Y019147D02*
X024970Y019147D01*
X025001Y019018D02*
X024849Y019018D01*
X024773Y018890D02*
X025077Y018890D01*
X024077Y018890D02*
X023773Y018890D01*
X023849Y019018D02*
X024001Y019018D01*
X023970Y019147D02*
X023880Y019147D01*
X023880Y019275D02*
X023970Y019275D01*
X023970Y019404D02*
X023880Y019404D01*
X023880Y019532D02*
X023970Y019532D01*
X023970Y019661D02*
X023880Y019661D01*
X023866Y019789D02*
X023984Y019789D01*
X024037Y019918D02*
X023813Y019918D01*
X023929Y020046D02*
X023687Y020046D01*
X023800Y020175D02*
X010886Y020175D01*
X010337Y020175D02*
X010237Y020175D01*
X010238Y020304D02*
X023672Y020304D01*
X023543Y020432D02*
X010218Y020432D01*
X010180Y020561D02*
X023415Y020561D01*
X023286Y020689D02*
X010142Y020689D01*
X010070Y020818D02*
X023158Y020818D01*
X023029Y020946D02*
X009986Y020946D01*
X009902Y021075D02*
X022901Y021075D01*
X022772Y021203D02*
X009818Y021203D01*
X009733Y021332D02*
X022644Y021332D01*
X022515Y021460D02*
X009649Y021460D01*
X009565Y021589D02*
X022387Y021589D01*
X022258Y021717D02*
X009480Y021717D01*
X009396Y021846D02*
X022130Y021846D01*
X022001Y021974D02*
X009312Y021974D01*
X009228Y022103D02*
X021873Y022103D01*
X021744Y022231D02*
X009143Y022231D01*
X009059Y022360D02*
X021616Y022360D01*
X021487Y022488D02*
X008975Y022488D01*
X008890Y022617D02*
X021359Y022617D01*
X021230Y022745D02*
X008806Y022745D01*
X008722Y022874D02*
X021102Y022874D01*
X020973Y023002D02*
X008637Y023002D01*
X008553Y023131D02*
X019392Y023131D01*
X019264Y023259D02*
X008469Y023259D01*
X008385Y023388D02*
X010325Y023388D01*
X010303Y023399D02*
X010389Y023355D01*
X010481Y023325D01*
X010565Y023312D01*
X010565Y023865D01*
X010685Y023865D01*
X010685Y023985D01*
X011238Y023985D01*
X011225Y024069D01*
X011195Y024161D01*
X011151Y024247D01*
X011094Y024326D01*
X011026Y024394D01*
X010947Y024451D01*
X010861Y024495D01*
X010769Y024525D01*
X010685Y024538D01*
X010685Y023985D01*
X010565Y023985D01*
X010565Y024538D01*
X010481Y024525D01*
X010389Y024495D01*
X010303Y024451D01*
X010224Y024394D01*
X010156Y024326D01*
X010099Y024247D01*
X010055Y024161D01*
X010025Y024069D01*
X010012Y023985D01*
X010565Y023985D01*
X010565Y023865D01*
X010012Y023865D01*
X010025Y023781D01*
X010055Y023689D01*
X010099Y023603D01*
X010156Y023524D01*
X010224Y023456D01*
X010303Y023399D01*
X010164Y023516D02*
X008300Y023516D01*
X008216Y023645D02*
X010078Y023645D01*
X010028Y023773D02*
X008132Y023773D01*
X008047Y023902D02*
X010565Y023902D01*
X010685Y023902D02*
X019090Y023902D01*
X019090Y023773D02*
X011222Y023773D01*
X011225Y023781D02*
X011238Y023865D01*
X010685Y023865D01*
X010685Y023312D01*
X010769Y023325D01*
X010861Y023355D01*
X010947Y023399D01*
X011026Y023456D01*
X011094Y023524D01*
X011151Y023603D01*
X011195Y023689D01*
X011225Y023781D01*
X011172Y023645D02*
X019090Y023645D01*
X019090Y023516D02*
X011086Y023516D01*
X010925Y023388D02*
X019135Y023388D01*
X019203Y024030D02*
X011231Y024030D01*
X011196Y024159D02*
X019331Y024159D01*
X019236Y024287D02*
X011122Y024287D01*
X010996Y024416D02*
X019107Y024416D01*
X019090Y024544D02*
X007626Y024544D01*
X007710Y024416D02*
X010254Y024416D01*
X010128Y024287D02*
X007795Y024287D01*
X007879Y024159D02*
X010054Y024159D01*
X010019Y024030D02*
X007963Y024030D01*
X007542Y024673D02*
X019090Y024673D01*
X019090Y024801D02*
X007457Y024801D01*
X007373Y024930D02*
X019102Y024930D01*
X019231Y025058D02*
X007265Y025058D01*
X006971Y025058D02*
X005330Y025058D01*
X005061Y025187D02*
X019359Y025187D01*
X019991Y025187D02*
X020359Y025187D01*
X020231Y025058D02*
X020119Y025058D01*
X020991Y025187D02*
X021359Y025187D01*
X021231Y025058D02*
X021119Y025058D01*
X020264Y023259D02*
X020086Y023259D01*
X019958Y023131D02*
X020392Y023131D01*
X020687Y020046D02*
X021163Y020046D01*
X021037Y019918D02*
X020813Y019918D01*
X020866Y019789D02*
X020984Y019789D01*
X020970Y019661D02*
X020880Y019661D01*
X020880Y019532D02*
X020970Y019532D01*
X020970Y019404D02*
X020880Y019404D01*
X020880Y019275D02*
X020970Y019275D01*
X020970Y019147D02*
X020880Y019147D01*
X020849Y019018D02*
X021001Y019018D01*
X021077Y018890D02*
X020773Y018890D01*
X021773Y018890D02*
X022077Y018890D01*
X022001Y019018D02*
X021849Y019018D01*
X021880Y019147D02*
X021970Y019147D01*
X021970Y019275D02*
X021880Y019275D01*
X021880Y019404D02*
X021970Y019404D01*
X021970Y019532D02*
X021880Y019532D01*
X021880Y019661D02*
X021970Y019661D01*
X021984Y019789D02*
X021866Y019789D01*
X021813Y019918D02*
X022037Y019918D01*
X022163Y020046D02*
X021687Y020046D01*
X022687Y020046D02*
X023163Y020046D01*
X023037Y019918D02*
X022813Y019918D01*
X022866Y019789D02*
X022984Y019789D01*
X022970Y019661D02*
X022880Y019661D01*
X022880Y019532D02*
X022970Y019532D01*
X022970Y019404D02*
X022880Y019404D01*
X022880Y019275D02*
X022970Y019275D01*
X022970Y019147D02*
X022880Y019147D01*
X022849Y019018D02*
X023001Y019018D01*
X023077Y018890D02*
X022773Y018890D01*
X027828Y023388D02*
X028508Y023388D01*
X028606Y023516D02*
X027956Y023516D01*
X028029Y023645D02*
X028734Y023645D01*
X028863Y023773D02*
X028082Y023773D01*
X028090Y023902D02*
X028991Y023902D01*
X029120Y024030D02*
X028090Y024030D01*
X028048Y024159D02*
X029248Y024159D01*
X029377Y024287D02*
X027995Y024287D01*
X027875Y024416D02*
X029505Y024416D01*
X029634Y024544D02*
X027668Y024544D01*
X028350Y027165D02*
X025693Y027369D01*
X025640Y027373D01*
X025613Y027376D01*
X025587Y027377D01*
X025587Y027377D01*
X025448Y027388D01*
X025448Y027388D01*
X025090Y027531D01*
X025090Y027531D01*
X024791Y027773D01*
X024791Y027773D01*
X024714Y027889D01*
X024714Y027889D01*
X023983Y028986D01*
X024040Y028847D01*
X024040Y028603D01*
X023946Y028377D01*
X023773Y028204D01*
X023641Y028149D01*
X023642Y028149D01*
X023721Y028108D01*
X023793Y028056D01*
X023856Y027993D01*
X023908Y027921D01*
X023949Y027842D01*
X023976Y027757D01*
X023990Y027669D01*
X023990Y027660D01*
X023460Y027660D01*
X023460Y027590D01*
X023990Y027590D01*
X023990Y027581D01*
X023976Y027493D01*
X023949Y027408D01*
X023908Y027329D01*
X023856Y027257D01*
X023793Y027194D01*
X023753Y027165D01*
X028350Y027165D01*
X027342Y027243D02*
X023842Y027243D01*
X023930Y027371D02*
X025672Y027371D01*
X025168Y027500D02*
X023977Y027500D01*
X023976Y027757D02*
X024811Y027757D01*
X024716Y027885D02*
X023927Y027885D01*
X023836Y028014D02*
X024631Y028014D01*
X024545Y028142D02*
X023655Y028142D01*
X023840Y028271D02*
X024459Y028271D01*
X024374Y028399D02*
X023956Y028399D01*
X024009Y028528D02*
X024288Y028528D01*
X024202Y028656D02*
X024040Y028656D01*
X024040Y028785D02*
X024117Y028785D01*
X024031Y028913D02*
X024013Y028913D01*
X023880Y029140D02*
X023773Y029246D01*
X023547Y029340D01*
X023303Y029340D01*
X023077Y029246D01*
X022904Y029073D01*
X022810Y028847D01*
X022810Y028603D01*
X022904Y028377D01*
X023077Y028204D01*
X023209Y028149D01*
X023208Y028149D01*
X023129Y028108D01*
X023057Y028056D01*
X022994Y027993D01*
X022942Y027921D01*
X022901Y027842D01*
X022874Y027757D01*
X022860Y027669D01*
X022860Y027660D01*
X023390Y027660D01*
X023390Y027590D01*
X022860Y027590D01*
X022860Y027581D01*
X022874Y027493D01*
X022901Y027408D01*
X022942Y027329D01*
X022994Y027257D01*
X023057Y027194D01*
X023097Y027165D01*
X021972Y027165D01*
X022006Y027179D01*
X022171Y027344D01*
X022260Y027559D01*
X022260Y027791D01*
X022171Y028006D01*
X022006Y028171D01*
X021791Y028260D01*
X021571Y028260D01*
X020515Y029316D01*
X020515Y030666D01*
X020633Y030784D01*
X020715Y030983D01*
X020715Y031197D01*
X020633Y031396D01*
X020481Y031548D01*
X020282Y031630D01*
X020068Y031630D01*
X019869Y031548D01*
X019717Y031396D01*
X019635Y031197D01*
X019635Y030983D01*
X019717Y030784D01*
X019835Y030666D01*
X019835Y029107D01*
X019887Y028982D01*
X019982Y028887D01*
X021090Y027779D01*
X021090Y027559D01*
X021179Y027344D01*
X021344Y027179D01*
X021378Y027165D01*
X018972Y027165D01*
X019006Y027179D01*
X019171Y027344D01*
X019260Y027559D01*
X019260Y027791D01*
X019171Y028006D01*
X019006Y028171D01*
X018791Y028260D01*
X018559Y028260D01*
X018344Y028171D01*
X018179Y028006D01*
X018090Y027791D01*
X018090Y027559D01*
X018179Y027344D01*
X018344Y027179D01*
X018378Y027165D01*
X017253Y027165D01*
X017293Y027194D01*
X017356Y027257D01*
X017408Y027329D01*
X017449Y027408D01*
X017476Y027493D01*
X017490Y027581D01*
X017490Y027590D01*
X016960Y027590D01*
X016960Y027660D01*
X017490Y027660D01*
X017490Y027669D01*
X017476Y027757D01*
X017449Y027842D01*
X017408Y027921D01*
X017356Y027993D01*
X017293Y028056D01*
X017221Y028108D01*
X017142Y028149D01*
X017141Y028149D01*
X017273Y028204D01*
X017446Y028377D01*
X017540Y028603D01*
X017540Y028847D01*
X017446Y029073D01*
X017273Y029246D01*
X017047Y029340D01*
X016803Y029340D01*
X016577Y029246D01*
X016470Y029140D01*
X018866Y032734D01*
X018866Y032734D01*
X018911Y032801D01*
X018925Y032822D01*
X018945Y032925D01*
X018925Y033029D01*
X018866Y033116D01*
X018822Y033146D01*
X018605Y033308D01*
X018233Y033699D01*
X017956Y034163D01*
X017787Y034677D01*
X017736Y035215D01*
X017805Y035751D01*
X017990Y036259D01*
X018282Y036714D01*
X018668Y037093D01*
X019127Y037378D01*
X019638Y037554D01*
X020175Y037614D01*
X020712Y037554D01*
X021223Y037378D01*
X021682Y037093D01*
X022068Y036714D01*
X022360Y036259D01*
X022545Y035751D01*
X022614Y035215D01*
X022563Y034677D01*
X022394Y034163D01*
X022117Y033699D01*
X021745Y033308D01*
X021528Y033146D01*
X021485Y033117D01*
X021484Y033116D01*
X021425Y033029D01*
X021405Y032925D01*
X021425Y032822D01*
X021484Y032734D01*
X023880Y029140D01*
X023860Y029170D02*
X023850Y029170D01*
X023774Y029299D02*
X023647Y029299D01*
X023688Y029427D02*
X020515Y029427D01*
X020515Y029556D02*
X023603Y029556D01*
X023517Y029684D02*
X020515Y029684D01*
X020515Y029813D02*
X023431Y029813D01*
X023346Y029941D02*
X020515Y029941D01*
X020515Y030070D02*
X023260Y030070D01*
X023174Y030198D02*
X020515Y030198D01*
X020515Y030327D02*
X023089Y030327D01*
X023003Y030455D02*
X020515Y030455D01*
X020515Y030584D02*
X022917Y030584D01*
X022832Y030712D02*
X020561Y030712D01*
X020656Y030841D02*
X022746Y030841D01*
X022660Y030969D02*
X020709Y030969D01*
X020715Y031098D02*
X022575Y031098D01*
X022489Y031226D02*
X020703Y031226D01*
X020650Y031355D02*
X022403Y031355D01*
X022318Y031483D02*
X020546Y031483D01*
X020327Y031612D02*
X022232Y031612D01*
X022146Y031740D02*
X018204Y031740D01*
X018289Y031869D02*
X022061Y031869D01*
X021975Y031997D02*
X018375Y031997D01*
X018461Y032126D02*
X021889Y032126D01*
X021804Y032254D02*
X018546Y032254D01*
X018632Y032383D02*
X021718Y032383D01*
X021632Y032511D02*
X018718Y032511D01*
X018803Y032640D02*
X019832Y032640D01*
X019869Y032602D02*
X020068Y032520D01*
X020282Y032520D01*
X020481Y032602D01*
X020633Y032754D01*
X020715Y032953D01*
X020715Y033167D01*
X020633Y033366D01*
X020481Y033518D01*
X020282Y033600D01*
X020068Y033600D01*
X019869Y033518D01*
X019717Y033366D01*
X019635Y033167D01*
X019635Y032953D01*
X019717Y032754D01*
X019869Y032602D01*
X019711Y032768D02*
X018889Y032768D01*
X018940Y032897D02*
X019658Y032897D01*
X019635Y033025D02*
X018925Y033025D01*
X018811Y033154D02*
X019635Y033154D01*
X019682Y033282D02*
X018640Y033282D01*
X018508Y033411D02*
X019762Y033411D01*
X019920Y033539D02*
X018385Y033539D01*
X018263Y033668D02*
X022087Y033668D01*
X022175Y033796D02*
X018175Y033796D01*
X018098Y033925D02*
X019954Y033925D01*
X020008Y033910D02*
X020342Y033910D01*
X020663Y033996D01*
X020952Y034163D01*
X021187Y034398D01*
X021354Y034687D01*
X021440Y035008D01*
X021440Y035342D01*
X021354Y035663D01*
X021187Y035952D01*
X020952Y036187D01*
X020663Y036354D01*
X020342Y036440D01*
X020008Y036440D01*
X019687Y036354D01*
X019398Y036187D01*
X019163Y035952D01*
X018996Y035663D01*
X018910Y035342D01*
X018910Y035008D01*
X018996Y034687D01*
X019163Y034398D01*
X019398Y034163D01*
X019687Y033996D01*
X020008Y033910D01*
X020396Y033925D02*
X022252Y033925D01*
X022329Y034053D02*
X020762Y034053D01*
X020971Y034182D02*
X022400Y034182D01*
X022443Y034310D02*
X021099Y034310D01*
X021210Y034439D02*
X022485Y034439D01*
X022527Y034567D02*
X021285Y034567D01*
X021356Y034696D02*
X022565Y034696D01*
X022577Y034824D02*
X021391Y034824D01*
X021425Y034953D02*
X022589Y034953D01*
X022601Y035081D02*
X021440Y035081D01*
X021440Y035210D02*
X022613Y035210D01*
X022598Y035338D02*
X021440Y035338D01*
X021407Y035467D02*
X022582Y035467D01*
X022565Y035595D02*
X021372Y035595D01*
X021319Y035724D02*
X022549Y035724D01*
X022508Y035852D02*
X021245Y035852D01*
X021158Y035981D02*
X022462Y035981D01*
X022415Y036109D02*
X021030Y036109D01*
X020865Y036238D02*
X022368Y036238D01*
X022291Y036366D02*
X020618Y036366D01*
X021175Y037394D02*
X019175Y037394D01*
X018946Y037266D02*
X021404Y037266D01*
X021611Y037137D02*
X018739Y037137D01*
X018582Y037009D02*
X021768Y037009D01*
X021898Y036880D02*
X018452Y036880D01*
X018321Y036752D02*
X022029Y036752D01*
X022126Y036623D02*
X018224Y036623D01*
X018141Y036495D02*
X022209Y036495D01*
X020804Y037523D02*
X019546Y037523D01*
X019732Y036366D02*
X018059Y036366D01*
X017982Y036238D02*
X019485Y036238D01*
X019320Y036109D02*
X017935Y036109D01*
X017888Y035981D02*
X019192Y035981D01*
X019105Y035852D02*
X017842Y035852D01*
X017801Y035724D02*
X019031Y035724D01*
X018978Y035595D02*
X017785Y035595D01*
X017768Y035467D02*
X018943Y035467D01*
X018910Y035338D02*
X017752Y035338D01*
X017737Y035210D02*
X018910Y035210D01*
X018910Y035081D02*
X017749Y035081D01*
X017761Y034953D02*
X018925Y034953D01*
X018959Y034824D02*
X017773Y034824D01*
X017785Y034696D02*
X018994Y034696D01*
X019065Y034567D02*
X017823Y034567D01*
X017865Y034439D02*
X019140Y034439D01*
X019251Y034310D02*
X017907Y034310D01*
X017950Y034182D02*
X019379Y034182D01*
X019588Y034053D02*
X018021Y034053D01*
X018118Y031612D02*
X020023Y031612D01*
X019804Y031483D02*
X018032Y031483D01*
X017947Y031355D02*
X019700Y031355D01*
X019647Y031226D02*
X017861Y031226D01*
X017775Y031098D02*
X019635Y031098D01*
X019641Y030969D02*
X017690Y030969D01*
X017604Y030841D02*
X019694Y030841D01*
X019789Y030712D02*
X017518Y030712D01*
X017433Y030584D02*
X019835Y030584D01*
X019835Y030455D02*
X017347Y030455D01*
X017261Y030327D02*
X019835Y030327D01*
X019835Y030198D02*
X017176Y030198D01*
X017090Y030070D02*
X019835Y030070D01*
X019835Y029941D02*
X017004Y029941D01*
X016919Y029813D02*
X019835Y029813D01*
X019835Y029684D02*
X016833Y029684D01*
X016747Y029556D02*
X019835Y029556D01*
X019835Y029427D02*
X016662Y029427D01*
X016703Y029299D02*
X016576Y029299D01*
X016500Y029170D02*
X016490Y029170D01*
X016367Y028986D02*
X016310Y028847D01*
X016310Y028603D01*
X016404Y028377D01*
X016577Y028204D01*
X016709Y028149D01*
X016708Y028149D01*
X016629Y028108D01*
X016557Y028056D01*
X016494Y027993D01*
X016442Y027921D01*
X016401Y027842D01*
X016374Y027757D01*
X016360Y027669D01*
X016360Y027660D01*
X016890Y027660D01*
X016890Y027590D01*
X016360Y027590D01*
X016360Y027581D01*
X016374Y027493D01*
X016401Y027408D01*
X016442Y027329D01*
X016494Y027257D01*
X016557Y027194D01*
X016597Y027165D01*
X012000Y027165D01*
X014657Y027369D01*
X014681Y027371D01*
X014763Y027377D01*
X014763Y027377D01*
X014902Y027388D01*
X015260Y027531D01*
X015559Y027773D01*
X015636Y027889D01*
X015636Y027889D01*
X016367Y028986D01*
X016337Y028913D02*
X016319Y028913D01*
X016310Y028785D02*
X016233Y028785D01*
X016310Y028656D02*
X016148Y028656D01*
X016062Y028528D02*
X016341Y028528D01*
X016394Y028399D02*
X015976Y028399D01*
X015890Y028271D02*
X016510Y028271D01*
X016695Y028142D02*
X015805Y028142D01*
X015719Y028014D02*
X016514Y028014D01*
X016423Y027885D02*
X015633Y027885D01*
X015559Y027773D02*
X015559Y027773D01*
X015559Y027773D01*
X015539Y027757D02*
X016374Y027757D01*
X016373Y027500D02*
X015182Y027500D01*
X015260Y027531D02*
X015260Y027531D01*
X015380Y027628D02*
X016890Y027628D01*
X016960Y027628D02*
X018090Y027628D01*
X018090Y027757D02*
X017476Y027757D01*
X017427Y027885D02*
X018129Y027885D01*
X018186Y028014D02*
X017336Y028014D01*
X017155Y028142D02*
X018315Y028142D01*
X018114Y027500D02*
X017477Y027500D01*
X017430Y027371D02*
X018168Y027371D01*
X018280Y027243D02*
X017342Y027243D01*
X016508Y027243D02*
X013008Y027243D01*
X014678Y027371D02*
X016420Y027371D01*
X017340Y028271D02*
X020599Y028271D01*
X020470Y028399D02*
X017456Y028399D01*
X017509Y028528D02*
X020342Y028528D01*
X020213Y028656D02*
X017540Y028656D01*
X017540Y028785D02*
X020085Y028785D01*
X019956Y028913D02*
X017513Y028913D01*
X017460Y029042D02*
X019862Y029042D01*
X019835Y029170D02*
X017350Y029170D01*
X017147Y029299D02*
X019835Y029299D01*
X020532Y029299D02*
X023203Y029299D01*
X023000Y029170D02*
X020661Y029170D01*
X020789Y029042D02*
X022890Y029042D01*
X022837Y028913D02*
X020918Y028913D01*
X021046Y028785D02*
X022810Y028785D01*
X022810Y028656D02*
X021175Y028656D01*
X021303Y028528D02*
X022841Y028528D01*
X022894Y028399D02*
X021432Y028399D01*
X021560Y028271D02*
X023010Y028271D01*
X023195Y028142D02*
X022035Y028142D01*
X022164Y028014D02*
X023014Y028014D01*
X022923Y027885D02*
X022221Y027885D01*
X022260Y027757D02*
X022874Y027757D01*
X022873Y027500D02*
X022236Y027500D01*
X022260Y027628D02*
X023390Y027628D01*
X023460Y027628D02*
X024970Y027628D01*
X023008Y027243D02*
X022070Y027243D01*
X022182Y027371D02*
X022920Y027371D01*
X021280Y027243D02*
X019070Y027243D01*
X019182Y027371D02*
X021168Y027371D01*
X021114Y027500D02*
X019236Y027500D01*
X019260Y027628D02*
X021090Y027628D01*
X021090Y027757D02*
X019260Y027757D01*
X019221Y027885D02*
X020984Y027885D01*
X020856Y028014D02*
X019164Y028014D01*
X019035Y028142D02*
X020727Y028142D01*
X020518Y032640D02*
X021547Y032640D01*
X021484Y032734D02*
X021484Y032734D01*
X021461Y032768D02*
X020639Y032768D01*
X020692Y032897D02*
X021410Y032897D01*
X021425Y033025D02*
X020715Y033025D01*
X020715Y033154D02*
X021539Y033154D01*
X021710Y033282D02*
X020668Y033282D01*
X020588Y033411D02*
X021842Y033411D01*
X021965Y033539D02*
X020430Y033539D01*
X014902Y027388D02*
X014902Y027388D01*
X010685Y024416D02*
X010565Y024416D01*
X010565Y024287D02*
X010685Y024287D01*
X010685Y024159D02*
X010565Y024159D01*
X010565Y024030D02*
X010685Y024030D01*
X010685Y023773D02*
X010565Y023773D01*
X010565Y023645D02*
X010685Y023645D01*
X010685Y023516D02*
X010565Y023516D01*
X010565Y023388D02*
X010685Y023388D01*
X006425Y024930D02*
X005818Y024930D01*
X009372Y016834D02*
X013003Y016834D01*
X012970Y016705D02*
X009198Y016705D01*
X007600Y015035D02*
X004252Y015035D01*
X004399Y015163D02*
X007409Y015163D01*
X007309Y015292D02*
X004565Y015292D01*
X004744Y015420D02*
X007256Y015420D01*
X006967Y015549D02*
X005019Y015549D01*
X005402Y015677D02*
X006554Y015677D01*
X016919Y010537D02*
X020435Y010537D01*
X020435Y010409D02*
X017004Y010409D01*
X017090Y010280D02*
X020420Y010280D01*
X020292Y010152D02*
X019307Y010152D01*
X019325Y010143D02*
X019250Y010181D01*
X019170Y010207D01*
X019087Y010220D01*
X019080Y010220D01*
X019080Y009720D01*
X019580Y009720D01*
X019580Y009727D01*
X019567Y009810D01*
X019541Y009890D01*
X019503Y009965D01*
X019453Y010034D01*
X019394Y010093D01*
X019325Y010143D01*
X019460Y010023D02*
X020163Y010023D01*
X020035Y009895D02*
X019538Y009895D01*
X019574Y009766D02*
X019906Y009766D01*
X019778Y009638D02*
X019579Y009638D01*
X019580Y009643D02*
X019580Y009650D01*
X019080Y009650D01*
X019080Y009720D01*
X019010Y009720D01*
X019010Y010220D01*
X019003Y010220D01*
X018920Y010207D01*
X018840Y010181D01*
X018765Y010143D01*
X018696Y010093D01*
X018637Y010034D01*
X018587Y009965D01*
X018549Y009890D01*
X018523Y009810D01*
X018510Y009727D01*
X018510Y009720D01*
X019010Y009720D01*
X019010Y009650D01*
X019080Y009650D01*
X019080Y009150D01*
X019087Y009150D01*
X019170Y009163D01*
X019250Y009189D01*
X019325Y009227D01*
X019394Y009277D01*
X019453Y009336D01*
X019503Y009405D01*
X019541Y009480D01*
X019567Y009560D01*
X019580Y009643D01*
X019551Y009509D02*
X019649Y009509D01*
X019521Y009381D02*
X019485Y009381D01*
X019392Y009252D02*
X019360Y009252D01*
X019264Y009124D02*
X017861Y009124D01*
X017947Y008995D02*
X019135Y008995D01*
X019020Y008867D02*
X018032Y008867D01*
X018118Y008738D02*
X018985Y008738D01*
X018985Y008610D02*
X018204Y008610D01*
X018289Y008481D02*
X018985Y008481D01*
X018985Y008353D02*
X018375Y008353D01*
X018461Y008224D02*
X018985Y008224D01*
X018985Y008096D02*
X018546Y008096D01*
X018632Y007967D02*
X018985Y007967D01*
X018985Y007839D02*
X018718Y007839D01*
X018803Y007710D02*
X018985Y007710D01*
X018985Y007582D02*
X018889Y007582D01*
X018940Y007453D02*
X018985Y007453D01*
X018985Y007325D02*
X018925Y007325D01*
X018985Y007196D02*
X018811Y007196D01*
X018640Y007068D02*
X018985Y007068D01*
X018985Y006939D02*
X018508Y006939D01*
X018385Y006811D02*
X018985Y006811D01*
X018985Y006682D02*
X018263Y006682D01*
X018175Y006554D02*
X018985Y006554D01*
X018985Y006425D02*
X018098Y006425D01*
X018021Y006297D02*
X018985Y006297D01*
X018985Y006168D02*
X017950Y006168D01*
X017907Y006040D02*
X018985Y006040D01*
X018985Y005911D02*
X017865Y005911D01*
X017823Y005783D02*
X018985Y005783D01*
X018985Y005654D02*
X017785Y005654D01*
X017773Y005526D02*
X018985Y005526D01*
X018985Y005397D02*
X017761Y005397D01*
X017749Y005269D02*
X018985Y005269D01*
X018985Y005140D02*
X017737Y005140D01*
X017752Y005012D02*
X018985Y005012D01*
X018985Y004883D02*
X017768Y004883D01*
X017785Y004755D02*
X018985Y004755D01*
X018985Y004626D02*
X017801Y004626D01*
X017842Y004498D02*
X018993Y004498D01*
X019070Y004369D02*
X017888Y004369D01*
X017935Y004241D02*
X019199Y004241D01*
X019327Y004112D02*
X017982Y004112D01*
X018059Y003984D02*
X019456Y003984D01*
X019584Y003855D02*
X018141Y003855D01*
X018224Y003727D02*
X019733Y003727D01*
X019849Y003598D02*
X018321Y003598D01*
X018452Y003470D02*
X021898Y003470D01*
X021768Y003341D02*
X018582Y003341D01*
X018739Y003213D02*
X021611Y003213D01*
X021404Y003084D02*
X018946Y003084D01*
X019175Y002956D02*
X021175Y002956D01*
X020804Y002827D02*
X019546Y002827D01*
X020501Y003598D02*
X022029Y003598D01*
X022126Y003727D02*
X020617Y003727D01*
X020670Y003855D02*
X022209Y003855D01*
X022291Y003984D02*
X020685Y003984D01*
X020678Y004112D02*
X022368Y004112D01*
X022415Y004241D02*
X020625Y004241D01*
X020521Y004369D02*
X022462Y004369D01*
X022508Y004498D02*
X020538Y004498D01*
X020609Y004626D02*
X022549Y004626D01*
X022565Y004755D02*
X020208Y004755D01*
X020142Y004755D02*
X019565Y004755D01*
X019565Y004695D02*
X019565Y005625D01*
X019665Y005525D01*
X019665Y005467D01*
X019742Y005280D01*
X019884Y005138D01*
X019875Y005132D01*
X019824Y005081D01*
X019781Y005023D01*
X019748Y004958D01*
X019726Y004889D01*
X019715Y004818D01*
X019715Y004815D01*
X020142Y004815D01*
X020142Y004748D01*
X019715Y004748D01*
X019715Y004745D01*
X019726Y004674D01*
X019748Y004605D01*
X019781Y004540D01*
X019824Y004481D01*
X019875Y004430D01*
X019884Y004424D01*
X019860Y004400D01*
X019565Y004695D01*
X019634Y004626D02*
X019741Y004626D01*
X019762Y004498D02*
X019812Y004498D01*
X019725Y004883D02*
X019565Y004883D01*
X019565Y005012D02*
X019776Y005012D01*
X019882Y005140D02*
X019565Y005140D01*
X019565Y005269D02*
X019753Y005269D01*
X019694Y005397D02*
X019565Y005397D01*
X019565Y005526D02*
X019664Y005526D01*
X020468Y005140D02*
X022613Y005140D01*
X022598Y005012D02*
X020574Y005012D01*
X020625Y004883D02*
X022582Y004883D01*
X022601Y005269D02*
X020597Y005269D01*
X020656Y005397D02*
X022589Y005397D01*
X022577Y005526D02*
X020685Y005526D01*
X020685Y005654D02*
X022565Y005654D01*
X022527Y005783D02*
X020639Y005783D01*
X020554Y005911D02*
X022485Y005911D01*
X022443Y006040D02*
X020581Y006040D01*
X020650Y006168D02*
X022400Y006168D01*
X022329Y006297D02*
X020685Y006297D01*
X020685Y006425D02*
X022252Y006425D01*
X022175Y006554D02*
X020645Y006554D01*
X020570Y006682D02*
X022087Y006682D01*
X021965Y006811D02*
X020465Y006811D01*
X020465Y006939D02*
X021842Y006939D01*
X021710Y007068D02*
X020465Y007068D01*
X020465Y007196D02*
X021539Y007196D01*
X021425Y007325D02*
X020585Y007325D01*
X020714Y007453D02*
X021410Y007453D01*
X021461Y007582D02*
X020842Y007582D01*
X020971Y007710D02*
X021547Y007710D01*
X021632Y007839D02*
X021099Y007839D01*
X021228Y007967D02*
X021718Y007967D01*
X021804Y008096D02*
X021356Y008096D01*
X021485Y008224D02*
X021889Y008224D01*
X021975Y008353D02*
X021613Y008353D01*
X021742Y008481D02*
X022061Y008481D01*
X022146Y008610D02*
X021870Y008610D01*
X021999Y008738D02*
X022232Y008738D01*
X022318Y008867D02*
X022127Y008867D01*
X022256Y008995D02*
X022403Y008995D01*
X022384Y009124D02*
X022489Y009124D01*
X022513Y009252D02*
X022575Y009252D01*
X022641Y009381D02*
X022660Y009381D01*
X022733Y009489D02*
X022765Y009567D01*
X022765Y010905D01*
X024895Y013035D01*
X026400Y013035D01*
X025693Y012981D01*
X025640Y012977D01*
X025618Y012975D01*
X025587Y012973D01*
X025587Y012973D01*
X025448Y012962D01*
X025090Y012819D01*
X024791Y012577D01*
X024714Y012461D01*
X024714Y012461D01*
X022733Y009489D01*
X022741Y009509D02*
X022746Y009509D01*
X022765Y009638D02*
X022832Y009638D01*
X022765Y009766D02*
X022917Y009766D01*
X023003Y009895D02*
X022765Y009895D01*
X022765Y010023D02*
X023089Y010023D01*
X023174Y010152D02*
X022765Y010152D01*
X022765Y010280D02*
X023260Y010280D01*
X023346Y010409D02*
X022765Y010409D01*
X022765Y010537D02*
X023431Y010537D01*
X023517Y010666D02*
X022765Y010666D01*
X022765Y010794D02*
X023603Y010794D01*
X023688Y010923D02*
X022783Y010923D01*
X022912Y011051D02*
X023774Y011051D01*
X023860Y011180D02*
X023040Y011180D01*
X023169Y011308D02*
X023945Y011308D01*
X024031Y011437D02*
X023297Y011437D01*
X023426Y011565D02*
X024117Y011565D01*
X024203Y011694D02*
X023554Y011694D01*
X023683Y011822D02*
X024288Y011822D01*
X024374Y011951D02*
X023811Y011951D01*
X023940Y012079D02*
X024460Y012079D01*
X024545Y012208D02*
X024068Y012208D01*
X024197Y012336D02*
X024631Y012336D01*
X024717Y012465D02*
X024325Y012465D01*
X024454Y012593D02*
X024811Y012593D01*
X024791Y012577D02*
X024791Y012577D01*
X024791Y012577D01*
X024970Y012722D02*
X024582Y012722D01*
X024711Y012850D02*
X025168Y012850D01*
X025090Y012819D02*
X025090Y012819D01*
X024839Y012979D02*
X025672Y012979D01*
X025693Y012981D02*
X025693Y012981D01*
X025448Y012962D02*
X025448Y012962D01*
X021540Y009100D02*
X019965Y007525D01*
X019965Y008555D01*
X021020Y009610D01*
X021020Y009569D01*
X021109Y009354D01*
X021274Y009189D01*
X021489Y009100D01*
X021540Y009100D01*
X021431Y009124D02*
X020534Y009124D01*
X020406Y008995D02*
X021435Y008995D01*
X021307Y008867D02*
X020277Y008867D01*
X020149Y008738D02*
X021178Y008738D01*
X021050Y008610D02*
X020020Y008610D01*
X019965Y008481D02*
X020921Y008481D01*
X020793Y008353D02*
X019965Y008353D01*
X019965Y008224D02*
X020664Y008224D01*
X020536Y008096D02*
X019965Y008096D01*
X019965Y007967D02*
X020407Y007967D01*
X020279Y007839D02*
X019965Y007839D01*
X019965Y007710D02*
X020150Y007710D01*
X020022Y007582D02*
X019965Y007582D01*
X020663Y009252D02*
X021210Y009252D01*
X021098Y009381D02*
X020791Y009381D01*
X020920Y009509D02*
X021045Y009509D01*
X019080Y009509D02*
X019010Y009509D01*
X019010Y009381D02*
X019080Y009381D01*
X019080Y009252D02*
X019010Y009252D01*
X019010Y009150D02*
X019010Y009650D01*
X018510Y009650D01*
X018510Y009643D01*
X018523Y009560D01*
X018549Y009480D01*
X018587Y009405D01*
X018637Y009336D01*
X018696Y009277D01*
X018765Y009227D01*
X018840Y009189D01*
X018920Y009163D01*
X019003Y009150D01*
X019010Y009150D01*
X018730Y009252D02*
X017775Y009252D01*
X017690Y009381D02*
X018605Y009381D01*
X018539Y009509D02*
X017604Y009509D01*
X017518Y009638D02*
X018511Y009638D01*
X018516Y009766D02*
X017433Y009766D01*
X017347Y009895D02*
X018552Y009895D01*
X018630Y010023D02*
X017261Y010023D01*
X017176Y010152D02*
X018783Y010152D01*
X019010Y010152D02*
X019080Y010152D01*
X019080Y010023D02*
X019010Y010023D01*
X019010Y009895D02*
X019080Y009895D01*
X019080Y009766D02*
X019010Y009766D01*
X019010Y009638D02*
X019080Y009638D01*
X030186Y013326D02*
X030694Y013834D01*
X030753Y013810D01*
X030997Y013810D01*
X031223Y013904D01*
X031396Y014077D01*
X031490Y014303D01*
X031490Y014547D01*
X031466Y014606D01*
X032121Y015261D01*
X032165Y015367D01*
X032165Y016793D01*
X032964Y015624D01*
X032978Y015594D01*
X032993Y015581D01*
X033005Y015564D01*
X033032Y015546D01*
X033057Y015524D01*
X033076Y015518D01*
X033093Y015507D01*
X033126Y015501D01*
X033157Y015490D01*
X033177Y015491D01*
X033197Y015487D01*
X033229Y015494D01*
X033262Y015496D01*
X033280Y015505D01*
X033300Y015509D01*
X033323Y015524D01*
X033559Y015623D01*
X034084Y015746D01*
X034624Y015749D01*
X035151Y015634D01*
X035640Y015406D01*
X036067Y015075D01*
X036410Y014659D01*
X036654Y014177D01*
X036785Y013654D01*
X036797Y013114D01*
X036691Y012585D01*
X036471Y012092D01*
X036147Y011660D01*
X035736Y011310D01*
X035259Y011059D01*
X034737Y010919D01*
X034198Y010898D01*
X033667Y010995D01*
X033171Y011208D01*
X032734Y011524D01*
X032377Y011929D01*
X032118Y012402D01*
X031970Y012921D01*
X031940Y013188D01*
X031939Y013193D01*
X031937Y013243D01*
X031935Y013245D01*
X031935Y013248D01*
X031913Y013292D01*
X031891Y013338D01*
X031889Y013339D01*
X031887Y013342D01*
X031850Y013374D01*
X031812Y013408D01*
X031810Y013409D01*
X031807Y013411D01*
X031760Y013426D01*
X031713Y013443D01*
X031710Y013442D01*
X031707Y013443D01*
X031657Y013439D01*
X031607Y013437D01*
X031605Y013435D01*
X030186Y013326D01*
X030225Y013364D02*
X030683Y013364D01*
X030482Y013621D02*
X033145Y013621D01*
X033110Y013493D02*
X030353Y013493D01*
X030610Y013750D02*
X033179Y013750D01*
X033196Y013813D02*
X033110Y013492D01*
X033110Y013158D01*
X033196Y012837D01*
X033363Y012548D01*
X033598Y012313D01*
X033887Y012146D01*
X034208Y012060D01*
X034542Y012060D01*
X034863Y012146D01*
X035152Y012313D01*
X035387Y012548D01*
X035554Y012837D01*
X035640Y013158D01*
X035640Y013492D01*
X035554Y013813D01*
X035387Y014102D01*
X035152Y014337D01*
X034863Y014504D01*
X034542Y014590D01*
X034208Y014590D01*
X033887Y014504D01*
X033598Y014337D01*
X033363Y014102D01*
X033196Y013813D01*
X033234Y013878D02*
X031163Y013878D01*
X031327Y014007D02*
X033308Y014007D01*
X033397Y014135D02*
X031421Y014135D01*
X031474Y014264D02*
X033525Y014264D01*
X033694Y014392D02*
X031490Y014392D01*
X031490Y014521D02*
X033951Y014521D01*
X034799Y014521D02*
X036480Y014521D01*
X036545Y014392D02*
X035056Y014392D01*
X035225Y014264D02*
X036610Y014264D01*
X036664Y014135D02*
X035353Y014135D01*
X035442Y014007D02*
X036696Y014007D01*
X036728Y013878D02*
X035516Y013878D01*
X035571Y013750D02*
X036761Y013750D01*
X036786Y013621D02*
X035605Y013621D01*
X035640Y013493D02*
X036789Y013493D01*
X036792Y013364D02*
X035640Y013364D01*
X035640Y013236D02*
X036795Y013236D01*
X036796Y013107D02*
X035626Y013107D01*
X035592Y012979D02*
X036770Y012979D01*
X036744Y012850D02*
X035557Y012850D01*
X035488Y012722D02*
X036719Y012722D01*
X036693Y012593D02*
X035413Y012593D01*
X035304Y012465D02*
X036637Y012465D01*
X036580Y012336D02*
X035175Y012336D01*
X034970Y012208D02*
X036522Y012208D01*
X036461Y012079D02*
X034614Y012079D01*
X034136Y012079D02*
X032295Y012079D01*
X032365Y011951D02*
X036365Y011951D01*
X036269Y011822D02*
X032471Y011822D01*
X032584Y011694D02*
X036172Y011694D01*
X036036Y011565D02*
X032697Y011565D01*
X032854Y011437D02*
X035885Y011437D01*
X035733Y011308D02*
X033032Y011308D01*
X033236Y011180D02*
X035489Y011180D01*
X035231Y011051D02*
X033536Y011051D01*
X034061Y010923D02*
X034752Y010923D01*
X033780Y012208D02*
X032224Y012208D01*
X032154Y012336D02*
X033575Y012336D01*
X033446Y012465D02*
X032100Y012465D01*
X032063Y012593D02*
X033337Y012593D01*
X033262Y012722D02*
X032027Y012722D01*
X031990Y012850D02*
X033193Y012850D01*
X033158Y012979D02*
X031963Y012979D01*
X031949Y013107D02*
X033124Y013107D01*
X033110Y013236D02*
X031937Y013236D01*
X031861Y013364D02*
X033110Y013364D01*
X031638Y014778D02*
X036312Y014778D01*
X036415Y014649D02*
X031510Y014649D01*
X031767Y014906D02*
X036206Y014906D01*
X036100Y015035D02*
X031895Y015035D01*
X032024Y015163D02*
X035953Y015163D01*
X035787Y015292D02*
X032134Y015292D01*
X032165Y015420D02*
X035609Y015420D01*
X035334Y015549D02*
X033382Y015549D01*
X033028Y015549D02*
X032165Y015549D01*
X032165Y015677D02*
X032928Y015677D01*
X032840Y015806D02*
X032165Y015806D01*
X032165Y015934D02*
X032752Y015934D01*
X032664Y016063D02*
X032165Y016063D01*
X032165Y016191D02*
X032576Y016191D01*
X032488Y016320D02*
X032165Y016320D01*
X032165Y016448D02*
X032401Y016448D01*
X032313Y016577D02*
X032165Y016577D01*
X032165Y016705D02*
X032225Y016705D01*
X033792Y015677D02*
X034953Y015677D01*
X034811Y024901D02*
X035239Y025329D01*
X035321Y025411D01*
X035365Y025517D01*
X035365Y027933D01*
X035321Y028039D01*
X034840Y028520D01*
X034758Y028602D01*
X034652Y028646D01*
X034607Y028646D01*
X034464Y028789D01*
X034276Y028866D01*
X034073Y028866D01*
X033886Y028789D01*
X033743Y028646D01*
X033298Y028646D01*
X033192Y028602D01*
X031948Y027359D01*
X031952Y027439D01*
X032063Y027951D01*
X032284Y028426D01*
X032603Y028841D01*
X033007Y029175D01*
X033474Y029412D01*
X033981Y029540D01*
X034505Y029553D01*
X035018Y029451D01*
X035497Y029238D01*
X035917Y028925D01*
X036257Y028527D01*
X036502Y028064D01*
X036638Y027559D01*
X036660Y027036D01*
X036567Y026520D01*
X036362Y026039D01*
X036056Y025614D01*
X035663Y025267D01*
X035204Y025014D01*
X034811Y024901D01*
X034840Y024930D02*
X034910Y024930D01*
X034968Y025058D02*
X035284Y025058D01*
X035097Y025187D02*
X035518Y025187D01*
X035718Y025315D02*
X035225Y025315D01*
X035334Y025444D02*
X035863Y025444D01*
X036008Y025572D02*
X035365Y025572D01*
X035365Y025701D02*
X036118Y025701D01*
X036211Y025829D02*
X035365Y025829D01*
X035365Y025958D02*
X036303Y025958D01*
X036382Y026086D02*
X035365Y026086D01*
X035365Y026215D02*
X036436Y026215D01*
X036491Y026343D02*
X035365Y026343D01*
X035365Y026472D02*
X036546Y026472D01*
X036581Y026600D02*
X035365Y026600D01*
X035365Y026729D02*
X036604Y026729D01*
X036628Y026857D02*
X035365Y026857D01*
X035365Y026986D02*
X036651Y026986D01*
X036657Y027114D02*
X035365Y027114D01*
X035365Y027243D02*
X036652Y027243D01*
X036646Y027371D02*
X035365Y027371D01*
X035365Y027500D02*
X036641Y027500D01*
X036620Y027628D02*
X035365Y027628D01*
X035365Y027757D02*
X036585Y027757D01*
X036550Y027885D02*
X035365Y027885D01*
X035332Y028014D02*
X036516Y028014D01*
X036461Y028142D02*
X035218Y028142D01*
X035090Y028271D02*
X036393Y028271D01*
X036325Y028399D02*
X034961Y028399D01*
X034833Y028528D02*
X036257Y028528D01*
X036147Y028656D02*
X034597Y028656D01*
X034468Y028785D02*
X036037Y028785D01*
X035927Y028913D02*
X032691Y028913D01*
X032560Y028785D02*
X033882Y028785D01*
X033753Y028656D02*
X032461Y028656D01*
X032362Y028528D02*
X033117Y028528D01*
X032989Y028399D02*
X032271Y028399D01*
X032211Y028271D02*
X032860Y028271D01*
X032732Y028142D02*
X032152Y028142D01*
X032092Y028014D02*
X032603Y028014D01*
X032475Y027885D02*
X032049Y027885D01*
X032021Y027757D02*
X032346Y027757D01*
X032218Y027628D02*
X031993Y027628D01*
X031965Y027500D02*
X032089Y027500D01*
X031961Y027371D02*
X031949Y027371D01*
X032639Y026729D02*
X033717Y026729D01*
X033715Y026745D02*
X033726Y026674D01*
X033748Y026605D01*
X033769Y026565D01*
X032475Y026565D01*
X033189Y027279D01*
X033743Y027279D01*
X033884Y027138D01*
X033875Y027132D01*
X033824Y027081D01*
X033781Y027023D01*
X033748Y026958D01*
X033726Y026889D01*
X033715Y026818D01*
X033715Y026815D01*
X034142Y026815D01*
X034142Y026748D01*
X033715Y026748D01*
X033715Y026745D01*
X033721Y026857D02*
X032767Y026857D01*
X032896Y026986D02*
X033762Y026986D01*
X033857Y027114D02*
X033024Y027114D01*
X033153Y027243D02*
X033780Y027243D01*
X033751Y026600D02*
X032510Y026600D01*
X032846Y029042D02*
X035760Y029042D01*
X035588Y029170D02*
X033001Y029170D01*
X033251Y029299D02*
X035361Y029299D01*
X035072Y029427D02*
X033535Y029427D01*
D21*
X036075Y028375D03*
X030375Y025775D03*
X024575Y023875D03*
X028275Y018975D03*
X030375Y018975D03*
X025275Y014875D03*
X023375Y010875D03*
X020175Y008125D03*
X020175Y002975D03*
X004475Y011775D03*
X004475Y028375D03*
X019475Y029575D03*
X019475Y030275D03*
X023275Y029775D03*
X020175Y037375D03*
X036275Y012275D03*
D22*
X031875Y015425D02*
X030875Y014425D01*
X029775Y013325D01*
X024775Y013325D01*
X022475Y011025D01*
X022475Y009625D01*
X020175Y007325D01*
X020175Y006356D01*
X019675Y005925D02*
X020031Y005569D01*
X020175Y005569D01*
X019675Y005925D02*
X019675Y008675D01*
X024575Y013575D01*
X029555Y013575D01*
X030115Y014135D01*
X030115Y014765D01*
X030875Y015525D01*
X031575Y016225D01*
X031575Y016775D01*
X031075Y017275D01*
X030075Y017275D01*
X029075Y018275D01*
X029075Y023075D01*
X031975Y025975D01*
X033325Y025975D01*
X033925Y025375D01*
X034375Y025375D01*
X034775Y025775D01*
X034775Y027375D01*
X034575Y027575D01*
X034181Y027575D01*
X034175Y027569D01*
X033069Y027569D01*
X032075Y026575D01*
X007169Y026575D01*
X006175Y027569D01*
X006175Y028356D02*
X007656Y026875D01*
X031875Y026875D01*
X033356Y028356D01*
X034175Y028356D01*
X034594Y028356D01*
X035075Y027875D01*
X035075Y025575D01*
X034575Y025075D01*
X033875Y025075D01*
X033275Y025675D01*
X032075Y025675D01*
X029375Y022975D01*
X029375Y018475D01*
X030275Y017575D01*
X031275Y017575D01*
X031875Y016975D01*
X031875Y015425D01*
X030875Y016625D02*
X030275Y016625D01*
X028775Y018125D01*
X028775Y023275D01*
X031675Y026175D01*
X031675Y026275D01*
X006456Y026275D01*
X006175Y025994D01*
X008943Y017233D02*
X014117Y017233D01*
X014425Y016925D01*
X012425Y015425D02*
X011446Y016404D01*
X008384Y016404D01*
X017425Y016425D02*
X017425Y017125D01*
X017875Y017575D01*
X026925Y017575D01*
X027875Y016625D01*
X029775Y015525D02*
X030875Y016625D01*
X029775Y015525D02*
X029775Y014275D01*
X029345Y013845D01*
X024345Y013845D01*
X022825Y012325D01*
X021275Y012325D01*
X020725Y011775D01*
X020725Y010175D01*
X019275Y008725D01*
X019275Y004575D01*
X019856Y003994D01*
X020175Y003994D01*
X034175Y025994D02*
X033894Y026275D01*
X031675Y026275D01*
D23*
X015425Y016425D02*
X015425Y015675D01*
X015175Y015425D01*
X012425Y015425D01*
X014425Y016425D02*
X014425Y016925D01*
D24*
X021675Y027675D02*
X020175Y029175D01*
X020175Y031090D01*
D25*
X020675Y023675D02*
X024425Y019925D01*
X024425Y019425D01*
M02*
