%
M48
M72
T01C0.0200
T02C0.0290
T03C0.0320
T04C0.0330
T05C0.0354
T06C0.0394
T07C0.0400
T08C0.0500
T09C0.0610
T10C0.2000
%
T01
X4475Y11775
X20175Y8125
X23375Y10875
X25275Y14875
X28275Y18975
X30375Y18975
X24575Y23875
X23275Y29775
X19475Y29575
X19475Y30275
X20175Y37375
X30375Y25775
X36075Y28375
X36275Y12275
X20175Y2975
X4475Y28375
T02
X20175Y31090
X20175Y33060
T03
X20425Y19425
X19425Y19425
X18425Y19425
X17425Y19425
X16425Y19425
X15425Y19425
X14425Y19425
X13425Y19425
X13425Y16425
X14425Y16425
X15425Y16425
X16425Y16425
X17425Y16425
X18425Y16425
X19425Y16425
X20425Y16425
X21425Y16425
X22425Y16425
X23425Y16425
X24425Y16425
X25425Y16425
X26425Y16425
X26425Y19425
X25425Y19425
X24425Y19425
X23425Y19425
X22425Y19425
X21425Y19425
T04
X20935Y14175
X21935Y14175
X22935Y14175
X31028Y23024
X31475Y23675
X31922Y24326
T05
X21675Y27675
X18675Y27675
T06
X6175Y27569
X6175Y28356
X6175Y26781
X6175Y25994
X20175Y6356
X20175Y5569
X20175Y4781
X20175Y3994
X34175Y25994
X34175Y26781
X34175Y27569
X34175Y28356
T07
X23425Y28725
X23425Y27625
X21675Y24675
X20675Y24675
X20675Y23675
X21675Y23675
X19675Y23675
X19675Y24675
X16925Y27625
X16925Y28725
X10621Y19720
X10062Y18891
X9503Y18062
X8943Y17233
X8384Y16404
X7825Y15575
X10625Y14175
X11725Y14175
X13175Y14175
X16175Y14175
X18025Y14175
X19125Y14175
X19045Y11465
X19045Y9685
X21605Y9685
X21605Y11465
X27875Y14425
X27875Y15525
X27875Y16625
X30875Y16625
X30875Y15525
X30875Y14425
T08
X27425Y23925
X10625Y23925
T09
X30560Y22344
X32390Y25006
T10
X34375Y13325
X20175Y35175
X5975Y13325
M30
