G75*
%MOIN*%
%OFA0B0*%
%FSLAX25Y25*%
%IPPOS*%
%LPD*%
%AMOC8*
5,1,8,0,0,1.08239X$1,22.5*
%
%ADD10C,0.00000*%
%ADD11C,0.00500*%
D10*
X0156500Y0063800D02*
X0156384Y0063827D01*
X0156270Y0063857D01*
X0156156Y0063891D01*
X0156043Y0063930D01*
X0155932Y0063971D01*
X0155822Y0064017D01*
X0155714Y0064066D01*
X0155608Y0064119D01*
X0155503Y0064175D01*
X0155400Y0064235D01*
X0155300Y0064298D01*
X0155201Y0064364D01*
X0155105Y0064433D01*
X0155011Y0064506D01*
X0154919Y0064582D01*
X0154830Y0064661D01*
X0154744Y0064742D01*
X0154661Y0064827D01*
X0154580Y0064914D01*
X0154502Y0065004D01*
X0154428Y0065097D01*
X0154356Y0065191D01*
X0154288Y0065289D01*
X0154223Y0065388D01*
X0154161Y0065489D01*
X0154103Y0065593D01*
X0154048Y0065698D01*
X0153996Y0065805D01*
X0153948Y0065914D01*
X0153904Y0066025D01*
X0153864Y0066136D01*
X0153827Y0066249D01*
X0153794Y0066363D01*
X0153765Y0066479D01*
X0153740Y0066595D01*
X0153718Y0066712D01*
X0153701Y0066829D01*
X0153687Y0066947D01*
X0153678Y0067065D01*
X0153672Y0067184D01*
X0153670Y0067303D01*
X0153672Y0067422D01*
X0153678Y0067540D01*
X0153688Y0067659D01*
X0153702Y0067777D01*
X0153720Y0067894D01*
X0153742Y0068011D01*
X0153767Y0068127D01*
X0153797Y0068242D01*
X0153830Y0068356D01*
X0153867Y0068469D01*
X0153908Y0068581D01*
X0153952Y0068691D01*
X0154000Y0068799D01*
X0154000Y0068800D02*
X0154036Y0068906D01*
X0154076Y0069011D01*
X0154120Y0069114D01*
X0154168Y0069215D01*
X0154218Y0069315D01*
X0154273Y0069413D01*
X0154330Y0069509D01*
X0154391Y0069603D01*
X0154455Y0069695D01*
X0154523Y0069784D01*
X0154593Y0069871D01*
X0154666Y0069956D01*
X0154743Y0070038D01*
X0154822Y0070117D01*
X0154903Y0070194D01*
X0154988Y0070267D01*
X0155075Y0070338D01*
X0155164Y0070405D01*
X0155255Y0070470D01*
X0155349Y0070531D01*
X0155445Y0070589D01*
X0155543Y0070644D01*
X0155642Y0070695D01*
X0155744Y0070742D01*
X0155847Y0070787D01*
X0155951Y0070827D01*
X0156057Y0070864D01*
X0156164Y0070897D01*
X0156272Y0070927D01*
X0156381Y0070952D01*
X0156490Y0070974D01*
X0156601Y0070992D01*
X0156712Y0071006D01*
X0156823Y0071017D01*
X0156935Y0071023D01*
X0157047Y0071026D01*
X0157159Y0071025D01*
X0157271Y0071019D01*
X0157382Y0071010D01*
X0157494Y0070998D01*
X0157604Y0070981D01*
X0157714Y0070960D01*
X0157824Y0070936D01*
X0157932Y0070908D01*
X0158039Y0070876D01*
X0158145Y0070840D01*
X0158250Y0070801D01*
X0004200Y0161500D02*
X0006282Y0165556D01*
X0008463Y0169560D01*
X0010741Y0173510D01*
X0013114Y0177403D01*
X0015582Y0181237D01*
X0018142Y0185010D01*
X0020793Y0188720D01*
X0023534Y0192363D01*
X0026363Y0195939D01*
X0029278Y0199445D01*
X0032277Y0202879D01*
X0035360Y0206238D01*
X0038523Y0209522D01*
X0041765Y0212727D01*
X0045085Y0215853D01*
X0048480Y0218897D01*
X0051947Y0221857D01*
X0055486Y0224732D01*
X0059094Y0227520D01*
X0062769Y0230219D01*
X0066508Y0232827D01*
X0070310Y0235344D01*
X0074172Y0237768D01*
X0078092Y0240096D01*
X0082068Y0242329D01*
X0086096Y0244464D01*
X0090176Y0246500D01*
X0094304Y0248436D01*
X0098478Y0250271D01*
X0102695Y0252004D01*
X0106953Y0253633D01*
X0111250Y0255158D01*
X0115583Y0256579D01*
X0119949Y0257893D01*
X0124345Y0259100D01*
X0128770Y0260200D01*
X0133220Y0261192D01*
X0137693Y0262075D01*
X0142187Y0262849D01*
X0146697Y0263513D01*
X0151223Y0264067D01*
X0155761Y0264511D01*
X0160308Y0264844D01*
X0164862Y0265066D01*
X0169420Y0265177D01*
X0173980Y0265177D01*
X0178538Y0265066D01*
X0183092Y0264844D01*
X0187639Y0264511D01*
X0192177Y0264067D01*
X0196703Y0263513D01*
X0201213Y0262849D01*
X0205707Y0262075D01*
X0210180Y0261192D01*
X0214630Y0260200D01*
X0219055Y0259100D01*
X0223451Y0257893D01*
X0227817Y0256579D01*
X0232150Y0255158D01*
X0236447Y0253633D01*
X0240705Y0252004D01*
X0244922Y0250271D01*
X0249096Y0248436D01*
X0253224Y0246500D01*
X0257304Y0244464D01*
X0261332Y0242329D01*
X0265308Y0240096D01*
X0269228Y0237768D01*
X0273090Y0235344D01*
X0276892Y0232827D01*
X0280631Y0230219D01*
X0284306Y0227520D01*
X0287914Y0224732D01*
X0291453Y0221857D01*
X0294920Y0218897D01*
X0298315Y0215853D01*
X0301635Y0212727D01*
X0304877Y0209522D01*
X0308040Y0206238D01*
X0311123Y0202879D01*
X0314122Y0199445D01*
X0317037Y0195939D01*
X0319866Y0192363D01*
X0322607Y0188720D01*
X0325258Y0185010D01*
X0327818Y0181237D01*
X0330286Y0177403D01*
X0332659Y0173510D01*
X0334937Y0169560D01*
X0337118Y0165556D01*
X0339200Y0161500D01*
X0317950Y0161500D02*
X0317952Y0161658D01*
X0317958Y0161815D01*
X0317968Y0161973D01*
X0317982Y0162130D01*
X0318000Y0162286D01*
X0318021Y0162443D01*
X0318047Y0162598D01*
X0318077Y0162753D01*
X0318110Y0162907D01*
X0318148Y0163060D01*
X0318189Y0163213D01*
X0318234Y0163364D01*
X0318283Y0163514D01*
X0318336Y0163662D01*
X0318392Y0163810D01*
X0318453Y0163955D01*
X0318516Y0164100D01*
X0318584Y0164242D01*
X0318655Y0164383D01*
X0318729Y0164522D01*
X0318807Y0164659D01*
X0318889Y0164794D01*
X0318973Y0164927D01*
X0319062Y0165058D01*
X0319153Y0165186D01*
X0319248Y0165313D01*
X0319345Y0165436D01*
X0319446Y0165558D01*
X0319550Y0165676D01*
X0319657Y0165792D01*
X0319767Y0165905D01*
X0319879Y0166016D01*
X0319995Y0166123D01*
X0320113Y0166228D01*
X0320233Y0166330D01*
X0320356Y0166428D01*
X0320482Y0166524D01*
X0320610Y0166616D01*
X0320740Y0166705D01*
X0320872Y0166791D01*
X0321007Y0166873D01*
X0321144Y0166952D01*
X0321282Y0167027D01*
X0321422Y0167099D01*
X0321565Y0167167D01*
X0321708Y0167232D01*
X0321854Y0167293D01*
X0322001Y0167350D01*
X0322149Y0167404D01*
X0322299Y0167454D01*
X0322449Y0167500D01*
X0322601Y0167542D01*
X0322754Y0167581D01*
X0322908Y0167615D01*
X0323063Y0167646D01*
X0323218Y0167672D01*
X0323374Y0167695D01*
X0323531Y0167714D01*
X0323688Y0167729D01*
X0323845Y0167740D01*
X0324003Y0167747D01*
X0324161Y0167750D01*
X0324318Y0167749D01*
X0324476Y0167744D01*
X0324633Y0167735D01*
X0324791Y0167722D01*
X0324947Y0167705D01*
X0325104Y0167684D01*
X0325259Y0167660D01*
X0325414Y0167631D01*
X0325569Y0167598D01*
X0325722Y0167562D01*
X0325875Y0167521D01*
X0326026Y0167477D01*
X0326176Y0167429D01*
X0326325Y0167378D01*
X0326473Y0167322D01*
X0326619Y0167263D01*
X0326764Y0167200D01*
X0326907Y0167133D01*
X0327048Y0167063D01*
X0327187Y0166990D01*
X0327325Y0166913D01*
X0327461Y0166832D01*
X0327594Y0166748D01*
X0327725Y0166661D01*
X0327854Y0166570D01*
X0327981Y0166476D01*
X0328106Y0166379D01*
X0328227Y0166279D01*
X0328347Y0166176D01*
X0328463Y0166070D01*
X0328577Y0165961D01*
X0328689Y0165849D01*
X0328797Y0165735D01*
X0328902Y0165617D01*
X0329005Y0165497D01*
X0329104Y0165375D01*
X0329200Y0165250D01*
X0329293Y0165122D01*
X0329383Y0164993D01*
X0329469Y0164861D01*
X0329553Y0164727D01*
X0329632Y0164591D01*
X0329709Y0164453D01*
X0329781Y0164313D01*
X0329850Y0164171D01*
X0329916Y0164028D01*
X0329978Y0163883D01*
X0330036Y0163736D01*
X0330091Y0163588D01*
X0330142Y0163439D01*
X0330189Y0163288D01*
X0330232Y0163137D01*
X0330271Y0162984D01*
X0330307Y0162830D01*
X0330338Y0162676D01*
X0330366Y0162521D01*
X0330390Y0162365D01*
X0330410Y0162208D01*
X0330426Y0162051D01*
X0330438Y0161894D01*
X0330446Y0161737D01*
X0330450Y0161579D01*
X0330450Y0161421D01*
X0330446Y0161263D01*
X0330438Y0161106D01*
X0330426Y0160949D01*
X0330410Y0160792D01*
X0330390Y0160635D01*
X0330366Y0160479D01*
X0330338Y0160324D01*
X0330307Y0160170D01*
X0330271Y0160016D01*
X0330232Y0159863D01*
X0330189Y0159712D01*
X0330142Y0159561D01*
X0330091Y0159412D01*
X0330036Y0159264D01*
X0329978Y0159117D01*
X0329916Y0158972D01*
X0329850Y0158829D01*
X0329781Y0158687D01*
X0329709Y0158547D01*
X0329632Y0158409D01*
X0329553Y0158273D01*
X0329469Y0158139D01*
X0329383Y0158007D01*
X0329293Y0157878D01*
X0329200Y0157750D01*
X0329104Y0157625D01*
X0329005Y0157503D01*
X0328902Y0157383D01*
X0328797Y0157265D01*
X0328689Y0157151D01*
X0328577Y0157039D01*
X0328463Y0156930D01*
X0328347Y0156824D01*
X0328227Y0156721D01*
X0328106Y0156621D01*
X0327981Y0156524D01*
X0327854Y0156430D01*
X0327725Y0156339D01*
X0327594Y0156252D01*
X0327461Y0156168D01*
X0327325Y0156087D01*
X0327187Y0156010D01*
X0327048Y0155937D01*
X0326907Y0155867D01*
X0326764Y0155800D01*
X0326619Y0155737D01*
X0326473Y0155678D01*
X0326325Y0155622D01*
X0326176Y0155571D01*
X0326026Y0155523D01*
X0325875Y0155479D01*
X0325722Y0155438D01*
X0325569Y0155402D01*
X0325414Y0155369D01*
X0325259Y0155340D01*
X0325104Y0155316D01*
X0324947Y0155295D01*
X0324791Y0155278D01*
X0324633Y0155265D01*
X0324476Y0155256D01*
X0324318Y0155251D01*
X0324161Y0155250D01*
X0324003Y0155253D01*
X0323845Y0155260D01*
X0323688Y0155271D01*
X0323531Y0155286D01*
X0323374Y0155305D01*
X0323218Y0155328D01*
X0323063Y0155354D01*
X0322908Y0155385D01*
X0322754Y0155419D01*
X0322601Y0155458D01*
X0322449Y0155500D01*
X0322299Y0155546D01*
X0322149Y0155596D01*
X0322001Y0155650D01*
X0321854Y0155707D01*
X0321708Y0155768D01*
X0321565Y0155833D01*
X0321422Y0155901D01*
X0321282Y0155973D01*
X0321144Y0156048D01*
X0321007Y0156127D01*
X0320872Y0156209D01*
X0320740Y0156295D01*
X0320610Y0156384D01*
X0320482Y0156476D01*
X0320356Y0156572D01*
X0320233Y0156670D01*
X0320113Y0156772D01*
X0319995Y0156877D01*
X0319879Y0156984D01*
X0319767Y0157095D01*
X0319657Y0157208D01*
X0319550Y0157324D01*
X0319446Y0157442D01*
X0319345Y0157564D01*
X0319248Y0157687D01*
X0319153Y0157814D01*
X0319062Y0157942D01*
X0318973Y0158073D01*
X0318889Y0158206D01*
X0318807Y0158341D01*
X0318729Y0158478D01*
X0318655Y0158617D01*
X0318584Y0158758D01*
X0318516Y0158900D01*
X0318453Y0159045D01*
X0318392Y0159190D01*
X0318336Y0159338D01*
X0318283Y0159486D01*
X0318234Y0159636D01*
X0318189Y0159787D01*
X0318148Y0159940D01*
X0318110Y0160093D01*
X0318077Y0160247D01*
X0318047Y0160402D01*
X0318021Y0160557D01*
X0318000Y0160714D01*
X0317982Y0160870D01*
X0317968Y0161027D01*
X0317958Y0161185D01*
X0317952Y0161342D01*
X0317950Y0161500D01*
X0189000Y0253800D02*
X0188964Y0253694D01*
X0188924Y0253589D01*
X0188880Y0253486D01*
X0188832Y0253385D01*
X0188782Y0253285D01*
X0188727Y0253187D01*
X0188670Y0253091D01*
X0188609Y0252997D01*
X0188545Y0252905D01*
X0188477Y0252816D01*
X0188407Y0252729D01*
X0188334Y0252644D01*
X0188257Y0252562D01*
X0188178Y0252483D01*
X0188097Y0252406D01*
X0188012Y0252333D01*
X0187925Y0252262D01*
X0187836Y0252195D01*
X0187745Y0252130D01*
X0187651Y0252069D01*
X0187555Y0252011D01*
X0187457Y0251956D01*
X0187358Y0251905D01*
X0187256Y0251858D01*
X0187153Y0251813D01*
X0187049Y0251773D01*
X0186943Y0251736D01*
X0186836Y0251703D01*
X0186728Y0251673D01*
X0186619Y0251648D01*
X0186510Y0251626D01*
X0186399Y0251608D01*
X0186288Y0251594D01*
X0186177Y0251583D01*
X0186065Y0251577D01*
X0185953Y0251574D01*
X0185841Y0251575D01*
X0185729Y0251581D01*
X0185618Y0251590D01*
X0185506Y0251602D01*
X0185396Y0251619D01*
X0185286Y0251640D01*
X0185176Y0251664D01*
X0185068Y0251692D01*
X0184961Y0251724D01*
X0184855Y0251760D01*
X0184750Y0251799D01*
X0189000Y0253801D02*
X0189048Y0253909D01*
X0189092Y0254019D01*
X0189133Y0254131D01*
X0189170Y0254244D01*
X0189203Y0254358D01*
X0189233Y0254473D01*
X0189258Y0254589D01*
X0189280Y0254706D01*
X0189298Y0254823D01*
X0189312Y0254941D01*
X0189322Y0255060D01*
X0189328Y0255178D01*
X0189330Y0255297D01*
X0189328Y0255416D01*
X0189322Y0255535D01*
X0189313Y0255653D01*
X0189299Y0255771D01*
X0189282Y0255888D01*
X0189260Y0256005D01*
X0189235Y0256121D01*
X0189206Y0256237D01*
X0189173Y0256351D01*
X0189136Y0256464D01*
X0189096Y0256575D01*
X0189052Y0256686D01*
X0189004Y0256795D01*
X0188952Y0256902D01*
X0188897Y0257007D01*
X0188839Y0257111D01*
X0188777Y0257212D01*
X0188712Y0257311D01*
X0188644Y0257409D01*
X0188572Y0257503D01*
X0188498Y0257596D01*
X0188420Y0257686D01*
X0188339Y0257773D01*
X0188256Y0257858D01*
X0188170Y0257939D01*
X0188081Y0258018D01*
X0187989Y0258094D01*
X0187895Y0258167D01*
X0187799Y0258236D01*
X0187700Y0258302D01*
X0187600Y0258365D01*
X0187497Y0258425D01*
X0187392Y0258481D01*
X0187286Y0258534D01*
X0187178Y0258583D01*
X0187068Y0258629D01*
X0186957Y0258670D01*
X0186844Y0258709D01*
X0186730Y0258743D01*
X0186616Y0258773D01*
X0186500Y0258800D01*
X0339200Y0161500D02*
X0337118Y0157444D01*
X0334937Y0153440D01*
X0332659Y0149490D01*
X0330286Y0145597D01*
X0327818Y0141763D01*
X0325258Y0137990D01*
X0322607Y0134280D01*
X0319866Y0130637D01*
X0317037Y0127061D01*
X0314122Y0123555D01*
X0311123Y0120121D01*
X0308040Y0116762D01*
X0304877Y0113478D01*
X0301635Y0110273D01*
X0298315Y0107147D01*
X0294920Y0104103D01*
X0291453Y0101143D01*
X0287914Y0098268D01*
X0284306Y0095480D01*
X0280631Y0092781D01*
X0276892Y0090173D01*
X0273090Y0087656D01*
X0269228Y0085232D01*
X0265308Y0082904D01*
X0261332Y0080671D01*
X0257304Y0078536D01*
X0253224Y0076500D01*
X0249096Y0074564D01*
X0244922Y0072729D01*
X0240705Y0070996D01*
X0236447Y0069367D01*
X0232150Y0067842D01*
X0227817Y0066421D01*
X0223451Y0065107D01*
X0219055Y0063900D01*
X0214630Y0062800D01*
X0210180Y0061808D01*
X0205707Y0060925D01*
X0201213Y0060151D01*
X0196703Y0059487D01*
X0192177Y0058933D01*
X0187639Y0058489D01*
X0183092Y0058156D01*
X0178538Y0057934D01*
X0173980Y0057823D01*
X0169420Y0057823D01*
X0164862Y0057934D01*
X0160308Y0058156D01*
X0155761Y0058489D01*
X0151223Y0058933D01*
X0146697Y0059487D01*
X0142187Y0060151D01*
X0137693Y0060925D01*
X0133220Y0061808D01*
X0128770Y0062800D01*
X0124345Y0063900D01*
X0119949Y0065107D01*
X0115583Y0066421D01*
X0111250Y0067842D01*
X0106953Y0069367D01*
X0102695Y0070996D01*
X0098478Y0072729D01*
X0094304Y0074564D01*
X0090176Y0076500D01*
X0086096Y0078536D01*
X0082068Y0080671D01*
X0078092Y0082904D01*
X0074172Y0085232D01*
X0070310Y0087656D01*
X0066508Y0090173D01*
X0062769Y0092781D01*
X0059094Y0095480D01*
X0055486Y0098268D01*
X0051947Y0101143D01*
X0048480Y0104103D01*
X0045085Y0107147D01*
X0041765Y0110273D01*
X0038523Y0113478D01*
X0035360Y0116762D01*
X0032277Y0120121D01*
X0029278Y0123555D01*
X0026363Y0127061D01*
X0023534Y0130637D01*
X0020793Y0134280D01*
X0018142Y0137990D01*
X0015582Y0141763D01*
X0013114Y0145597D01*
X0010741Y0149490D01*
X0008463Y0153440D01*
X0006282Y0157444D01*
X0004200Y0161500D01*
X0012950Y0161500D02*
X0012952Y0161658D01*
X0012958Y0161815D01*
X0012968Y0161973D01*
X0012982Y0162130D01*
X0013000Y0162286D01*
X0013021Y0162443D01*
X0013047Y0162598D01*
X0013077Y0162753D01*
X0013110Y0162907D01*
X0013148Y0163060D01*
X0013189Y0163213D01*
X0013234Y0163364D01*
X0013283Y0163514D01*
X0013336Y0163662D01*
X0013392Y0163810D01*
X0013453Y0163955D01*
X0013516Y0164100D01*
X0013584Y0164242D01*
X0013655Y0164383D01*
X0013729Y0164522D01*
X0013807Y0164659D01*
X0013889Y0164794D01*
X0013973Y0164927D01*
X0014062Y0165058D01*
X0014153Y0165186D01*
X0014248Y0165313D01*
X0014345Y0165436D01*
X0014446Y0165558D01*
X0014550Y0165676D01*
X0014657Y0165792D01*
X0014767Y0165905D01*
X0014879Y0166016D01*
X0014995Y0166123D01*
X0015113Y0166228D01*
X0015233Y0166330D01*
X0015356Y0166428D01*
X0015482Y0166524D01*
X0015610Y0166616D01*
X0015740Y0166705D01*
X0015872Y0166791D01*
X0016007Y0166873D01*
X0016144Y0166952D01*
X0016282Y0167027D01*
X0016422Y0167099D01*
X0016565Y0167167D01*
X0016708Y0167232D01*
X0016854Y0167293D01*
X0017001Y0167350D01*
X0017149Y0167404D01*
X0017299Y0167454D01*
X0017449Y0167500D01*
X0017601Y0167542D01*
X0017754Y0167581D01*
X0017908Y0167615D01*
X0018063Y0167646D01*
X0018218Y0167672D01*
X0018374Y0167695D01*
X0018531Y0167714D01*
X0018688Y0167729D01*
X0018845Y0167740D01*
X0019003Y0167747D01*
X0019161Y0167750D01*
X0019318Y0167749D01*
X0019476Y0167744D01*
X0019633Y0167735D01*
X0019791Y0167722D01*
X0019947Y0167705D01*
X0020104Y0167684D01*
X0020259Y0167660D01*
X0020414Y0167631D01*
X0020569Y0167598D01*
X0020722Y0167562D01*
X0020875Y0167521D01*
X0021026Y0167477D01*
X0021176Y0167429D01*
X0021325Y0167378D01*
X0021473Y0167322D01*
X0021619Y0167263D01*
X0021764Y0167200D01*
X0021907Y0167133D01*
X0022048Y0167063D01*
X0022187Y0166990D01*
X0022325Y0166913D01*
X0022461Y0166832D01*
X0022594Y0166748D01*
X0022725Y0166661D01*
X0022854Y0166570D01*
X0022981Y0166476D01*
X0023106Y0166379D01*
X0023227Y0166279D01*
X0023347Y0166176D01*
X0023463Y0166070D01*
X0023577Y0165961D01*
X0023689Y0165849D01*
X0023797Y0165735D01*
X0023902Y0165617D01*
X0024005Y0165497D01*
X0024104Y0165375D01*
X0024200Y0165250D01*
X0024293Y0165122D01*
X0024383Y0164993D01*
X0024469Y0164861D01*
X0024553Y0164727D01*
X0024632Y0164591D01*
X0024709Y0164453D01*
X0024781Y0164313D01*
X0024850Y0164171D01*
X0024916Y0164028D01*
X0024978Y0163883D01*
X0025036Y0163736D01*
X0025091Y0163588D01*
X0025142Y0163439D01*
X0025189Y0163288D01*
X0025232Y0163137D01*
X0025271Y0162984D01*
X0025307Y0162830D01*
X0025338Y0162676D01*
X0025366Y0162521D01*
X0025390Y0162365D01*
X0025410Y0162208D01*
X0025426Y0162051D01*
X0025438Y0161894D01*
X0025446Y0161737D01*
X0025450Y0161579D01*
X0025450Y0161421D01*
X0025446Y0161263D01*
X0025438Y0161106D01*
X0025426Y0160949D01*
X0025410Y0160792D01*
X0025390Y0160635D01*
X0025366Y0160479D01*
X0025338Y0160324D01*
X0025307Y0160170D01*
X0025271Y0160016D01*
X0025232Y0159863D01*
X0025189Y0159712D01*
X0025142Y0159561D01*
X0025091Y0159412D01*
X0025036Y0159264D01*
X0024978Y0159117D01*
X0024916Y0158972D01*
X0024850Y0158829D01*
X0024781Y0158687D01*
X0024709Y0158547D01*
X0024632Y0158409D01*
X0024553Y0158273D01*
X0024469Y0158139D01*
X0024383Y0158007D01*
X0024293Y0157878D01*
X0024200Y0157750D01*
X0024104Y0157625D01*
X0024005Y0157503D01*
X0023902Y0157383D01*
X0023797Y0157265D01*
X0023689Y0157151D01*
X0023577Y0157039D01*
X0023463Y0156930D01*
X0023347Y0156824D01*
X0023227Y0156721D01*
X0023106Y0156621D01*
X0022981Y0156524D01*
X0022854Y0156430D01*
X0022725Y0156339D01*
X0022594Y0156252D01*
X0022461Y0156168D01*
X0022325Y0156087D01*
X0022187Y0156010D01*
X0022048Y0155937D01*
X0021907Y0155867D01*
X0021764Y0155800D01*
X0021619Y0155737D01*
X0021473Y0155678D01*
X0021325Y0155622D01*
X0021176Y0155571D01*
X0021026Y0155523D01*
X0020875Y0155479D01*
X0020722Y0155438D01*
X0020569Y0155402D01*
X0020414Y0155369D01*
X0020259Y0155340D01*
X0020104Y0155316D01*
X0019947Y0155295D01*
X0019791Y0155278D01*
X0019633Y0155265D01*
X0019476Y0155256D01*
X0019318Y0155251D01*
X0019161Y0155250D01*
X0019003Y0155253D01*
X0018845Y0155260D01*
X0018688Y0155271D01*
X0018531Y0155286D01*
X0018374Y0155305D01*
X0018218Y0155328D01*
X0018063Y0155354D01*
X0017908Y0155385D01*
X0017754Y0155419D01*
X0017601Y0155458D01*
X0017449Y0155500D01*
X0017299Y0155546D01*
X0017149Y0155596D01*
X0017001Y0155650D01*
X0016854Y0155707D01*
X0016708Y0155768D01*
X0016565Y0155833D01*
X0016422Y0155901D01*
X0016282Y0155973D01*
X0016144Y0156048D01*
X0016007Y0156127D01*
X0015872Y0156209D01*
X0015740Y0156295D01*
X0015610Y0156384D01*
X0015482Y0156476D01*
X0015356Y0156572D01*
X0015233Y0156670D01*
X0015113Y0156772D01*
X0014995Y0156877D01*
X0014879Y0156984D01*
X0014767Y0157095D01*
X0014657Y0157208D01*
X0014550Y0157324D01*
X0014446Y0157442D01*
X0014345Y0157564D01*
X0014248Y0157687D01*
X0014153Y0157814D01*
X0014062Y0157942D01*
X0013973Y0158073D01*
X0013889Y0158206D01*
X0013807Y0158341D01*
X0013729Y0158478D01*
X0013655Y0158617D01*
X0013584Y0158758D01*
X0013516Y0158900D01*
X0013453Y0159045D01*
X0013392Y0159190D01*
X0013336Y0159338D01*
X0013283Y0159486D01*
X0013234Y0159636D01*
X0013189Y0159787D01*
X0013148Y0159940D01*
X0013110Y0160093D01*
X0013077Y0160247D01*
X0013047Y0160402D01*
X0013021Y0160557D01*
X0013000Y0160714D01*
X0012982Y0160870D01*
X0012968Y0161027D01*
X0012958Y0161185D01*
X0012952Y0161342D01*
X0012950Y0161500D01*
X0157250Y0251801D02*
X0157363Y0251814D01*
X0157475Y0251832D01*
X0157587Y0251852D01*
X0157699Y0251876D01*
X0157809Y0251904D01*
X0157919Y0251935D01*
X0158027Y0251969D01*
X0158134Y0252007D01*
X0158241Y0252048D01*
X0158345Y0252092D01*
X0158449Y0252139D01*
X0158551Y0252190D01*
X0158651Y0252244D01*
X0158750Y0252301D01*
X0157250Y0251801D02*
X0157132Y0251816D01*
X0157014Y0251835D01*
X0156896Y0251857D01*
X0156780Y0251884D01*
X0156664Y0251914D01*
X0156549Y0251949D01*
X0156436Y0251986D01*
X0156324Y0252028D01*
X0156213Y0252073D01*
X0156104Y0252122D01*
X0155997Y0252175D01*
X0155891Y0252231D01*
X0155787Y0252290D01*
X0155686Y0252353D01*
X0155586Y0252419D01*
X0155489Y0252489D01*
X0155394Y0252561D01*
X0155301Y0252637D01*
X0155211Y0252715D01*
X0155123Y0252797D01*
X0155039Y0252881D01*
X0154957Y0252968D01*
X0154878Y0253058D01*
X0154802Y0253151D01*
X0154729Y0253245D01*
X0154659Y0253342D01*
X0154592Y0253442D01*
X0154529Y0253543D01*
X0154469Y0253647D01*
X0154413Y0253752D01*
X0154360Y0253859D01*
X0154311Y0253968D01*
X0154265Y0254079D01*
X0154223Y0254191D01*
X0154184Y0254304D01*
X0154150Y0254418D01*
X0154119Y0254534D01*
X0154092Y0254650D01*
X0154068Y0254768D01*
X0154049Y0254886D01*
X0154033Y0255004D01*
X0154022Y0255123D01*
X0154014Y0255242D01*
X0154010Y0255362D01*
X0154011Y0255482D01*
X0154015Y0255601D01*
X0154023Y0255720D01*
X0154035Y0255839D01*
X0154051Y0255958D01*
X0154070Y0256076D01*
X0154094Y0256193D01*
X0154121Y0256309D01*
X0154153Y0256425D01*
X0154188Y0256539D01*
X0154227Y0256652D01*
X0154269Y0256764D01*
X0154315Y0256874D01*
X0154365Y0256983D01*
X0154418Y0257090D01*
X0154475Y0257195D01*
X0154535Y0257299D01*
X0154599Y0257400D01*
X0154666Y0257499D01*
X0154736Y0257596D01*
X0154809Y0257690D01*
X0154885Y0257783D01*
X0154965Y0257872D01*
X0155047Y0257959D01*
X0155132Y0258043D01*
X0155219Y0258124D01*
X0155310Y0258203D01*
X0155403Y0258278D01*
X0155498Y0258350D01*
X0155596Y0258419D01*
X0155695Y0258485D01*
X0155797Y0258548D01*
X0155901Y0258607D01*
X0156007Y0258662D01*
X0156115Y0258714D01*
X0156224Y0258763D01*
X0156335Y0258808D01*
X0156447Y0258849D01*
X0156561Y0258887D01*
X0156675Y0258921D01*
X0156791Y0258951D01*
X0156908Y0258977D01*
X0157025Y0258999D01*
X0157143Y0259018D01*
X0157262Y0259033D01*
X0157381Y0259043D01*
X0157500Y0259050D01*
X0158750Y0252300D02*
X0159813Y0252576D01*
X0160883Y0252827D01*
X0161958Y0253053D01*
X0163038Y0253252D01*
X0164122Y0253426D01*
X0165210Y0253575D01*
X0166302Y0253697D01*
X0167396Y0253793D01*
X0168492Y0253863D01*
X0169590Y0253907D01*
X0170688Y0253926D01*
X0171786Y0253917D01*
X0172884Y0253883D01*
X0173981Y0253823D01*
X0175076Y0253737D01*
X0176168Y0253624D01*
X0177258Y0253486D01*
X0178344Y0253322D01*
X0179426Y0253132D01*
X0180503Y0252916D01*
X0181574Y0252675D01*
X0182640Y0252409D01*
X0183699Y0252117D01*
X0184750Y0251800D01*
X0186499Y0258800D02*
X0184911Y0259134D01*
X0183315Y0259431D01*
X0181713Y0259690D01*
X0180105Y0259912D01*
X0178493Y0260096D01*
X0176876Y0260243D01*
X0175257Y0260352D01*
X0173635Y0260422D01*
X0172013Y0260455D01*
X0170390Y0260450D01*
X0168767Y0260408D01*
X0167146Y0260327D01*
X0165527Y0260208D01*
X0163912Y0260052D01*
X0162300Y0259857D01*
X0160694Y0259626D01*
X0159093Y0259356D01*
X0157500Y0259050D01*
X0156501Y0063800D02*
X0158089Y0063466D01*
X0159685Y0063169D01*
X0161287Y0062910D01*
X0162895Y0062688D01*
X0164507Y0062504D01*
X0166124Y0062357D01*
X0167743Y0062248D01*
X0169365Y0062178D01*
X0170987Y0062145D01*
X0172610Y0062150D01*
X0174233Y0062192D01*
X0175854Y0062273D01*
X0177473Y0062392D01*
X0179088Y0062548D01*
X0180700Y0062743D01*
X0182306Y0062974D01*
X0183907Y0063244D01*
X0185500Y0063550D01*
X0185619Y0063557D01*
X0185738Y0063567D01*
X0185857Y0063582D01*
X0185975Y0063601D01*
X0186092Y0063623D01*
X0186209Y0063649D01*
X0186325Y0063679D01*
X0186439Y0063713D01*
X0186553Y0063751D01*
X0186665Y0063792D01*
X0186776Y0063837D01*
X0186885Y0063886D01*
X0186993Y0063938D01*
X0187099Y0063993D01*
X0187203Y0064052D01*
X0187305Y0064115D01*
X0187404Y0064181D01*
X0187502Y0064250D01*
X0187597Y0064322D01*
X0187690Y0064397D01*
X0187781Y0064476D01*
X0187868Y0064557D01*
X0187953Y0064641D01*
X0188035Y0064728D01*
X0188115Y0064817D01*
X0188191Y0064910D01*
X0188264Y0065004D01*
X0188334Y0065101D01*
X0188401Y0065200D01*
X0188465Y0065301D01*
X0188525Y0065405D01*
X0188582Y0065510D01*
X0188635Y0065617D01*
X0188685Y0065726D01*
X0188731Y0065836D01*
X0188773Y0065948D01*
X0188812Y0066061D01*
X0188847Y0066175D01*
X0188879Y0066291D01*
X0188906Y0066407D01*
X0188930Y0066524D01*
X0188949Y0066642D01*
X0188965Y0066761D01*
X0188977Y0066880D01*
X0188985Y0066999D01*
X0188989Y0067118D01*
X0188990Y0067238D01*
X0188986Y0067358D01*
X0188978Y0067477D01*
X0188967Y0067596D01*
X0188951Y0067714D01*
X0188932Y0067832D01*
X0188908Y0067950D01*
X0188881Y0068066D01*
X0188850Y0068182D01*
X0188816Y0068296D01*
X0188777Y0068409D01*
X0188735Y0068521D01*
X0188689Y0068632D01*
X0188640Y0068741D01*
X0188587Y0068848D01*
X0188531Y0068953D01*
X0188471Y0069057D01*
X0188408Y0069158D01*
X0188341Y0069258D01*
X0188271Y0069355D01*
X0188198Y0069449D01*
X0188122Y0069542D01*
X0188043Y0069632D01*
X0187961Y0069719D01*
X0187877Y0069803D01*
X0187789Y0069885D01*
X0187699Y0069963D01*
X0187606Y0070039D01*
X0187511Y0070111D01*
X0187414Y0070181D01*
X0187314Y0070247D01*
X0187213Y0070310D01*
X0187109Y0070369D01*
X0187003Y0070425D01*
X0186896Y0070478D01*
X0186787Y0070527D01*
X0186676Y0070572D01*
X0186564Y0070614D01*
X0186451Y0070651D01*
X0186336Y0070686D01*
X0186220Y0070716D01*
X0186104Y0070743D01*
X0185986Y0070765D01*
X0185868Y0070784D01*
X0185750Y0070799D01*
X0185637Y0070786D01*
X0185525Y0070768D01*
X0185413Y0070748D01*
X0185301Y0070724D01*
X0185191Y0070696D01*
X0185081Y0070665D01*
X0184973Y0070631D01*
X0184866Y0070593D01*
X0184759Y0070552D01*
X0184655Y0070508D01*
X0184551Y0070461D01*
X0184449Y0070410D01*
X0184349Y0070356D01*
X0184250Y0070299D01*
X0184250Y0070300D02*
X0183187Y0070024D01*
X0182117Y0069773D01*
X0181042Y0069547D01*
X0179962Y0069348D01*
X0178878Y0069174D01*
X0177790Y0069025D01*
X0176698Y0068903D01*
X0175604Y0068807D01*
X0174508Y0068737D01*
X0173410Y0068693D01*
X0172312Y0068674D01*
X0171214Y0068683D01*
X0170116Y0068717D01*
X0169019Y0068777D01*
X0167924Y0068863D01*
X0166832Y0068976D01*
X0165742Y0069114D01*
X0164656Y0069278D01*
X0163574Y0069468D01*
X0162497Y0069684D01*
X0161426Y0069925D01*
X0160360Y0070191D01*
X0159301Y0070483D01*
X0158250Y0070800D01*
D11*
X0159000Y0067502D02*
X0160351Y0067502D01*
X0160802Y0067052D01*
X0160802Y0066151D01*
X0160351Y0065701D01*
X0159000Y0065701D01*
X0159901Y0065701D02*
X0160802Y0064800D01*
X0161947Y0065250D02*
X0162397Y0064800D01*
X0163298Y0064800D01*
X0163748Y0065250D01*
X0163748Y0067052D01*
X0163298Y0067502D01*
X0162397Y0067502D01*
X0161947Y0067052D01*
X0161947Y0065250D01*
X0164893Y0065250D02*
X0164893Y0067502D01*
X0166695Y0067502D02*
X0166695Y0065250D01*
X0166244Y0064800D01*
X0165343Y0064800D01*
X0164893Y0065250D01*
X0167840Y0067502D02*
X0169641Y0067502D01*
X0168740Y0067502D02*
X0168740Y0064800D01*
X0170786Y0064800D02*
X0172588Y0064800D01*
X0171687Y0066151D02*
X0170786Y0066151D01*
X0170786Y0067502D02*
X0170786Y0064800D01*
X0170786Y0067502D02*
X0172588Y0067502D01*
X0176679Y0067052D02*
X0176679Y0065250D01*
X0177129Y0064800D01*
X0178030Y0064800D01*
X0178481Y0065250D01*
X0178481Y0067052D01*
X0178030Y0067502D01*
X0177129Y0067502D01*
X0176679Y0067052D01*
X0179626Y0067502D02*
X0179626Y0065250D01*
X0180076Y0064800D01*
X0180977Y0064800D01*
X0181427Y0065250D01*
X0181427Y0067502D01*
X0182572Y0067502D02*
X0184374Y0067502D01*
X0183473Y0067502D02*
X0183473Y0064800D01*
X0159000Y0064800D02*
X0159000Y0067502D01*
X0159783Y0255100D02*
X0158882Y0256001D01*
X0159332Y0256001D02*
X0157981Y0256001D01*
X0157981Y0255100D02*
X0157981Y0257802D01*
X0159332Y0257802D01*
X0159783Y0257352D01*
X0159783Y0256451D01*
X0159332Y0256001D01*
X0160928Y0255550D02*
X0161378Y0255100D01*
X0162279Y0255100D01*
X0162729Y0255550D01*
X0162729Y0257352D01*
X0162279Y0257802D01*
X0161378Y0257802D01*
X0160928Y0257352D01*
X0160928Y0255550D01*
X0163874Y0255550D02*
X0164325Y0255100D01*
X0165226Y0255100D01*
X0165676Y0255550D01*
X0165676Y0257802D01*
X0166821Y0257802D02*
X0168622Y0257802D01*
X0167722Y0257802D02*
X0167722Y0255100D01*
X0169767Y0255100D02*
X0169767Y0257802D01*
X0171569Y0257802D01*
X0170668Y0256451D02*
X0169767Y0256451D01*
X0169767Y0255100D02*
X0171569Y0255100D01*
X0175660Y0255550D02*
X0175660Y0257352D01*
X0176111Y0257802D01*
X0177012Y0257802D01*
X0177462Y0257352D01*
X0177462Y0255550D01*
X0177012Y0255100D01*
X0176111Y0255100D01*
X0175660Y0255550D01*
X0178607Y0255550D02*
X0178607Y0257802D01*
X0180409Y0257802D02*
X0180409Y0255550D01*
X0179958Y0255100D01*
X0179057Y0255100D01*
X0178607Y0255550D01*
X0181553Y0257802D02*
X0183355Y0257802D01*
X0182454Y0257802D02*
X0182454Y0255100D01*
X0163874Y0255550D02*
X0163874Y0257802D01*
M02*
