G75*
%MOIN*%
%OFA0B0*%
%FSLAX25Y25*%
%IPPOS*%
%LPD*%
%AMOC8*
5,1,8,0,0,1.08239X$1,22.5*
%
%ADD10C,0.00600*%
%ADD11C,0.00800*%
%ADD12C,0.01000*%
%ADD13C,0.00591*%
%ADD14C,0.00700*%
%ADD15C,0.01600*%
%ADD16R,0.00625X0.00125*%
%ADD17R,0.01375X0.00125*%
%ADD18R,0.01250X0.00125*%
%ADD19R,0.02250X0.00125*%
%ADD20R,0.02375X0.00125*%
%ADD21R,0.04375X0.00125*%
%ADD22R,0.02750X0.00125*%
%ADD23R,0.02875X0.00125*%
%ADD24R,0.03500X0.00125*%
%ADD25R,0.04000X0.00125*%
%ADD26R,0.04250X0.00125*%
%ADD27R,0.04500X0.00125*%
%ADD28R,0.04625X0.00125*%
%ADD29R,0.04750X0.00125*%
%ADD30R,0.05125X0.00125*%
%ADD31R,0.02000X0.00125*%
%ADD32R,0.01875X0.00125*%
%ADD33R,0.01125X0.00125*%
%ADD34R,0.01750X0.00125*%
%ADD35R,0.01625X0.00125*%
%ADD36R,0.01500X0.00125*%
%ADD37R,0.05000X0.00125*%
%ADD38R,0.04875X0.00125*%
%ADD39R,0.02500X0.00125*%
%ADD40R,0.03000X0.00125*%
%ADD41R,0.03375X0.00125*%
%ADD42R,0.03750X0.00125*%
%ADD43R,0.04125X0.00125*%
%ADD44R,0.02125X0.00125*%
%ADD45R,0.05250X0.00125*%
%ADD46R,0.03875X0.00125*%
%ADD47R,0.03625X0.00125*%
%ADD48R,0.03125X0.00125*%
%ADD49R,0.01000X0.00125*%
%ADD50R,0.00125X0.00125*%
%ADD51R,0.00250X0.00125*%
%ADD52R,0.00375X0.00125*%
%ADD53R,0.00500X0.00125*%
%ADD54R,0.00750X0.00125*%
%ADD55R,0.00875X0.00125*%
%ADD56R,0.02625X0.00125*%
%ADD57R,0.03250X0.00125*%
%ADD58R,0.05500X0.00125*%
%ADD59R,0.05625X0.00125*%
%ADD60R,0.05750X0.00125*%
%ADD61R,0.06125X0.00125*%
%ADD62R,0.06000X0.00125*%
%ADD63R,0.06375X0.00125*%
%ADD64R,0.06500X0.00125*%
%ADD65R,0.06750X0.00125*%
%ADD66R,0.06625X0.00125*%
%ADD67R,0.06875X0.00125*%
%ADD68R,0.07125X0.00125*%
%ADD69R,0.07250X0.00125*%
%ADD70R,0.07375X0.00125*%
%ADD71R,0.07625X0.00125*%
%ADD72R,0.07750X0.00125*%
%ADD73R,0.08125X0.00125*%
%ADD74R,0.08000X0.00125*%
%ADD75R,0.08250X0.00125*%
%ADD76R,0.08875X0.00125*%
%ADD77R,0.09000X0.00125*%
%ADD78R,0.09125X0.00125*%
%ADD79R,0.09750X0.00125*%
%ADD80R,0.10875X0.00125*%
%ADD81R,0.10750X0.00125*%
%ADD82R,0.11625X0.00125*%
%ADD83R,0.11500X0.00125*%
%ADD84R,0.26875X0.00125*%
%ADD85R,0.26625X0.00125*%
%ADD86R,0.26250X0.00125*%
%ADD87R,0.25875X0.00125*%
%ADD88R,0.25625X0.00125*%
%ADD89R,0.25250X0.00125*%
%ADD90R,0.25000X0.00125*%
%ADD91R,0.24625X0.00125*%
%ADD92R,0.24125X0.00125*%
%ADD93R,0.23875X0.00125*%
%ADD94R,0.23500X0.00125*%
%ADD95R,0.23375X0.00125*%
%ADD96R,0.22875X0.00125*%
%ADD97R,0.22250X0.00125*%
%ADD98R,0.22125X0.00125*%
%ADD99R,0.21625X0.00125*%
%ADD100R,0.21250X0.00125*%
%ADD101R,0.20875X0.00125*%
%ADD102R,0.20375X0.00125*%
%ADD103R,0.19875X0.00125*%
%ADD104R,0.19375X0.00125*%
%ADD105R,0.19125X0.00125*%
%ADD106R,0.18375X0.00125*%
%ADD107R,0.17875X0.00125*%
%ADD108R,0.17500X0.00125*%
%ADD109R,0.16625X0.00125*%
%ADD110R,0.16375X0.00125*%
%ADD111R,0.15750X0.00125*%
%ADD112R,0.14875X0.00125*%
%ADD113R,0.14375X0.00125*%
%ADD114R,0.13500X0.00125*%
%ADD115R,0.12875X0.00125*%
%ADD116R,0.12125X0.00125*%
%ADD117R,0.10375X0.00125*%
%ADD118R,0.08375X0.00125*%
%ADD119R,0.06250X0.00125*%
%ADD120R,0.05875X0.00125*%
%ADD121R,0.05375X0.00125*%
%ADD122R,0.13125X0.00125*%
%ADD123R,0.13625X0.00125*%
%ADD124R,0.07500X0.00125*%
%ADD125R,0.07875X0.00125*%
D10*
X0082533Y0097850D02*
X0081966Y0098417D01*
X0082533Y0098984D01*
X0083668Y0098984D01*
X0084235Y0099551D01*
X0083668Y0100119D01*
X0081966Y0100119D01*
X0082533Y0097850D02*
X0084235Y0097850D01*
X0085649Y0098984D02*
X0087918Y0098984D01*
X0087918Y0098417D02*
X0087918Y0099551D01*
X0087351Y0100119D01*
X0086217Y0100119D01*
X0085649Y0099551D01*
X0085649Y0098984D01*
X0086217Y0097850D02*
X0087351Y0097850D01*
X0087918Y0098417D01*
X0089333Y0097850D02*
X0091034Y0097850D01*
X0091601Y0098417D01*
X0091601Y0099551D01*
X0091034Y0100119D01*
X0089333Y0100119D01*
X0089333Y0101253D02*
X0089333Y0097850D01*
X0093016Y0098417D02*
X0093016Y0099551D01*
X0093583Y0100119D01*
X0094717Y0100119D01*
X0095284Y0099551D01*
X0095284Y0098417D01*
X0094717Y0097850D01*
X0093583Y0097850D01*
X0093016Y0098417D01*
X0096699Y0097850D02*
X0096699Y0099551D01*
X0097266Y0100119D01*
X0097833Y0099551D01*
X0097833Y0097850D01*
X0098967Y0097850D02*
X0098967Y0100119D01*
X0098400Y0100119D01*
X0097833Y0099551D01*
X0098494Y0102716D02*
X0099061Y0102716D01*
X0098494Y0102716D02*
X0097927Y0103283D01*
X0097927Y0106119D01*
X0096512Y0105551D02*
X0096512Y0104417D01*
X0095945Y0103850D01*
X0094243Y0103850D01*
X0092829Y0103850D02*
X0091695Y0103850D01*
X0092262Y0103850D02*
X0092262Y0107253D01*
X0092829Y0107253D01*
X0094243Y0106119D02*
X0095945Y0106119D01*
X0096512Y0105551D01*
X0097927Y0103850D02*
X0099628Y0103850D01*
X0100195Y0104417D01*
X0100195Y0106119D01*
X0101610Y0106119D02*
X0103311Y0106119D01*
X0103878Y0105551D01*
X0103878Y0104417D01*
X0103311Y0103850D01*
X0101610Y0103850D01*
X0104065Y0100119D02*
X0104065Y0098417D01*
X0104632Y0097850D01*
X0105199Y0098417D01*
X0105767Y0097850D01*
X0106334Y0098417D01*
X0106334Y0100119D01*
X0107748Y0099551D02*
X0107748Y0098984D01*
X0110017Y0098984D01*
X0110017Y0098417D02*
X0110017Y0099551D01*
X0109450Y0100119D01*
X0108315Y0100119D01*
X0107748Y0099551D01*
X0108315Y0097850D02*
X0109450Y0097850D01*
X0110017Y0098417D01*
X0111431Y0097850D02*
X0111431Y0099551D01*
X0111999Y0100119D01*
X0113700Y0100119D01*
X0113700Y0097850D01*
X0112566Y0103850D02*
X0113133Y0104417D01*
X0113133Y0106686D01*
X0113700Y0106119D02*
X0112566Y0106119D01*
X0111245Y0105551D02*
X0111245Y0104417D01*
X0110677Y0103850D01*
X0109543Y0103850D01*
X0108976Y0104417D01*
X0108976Y0105551D01*
X0109543Y0106119D01*
X0110677Y0106119D01*
X0111245Y0105551D01*
X0110017Y0109850D02*
X0110017Y0112119D01*
X0108883Y0112119D02*
X0108315Y0112119D01*
X0108883Y0112119D02*
X0110017Y0110984D01*
X0111431Y0111551D02*
X0111999Y0110984D01*
X0113700Y0110984D01*
X0113700Y0109850D02*
X0113700Y0113253D01*
X0111999Y0113253D01*
X0111431Y0112686D01*
X0111431Y0111551D01*
X0111431Y0115850D02*
X0111431Y0117551D01*
X0111999Y0118119D01*
X0112566Y0117551D01*
X0112566Y0115850D01*
X0113700Y0115850D02*
X0113700Y0118119D01*
X0113133Y0118119D01*
X0112566Y0117551D01*
X0110017Y0117551D02*
X0109450Y0118119D01*
X0108315Y0118119D01*
X0107748Y0117551D01*
X0107748Y0116417D01*
X0108315Y0115850D01*
X0109450Y0115850D01*
X0110017Y0116417D01*
X0110017Y0117551D01*
X0106334Y0117551D02*
X0105767Y0118119D01*
X0104065Y0118119D01*
X0104065Y0119253D02*
X0104065Y0115850D01*
X0105767Y0115850D01*
X0106334Y0116417D01*
X0106334Y0117551D01*
X0102651Y0117551D02*
X0102083Y0118119D01*
X0100949Y0118119D01*
X0100382Y0117551D01*
X0100382Y0116984D01*
X0102651Y0116984D01*
X0102651Y0116417D02*
X0102651Y0117551D01*
X0102651Y0116417D02*
X0102083Y0115850D01*
X0100949Y0115850D01*
X0098967Y0115850D02*
X0097266Y0115850D01*
X0096699Y0116417D01*
X0097266Y0116984D01*
X0098400Y0116984D01*
X0098967Y0117551D01*
X0098400Y0118119D01*
X0096699Y0118119D01*
X0096512Y0121850D02*
X0095378Y0121850D01*
X0095945Y0121850D02*
X0095945Y0125253D01*
X0096512Y0125253D01*
X0097927Y0123551D02*
X0098494Y0124119D01*
X0099628Y0124119D01*
X0100195Y0123551D01*
X0100195Y0122417D01*
X0099628Y0121850D01*
X0098494Y0121850D01*
X0097927Y0122417D01*
X0097927Y0123551D01*
X0101610Y0122417D02*
X0102177Y0121850D01*
X0103311Y0121850D01*
X0103878Y0122417D01*
X0103878Y0124686D01*
X0103311Y0125253D01*
X0102177Y0125253D01*
X0101610Y0124686D01*
X0108883Y0124119D02*
X0110017Y0125253D01*
X0108883Y0124119D02*
X0108883Y0122984D01*
X0110017Y0121850D01*
X0111999Y0121850D02*
X0111999Y0125253D01*
X0113700Y0123551D01*
X0111431Y0123551D01*
X0121999Y0123801D02*
X0121999Y0122100D01*
X0121999Y0123801D02*
X0122566Y0124369D01*
X0124267Y0124369D01*
X0124267Y0122100D01*
X0125682Y0122667D02*
X0125682Y0123801D01*
X0126249Y0124369D01*
X0127383Y0124369D01*
X0127950Y0123801D01*
X0127950Y0122667D01*
X0127383Y0122100D01*
X0126249Y0122100D01*
X0125682Y0122667D01*
X0129272Y0122100D02*
X0129839Y0122667D01*
X0129839Y0124936D01*
X0130406Y0124369D02*
X0129272Y0124369D01*
X0131727Y0124369D02*
X0132861Y0124369D01*
X0132294Y0124936D02*
X0132294Y0122667D01*
X0131727Y0122100D01*
X0134276Y0122100D02*
X0134276Y0124369D01*
X0136544Y0124369D02*
X0136544Y0122667D01*
X0135977Y0122100D01*
X0134276Y0122100D01*
X0137959Y0122667D02*
X0137959Y0123801D01*
X0138526Y0124369D01*
X0140228Y0124369D01*
X0140228Y0125503D02*
X0140228Y0122100D01*
X0138526Y0122100D01*
X0137959Y0122667D01*
X0138526Y0118369D02*
X0137959Y0117801D01*
X0137959Y0117234D01*
X0140228Y0117234D01*
X0140228Y0116667D02*
X0140228Y0117801D01*
X0139660Y0118369D01*
X0138526Y0118369D01*
X0138526Y0116100D02*
X0139660Y0116100D01*
X0140228Y0116667D01*
X0141642Y0116100D02*
X0143344Y0116100D01*
X0143911Y0116667D01*
X0143911Y0117801D01*
X0143344Y0118369D01*
X0141642Y0118369D01*
X0141642Y0119503D02*
X0141642Y0116100D01*
X0145325Y0116667D02*
X0145325Y0117801D01*
X0145892Y0118369D01*
X0147027Y0118369D01*
X0147594Y0117801D01*
X0147594Y0116667D01*
X0147027Y0116100D01*
X0145892Y0116100D01*
X0145325Y0116667D01*
X0149008Y0116100D02*
X0149008Y0117801D01*
X0149576Y0118369D01*
X0150143Y0117801D01*
X0150143Y0116100D01*
X0151277Y0116100D02*
X0151277Y0118369D01*
X0150710Y0118369D01*
X0150143Y0117801D01*
X0150710Y0122100D02*
X0151277Y0122667D01*
X0151277Y0123801D01*
X0150710Y0124369D01*
X0149008Y0124369D01*
X0149008Y0125503D02*
X0149008Y0122100D01*
X0150710Y0122100D01*
X0152692Y0122667D02*
X0152692Y0123801D01*
X0153259Y0124369D01*
X0154393Y0124369D01*
X0154960Y0123801D01*
X0154960Y0122667D01*
X0154393Y0122100D01*
X0153259Y0122100D01*
X0152692Y0122667D01*
X0156375Y0122100D02*
X0156375Y0125503D01*
X0157509Y0124369D01*
X0158643Y0125503D01*
X0158643Y0122100D01*
X0158076Y0118369D02*
X0156942Y0118369D01*
X0156375Y0117801D01*
X0156375Y0117234D01*
X0158643Y0117234D01*
X0158643Y0116667D02*
X0158643Y0117801D01*
X0158076Y0118369D01*
X0158643Y0116667D02*
X0158076Y0116100D01*
X0156942Y0116100D01*
X0160011Y0118369D02*
X0160578Y0118369D01*
X0161713Y0117234D01*
X0161713Y0116100D02*
X0161713Y0118369D01*
X0163127Y0117801D02*
X0163694Y0118369D01*
X0164829Y0118369D01*
X0164829Y0117234D02*
X0163127Y0117234D01*
X0163127Y0117801D02*
X0163127Y0116100D01*
X0164829Y0116100D01*
X0165396Y0116667D01*
X0164829Y0117234D01*
X0166810Y0117801D02*
X0166810Y0116100D01*
X0166810Y0117801D02*
X0167377Y0118369D01*
X0168512Y0118369D01*
X0169079Y0117801D01*
X0170493Y0118369D02*
X0172195Y0118369D01*
X0172762Y0117801D01*
X0172195Y0117234D01*
X0171061Y0117234D01*
X0170493Y0116667D01*
X0171061Y0116100D01*
X0172762Y0116100D01*
X0169079Y0116100D02*
X0169079Y0119503D01*
X0169693Y0122100D02*
X0167991Y0122100D01*
X0167424Y0122667D01*
X0167991Y0123234D01*
X0169126Y0123234D01*
X0169693Y0123801D01*
X0169126Y0124369D01*
X0167424Y0124369D01*
X0166010Y0123801D02*
X0165442Y0124369D01*
X0163741Y0124369D01*
X0164308Y0123234D02*
X0163741Y0122667D01*
X0164308Y0122100D01*
X0166010Y0122100D01*
X0165442Y0123234D02*
X0166010Y0123801D01*
X0165442Y0123234D02*
X0164308Y0123234D01*
X0171107Y0123234D02*
X0173376Y0123234D01*
X0173376Y0122667D02*
X0173376Y0123801D01*
X0172809Y0124369D01*
X0171674Y0124369D01*
X0171107Y0123801D01*
X0171107Y0123234D01*
X0171674Y0122100D02*
X0172809Y0122100D01*
X0173376Y0122667D01*
X0174744Y0124369D02*
X0175311Y0124369D01*
X0176445Y0123234D01*
X0176445Y0122100D02*
X0176445Y0124369D01*
X0177860Y0124936D02*
X0177860Y0123801D01*
X0178427Y0123234D01*
X0180128Y0123234D01*
X0180128Y0122100D02*
X0180128Y0125503D01*
X0178427Y0125503D01*
X0177860Y0124936D01*
X0178427Y0118369D02*
X0179561Y0118369D01*
X0180128Y0117801D01*
X0180128Y0116667D01*
X0179561Y0116100D01*
X0178427Y0116100D01*
X0177860Y0116667D01*
X0177860Y0117801D01*
X0178427Y0118369D01*
X0181449Y0118369D02*
X0182584Y0118369D01*
X0182017Y0118936D02*
X0182017Y0116667D01*
X0181449Y0116100D01*
X0186267Y0122100D02*
X0185133Y0123234D01*
X0185133Y0124369D01*
X0186267Y0125503D01*
X0187681Y0124936D02*
X0187681Y0124369D01*
X0188249Y0123801D01*
X0187681Y0123234D01*
X0187681Y0122667D01*
X0188249Y0122100D01*
X0189383Y0122100D01*
X0189950Y0122667D01*
X0188816Y0123801D02*
X0188249Y0123801D01*
X0187681Y0124936D02*
X0188249Y0125503D01*
X0189383Y0125503D01*
X0189950Y0124936D01*
X0195937Y0124369D02*
X0197072Y0124369D01*
X0196504Y0124936D02*
X0196504Y0122667D01*
X0195937Y0122100D01*
X0198439Y0124369D02*
X0199007Y0124369D01*
X0200141Y0123234D01*
X0200141Y0122100D02*
X0200141Y0124369D01*
X0201555Y0123801D02*
X0201555Y0122100D01*
X0203257Y0122100D01*
X0203824Y0122667D01*
X0203257Y0123234D01*
X0201555Y0123234D01*
X0201555Y0123801D02*
X0202123Y0124369D01*
X0203257Y0124369D01*
X0205145Y0124369D02*
X0206279Y0124369D01*
X0205712Y0124936D02*
X0205712Y0122667D01*
X0205145Y0122100D01*
X0207694Y0122667D02*
X0208261Y0123234D01*
X0209395Y0123234D01*
X0209963Y0123801D01*
X0209395Y0124369D01*
X0207694Y0124369D01*
X0207694Y0122667D02*
X0208261Y0122100D01*
X0209963Y0122100D01*
X0215060Y0122667D02*
X0215627Y0123234D01*
X0216762Y0123234D01*
X0217329Y0123801D01*
X0216762Y0124369D01*
X0215060Y0124369D01*
X0215060Y0122667D02*
X0215627Y0122100D01*
X0217329Y0122100D01*
X0218743Y0122667D02*
X0218743Y0124936D01*
X0219311Y0125503D01*
X0221012Y0125503D01*
X0221012Y0122100D01*
X0219311Y0122100D01*
X0218743Y0122667D01*
X0222427Y0122100D02*
X0224695Y0122100D01*
X0224695Y0125503D01*
X0222427Y0125503D01*
X0223561Y0123801D02*
X0224695Y0123801D01*
X0226110Y0122100D02*
X0228378Y0122100D01*
X0228378Y0125503D01*
X0233383Y0124369D02*
X0234517Y0125503D01*
X0235931Y0124936D02*
X0236499Y0125503D01*
X0237633Y0125503D01*
X0238200Y0124936D01*
X0235931Y0124936D02*
X0235931Y0124369D01*
X0238200Y0122100D01*
X0235931Y0122100D01*
X0234517Y0122100D02*
X0233383Y0123234D01*
X0233383Y0124369D01*
X0230834Y0119503D02*
X0230267Y0119503D01*
X0230267Y0116100D01*
X0230834Y0116100D02*
X0229699Y0116100D01*
X0228378Y0116100D02*
X0226677Y0116100D01*
X0226110Y0116667D01*
X0226677Y0117234D01*
X0227811Y0117234D01*
X0228378Y0117801D01*
X0227811Y0118369D01*
X0226110Y0118369D01*
X0224695Y0118369D02*
X0224128Y0118369D01*
X0224128Y0116100D01*
X0224695Y0116100D02*
X0223561Y0116100D01*
X0222240Y0116100D02*
X0222240Y0118369D01*
X0220538Y0118369D01*
X0219971Y0117801D01*
X0219971Y0116100D01*
X0218557Y0116667D02*
X0217989Y0116100D01*
X0216288Y0116100D01*
X0216288Y0115533D02*
X0216288Y0118369D01*
X0217989Y0118369D01*
X0218557Y0117801D01*
X0218557Y0116667D01*
X0217422Y0114966D02*
X0216855Y0114966D01*
X0216288Y0115533D01*
X0224128Y0119503D02*
X0224128Y0120070D01*
X0232248Y0118369D02*
X0232248Y0116100D01*
X0233950Y0116100D01*
X0234517Y0116667D01*
X0234517Y0118369D01*
X0235931Y0117801D02*
X0236499Y0118369D01*
X0238200Y0118369D01*
X0238200Y0114966D01*
X0238200Y0116100D02*
X0236499Y0116100D01*
X0235931Y0116667D01*
X0235931Y0117801D01*
X0243301Y0122667D02*
X0243868Y0123234D01*
X0245002Y0123234D01*
X0245569Y0123801D01*
X0245002Y0124369D01*
X0243301Y0124369D01*
X0243301Y0122667D02*
X0243868Y0122100D01*
X0245569Y0122100D01*
X0246890Y0122100D02*
X0248025Y0122100D01*
X0247457Y0122100D02*
X0247457Y0125503D01*
X0248025Y0125503D01*
X0249913Y0125503D02*
X0249913Y0122100D01*
X0250480Y0122100D02*
X0249346Y0122100D01*
X0251895Y0122100D02*
X0253596Y0122100D01*
X0254163Y0122667D01*
X0253596Y0123234D01*
X0251895Y0123234D01*
X0251895Y0123801D02*
X0251895Y0122100D01*
X0251895Y0123801D02*
X0252462Y0124369D01*
X0253596Y0124369D01*
X0255578Y0123801D02*
X0256145Y0124369D01*
X0257846Y0124369D01*
X0257846Y0125503D02*
X0257846Y0122100D01*
X0256145Y0122100D01*
X0255578Y0122667D01*
X0255578Y0123801D01*
X0259261Y0123801D02*
X0259261Y0123234D01*
X0261529Y0123234D01*
X0261529Y0122667D02*
X0261529Y0123801D01*
X0260962Y0124369D01*
X0259828Y0124369D01*
X0259261Y0123801D01*
X0259828Y0122100D02*
X0260962Y0122100D01*
X0261529Y0122667D01*
X0262944Y0122100D02*
X0264645Y0122100D01*
X0265213Y0122667D01*
X0265213Y0124369D01*
X0266627Y0125503D02*
X0268896Y0125503D01*
X0268896Y0122100D01*
X0266627Y0122100D01*
X0267761Y0123801D02*
X0268896Y0123801D01*
X0273993Y0123801D02*
X0274561Y0124369D01*
X0275695Y0124369D01*
X0276262Y0123801D01*
X0276262Y0122667D01*
X0275695Y0122100D01*
X0274561Y0122100D01*
X0273993Y0122667D01*
X0273993Y0123801D01*
X0277677Y0124369D02*
X0277677Y0122667D01*
X0278244Y0122100D01*
X0278811Y0122667D01*
X0279378Y0122100D01*
X0279945Y0122667D01*
X0279945Y0124369D01*
X0281360Y0125503D02*
X0283628Y0125503D01*
X0282494Y0125503D02*
X0282494Y0122100D01*
X0284382Y0118369D02*
X0283815Y0117801D01*
X0283815Y0117234D01*
X0286084Y0117234D01*
X0286084Y0116667D02*
X0286084Y0117801D01*
X0285517Y0118369D01*
X0284382Y0118369D01*
X0284382Y0116100D02*
X0285517Y0116100D01*
X0286084Y0116667D01*
X0287498Y0117234D02*
X0289767Y0117234D01*
X0289767Y0116667D02*
X0289767Y0117801D01*
X0289200Y0118369D01*
X0288065Y0118369D01*
X0287498Y0117801D01*
X0287498Y0117234D01*
X0288065Y0116100D02*
X0289200Y0116100D01*
X0289767Y0116667D01*
X0291181Y0116667D02*
X0291749Y0117234D01*
X0292883Y0117234D01*
X0293450Y0117801D01*
X0292883Y0118369D01*
X0291181Y0118369D01*
X0291181Y0116667D02*
X0291749Y0116100D01*
X0293450Y0116100D01*
X0292883Y0112369D02*
X0291749Y0112369D01*
X0291181Y0111801D01*
X0291181Y0110100D01*
X0292883Y0110100D01*
X0293450Y0110667D01*
X0292883Y0111234D01*
X0291181Y0111234D01*
X0289767Y0110100D02*
X0289767Y0112369D01*
X0288065Y0112369D01*
X0287498Y0111801D01*
X0287498Y0110100D01*
X0286084Y0110667D02*
X0286084Y0111801D01*
X0285517Y0112369D01*
X0284382Y0112369D01*
X0283815Y0111801D01*
X0283815Y0110667D01*
X0284382Y0110100D01*
X0285517Y0110100D01*
X0286084Y0110667D01*
X0282401Y0112369D02*
X0281266Y0112369D01*
X0281833Y0112936D02*
X0281833Y0110667D01*
X0281266Y0110100D01*
X0279945Y0110100D02*
X0279945Y0113503D01*
X0279378Y0112369D02*
X0278244Y0112369D01*
X0277677Y0111801D01*
X0277677Y0110100D01*
X0276262Y0110667D02*
X0276262Y0111801D01*
X0275695Y0112369D01*
X0274561Y0112369D01*
X0273993Y0111801D01*
X0273993Y0111234D01*
X0276262Y0111234D01*
X0276262Y0110667D02*
X0275695Y0110100D01*
X0274561Y0110100D01*
X0272579Y0110100D02*
X0272579Y0112369D01*
X0271445Y0112369D02*
X0270877Y0112369D01*
X0271445Y0112369D02*
X0272579Y0111234D01*
X0272766Y0116100D02*
X0272766Y0117801D01*
X0273333Y0118369D01*
X0275034Y0118369D01*
X0275034Y0116100D01*
X0276449Y0116667D02*
X0276449Y0117801D01*
X0277016Y0118369D01*
X0278150Y0118369D01*
X0278717Y0117801D01*
X0278717Y0116667D01*
X0278150Y0116100D01*
X0277016Y0116100D01*
X0276449Y0116667D01*
X0271351Y0116667D02*
X0271351Y0117801D01*
X0270784Y0118369D01*
X0269650Y0118369D01*
X0269083Y0117801D01*
X0269083Y0117234D01*
X0271351Y0117234D01*
X0271351Y0116667D02*
X0270784Y0116100D01*
X0269650Y0116100D01*
X0264078Y0120966D02*
X0263511Y0120966D01*
X0262944Y0121533D01*
X0262944Y0124369D01*
X0250480Y0125503D02*
X0249913Y0125503D01*
X0279378Y0112369D02*
X0279945Y0111801D01*
X0289767Y0122100D02*
X0288633Y0123234D01*
X0288633Y0124369D01*
X0289767Y0125503D01*
X0292316Y0125503D02*
X0292316Y0122100D01*
X0293450Y0122100D02*
X0291181Y0122100D01*
X0293450Y0124369D02*
X0292316Y0125503D01*
X0291686Y0128316D02*
X0291119Y0128316D01*
X0290552Y0128883D01*
X0290552Y0131719D01*
X0289137Y0131719D02*
X0289137Y0131151D01*
X0288570Y0131151D01*
X0288570Y0131719D01*
X0289137Y0131719D01*
X0289137Y0130017D02*
X0289137Y0129450D01*
X0288570Y0129450D01*
X0288570Y0130017D01*
X0289137Y0130017D01*
X0290552Y0129450D02*
X0292253Y0129450D01*
X0292820Y0130017D01*
X0292820Y0131719D01*
X0294235Y0131151D02*
X0294802Y0131719D01*
X0295936Y0131719D01*
X0295936Y0130584D02*
X0294235Y0130584D01*
X0294235Y0131151D02*
X0294235Y0129450D01*
X0295936Y0129450D01*
X0296504Y0130017D01*
X0295936Y0130584D01*
X0297825Y0129450D02*
X0298959Y0129450D01*
X0298392Y0129450D02*
X0298392Y0132853D01*
X0298959Y0132853D01*
X0300374Y0132286D02*
X0300374Y0131151D01*
X0300941Y0130584D01*
X0302642Y0130584D01*
X0302642Y0129450D02*
X0302642Y0132853D01*
X0300941Y0132853D01*
X0300374Y0132286D01*
X0302782Y0135450D02*
X0302215Y0136017D01*
X0302215Y0137719D01*
X0303349Y0136017D02*
X0302782Y0135450D01*
X0303349Y0136017D02*
X0303917Y0135450D01*
X0304484Y0136017D01*
X0304484Y0137719D01*
X0305898Y0137151D02*
X0306465Y0137719D01*
X0307600Y0137719D01*
X0308167Y0137151D01*
X0308167Y0136017D01*
X0307600Y0135450D01*
X0306465Y0135450D01*
X0305898Y0136017D01*
X0305898Y0137151D01*
X0309581Y0137151D02*
X0311850Y0137151D01*
X0311850Y0135450D02*
X0311850Y0138853D01*
X0309581Y0138853D02*
X0309581Y0135450D01*
X0297117Y0137719D02*
X0295983Y0137719D01*
X0296550Y0138286D02*
X0296550Y0136017D01*
X0295983Y0135450D01*
X0294662Y0136017D02*
X0294095Y0135450D01*
X0292961Y0135450D01*
X0292393Y0136017D01*
X0292393Y0137151D01*
X0292961Y0137719D01*
X0294095Y0137719D01*
X0294662Y0137151D01*
X0294662Y0136017D01*
X0240700Y0094003D02*
X0240700Y0090900D01*
X0238632Y0090900D01*
X0237293Y0091417D02*
X0237293Y0092451D01*
X0236776Y0092968D01*
X0235742Y0092968D01*
X0235225Y0092451D01*
X0235225Y0091934D01*
X0237293Y0091934D01*
X0237293Y0091417D02*
X0236776Y0090900D01*
X0235742Y0090900D01*
X0233886Y0091417D02*
X0233369Y0091934D01*
X0231818Y0091934D01*
X0231818Y0092451D02*
X0231818Y0090900D01*
X0233369Y0090900D01*
X0233886Y0091417D01*
X0233369Y0092968D02*
X0232335Y0092968D01*
X0231818Y0092451D01*
X0230479Y0091934D02*
X0229445Y0092968D01*
X0228928Y0092968D01*
X0227640Y0092968D02*
X0226089Y0092968D01*
X0225572Y0092451D01*
X0225572Y0090900D01*
X0227640Y0090900D02*
X0227640Y0092968D01*
X0230479Y0092968D02*
X0230479Y0090900D01*
X0230479Y0087418D02*
X0230479Y0085350D01*
X0230479Y0086384D02*
X0229445Y0087418D01*
X0228928Y0087418D01*
X0231818Y0087418D02*
X0231818Y0085350D01*
X0233369Y0085350D01*
X0233886Y0085867D01*
X0233886Y0087418D01*
X0235225Y0086901D02*
X0235742Y0087418D01*
X0236776Y0087418D01*
X0237293Y0086901D01*
X0237293Y0085867D01*
X0236776Y0085350D01*
X0235742Y0085350D01*
X0235225Y0085867D01*
X0235225Y0086901D01*
X0238632Y0087418D02*
X0238632Y0084833D01*
X0239149Y0084316D01*
X0239666Y0084316D01*
X0240183Y0085350D02*
X0238632Y0085350D01*
X0240183Y0085350D02*
X0240700Y0085867D01*
X0240700Y0087418D01*
X0224233Y0086901D02*
X0223716Y0087418D01*
X0222682Y0087418D01*
X0222165Y0086901D01*
X0222165Y0086384D01*
X0224233Y0086384D01*
X0224233Y0085867D02*
X0224233Y0086901D01*
X0224233Y0085867D02*
X0223716Y0085350D01*
X0222682Y0085350D01*
X0220826Y0085867D02*
X0220309Y0085350D01*
X0218758Y0085350D01*
X0218758Y0084833D02*
X0219275Y0084316D01*
X0219792Y0084316D01*
X0218758Y0084833D02*
X0218758Y0087418D01*
X0217420Y0086901D02*
X0216902Y0087418D01*
X0215868Y0087418D01*
X0215351Y0086901D01*
X0215351Y0086384D01*
X0217420Y0086384D01*
X0217420Y0085867D02*
X0217420Y0086901D01*
X0217420Y0085867D02*
X0216902Y0085350D01*
X0215868Y0085350D01*
X0214013Y0085350D02*
X0212461Y0085350D01*
X0211944Y0085867D01*
X0211944Y0086901D01*
X0212461Y0087418D01*
X0214013Y0087418D01*
X0214013Y0088453D02*
X0214013Y0085350D01*
X0210606Y0085867D02*
X0210089Y0086384D01*
X0208537Y0086384D01*
X0208537Y0086901D02*
X0208537Y0085350D01*
X0210089Y0085350D01*
X0210606Y0085867D01*
X0210089Y0087418D02*
X0209054Y0087418D01*
X0208537Y0086901D01*
X0207199Y0085350D02*
X0206165Y0085350D01*
X0206682Y0085350D02*
X0206682Y0088453D01*
X0207199Y0088453D01*
X0204928Y0088453D02*
X0204410Y0088453D01*
X0204410Y0085350D01*
X0203893Y0085350D02*
X0204928Y0085350D01*
X0204410Y0090900D02*
X0204928Y0091417D01*
X0204928Y0092451D01*
X0204410Y0092968D01*
X0203376Y0092968D01*
X0202859Y0092451D01*
X0202859Y0091417D01*
X0203376Y0090900D01*
X0204410Y0090900D01*
X0206165Y0090900D02*
X0206682Y0091417D01*
X0206682Y0093486D01*
X0207199Y0092968D02*
X0206165Y0092968D01*
X0211944Y0092968D02*
X0211944Y0091417D01*
X0212461Y0090900D01*
X0212978Y0091417D01*
X0213495Y0090900D01*
X0214013Y0091417D01*
X0214013Y0092968D01*
X0215351Y0092451D02*
X0215868Y0092968D01*
X0216902Y0092968D01*
X0217420Y0092451D01*
X0217420Y0091417D01*
X0216902Y0090900D01*
X0215868Y0090900D01*
X0215351Y0091417D01*
X0215351Y0092451D01*
X0218758Y0092451D02*
X0218758Y0090900D01*
X0218758Y0092451D02*
X0219275Y0092968D01*
X0220309Y0092968D01*
X0220826Y0092451D01*
X0220826Y0090900D02*
X0220826Y0094003D01*
X0220826Y0087418D02*
X0220826Y0085867D01*
X0199249Y0085867D02*
X0198732Y0086384D01*
X0197181Y0086384D01*
X0197181Y0086901D02*
X0197181Y0085350D01*
X0198732Y0085350D01*
X0199249Y0085867D01*
X0198732Y0087418D02*
X0197698Y0087418D01*
X0197181Y0086901D01*
X0195842Y0087418D02*
X0194808Y0087418D01*
X0195325Y0087936D02*
X0195325Y0085867D01*
X0194808Y0085350D01*
X0193571Y0085350D02*
X0193571Y0085867D01*
X0193054Y0085867D01*
X0193054Y0085350D01*
X0193571Y0085350D01*
X0193571Y0086901D02*
X0193571Y0087418D01*
X0193054Y0087418D01*
X0193054Y0086901D01*
X0193571Y0086901D01*
X0194190Y0090900D02*
X0192638Y0090900D01*
X0192638Y0092451D01*
X0193155Y0092968D01*
X0194190Y0092968D01*
X0194190Y0091934D02*
X0192638Y0091934D01*
X0191300Y0091417D02*
X0190783Y0090900D01*
X0189231Y0090900D01*
X0187893Y0090900D02*
X0187893Y0094003D01*
X0189231Y0092968D02*
X0190783Y0092968D01*
X0191300Y0092451D01*
X0191300Y0091417D01*
X0194190Y0090900D02*
X0194707Y0091417D01*
X0194190Y0091934D01*
X0196045Y0092451D02*
X0196045Y0090900D01*
X0196045Y0092451D02*
X0196562Y0092968D01*
X0197597Y0092968D01*
X0198114Y0092451D01*
X0198114Y0090900D02*
X0198114Y0094003D01*
X0187893Y0091934D02*
X0186342Y0090900D01*
X0187893Y0091934D02*
X0186342Y0092968D01*
X0147594Y0122667D02*
X0147594Y0123801D01*
X0147027Y0124369D01*
X0145892Y0124369D01*
X0145325Y0123801D01*
X0145325Y0123234D01*
X0147594Y0123234D01*
X0147594Y0122667D02*
X0147027Y0122100D01*
X0145892Y0122100D01*
X0159817Y0144286D02*
X0159300Y0144803D01*
X0159300Y0145838D01*
X0159817Y0146355D01*
X0160851Y0146355D01*
X0161368Y0145838D01*
X0161368Y0145320D01*
X0160851Y0144286D01*
X0162403Y0144286D01*
X0162403Y0146355D01*
X0162403Y0147693D02*
X0160334Y0147693D01*
X0159300Y0148727D01*
X0160334Y0149762D01*
X0162403Y0149762D01*
X0169800Y0149863D02*
X0169800Y0148829D01*
X0169800Y0149346D02*
X0172903Y0149346D01*
X0172903Y0148829D02*
X0172903Y0149863D01*
X0172386Y0147490D02*
X0172903Y0146973D01*
X0172903Y0145939D01*
X0172386Y0145422D01*
X0171868Y0145422D01*
X0171351Y0145939D01*
X0171351Y0146973D01*
X0170834Y0147490D01*
X0170317Y0147490D01*
X0169800Y0146973D01*
X0169800Y0145939D01*
X0170317Y0145422D01*
X0170317Y0144083D02*
X0172386Y0144083D01*
X0172903Y0143566D01*
X0172903Y0142532D01*
X0172386Y0142015D01*
X0170317Y0142015D01*
X0169800Y0142532D01*
X0169800Y0143566D01*
X0170317Y0144083D01*
X0169800Y0140676D02*
X0172903Y0140676D01*
X0171868Y0139642D01*
X0172903Y0138608D01*
X0169800Y0138608D01*
X0179800Y0141396D02*
X0179800Y0142431D01*
X0180317Y0142948D01*
X0181351Y0142948D01*
X0181351Y0141913D01*
X0180317Y0140879D02*
X0179800Y0141396D01*
X0180317Y0140879D02*
X0182386Y0140879D01*
X0182903Y0141396D01*
X0182903Y0142431D01*
X0182386Y0142948D01*
X0182903Y0144286D02*
X0179800Y0146355D01*
X0182903Y0146355D01*
X0182903Y0147693D02*
X0182903Y0149244D01*
X0182386Y0149762D01*
X0180317Y0149762D01*
X0179800Y0149244D01*
X0179800Y0147693D01*
X0182903Y0147693D01*
X0182903Y0144286D02*
X0179800Y0144286D01*
X0179800Y0172879D02*
X0182903Y0172879D01*
X0182903Y0174431D01*
X0182386Y0174948D01*
X0181351Y0174948D01*
X0180834Y0174431D01*
X0180834Y0172879D01*
X0180834Y0173913D02*
X0179800Y0174948D01*
X0180317Y0176286D02*
X0179800Y0176803D01*
X0179800Y0177837D01*
X0180317Y0178355D01*
X0180834Y0178355D01*
X0181351Y0177837D01*
X0181351Y0176803D01*
X0181868Y0176286D01*
X0182386Y0176286D01*
X0182903Y0176803D01*
X0182903Y0177837D01*
X0182386Y0178355D01*
X0182903Y0179693D02*
X0182903Y0181762D01*
X0182903Y0180727D02*
X0179800Y0180727D01*
X0172903Y0179693D02*
X0169800Y0179693D01*
X0170834Y0179693D02*
X0172903Y0181762D01*
X0171351Y0180210D02*
X0169800Y0181762D01*
X0170317Y0178355D02*
X0169800Y0177837D01*
X0169800Y0176803D01*
X0170317Y0176286D01*
X0172386Y0176286D01*
X0172903Y0176803D01*
X0172903Y0177837D01*
X0172386Y0178355D01*
X0172386Y0174948D02*
X0172903Y0174431D01*
X0172903Y0173396D01*
X0172386Y0172879D01*
X0171868Y0172879D01*
X0171351Y0173396D01*
X0171351Y0174431D01*
X0170834Y0174948D01*
X0170317Y0174948D01*
X0169800Y0174431D01*
X0169800Y0173396D01*
X0170317Y0172879D01*
X0162903Y0174108D02*
X0161868Y0175142D01*
X0162903Y0176176D01*
X0159800Y0176176D01*
X0159800Y0177515D02*
X0159800Y0178549D01*
X0159800Y0178032D02*
X0162903Y0178032D01*
X0162903Y0177515D02*
X0162903Y0178549D01*
X0162386Y0179786D02*
X0161868Y0179786D01*
X0161351Y0180303D01*
X0161351Y0181337D01*
X0160834Y0181855D01*
X0160317Y0181855D01*
X0159800Y0181337D01*
X0159800Y0180303D01*
X0160317Y0179786D01*
X0162386Y0179786D02*
X0162903Y0180303D01*
X0162903Y0181337D01*
X0162386Y0181855D01*
X0162386Y0183193D02*
X0160317Y0183193D01*
X0159800Y0183710D01*
X0159800Y0184744D01*
X0160317Y0185262D01*
X0162386Y0185262D01*
X0162903Y0184744D01*
X0162903Y0183710D01*
X0162386Y0183193D01*
X0162903Y0174108D02*
X0159800Y0174108D01*
X0138633Y0198100D02*
X0137499Y0198100D01*
X0136931Y0198667D01*
X0136931Y0199801D01*
X0138066Y0199801D01*
X0139200Y0198667D02*
X0138633Y0198100D01*
X0139200Y0198667D02*
X0139200Y0200936D01*
X0138633Y0201503D01*
X0137499Y0201503D01*
X0136931Y0200936D01*
X0135517Y0201503D02*
X0133815Y0201503D01*
X0133248Y0200936D01*
X0133248Y0199801D01*
X0133815Y0199234D01*
X0135517Y0199234D01*
X0135517Y0198100D02*
X0135517Y0201503D01*
X0134383Y0199234D02*
X0133248Y0198100D01*
X0131834Y0198100D02*
X0131834Y0201503D01*
X0129565Y0198100D01*
X0129565Y0201503D01*
X0144800Y0207100D02*
X0144800Y0208651D01*
X0145317Y0209168D01*
X0147386Y0209168D01*
X0147903Y0208651D01*
X0147903Y0207100D01*
X0144800Y0207100D01*
X0144800Y0211541D02*
X0147903Y0211541D01*
X0147903Y0210507D02*
X0147903Y0212575D01*
X0147903Y0213914D02*
X0147903Y0215465D01*
X0147386Y0215982D01*
X0146351Y0215982D01*
X0145834Y0215465D01*
X0145834Y0213914D01*
X0144800Y0213914D02*
X0147903Y0213914D01*
X0145834Y0214948D02*
X0144800Y0215982D01*
X0154550Y0212512D02*
X0157653Y0210443D01*
X0157653Y0209105D02*
X0157653Y0207036D01*
X0157653Y0208070D02*
X0154550Y0208070D01*
X0154550Y0210443D02*
X0157653Y0212512D01*
X0164550Y0212512D02*
X0167653Y0210443D01*
X0167136Y0209105D02*
X0166101Y0209105D01*
X0165584Y0208587D01*
X0165584Y0207036D01*
X0164550Y0207036D02*
X0167653Y0207036D01*
X0167653Y0208587D01*
X0167136Y0209105D01*
X0165584Y0208070D02*
X0164550Y0209105D01*
X0164550Y0210443D02*
X0167653Y0212512D01*
X0174300Y0211227D02*
X0175334Y0212262D01*
X0177403Y0212262D01*
X0177403Y0210193D02*
X0175334Y0210193D01*
X0174300Y0211227D01*
X0174817Y0208855D02*
X0174300Y0208337D01*
X0174300Y0207303D01*
X0174817Y0206786D01*
X0175851Y0206786D02*
X0176368Y0207820D01*
X0176368Y0208337D01*
X0175851Y0208855D01*
X0174817Y0208855D01*
X0175851Y0206786D02*
X0177403Y0206786D01*
X0177403Y0208855D01*
X0184800Y0209286D02*
X0187903Y0209286D01*
X0184800Y0211355D01*
X0187903Y0211355D01*
X0187903Y0212693D02*
X0187903Y0214244D01*
X0187386Y0214762D01*
X0185317Y0214762D01*
X0184800Y0214244D01*
X0184800Y0212693D01*
X0187903Y0212693D01*
X0187386Y0207948D02*
X0187903Y0207431D01*
X0187903Y0206396D01*
X0187386Y0205879D01*
X0185317Y0205879D01*
X0184800Y0206396D01*
X0184800Y0207431D01*
X0185317Y0207948D01*
X0186351Y0207948D01*
X0186351Y0206913D01*
X0194800Y0206396D02*
X0194800Y0207431D01*
X0195317Y0207948D01*
X0196351Y0207948D01*
X0196351Y0206913D01*
X0195317Y0205879D02*
X0194800Y0206396D01*
X0195317Y0205879D02*
X0197386Y0205879D01*
X0197903Y0206396D01*
X0197903Y0207431D01*
X0197386Y0207948D01*
X0197903Y0209286D02*
X0194800Y0211355D01*
X0197903Y0211355D01*
X0197903Y0212693D02*
X0194800Y0212693D01*
X0194800Y0214244D01*
X0195317Y0214762D01*
X0197386Y0214762D01*
X0197903Y0214244D01*
X0197903Y0212693D01*
X0197903Y0209286D02*
X0194800Y0209286D01*
X0202565Y0201253D02*
X0204834Y0198984D01*
X0204267Y0199551D02*
X0202565Y0197850D01*
X0204834Y0197850D02*
X0204834Y0201253D01*
X0208517Y0201253D02*
X0208517Y0197850D01*
X0206248Y0197850D01*
X0209931Y0198417D02*
X0209931Y0198984D01*
X0210499Y0199551D01*
X0212200Y0199551D01*
X0212200Y0197850D02*
X0212200Y0201253D01*
X0210499Y0201253D01*
X0209931Y0200686D01*
X0209931Y0200119D01*
X0210499Y0199551D01*
X0209931Y0198417D02*
X0210499Y0197850D01*
X0212200Y0197850D01*
X0227600Y0223100D02*
X0229668Y0223100D01*
X0230703Y0224134D01*
X0229668Y0225168D01*
X0227600Y0225168D01*
X0229151Y0225168D02*
X0229151Y0223100D01*
X0229151Y0226507D02*
X0229151Y0228575D01*
X0227600Y0228058D02*
X0230703Y0228058D01*
X0229151Y0226507D01*
X0220703Y0226634D02*
X0219668Y0227668D01*
X0217600Y0227668D01*
X0218117Y0229007D02*
X0217600Y0229524D01*
X0217600Y0230558D01*
X0218117Y0231075D01*
X0219151Y0231075D01*
X0219668Y0230558D01*
X0219668Y0230041D01*
X0219151Y0229007D01*
X0220703Y0229007D01*
X0220703Y0231075D01*
X0219151Y0227668D02*
X0219151Y0225600D01*
X0219668Y0225600D02*
X0220703Y0226634D01*
X0219668Y0225600D02*
X0217600Y0225600D01*
X0228117Y0238100D02*
X0227600Y0238617D01*
X0227600Y0239651D01*
X0228117Y0240168D01*
X0228634Y0240168D01*
X0229151Y0239651D01*
X0229151Y0238617D01*
X0229668Y0238100D01*
X0230186Y0238100D01*
X0230703Y0238617D01*
X0230703Y0239651D01*
X0230186Y0240168D01*
X0230703Y0241507D02*
X0230703Y0243058D01*
X0230186Y0243575D01*
X0228117Y0243575D01*
X0227600Y0243058D01*
X0227600Y0241507D01*
X0230703Y0241507D01*
X0229668Y0244914D02*
X0230703Y0245948D01*
X0229668Y0246982D01*
X0227600Y0246982D01*
X0229151Y0246982D02*
X0229151Y0244914D01*
X0229668Y0244914D02*
X0227600Y0244914D01*
X0220703Y0244524D02*
X0220186Y0244007D01*
X0218117Y0244007D01*
X0217600Y0244524D01*
X0217600Y0245558D01*
X0218117Y0246075D01*
X0217600Y0247414D02*
X0217600Y0249482D01*
X0217600Y0247414D02*
X0220703Y0247414D01*
X0220186Y0246075D02*
X0220703Y0245558D01*
X0220703Y0244524D01*
X0220186Y0242668D02*
X0220703Y0242151D01*
X0220703Y0241117D01*
X0220186Y0240600D01*
X0219668Y0240600D01*
X0219151Y0241117D01*
X0219151Y0242151D01*
X0218634Y0242668D01*
X0218117Y0242668D01*
X0217600Y0242151D01*
X0217600Y0241117D01*
X0218117Y0240600D01*
X0210403Y0242786D02*
X0208851Y0242786D01*
X0209368Y0243820D01*
X0209368Y0244337D01*
X0208851Y0244855D01*
X0207817Y0244855D01*
X0207300Y0244337D01*
X0207300Y0243303D01*
X0207817Y0242786D01*
X0210403Y0242786D02*
X0210403Y0244855D01*
X0210403Y0246193D02*
X0208334Y0246193D01*
X0207300Y0247227D01*
X0208334Y0248262D01*
X0210403Y0248262D01*
X0237600Y0243965D02*
X0237600Y0242414D01*
X0240703Y0242414D01*
X0240703Y0243965D01*
X0240186Y0244482D01*
X0238117Y0244482D01*
X0237600Y0243965D01*
X0237600Y0241075D02*
X0240703Y0241075D01*
X0240703Y0239007D02*
X0237600Y0239007D01*
X0238117Y0237668D02*
X0237600Y0237151D01*
X0237600Y0236117D01*
X0238117Y0235600D01*
X0240186Y0235600D01*
X0240703Y0236117D01*
X0240703Y0237151D01*
X0240186Y0237668D01*
X0239151Y0237668D02*
X0239151Y0236634D01*
X0239151Y0237668D02*
X0238117Y0237668D01*
X0240703Y0239007D02*
X0237600Y0241075D01*
X0094057Y0125253D02*
X0093489Y0125253D01*
X0093489Y0121850D01*
X0092922Y0121850D02*
X0094057Y0121850D01*
X0091601Y0122417D02*
X0091601Y0123551D01*
X0091034Y0124119D01*
X0089900Y0124119D01*
X0089333Y0123551D01*
X0089333Y0122984D01*
X0091601Y0122984D01*
X0091601Y0122417D02*
X0091034Y0121850D01*
X0089900Y0121850D01*
X0087918Y0122417D02*
X0087351Y0121850D01*
X0085649Y0121850D01*
X0083668Y0122417D02*
X0083101Y0121850D01*
X0083668Y0122417D02*
X0083668Y0124686D01*
X0084235Y0124119D02*
X0083101Y0124119D01*
X0085649Y0124119D02*
X0087351Y0124119D01*
X0087918Y0123551D01*
X0087918Y0122417D01*
X0087351Y0118119D02*
X0085649Y0118119D01*
X0086217Y0116984D02*
X0085649Y0116417D01*
X0086217Y0115850D01*
X0087918Y0115850D01*
X0087351Y0116984D02*
X0087918Y0117551D01*
X0087351Y0118119D01*
X0087351Y0116984D02*
X0086217Y0116984D01*
X0089333Y0116984D02*
X0091034Y0116984D01*
X0091601Y0116417D01*
X0091034Y0115850D01*
X0089333Y0115850D01*
X0089333Y0117551D01*
X0089900Y0118119D01*
X0091034Y0118119D01*
X0089946Y0113253D02*
X0089946Y0109850D01*
X0088532Y0110417D02*
X0087965Y0109850D01*
X0086830Y0109850D01*
X0086263Y0110417D01*
X0086263Y0111551D01*
X0086830Y0112119D01*
X0087965Y0112119D01*
X0088532Y0111551D01*
X0088532Y0110417D01*
X0091081Y0112119D02*
X0089946Y0113253D01*
X0091081Y0112119D02*
X0092215Y0113253D01*
X0092215Y0109850D01*
X0089806Y0106119D02*
X0088672Y0106119D01*
X0088105Y0105551D01*
X0088105Y0104984D01*
X0090373Y0104984D01*
X0090373Y0104417D02*
X0090373Y0105551D01*
X0089806Y0106119D01*
X0090373Y0104417D02*
X0089806Y0103850D01*
X0088672Y0103850D01*
X0083007Y0106119D02*
X0081873Y0106119D01*
X0082440Y0106686D02*
X0082440Y0104417D01*
X0081873Y0103850D01*
X0080552Y0103850D02*
X0080552Y0107253D01*
X0079985Y0106119D02*
X0078850Y0106119D01*
X0078283Y0105551D01*
X0078283Y0103850D01*
X0076869Y0103850D02*
X0076869Y0106119D01*
X0076869Y0104984D02*
X0075734Y0106119D01*
X0075167Y0106119D01*
X0073799Y0105551D02*
X0073799Y0104417D01*
X0073232Y0103850D01*
X0072098Y0103850D01*
X0071531Y0104417D01*
X0071531Y0105551D01*
X0072098Y0106119D01*
X0073232Y0106119D01*
X0073799Y0105551D01*
X0070116Y0106119D02*
X0070116Y0104417D01*
X0069549Y0103850D01*
X0067848Y0103850D01*
X0067848Y0106119D01*
X0066433Y0105551D02*
X0066433Y0104417D01*
X0065866Y0103850D01*
X0064164Y0103850D01*
X0064164Y0103283D02*
X0064164Y0106119D01*
X0065866Y0106119D01*
X0066433Y0105551D01*
X0065299Y0102716D02*
X0064732Y0102716D01*
X0064164Y0103283D01*
X0062750Y0103850D02*
X0062750Y0107253D01*
X0062183Y0106119D02*
X0061048Y0106119D01*
X0060481Y0105551D01*
X0060481Y0103850D01*
X0062750Y0105551D02*
X0062183Y0106119D01*
X0062843Y0109850D02*
X0063410Y0110417D01*
X0063410Y0112686D01*
X0062843Y0112119D02*
X0063978Y0112119D01*
X0065299Y0112119D02*
X0066433Y0112119D01*
X0065866Y0112686D02*
X0065866Y0110417D01*
X0065299Y0109850D01*
X0067848Y0109850D02*
X0067848Y0112119D01*
X0070116Y0112119D02*
X0070116Y0110417D01*
X0069549Y0109850D01*
X0067848Y0109850D01*
X0071531Y0110417D02*
X0071531Y0111551D01*
X0072098Y0112119D01*
X0073799Y0112119D01*
X0073799Y0113253D02*
X0073799Y0109850D01*
X0072098Y0109850D01*
X0071531Y0110417D01*
X0070917Y0115850D02*
X0070917Y0118119D01*
X0073185Y0118119D02*
X0073185Y0116417D01*
X0072618Y0115850D01*
X0070917Y0115850D01*
X0074600Y0116417D02*
X0074600Y0117551D01*
X0075167Y0118119D01*
X0076301Y0118119D01*
X0076869Y0117551D01*
X0076869Y0116417D01*
X0076301Y0115850D01*
X0075167Y0115850D01*
X0074600Y0116417D01*
X0078283Y0115850D02*
X0079985Y0115850D01*
X0080552Y0116417D01*
X0080552Y0118119D01*
X0078283Y0118119D02*
X0078283Y0115283D01*
X0078850Y0114716D01*
X0079417Y0114716D01*
X0079464Y0112119D02*
X0078897Y0111551D01*
X0078897Y0110984D01*
X0081166Y0110984D01*
X0081166Y0110417D02*
X0081166Y0111551D01*
X0080598Y0112119D01*
X0079464Y0112119D01*
X0079464Y0109850D02*
X0080598Y0109850D01*
X0081166Y0110417D01*
X0082580Y0109850D02*
X0082580Y0113253D01*
X0082580Y0112119D02*
X0084282Y0112119D01*
X0084849Y0111551D01*
X0084849Y0110417D01*
X0084282Y0109850D01*
X0082580Y0109850D01*
X0079985Y0106119D02*
X0080552Y0105551D01*
X0065819Y0116417D02*
X0065252Y0115850D01*
X0063551Y0115850D01*
X0062136Y0116417D02*
X0061569Y0116984D01*
X0059867Y0116984D01*
X0059867Y0117551D02*
X0059867Y0115850D01*
X0061569Y0115850D01*
X0062136Y0116417D01*
X0061569Y0118119D02*
X0060435Y0118119D01*
X0059867Y0117551D01*
X0058453Y0118119D02*
X0058453Y0115850D01*
X0058453Y0118119D02*
X0056751Y0118119D01*
X0056184Y0117551D01*
X0056184Y0115850D01*
X0054770Y0115850D02*
X0054203Y0115850D01*
X0054203Y0116417D01*
X0054770Y0116417D01*
X0054770Y0115850D01*
X0056138Y0112119D02*
X0055570Y0111551D01*
X0055570Y0109850D01*
X0057839Y0109850D02*
X0057839Y0112119D01*
X0056138Y0112119D01*
X0059254Y0111551D02*
X0059254Y0110417D01*
X0059821Y0109850D01*
X0060955Y0109850D01*
X0061522Y0110417D01*
X0061522Y0111551D01*
X0060955Y0112119D01*
X0059821Y0112119D01*
X0059254Y0111551D01*
X0063551Y0118119D02*
X0065252Y0118119D01*
X0065819Y0117551D01*
X0065819Y0116417D01*
X0065913Y0121850D02*
X0065913Y0123551D01*
X0065345Y0124119D01*
X0064778Y0123551D01*
X0064778Y0121850D01*
X0063364Y0122417D02*
X0062797Y0122984D01*
X0061095Y0122984D01*
X0061095Y0123551D02*
X0061095Y0121850D01*
X0062797Y0121850D01*
X0063364Y0122417D01*
X0062797Y0124119D02*
X0061662Y0124119D01*
X0061095Y0123551D01*
X0059681Y0124119D02*
X0057979Y0124119D01*
X0057412Y0123551D01*
X0057412Y0121850D01*
X0055997Y0122417D02*
X0055430Y0121850D01*
X0053729Y0121850D01*
X0053729Y0121283D02*
X0054296Y0120716D01*
X0054863Y0120716D01*
X0053729Y0121283D02*
X0053729Y0124119D01*
X0055997Y0124119D02*
X0055997Y0122417D01*
X0059681Y0121850D02*
X0059681Y0124119D01*
X0065913Y0123551D02*
X0066480Y0124119D01*
X0067047Y0124119D01*
X0067047Y0121850D01*
X0072145Y0122417D02*
X0072712Y0122984D01*
X0073846Y0122984D01*
X0074413Y0123551D01*
X0073846Y0124119D01*
X0072145Y0124119D01*
X0072145Y0122417D02*
X0072712Y0121850D01*
X0074413Y0121850D01*
X0075828Y0121850D02*
X0077529Y0121850D01*
X0078096Y0122417D01*
X0077529Y0122984D01*
X0075828Y0122984D01*
X0075828Y0123551D02*
X0075828Y0121850D01*
X0075828Y0123551D02*
X0076395Y0124119D01*
X0077529Y0124119D01*
X0097313Y0112119D02*
X0099014Y0112119D01*
X0099581Y0111551D01*
X0099014Y0110984D01*
X0097880Y0110984D01*
X0097313Y0110417D01*
X0097880Y0109850D01*
X0099581Y0109850D01*
X0100996Y0110417D02*
X0101563Y0110984D01*
X0102697Y0110984D01*
X0103264Y0111551D01*
X0102697Y0112119D01*
X0100996Y0112119D01*
X0100996Y0110417D02*
X0101563Y0109850D01*
X0103264Y0109850D01*
X0104679Y0110984D02*
X0106948Y0110984D01*
X0106948Y0110417D02*
X0106948Y0111551D01*
X0106380Y0112119D01*
X0105246Y0112119D01*
X0104679Y0111551D01*
X0104679Y0110984D01*
X0105246Y0109850D02*
X0106380Y0109850D01*
X0106948Y0110417D01*
D11*
X0109722Y0077700D02*
X0112124Y0077700D01*
X0112925Y0078501D01*
X0112925Y0080102D01*
X0112124Y0080903D01*
X0109722Y0080903D01*
X0109722Y0082504D02*
X0109722Y0077700D01*
X0114820Y0080903D02*
X0115620Y0080903D01*
X0117222Y0079301D01*
X0117222Y0077700D02*
X0117222Y0080903D01*
X0119175Y0080102D02*
X0119175Y0077700D01*
X0121577Y0077700D01*
X0122378Y0078501D01*
X0121577Y0079301D01*
X0119175Y0079301D01*
X0119175Y0080102D02*
X0119976Y0080903D01*
X0121577Y0080903D01*
X0124332Y0080102D02*
X0125132Y0080903D01*
X0126734Y0080903D01*
X0127534Y0080102D01*
X0127534Y0078501D01*
X0126734Y0077700D01*
X0125132Y0077700D01*
X0124332Y0078501D01*
X0124332Y0080102D01*
X0129488Y0080102D02*
X0130289Y0080903D01*
X0132691Y0080903D01*
X0132691Y0082504D02*
X0132691Y0077700D01*
X0130289Y0077700D01*
X0129488Y0078501D01*
X0129488Y0080102D01*
X0134645Y0080102D02*
X0135445Y0080903D01*
X0137047Y0080903D01*
X0137847Y0080102D01*
X0137847Y0078501D01*
X0137047Y0077700D01*
X0135445Y0077700D01*
X0134645Y0078501D01*
X0134645Y0080102D01*
X0139801Y0080102D02*
X0139801Y0078501D01*
X0140602Y0077700D01*
X0143004Y0077700D01*
X0143004Y0076099D02*
X0143004Y0080903D01*
X0140602Y0080903D01*
X0139801Y0080102D01*
X0144957Y0080102D02*
X0145758Y0080903D01*
X0147359Y0080903D01*
X0147359Y0079301D02*
X0144957Y0079301D01*
X0144957Y0080102D02*
X0144957Y0077700D01*
X0147359Y0077700D01*
X0148160Y0078501D01*
X0147359Y0079301D01*
X0150114Y0082504D02*
X0153316Y0077700D01*
X0155270Y0077700D02*
X0155270Y0080102D01*
X0156071Y0080903D01*
X0156871Y0080102D01*
X0156871Y0077700D01*
X0158473Y0077700D02*
X0158473Y0080903D01*
X0157672Y0080903D01*
X0156871Y0080102D01*
X0160427Y0080102D02*
X0161227Y0080903D01*
X0162829Y0080903D01*
X0163629Y0080102D01*
X0163629Y0078501D01*
X0162829Y0077700D01*
X0161227Y0077700D01*
X0160427Y0078501D01*
X0160427Y0080102D01*
X0165583Y0080903D02*
X0167985Y0080903D01*
X0168786Y0080102D01*
X0168786Y0078501D01*
X0167985Y0077700D01*
X0165583Y0077700D01*
X0170563Y0077700D02*
X0171364Y0077700D01*
X0171364Y0078501D01*
X0170563Y0078501D01*
X0170563Y0077700D01*
X0173317Y0078501D02*
X0173317Y0080102D01*
X0174118Y0080903D01*
X0176520Y0080903D01*
X0176520Y0082504D02*
X0176520Y0077700D01*
X0174118Y0077700D01*
X0173317Y0078501D01*
X0178474Y0077700D02*
X0178474Y0080903D01*
X0181677Y0080903D02*
X0181677Y0078501D01*
X0180876Y0077700D01*
X0178474Y0077700D01*
X0183630Y0077700D02*
X0183630Y0080102D01*
X0184431Y0080903D01*
X0186032Y0080903D01*
X0186833Y0080102D01*
X0188669Y0080903D02*
X0190271Y0080903D01*
X0189470Y0081703D02*
X0189470Y0078501D01*
X0188669Y0077700D01*
X0186833Y0077700D02*
X0186833Y0082504D01*
X0192107Y0077700D02*
X0193708Y0077700D01*
X0192908Y0077700D02*
X0192908Y0080903D01*
X0193708Y0080903D01*
X0192908Y0082504D02*
X0192908Y0083305D01*
X0195662Y0080903D02*
X0198064Y0080903D01*
X0198865Y0080102D01*
X0198865Y0078501D01*
X0198064Y0077700D01*
X0195662Y0077700D01*
X0195662Y0076899D02*
X0195662Y0080903D01*
X0200818Y0082504D02*
X0204021Y0077700D01*
X0209177Y0077700D02*
X0205975Y0082504D01*
X0210955Y0080903D02*
X0210955Y0080102D01*
X0211756Y0080102D01*
X0211756Y0080903D01*
X0210955Y0080903D01*
X0210955Y0078501D02*
X0210955Y0077700D01*
X0211756Y0077700D01*
X0211756Y0078501D01*
X0210955Y0078501D01*
X0213709Y0078501D02*
X0214510Y0079301D01*
X0216111Y0079301D01*
X0216912Y0080102D01*
X0216111Y0080903D01*
X0213709Y0080903D01*
X0213709Y0078501D02*
X0214510Y0077700D01*
X0216912Y0077700D01*
X0218866Y0078501D02*
X0219666Y0077700D01*
X0222068Y0077700D01*
X0222068Y0076099D02*
X0222068Y0080903D01*
X0219666Y0080903D01*
X0218866Y0080102D01*
X0218866Y0078501D01*
X0223905Y0077700D02*
X0224705Y0078501D01*
X0224705Y0081703D01*
X0223905Y0080903D02*
X0225506Y0080903D01*
X0227342Y0080903D02*
X0228944Y0080903D01*
X0228143Y0081703D02*
X0228143Y0078501D01*
X0227342Y0077700D01*
X0230897Y0077700D02*
X0230897Y0080102D01*
X0231698Y0080903D01*
X0233299Y0080903D01*
X0234100Y0080102D01*
X0234100Y0082504D02*
X0234100Y0077700D01*
X0197263Y0076099D02*
X0196463Y0076099D01*
X0195662Y0076899D01*
X0184000Y0151300D02*
X0179000Y0151300D01*
X0176500Y0153800D01*
X0176500Y0168800D01*
X0179000Y0171300D01*
X0184000Y0171300D01*
X0186500Y0168800D01*
X0186500Y0153800D01*
X0184000Y0151300D01*
X0176500Y0153800D02*
X0174000Y0151300D01*
X0169000Y0151300D01*
X0166500Y0153800D01*
X0166500Y0168800D01*
X0169000Y0171300D01*
X0174000Y0171300D01*
X0176500Y0168800D01*
X0166500Y0168800D02*
X0164000Y0171300D01*
X0159000Y0171300D01*
X0156500Y0168800D01*
X0156500Y0153800D01*
X0159000Y0151300D01*
X0164000Y0151300D01*
X0166500Y0153800D01*
X0164000Y0172619D02*
X0159000Y0172619D01*
X0138350Y0169703D02*
X0138350Y0169002D01*
X0137649Y0168302D01*
X0136248Y0168302D01*
X0135548Y0167601D01*
X0135548Y0166901D01*
X0136248Y0166200D01*
X0137649Y0166200D01*
X0138350Y0166901D01*
X0138350Y0169703D02*
X0137649Y0170404D01*
X0136248Y0170404D01*
X0135548Y0169703D01*
X0133746Y0168302D02*
X0133746Y0166901D01*
X0133045Y0166200D01*
X0131644Y0166200D01*
X0130944Y0166901D01*
X0130944Y0168302D01*
X0131644Y0169002D01*
X0133045Y0169002D01*
X0133746Y0168302D01*
X0129142Y0170404D02*
X0128442Y0170404D01*
X0128442Y0166200D01*
X0129142Y0166200D02*
X0127741Y0166200D01*
X0126073Y0166901D02*
X0126073Y0168302D01*
X0125372Y0169002D01*
X0123270Y0169002D01*
X0123270Y0170404D02*
X0123270Y0166200D01*
X0125372Y0166200D01*
X0126073Y0166901D01*
X0121469Y0166901D02*
X0121469Y0168302D01*
X0120768Y0169002D01*
X0119367Y0169002D01*
X0118667Y0168302D01*
X0118667Y0167601D01*
X0121469Y0167601D01*
X0121469Y0166901D02*
X0120768Y0166200D01*
X0119367Y0166200D01*
X0116865Y0166200D02*
X0116865Y0169002D01*
X0116865Y0167601D02*
X0115464Y0169002D01*
X0114763Y0169002D01*
X0108424Y0169002D02*
X0106323Y0169002D01*
X0105622Y0168302D01*
X0105622Y0166901D01*
X0106323Y0166200D01*
X0108424Y0166200D01*
X0108424Y0170404D01*
X0103120Y0169002D02*
X0101719Y0169002D01*
X0101018Y0168302D01*
X0101018Y0166200D01*
X0103120Y0166200D01*
X0103821Y0166901D01*
X0103120Y0167601D01*
X0101018Y0167601D01*
X0099217Y0169002D02*
X0097815Y0169002D01*
X0098516Y0169703D02*
X0098516Y0166901D01*
X0097815Y0166200D01*
X0095447Y0166901D02*
X0094746Y0166200D01*
X0095447Y0166901D02*
X0095447Y0169703D01*
X0096147Y0169002D02*
X0094746Y0169002D01*
X0093078Y0168302D02*
X0092377Y0169002D01*
X0090976Y0169002D01*
X0090276Y0168302D01*
X0090276Y0167601D01*
X0093078Y0167601D01*
X0093078Y0166901D02*
X0093078Y0168302D01*
X0093078Y0166901D02*
X0092377Y0166200D01*
X0090976Y0166200D01*
X0088474Y0166200D02*
X0088474Y0169002D01*
X0088474Y0167601D02*
X0087073Y0169002D01*
X0086372Y0169002D01*
X0084638Y0169002D02*
X0084638Y0166901D01*
X0083937Y0166200D01*
X0081835Y0166200D01*
X0081835Y0165499D02*
X0082536Y0164799D01*
X0083236Y0164799D01*
X0081835Y0165499D02*
X0081835Y0169002D01*
X0088674Y0161502D02*
X0087974Y0160802D01*
X0087974Y0158700D01*
X0090776Y0158700D02*
X0090776Y0161502D01*
X0088674Y0161502D01*
X0092578Y0160802D02*
X0093278Y0161502D01*
X0094679Y0161502D01*
X0095380Y0160802D01*
X0095380Y0159401D01*
X0094679Y0158700D01*
X0093278Y0158700D01*
X0092578Y0159401D01*
X0092578Y0160802D01*
X0094679Y0156104D02*
X0094679Y0155404D01*
X0094679Y0154002D02*
X0094679Y0151200D01*
X0093979Y0151200D02*
X0095380Y0151200D01*
X0097182Y0151901D02*
X0097882Y0151200D01*
X0099984Y0151200D01*
X0099283Y0152601D02*
X0097882Y0152601D01*
X0097182Y0151901D01*
X0097182Y0154002D02*
X0099283Y0154002D01*
X0099984Y0153302D01*
X0099283Y0152601D01*
X0095380Y0154002D02*
X0094679Y0154002D01*
X0092311Y0153302D02*
X0091610Y0154002D01*
X0089508Y0154002D01*
X0089508Y0155404D02*
X0089508Y0151200D01*
X0091610Y0151200D01*
X0092311Y0151901D01*
X0092311Y0153302D01*
X0087707Y0153302D02*
X0087006Y0154002D01*
X0085605Y0154002D01*
X0084904Y0153302D01*
X0084904Y0152601D01*
X0087707Y0152601D01*
X0087707Y0151901D02*
X0087707Y0153302D01*
X0087707Y0151901D02*
X0087006Y0151200D01*
X0085605Y0151200D01*
X0101652Y0158700D02*
X0102353Y0158700D01*
X0102353Y0159401D01*
X0101652Y0159401D01*
X0101652Y0158700D01*
X0103053Y0157299D01*
X0104721Y0158700D02*
X0105422Y0159401D01*
X0105422Y0162203D01*
X0106123Y0161502D02*
X0104721Y0161502D01*
X0107924Y0161502D02*
X0110026Y0161502D01*
X0110726Y0160802D01*
X0110026Y0160101D01*
X0108625Y0160101D01*
X0107924Y0159401D01*
X0108625Y0158700D01*
X0110726Y0158700D01*
X0112528Y0158700D02*
X0114630Y0158700D01*
X0115330Y0159401D01*
X0114630Y0160101D01*
X0112528Y0160101D01*
X0112528Y0160802D02*
X0112528Y0158700D01*
X0112528Y0160802D02*
X0113229Y0161502D01*
X0114630Y0161502D01*
X0117699Y0162904D02*
X0117699Y0158700D01*
X0118400Y0158700D02*
X0116998Y0158700D01*
X0114630Y0156104D02*
X0114630Y0155404D01*
X0114630Y0154002D02*
X0114630Y0151200D01*
X0115330Y0151200D02*
X0113929Y0151200D01*
X0111561Y0151901D02*
X0110860Y0151200D01*
X0111561Y0151901D02*
X0111561Y0154703D01*
X0112261Y0154002D02*
X0110860Y0154002D01*
X0109192Y0153302D02*
X0108491Y0154002D01*
X0107090Y0154002D01*
X0106389Y0153302D01*
X0106389Y0152601D01*
X0109192Y0152601D01*
X0109192Y0151901D02*
X0109192Y0153302D01*
X0109192Y0151901D02*
X0108491Y0151200D01*
X0107090Y0151200D01*
X0114630Y0154002D02*
X0115330Y0154002D01*
X0117132Y0154002D02*
X0119234Y0154002D01*
X0119934Y0153302D01*
X0119234Y0152601D01*
X0117833Y0152601D01*
X0117132Y0151901D01*
X0117833Y0151200D01*
X0119934Y0151200D01*
X0121736Y0151901D02*
X0122436Y0151200D01*
X0123838Y0151200D01*
X0124538Y0151901D01*
X0124538Y0153302D01*
X0123838Y0154002D01*
X0122436Y0154002D01*
X0121736Y0153302D01*
X0121736Y0151901D01*
X0126340Y0151901D02*
X0127040Y0151200D01*
X0129142Y0151200D01*
X0129142Y0149799D02*
X0129142Y0154002D01*
X0127040Y0154002D01*
X0126340Y0153302D01*
X0126340Y0151901D01*
X0130944Y0151901D02*
X0131644Y0151200D01*
X0133746Y0151200D01*
X0133746Y0149799D02*
X0133746Y0154002D01*
X0131644Y0154002D01*
X0130944Y0153302D01*
X0130944Y0151901D01*
X0127608Y0157299D02*
X0127608Y0161502D01*
X0125506Y0161502D01*
X0124805Y0160802D01*
X0124805Y0159401D01*
X0125506Y0158700D01*
X0127608Y0158700D01*
X0129276Y0158700D02*
X0130677Y0158700D01*
X0129976Y0158700D02*
X0129976Y0161502D01*
X0130677Y0161502D01*
X0129976Y0162904D02*
X0129976Y0163604D01*
X0133045Y0162904D02*
X0133045Y0158700D01*
X0132345Y0158700D02*
X0133746Y0158700D01*
X0135548Y0158700D02*
X0137649Y0158700D01*
X0138350Y0159401D01*
X0138350Y0160802D01*
X0137649Y0161502D01*
X0135548Y0161502D01*
X0133746Y0162904D02*
X0133045Y0162904D01*
X0136248Y0154002D02*
X0137649Y0154002D01*
X0138350Y0153302D01*
X0138350Y0151901D01*
X0137649Y0151200D01*
X0136248Y0151200D01*
X0135548Y0151901D01*
X0135548Y0153302D01*
X0136248Y0154002D01*
X0118400Y0162904D02*
X0117699Y0162904D01*
X0144000Y0194550D02*
X0141500Y0197050D01*
X0141500Y0202050D01*
X0144000Y0204550D01*
X0149000Y0204550D01*
X0151500Y0202050D01*
X0154000Y0204550D01*
X0159000Y0204550D01*
X0161500Y0202050D01*
X0164000Y0204550D01*
X0169000Y0204550D01*
X0171500Y0202050D01*
X0174000Y0204550D01*
X0179000Y0204550D01*
X0181500Y0202050D01*
X0184000Y0204550D01*
X0189000Y0204550D01*
X0191500Y0202050D01*
X0194000Y0204550D01*
X0199000Y0204550D01*
X0201500Y0202050D01*
X0201500Y0197050D01*
X0199000Y0194550D01*
X0194000Y0194550D01*
X0191500Y0197050D01*
X0189000Y0194550D01*
X0184000Y0194550D01*
X0181500Y0197050D01*
X0179000Y0194550D01*
X0174000Y0194550D01*
X0171500Y0197050D01*
X0169000Y0194550D01*
X0164000Y0194550D01*
X0161500Y0197050D01*
X0159000Y0194550D01*
X0154000Y0194550D01*
X0151500Y0197050D01*
X0149000Y0194550D01*
X0144000Y0194550D01*
X0246928Y0201203D02*
X0250131Y0198001D01*
X0250131Y0197200D01*
X0252084Y0197200D02*
X0255287Y0197200D01*
X0253686Y0197200D02*
X0253686Y0202004D01*
X0255287Y0200403D01*
X0257241Y0201203D02*
X0260444Y0198001D01*
X0259643Y0197200D01*
X0258042Y0197200D01*
X0257241Y0198001D01*
X0257241Y0201203D01*
X0258042Y0202004D01*
X0259643Y0202004D01*
X0260444Y0201203D01*
X0260444Y0198001D01*
X0262397Y0197200D02*
X0265600Y0197200D01*
X0262397Y0200403D01*
X0262397Y0201203D01*
X0263198Y0202004D01*
X0264799Y0202004D01*
X0265600Y0201203D01*
X0250131Y0202004D02*
X0246928Y0202004D01*
X0246928Y0201203D01*
D12*
X0247482Y0167555D02*
X0247482Y0161950D01*
X0243745Y0161950D01*
X0241404Y0161950D02*
X0241404Y0167555D01*
X0238602Y0167555D01*
X0237668Y0166621D01*
X0237668Y0162884D01*
X0238602Y0161950D01*
X0241404Y0161950D01*
X0235327Y0161950D02*
X0235327Y0167555D01*
X0231591Y0167555D01*
X0229250Y0167555D02*
X0229250Y0161950D01*
X0229250Y0163818D02*
X0226448Y0163818D01*
X0225513Y0164752D01*
X0225513Y0166621D01*
X0226448Y0167555D01*
X0229250Y0167555D01*
X0227382Y0163818D02*
X0225513Y0161950D01*
X0225277Y0157655D02*
X0226211Y0156721D01*
X0226211Y0155787D01*
X0225277Y0154852D01*
X0223409Y0154852D01*
X0222475Y0153918D01*
X0222475Y0152984D01*
X0223409Y0152050D01*
X0225277Y0152050D01*
X0226211Y0152984D01*
X0225277Y0157655D02*
X0223409Y0157655D01*
X0222475Y0156721D01*
X0220134Y0157655D02*
X0218266Y0157655D01*
X0219200Y0157655D02*
X0219200Y0152050D01*
X0220134Y0152050D02*
X0218266Y0152050D01*
X0216083Y0152050D02*
X0216083Y0157655D01*
X0213280Y0157655D01*
X0212346Y0156721D01*
X0212346Y0152984D01*
X0213280Y0152050D01*
X0216083Y0152050D01*
X0210006Y0152050D02*
X0210006Y0157655D01*
X0206269Y0157655D01*
X0208137Y0154852D02*
X0210006Y0154852D01*
X0210006Y0152050D02*
X0206269Y0152050D01*
X0207282Y0161950D02*
X0207282Y0167555D01*
X0211018Y0167555D02*
X0207282Y0161950D01*
X0211018Y0161950D02*
X0211018Y0167555D01*
X0213359Y0166621D02*
X0214293Y0167555D01*
X0216162Y0167555D01*
X0217096Y0166621D01*
X0217096Y0162884D01*
X0216162Y0161950D01*
X0214293Y0161950D01*
X0213359Y0162884D01*
X0213359Y0166621D01*
X0231591Y0161950D02*
X0235327Y0161950D01*
X0235327Y0164752D02*
X0233459Y0164752D01*
X0235563Y0157655D02*
X0237432Y0157655D01*
X0238366Y0156721D01*
X0238366Y0155787D01*
X0237432Y0154852D01*
X0235563Y0154852D01*
X0234629Y0153918D01*
X0234629Y0152984D01*
X0235563Y0152050D01*
X0237432Y0152050D01*
X0238366Y0152984D01*
X0240549Y0152050D02*
X0242417Y0152050D01*
X0241483Y0152050D02*
X0241483Y0157655D01*
X0242417Y0157655D02*
X0240549Y0157655D01*
X0244758Y0157655D02*
X0244758Y0152050D01*
X0244758Y0154852D02*
X0248494Y0154852D01*
X0248494Y0152050D02*
X0248494Y0157655D01*
X0250835Y0157655D02*
X0254572Y0157655D01*
X0252703Y0157655D02*
X0252703Y0152050D01*
X0252625Y0161950D02*
X0250756Y0161950D01*
X0249822Y0162884D01*
X0249822Y0166621D01*
X0250756Y0167555D01*
X0252625Y0167555D01*
X0253559Y0166621D01*
X0253559Y0162884D01*
X0252625Y0161950D01*
X0255899Y0162884D02*
X0256834Y0161950D01*
X0258702Y0161950D01*
X0259636Y0162884D01*
X0258702Y0164752D02*
X0256834Y0164752D01*
X0255899Y0163818D01*
X0255899Y0162884D01*
X0258702Y0164752D02*
X0259636Y0165687D01*
X0259636Y0166621D01*
X0258702Y0167555D01*
X0256834Y0167555D01*
X0255899Y0166621D01*
X0235563Y0157655D02*
X0234629Y0156721D01*
X0286500Y0153800D02*
X0286500Y0143800D01*
X0314000Y0143800D01*
X0314000Y0146300D01*
X0316500Y0146300D01*
X0316500Y0151300D01*
X0314000Y0151300D01*
X0314000Y0153800D01*
X0286500Y0153800D01*
D13*
X0110061Y0200780D02*
X0108156Y0200587D01*
X0107951Y0199946D01*
X0107643Y0199348D01*
X0108854Y0197864D01*
X0107836Y0196846D01*
X0106352Y0198057D01*
X0105754Y0197749D01*
X0104906Y0199795D01*
X0105285Y0200007D01*
X0105603Y0200301D01*
X0105845Y0200662D01*
X0105995Y0201069D01*
X0106046Y0201500D01*
X0105993Y0201939D01*
X0105837Y0202352D01*
X0105588Y0202717D01*
X0105259Y0203011D01*
X0104869Y0203220D01*
X0104441Y0203329D01*
X0103999Y0203334D01*
X0103569Y0203234D01*
X0103175Y0203034D01*
X0102840Y0202746D01*
X0102582Y0202387D01*
X0102418Y0201977D01*
X0102355Y0201540D01*
X0102399Y0201100D01*
X0102545Y0200684D01*
X0102786Y0200314D01*
X0103109Y0200012D01*
X0103494Y0199795D01*
X0102646Y0197749D01*
X0102048Y0198057D01*
X0100564Y0196846D01*
X0099546Y0197864D01*
X0100757Y0199348D01*
X0100449Y0199946D01*
X0100244Y0200587D01*
X0098339Y0200780D01*
X0098339Y0202220D01*
X0100244Y0202413D01*
X0100449Y0203054D01*
X0100757Y0203652D01*
X0099546Y0205136D01*
X0100564Y0206154D01*
X0102048Y0204943D01*
X0102646Y0205251D01*
X0103287Y0205456D01*
X0103480Y0207361D01*
X0104920Y0207361D01*
X0105113Y0205456D01*
X0105754Y0205251D01*
X0106352Y0204943D01*
X0107836Y0206154D01*
X0108854Y0205136D01*
X0107643Y0203652D01*
X0107951Y0203054D01*
X0108156Y0202413D01*
X0110061Y0202220D01*
X0110061Y0200780D01*
X0109932Y0200767D02*
X0105883Y0200767D01*
X0106029Y0201356D02*
X0110061Y0201356D01*
X0110061Y0201945D02*
X0105990Y0201945D01*
X0105712Y0202534D02*
X0108118Y0202534D01*
X0107915Y0203123D02*
X0105049Y0203123D01*
X0103352Y0203123D02*
X0100485Y0203123D01*
X0100282Y0202534D02*
X0102688Y0202534D01*
X0102413Y0201945D02*
X0098339Y0201945D01*
X0098339Y0201356D02*
X0102373Y0201356D01*
X0102516Y0200767D02*
X0098468Y0200767D01*
X0100375Y0200178D02*
X0102931Y0200178D01*
X0103408Y0199589D02*
X0100633Y0199589D01*
X0100473Y0199000D02*
X0103164Y0199000D01*
X0102920Y0198411D02*
X0099992Y0198411D01*
X0099589Y0197822D02*
X0101760Y0197822D01*
X0102504Y0197822D02*
X0102676Y0197822D01*
X0101038Y0197233D02*
X0100178Y0197233D01*
X0105236Y0199000D02*
X0107927Y0199000D01*
X0107767Y0199589D02*
X0104992Y0199589D01*
X0105470Y0200178D02*
X0108026Y0200178D01*
X0108408Y0198411D02*
X0105480Y0198411D01*
X0105724Y0197822D02*
X0105896Y0197822D01*
X0106640Y0197822D02*
X0108811Y0197822D01*
X0108222Y0197233D02*
X0107362Y0197233D01*
X0107693Y0203712D02*
X0100707Y0203712D01*
X0100227Y0204302D02*
X0108173Y0204302D01*
X0108654Y0204891D02*
X0099746Y0204891D01*
X0099890Y0205480D02*
X0101391Y0205480D01*
X0100668Y0206069D02*
X0100479Y0206069D01*
X0103349Y0206069D02*
X0105051Y0206069D01*
X0104991Y0206658D02*
X0103409Y0206658D01*
X0103469Y0207247D02*
X0104931Y0207247D01*
X0105111Y0205480D02*
X0103289Y0205480D01*
X0107009Y0205480D02*
X0108510Y0205480D01*
X0107921Y0206069D02*
X0107732Y0206069D01*
D14*
X0064000Y0194550D02*
X0279000Y0194550D01*
X0279140Y0194548D01*
X0279280Y0194542D01*
X0279420Y0194532D01*
X0279560Y0194519D01*
X0279699Y0194501D01*
X0279838Y0194479D01*
X0279975Y0194454D01*
X0280113Y0194425D01*
X0280249Y0194392D01*
X0280384Y0194355D01*
X0280518Y0194314D01*
X0280651Y0194269D01*
X0280783Y0194221D01*
X0280913Y0194169D01*
X0281042Y0194114D01*
X0281169Y0194055D01*
X0281295Y0193992D01*
X0281419Y0193926D01*
X0281540Y0193857D01*
X0281660Y0193784D01*
X0281778Y0193707D01*
X0281893Y0193628D01*
X0282007Y0193545D01*
X0282117Y0193459D01*
X0282226Y0193370D01*
X0282332Y0193278D01*
X0282435Y0193183D01*
X0282536Y0193086D01*
X0282633Y0192985D01*
X0282728Y0192882D01*
X0282820Y0192776D01*
X0282909Y0192667D01*
X0282995Y0192557D01*
X0283078Y0192443D01*
X0283157Y0192328D01*
X0283234Y0192210D01*
X0283307Y0192090D01*
X0283376Y0191969D01*
X0283442Y0191845D01*
X0283505Y0191719D01*
X0283564Y0191592D01*
X0283619Y0191463D01*
X0283671Y0191333D01*
X0283719Y0191201D01*
X0283764Y0191068D01*
X0283805Y0190934D01*
X0283842Y0190799D01*
X0283875Y0190663D01*
X0283904Y0190525D01*
X0283929Y0190388D01*
X0283951Y0190249D01*
X0283969Y0190110D01*
X0283982Y0189970D01*
X0283992Y0189830D01*
X0283998Y0189690D01*
X0284000Y0189550D01*
X0284000Y0132550D01*
X0283998Y0132410D01*
X0283992Y0132270D01*
X0283982Y0132130D01*
X0283969Y0131990D01*
X0283951Y0131851D01*
X0283929Y0131712D01*
X0283904Y0131575D01*
X0283875Y0131437D01*
X0283842Y0131301D01*
X0283805Y0131166D01*
X0283764Y0131032D01*
X0283719Y0130899D01*
X0283671Y0130767D01*
X0283619Y0130637D01*
X0283564Y0130508D01*
X0283505Y0130381D01*
X0283442Y0130255D01*
X0283376Y0130131D01*
X0283307Y0130010D01*
X0283234Y0129890D01*
X0283157Y0129772D01*
X0283078Y0129657D01*
X0282995Y0129543D01*
X0282909Y0129433D01*
X0282820Y0129324D01*
X0282728Y0129218D01*
X0282633Y0129115D01*
X0282536Y0129014D01*
X0282435Y0128917D01*
X0282332Y0128822D01*
X0282226Y0128730D01*
X0282117Y0128641D01*
X0282007Y0128555D01*
X0281893Y0128472D01*
X0281778Y0128393D01*
X0281660Y0128316D01*
X0281540Y0128243D01*
X0281419Y0128174D01*
X0281295Y0128108D01*
X0281169Y0128045D01*
X0281042Y0127986D01*
X0280913Y0127931D01*
X0280783Y0127879D01*
X0280651Y0127831D01*
X0280518Y0127786D01*
X0280384Y0127745D01*
X0280249Y0127708D01*
X0280113Y0127675D01*
X0279975Y0127646D01*
X0279838Y0127621D01*
X0279699Y0127599D01*
X0279560Y0127581D01*
X0279420Y0127568D01*
X0279280Y0127558D01*
X0279140Y0127552D01*
X0279000Y0127550D01*
X0064000Y0127550D01*
X0063860Y0127552D01*
X0063720Y0127558D01*
X0063580Y0127568D01*
X0063440Y0127581D01*
X0063301Y0127599D01*
X0063162Y0127621D01*
X0063025Y0127646D01*
X0062887Y0127675D01*
X0062751Y0127708D01*
X0062616Y0127745D01*
X0062482Y0127786D01*
X0062349Y0127831D01*
X0062217Y0127879D01*
X0062087Y0127931D01*
X0061958Y0127986D01*
X0061831Y0128045D01*
X0061705Y0128108D01*
X0061581Y0128174D01*
X0061460Y0128243D01*
X0061340Y0128316D01*
X0061222Y0128393D01*
X0061107Y0128472D01*
X0060993Y0128555D01*
X0060883Y0128641D01*
X0060774Y0128730D01*
X0060668Y0128822D01*
X0060565Y0128917D01*
X0060464Y0129014D01*
X0060367Y0129115D01*
X0060272Y0129218D01*
X0060180Y0129324D01*
X0060091Y0129433D01*
X0060005Y0129543D01*
X0059922Y0129657D01*
X0059843Y0129772D01*
X0059766Y0129890D01*
X0059693Y0130010D01*
X0059624Y0130131D01*
X0059558Y0130255D01*
X0059495Y0130381D01*
X0059436Y0130508D01*
X0059381Y0130637D01*
X0059329Y0130767D01*
X0059281Y0130899D01*
X0059236Y0131032D01*
X0059195Y0131166D01*
X0059158Y0131301D01*
X0059125Y0131437D01*
X0059096Y0131575D01*
X0059071Y0131712D01*
X0059049Y0131851D01*
X0059031Y0131990D01*
X0059018Y0132130D01*
X0059008Y0132270D01*
X0059002Y0132410D01*
X0059000Y0132550D01*
X0059000Y0189550D01*
X0059002Y0189690D01*
X0059008Y0189830D01*
X0059018Y0189970D01*
X0059031Y0190110D01*
X0059049Y0190249D01*
X0059071Y0190388D01*
X0059096Y0190525D01*
X0059125Y0190663D01*
X0059158Y0190799D01*
X0059195Y0190934D01*
X0059236Y0191068D01*
X0059281Y0191201D01*
X0059329Y0191333D01*
X0059381Y0191463D01*
X0059436Y0191592D01*
X0059495Y0191719D01*
X0059558Y0191845D01*
X0059624Y0191969D01*
X0059693Y0192090D01*
X0059766Y0192210D01*
X0059843Y0192328D01*
X0059922Y0192443D01*
X0060005Y0192557D01*
X0060091Y0192667D01*
X0060180Y0192776D01*
X0060272Y0192882D01*
X0060367Y0192985D01*
X0060464Y0193086D01*
X0060565Y0193183D01*
X0060668Y0193278D01*
X0060774Y0193370D01*
X0060883Y0193459D01*
X0060993Y0193545D01*
X0061107Y0193628D01*
X0061222Y0193707D01*
X0061340Y0193784D01*
X0061460Y0193857D01*
X0061581Y0193926D01*
X0061705Y0193992D01*
X0061831Y0194055D01*
X0061958Y0194114D01*
X0062087Y0194169D01*
X0062217Y0194221D01*
X0062349Y0194269D01*
X0062482Y0194314D01*
X0062616Y0194355D01*
X0062751Y0194392D01*
X0062887Y0194425D01*
X0063025Y0194454D01*
X0063162Y0194479D01*
X0063301Y0194501D01*
X0063440Y0194519D01*
X0063580Y0194532D01*
X0063720Y0194542D01*
X0063860Y0194548D01*
X0064000Y0194550D01*
D15*
X0056500Y0161300D02*
X0046500Y0161300D01*
X0286500Y0161300D02*
X0296500Y0161300D01*
X0291500Y0156300D02*
X0291500Y0166300D01*
D16*
X0256625Y0205050D03*
X0237375Y0214675D03*
X0237375Y0214800D03*
X0237250Y0214550D03*
X0237250Y0214425D03*
X0253000Y0233300D03*
X0252875Y0233425D03*
X0252750Y0233550D03*
X0255125Y0233050D03*
X0256125Y0234050D03*
X0256125Y0234175D03*
X0256125Y0234300D03*
X0256125Y0234425D03*
X0256125Y0234550D03*
X0257625Y0234300D03*
X0257625Y0234175D03*
X0257625Y0234050D03*
X0257625Y0233925D03*
X0257625Y0233800D03*
X0258625Y0233050D03*
X0258750Y0233175D03*
X0260750Y0233300D03*
X0261000Y0233425D03*
X0276375Y0214800D03*
X0276375Y0214675D03*
X0276500Y0214550D03*
D17*
X0275625Y0216175D03*
X0275500Y0216300D03*
X0275875Y0209675D03*
X0275625Y0208800D03*
X0275500Y0208550D03*
X0275000Y0207050D03*
X0274875Y0206800D03*
X0274875Y0206675D03*
X0274750Y0206425D03*
X0274750Y0206300D03*
X0274625Y0206175D03*
X0274625Y0206050D03*
X0274500Y0205675D03*
X0274375Y0205300D03*
X0274375Y0205175D03*
X0266875Y0207300D03*
X0266750Y0207175D03*
X0266750Y0207050D03*
X0266625Y0206925D03*
X0266625Y0206800D03*
X0266500Y0206675D03*
X0266375Y0206550D03*
X0266875Y0210175D03*
X0266750Y0210425D03*
X0266625Y0210675D03*
X0266500Y0210800D03*
X0269125Y0210675D03*
X0269250Y0211050D03*
X0269125Y0209800D03*
X0262000Y0210925D03*
X0261625Y0210300D03*
X0261625Y0210175D03*
X0261500Y0210050D03*
X0261500Y0209925D03*
X0259250Y0209925D03*
X0259125Y0210425D03*
X0259000Y0210550D03*
X0258875Y0210800D03*
X0259250Y0207550D03*
X0259125Y0207175D03*
X0259125Y0207050D03*
X0259000Y0206925D03*
X0258875Y0206675D03*
X0261750Y0207050D03*
X0261750Y0207175D03*
X0261875Y0206925D03*
X0262000Y0206675D03*
X0254500Y0206550D03*
X0254375Y0206675D03*
X0254250Y0206800D03*
X0254125Y0207050D03*
X0254000Y0207175D03*
X0251875Y0205300D03*
X0251875Y0205175D03*
X0251750Y0205425D03*
X0247250Y0207175D03*
X0247125Y0207050D03*
X0247125Y0206925D03*
X0247000Y0206550D03*
X0247000Y0206425D03*
X0246875Y0206175D03*
X0246875Y0206050D03*
X0246750Y0205925D03*
X0246750Y0205800D03*
X0246625Y0205425D03*
X0246500Y0205300D03*
X0246500Y0205175D03*
X0247625Y0208300D03*
X0247750Y0208800D03*
X0247875Y0209050D03*
X0248000Y0209425D03*
X0248125Y0209675D03*
X0254000Y0210425D03*
X0254125Y0210675D03*
X0239375Y0205675D03*
X0239500Y0205175D03*
X0234750Y0206675D03*
X0234750Y0206800D03*
X0234625Y0206550D03*
X0234625Y0206425D03*
X0234500Y0206175D03*
X0234500Y0206050D03*
X0234375Y0205675D03*
X0234375Y0205550D03*
X0234250Y0205425D03*
X0234875Y0207175D03*
X0235250Y0208300D03*
X0235375Y0208550D03*
X0235625Y0209175D03*
X0238250Y0216300D03*
X0279250Y0206300D03*
X0279625Y0205175D03*
D18*
X0279563Y0205300D03*
X0279563Y0205425D03*
X0279563Y0205550D03*
X0279438Y0205675D03*
X0279438Y0205800D03*
X0279438Y0205925D03*
X0279438Y0206050D03*
X0279313Y0206175D03*
X0279188Y0206425D03*
X0279188Y0206550D03*
X0279188Y0206675D03*
X0279063Y0206800D03*
X0278938Y0206925D03*
X0278938Y0207050D03*
X0278938Y0207175D03*
X0278313Y0208675D03*
X0278313Y0208800D03*
X0278313Y0208925D03*
X0278188Y0209175D03*
X0278188Y0209300D03*
X0278063Y0209550D03*
X0277938Y0209800D03*
X0277938Y0209925D03*
X0277813Y0210175D03*
X0277688Y0210425D03*
X0277688Y0210550D03*
X0276313Y0210550D03*
X0276313Y0210675D03*
X0276188Y0210425D03*
X0276063Y0210300D03*
X0276063Y0210175D03*
X0276063Y0210050D03*
X0276063Y0209925D03*
X0275938Y0209800D03*
X0275813Y0209550D03*
X0275813Y0209425D03*
X0275813Y0209300D03*
X0275688Y0209175D03*
X0275688Y0209050D03*
X0275688Y0208925D03*
X0275563Y0208675D03*
X0275438Y0208425D03*
X0275438Y0208300D03*
X0275063Y0207175D03*
X0274938Y0206925D03*
X0274813Y0206550D03*
X0274563Y0205925D03*
X0274563Y0205800D03*
X0274438Y0205550D03*
X0274438Y0205425D03*
X0272313Y0205425D03*
X0272313Y0205550D03*
X0272313Y0205675D03*
X0272313Y0205800D03*
X0272313Y0205925D03*
X0272313Y0206050D03*
X0272313Y0206175D03*
X0272313Y0206300D03*
X0272313Y0206425D03*
X0272313Y0206550D03*
X0272313Y0206675D03*
X0272313Y0206800D03*
X0272313Y0206925D03*
X0272313Y0207050D03*
X0272313Y0207175D03*
X0272313Y0207300D03*
X0272313Y0207425D03*
X0272313Y0207550D03*
X0272313Y0207675D03*
X0272313Y0207800D03*
X0272313Y0207925D03*
X0272313Y0209175D03*
X0272313Y0209300D03*
X0272313Y0209425D03*
X0272313Y0209550D03*
X0272313Y0209675D03*
X0272313Y0209800D03*
X0272313Y0209925D03*
X0272313Y0210050D03*
X0272313Y0210175D03*
X0272313Y0210300D03*
X0272313Y0210425D03*
X0272313Y0210550D03*
X0272313Y0210675D03*
X0272313Y0210800D03*
X0272313Y0210925D03*
X0272313Y0211050D03*
X0272313Y0211175D03*
X0272313Y0211300D03*
X0269188Y0210925D03*
X0269188Y0210800D03*
X0269063Y0210550D03*
X0269063Y0210425D03*
X0269063Y0210300D03*
X0269063Y0210175D03*
X0269063Y0210050D03*
X0269063Y0209925D03*
X0269188Y0209675D03*
X0269188Y0209550D03*
X0267063Y0209550D03*
X0267063Y0209675D03*
X0266938Y0209800D03*
X0266938Y0209925D03*
X0266938Y0210050D03*
X0266813Y0210300D03*
X0266688Y0210550D03*
X0267063Y0209425D03*
X0267063Y0209300D03*
X0267063Y0209175D03*
X0267063Y0209050D03*
X0267063Y0208925D03*
X0267063Y0208800D03*
X0267063Y0208675D03*
X0267063Y0208550D03*
X0267063Y0208425D03*
X0267063Y0208300D03*
X0267063Y0208175D03*
X0267063Y0208050D03*
X0267063Y0207925D03*
X0267063Y0207800D03*
X0266938Y0207675D03*
X0266938Y0207550D03*
X0266938Y0207425D03*
X0272313Y0205300D03*
X0272313Y0205175D03*
X0276938Y0212300D03*
X0275688Y0215925D03*
X0275688Y0216050D03*
X0261687Y0210425D03*
X0261437Y0209800D03*
X0261437Y0209675D03*
X0261437Y0209550D03*
X0261437Y0209425D03*
X0261437Y0209300D03*
X0261437Y0209175D03*
X0261437Y0208925D03*
X0261437Y0208550D03*
X0261437Y0208425D03*
X0261437Y0208300D03*
X0261437Y0208175D03*
X0261437Y0208050D03*
X0261437Y0207925D03*
X0261437Y0207800D03*
X0261562Y0207675D03*
X0261562Y0207550D03*
X0261687Y0207425D03*
X0261687Y0207300D03*
X0261937Y0206800D03*
X0259437Y0207925D03*
X0259437Y0208050D03*
X0259437Y0208175D03*
X0259437Y0208300D03*
X0259437Y0208425D03*
X0259437Y0208550D03*
X0259437Y0208675D03*
X0259437Y0208800D03*
X0259437Y0208925D03*
X0259437Y0209050D03*
X0259437Y0209175D03*
X0259437Y0209300D03*
X0259437Y0209425D03*
X0259437Y0209550D03*
X0259312Y0209800D03*
X0259187Y0210050D03*
X0259187Y0210175D03*
X0259187Y0210300D03*
X0258937Y0210675D03*
X0259312Y0207800D03*
X0259312Y0207675D03*
X0259187Y0207425D03*
X0259187Y0207300D03*
X0258937Y0206800D03*
X0254187Y0206925D03*
X0253937Y0207300D03*
X0253937Y0207425D03*
X0253937Y0207550D03*
X0253812Y0207675D03*
X0253812Y0207800D03*
X0253812Y0210050D03*
X0253937Y0210175D03*
X0253937Y0210300D03*
X0250437Y0209175D03*
X0250437Y0209050D03*
X0250437Y0208925D03*
X0250562Y0208675D03*
X0250687Y0208550D03*
X0250687Y0208425D03*
X0250687Y0208300D03*
X0250312Y0209300D03*
X0250187Y0209550D03*
X0250187Y0209675D03*
X0250187Y0209800D03*
X0250062Y0209925D03*
X0250062Y0210050D03*
X0250062Y0210175D03*
X0249937Y0210425D03*
X0249812Y0210675D03*
X0248437Y0210675D03*
X0248437Y0210550D03*
X0248312Y0210425D03*
X0248312Y0210300D03*
X0248312Y0210175D03*
X0248187Y0210050D03*
X0248187Y0209925D03*
X0248187Y0209800D03*
X0248062Y0209550D03*
X0247937Y0209300D03*
X0247937Y0209175D03*
X0247812Y0208925D03*
X0247687Y0208675D03*
X0247687Y0208550D03*
X0247687Y0208425D03*
X0247062Y0206800D03*
X0247062Y0206675D03*
X0246937Y0206300D03*
X0246687Y0205675D03*
X0246687Y0205550D03*
X0251062Y0207175D03*
X0251187Y0207050D03*
X0251312Y0206800D03*
X0251312Y0206675D03*
X0251437Y0206425D03*
X0251437Y0206300D03*
X0251437Y0206175D03*
X0251562Y0206050D03*
X0251562Y0205925D03*
X0251687Y0205800D03*
X0251687Y0205675D03*
X0251687Y0205550D03*
X0249187Y0212300D03*
X0238187Y0208925D03*
X0238187Y0208800D03*
X0238187Y0208675D03*
X0238312Y0208425D03*
X0238312Y0208300D03*
X0238062Y0209175D03*
X0237937Y0209300D03*
X0237937Y0209425D03*
X0237937Y0209550D03*
X0237687Y0209925D03*
X0237687Y0210050D03*
X0237687Y0210175D03*
X0237562Y0210425D03*
X0237562Y0210550D03*
X0237562Y0210675D03*
X0236187Y0210800D03*
X0236062Y0210675D03*
X0236062Y0210550D03*
X0236062Y0210425D03*
X0235937Y0210300D03*
X0235937Y0210175D03*
X0235812Y0210050D03*
X0235812Y0209925D03*
X0235812Y0209800D03*
X0235812Y0209675D03*
X0235687Y0209550D03*
X0235687Y0209425D03*
X0235687Y0209300D03*
X0235562Y0209050D03*
X0235437Y0208925D03*
X0235437Y0208800D03*
X0235437Y0208675D03*
X0235312Y0208425D03*
X0234812Y0207050D03*
X0234812Y0206925D03*
X0234562Y0206300D03*
X0234437Y0205925D03*
X0234437Y0205800D03*
X0234187Y0205300D03*
X0234187Y0205175D03*
X0238937Y0206550D03*
X0238937Y0206675D03*
X0238937Y0206800D03*
X0238812Y0207050D03*
X0238812Y0207175D03*
X0239062Y0206425D03*
X0239187Y0206300D03*
X0239187Y0206175D03*
X0239187Y0206050D03*
X0239187Y0205925D03*
X0239312Y0205800D03*
X0239437Y0205550D03*
X0239437Y0205425D03*
X0239437Y0205300D03*
X0236812Y0212300D03*
X0238062Y0215925D03*
X0238187Y0216050D03*
X0238187Y0216175D03*
X0253187Y0231425D03*
X0254312Y0232175D03*
X0254437Y0232050D03*
X0259562Y0232300D03*
D19*
X0274313Y0218050D03*
X0274313Y0217925D03*
X0274438Y0217800D03*
X0276938Y0211175D03*
X0264313Y0205175D03*
X0256562Y0212425D03*
X0239437Y0217925D03*
X0239312Y0217800D03*
X0236812Y0211175D03*
X0236812Y0211050D03*
D20*
X0236750Y0210925D03*
X0239500Y0218050D03*
X0239625Y0218175D03*
X0249125Y0211050D03*
X0249125Y0210925D03*
X0256625Y0205175D03*
X0264250Y0212425D03*
X0274000Y0218300D03*
X0274125Y0218175D03*
X0277000Y0211050D03*
D21*
X0242875Y0211425D03*
X0242875Y0211550D03*
X0242875Y0211675D03*
X0242875Y0211800D03*
X0242875Y0211925D03*
X0242875Y0212050D03*
X0242875Y0212175D03*
X0242875Y0212300D03*
X0242875Y0212425D03*
X0242875Y0206050D03*
X0242875Y0205925D03*
X0242875Y0205800D03*
X0242875Y0205675D03*
X0242875Y0205550D03*
X0242875Y0205425D03*
X0242875Y0205300D03*
X0242875Y0205175D03*
X0242500Y0221050D03*
X0242625Y0221175D03*
D22*
X0240312Y0218925D03*
X0240187Y0218800D03*
X0256562Y0212300D03*
X0264313Y0205300D03*
X0273688Y0218800D03*
D23*
X0273500Y0218925D03*
X0273375Y0219050D03*
X0271500Y0212425D03*
X0264250Y0212300D03*
X0256625Y0205300D03*
X0240375Y0219050D03*
D24*
X0241187Y0219925D03*
X0256562Y0212175D03*
X0256562Y0205425D03*
X0264313Y0205425D03*
X0271188Y0208425D03*
X0271188Y0212175D03*
X0272563Y0219925D03*
X0272438Y0220050D03*
D25*
X0271813Y0220675D03*
X0270938Y0211800D03*
X0270938Y0208800D03*
X0270938Y0208675D03*
X0264313Y0205550D03*
X0256562Y0205550D03*
X0243062Y0208425D03*
X0243062Y0208550D03*
X0243062Y0208675D03*
X0243062Y0208800D03*
X0243062Y0208925D03*
X0243062Y0209050D03*
X0243062Y0209175D03*
X0243062Y0209300D03*
D26*
X0242312Y0220925D03*
X0256562Y0211925D03*
X0255312Y0208925D03*
X0255312Y0208800D03*
X0255312Y0208675D03*
X0255312Y0208550D03*
X0255312Y0208425D03*
X0255312Y0208300D03*
X0255312Y0208175D03*
X0255312Y0208050D03*
X0255312Y0207925D03*
X0256687Y0205675D03*
X0264313Y0205675D03*
X0264188Y0211925D03*
X0271313Y0221050D03*
D27*
X0271188Y0221175D03*
X0271063Y0221300D03*
X0264188Y0211800D03*
X0264313Y0205800D03*
X0256562Y0211800D03*
X0249187Y0208175D03*
X0249187Y0208050D03*
X0249187Y0207925D03*
X0236812Y0208050D03*
X0236812Y0208175D03*
X0276938Y0208175D03*
X0276938Y0208050D03*
D28*
X0270875Y0221425D03*
X0256625Y0205800D03*
X0249125Y0207800D03*
X0242750Y0221300D03*
X0242875Y0221425D03*
D29*
X0243062Y0221550D03*
X0256562Y0211675D03*
X0256562Y0205925D03*
X0264313Y0205925D03*
X0264188Y0211675D03*
X0276938Y0207925D03*
X0276938Y0207800D03*
X0256937Y0231300D03*
X0257562Y0232050D03*
X0236812Y0207925D03*
X0236812Y0207800D03*
X0236812Y0207675D03*
D30*
X0236875Y0207300D03*
X0249125Y0207300D03*
X0256625Y0206050D03*
X0256500Y0211550D03*
X0264250Y0206050D03*
X0277000Y0207300D03*
X0243625Y0221925D03*
D31*
X0239187Y0217550D03*
X0239062Y0217425D03*
X0236812Y0211425D03*
X0249187Y0211425D03*
X0258312Y0206175D03*
X0265938Y0206175D03*
X0269688Y0209175D03*
X0276938Y0211425D03*
X0276938Y0211550D03*
D32*
X0274875Y0217175D03*
X0274750Y0217300D03*
X0274750Y0217425D03*
X0266125Y0211175D03*
X0266000Y0211300D03*
X0262375Y0211300D03*
X0258375Y0211300D03*
X0254750Y0211300D03*
X0254875Y0206175D03*
X0262625Y0206175D03*
X0266125Y0206300D03*
X0249125Y0211550D03*
X0249125Y0211675D03*
X0238875Y0217050D03*
X0238875Y0217175D03*
X0239000Y0217300D03*
X0236750Y0211675D03*
X0236750Y0211550D03*
X0256875Y0232550D03*
X0256875Y0232675D03*
X0256875Y0232800D03*
D33*
X0254250Y0232300D03*
X0254000Y0232425D03*
X0253875Y0232550D03*
X0259500Y0232175D03*
X0259750Y0232425D03*
X0260625Y0231425D03*
X0275750Y0215800D03*
X0275875Y0215675D03*
X0277625Y0210675D03*
X0277750Y0210300D03*
X0277875Y0210050D03*
X0278000Y0209675D03*
X0278125Y0209425D03*
X0278250Y0209050D03*
X0278375Y0208550D03*
X0278500Y0208425D03*
X0278500Y0208300D03*
X0261375Y0208675D03*
X0261375Y0208800D03*
X0261375Y0209050D03*
X0259375Y0209675D03*
X0251250Y0206925D03*
X0251375Y0206550D03*
X0250500Y0208800D03*
X0250250Y0209425D03*
X0250000Y0210300D03*
X0249875Y0210550D03*
X0249125Y0212425D03*
X0244500Y0211300D03*
X0244500Y0211175D03*
X0244500Y0211050D03*
X0244500Y0210925D03*
X0244500Y0210800D03*
X0244500Y0210675D03*
X0244500Y0210550D03*
X0244500Y0210425D03*
X0244500Y0210300D03*
X0244500Y0210175D03*
X0244500Y0210050D03*
X0244500Y0209925D03*
X0244500Y0209800D03*
X0244500Y0209675D03*
X0244500Y0209550D03*
X0244500Y0209425D03*
X0244500Y0208300D03*
X0244500Y0208175D03*
X0244500Y0208050D03*
X0244500Y0207925D03*
X0244500Y0207800D03*
X0244500Y0207675D03*
X0244500Y0207550D03*
X0244500Y0207425D03*
X0244500Y0207300D03*
X0244500Y0207175D03*
X0244500Y0207050D03*
X0244500Y0206925D03*
X0244500Y0206800D03*
X0244500Y0206675D03*
X0244500Y0206550D03*
X0244500Y0206425D03*
X0244500Y0206300D03*
X0244500Y0206175D03*
X0238875Y0206925D03*
X0238250Y0208550D03*
X0238125Y0209050D03*
X0237875Y0209675D03*
X0237750Y0209800D03*
X0237625Y0210300D03*
X0237500Y0210800D03*
X0237875Y0215675D03*
X0238000Y0215800D03*
D34*
X0238562Y0216675D03*
X0238562Y0216800D03*
X0238687Y0216925D03*
X0236812Y0211800D03*
X0249187Y0211800D03*
X0258437Y0211175D03*
X0262313Y0211175D03*
X0262438Y0206300D03*
X0258437Y0206300D03*
X0269563Y0211300D03*
X0276938Y0211675D03*
X0276938Y0211800D03*
X0275063Y0216925D03*
X0274938Y0217050D03*
D35*
X0275250Y0216800D03*
X0275250Y0216675D03*
X0276875Y0211925D03*
X0269375Y0211175D03*
X0269375Y0209300D03*
X0266250Y0211050D03*
X0262125Y0211050D03*
X0258625Y0211050D03*
X0254625Y0211175D03*
X0254750Y0206300D03*
X0249125Y0211925D03*
X0249125Y0212050D03*
X0236750Y0211925D03*
X0253500Y0231300D03*
X0266250Y0206425D03*
D36*
X0262188Y0206425D03*
X0262188Y0206550D03*
X0258687Y0206550D03*
X0258687Y0206425D03*
X0254562Y0206425D03*
X0254062Y0210550D03*
X0254312Y0210800D03*
X0254312Y0210925D03*
X0254437Y0211050D03*
X0249062Y0212175D03*
X0238437Y0216425D03*
X0238437Y0216550D03*
X0236812Y0212175D03*
X0236812Y0212050D03*
X0258812Y0210925D03*
X0261812Y0210675D03*
X0261812Y0210550D03*
X0261937Y0210800D03*
X0266438Y0210925D03*
X0269313Y0209425D03*
X0276938Y0212050D03*
X0276938Y0212175D03*
X0275313Y0216425D03*
X0275313Y0216550D03*
X0260312Y0231300D03*
D37*
X0256937Y0231425D03*
X0270438Y0221800D03*
X0264188Y0211550D03*
X0276938Y0207550D03*
X0276938Y0207425D03*
X0249187Y0207425D03*
X0236812Y0207425D03*
X0243312Y0221800D03*
D38*
X0243250Y0221675D03*
X0249125Y0207675D03*
X0249125Y0207550D03*
X0236875Y0207550D03*
X0270500Y0221675D03*
X0270750Y0221550D03*
X0277000Y0207675D03*
D39*
X0276938Y0210800D03*
X0276938Y0210925D03*
X0271688Y0208050D03*
X0273938Y0218425D03*
X0273813Y0218550D03*
X0249187Y0210800D03*
X0239812Y0218300D03*
X0239812Y0218425D03*
D40*
X0240562Y0219175D03*
X0240562Y0219300D03*
X0273188Y0219300D03*
X0273313Y0219175D03*
X0271438Y0208175D03*
D41*
X0271250Y0208300D03*
X0264250Y0212175D03*
X0272750Y0219800D03*
X0241125Y0219800D03*
D42*
X0256937Y0232175D03*
X0256937Y0232300D03*
X0256937Y0232425D03*
X0271938Y0220550D03*
X0272188Y0220300D03*
X0264188Y0212050D03*
X0271063Y0208550D03*
D43*
X0270875Y0208925D03*
X0270875Y0209050D03*
X0270875Y0211425D03*
X0270875Y0211550D03*
X0270875Y0211675D03*
X0271625Y0220800D03*
X0271500Y0220925D03*
X0242125Y0220800D03*
D44*
X0239250Y0217675D03*
X0236750Y0211300D03*
X0249125Y0211300D03*
X0249125Y0211175D03*
X0274500Y0217675D03*
X0274625Y0217550D03*
X0276875Y0211300D03*
D45*
X0270188Y0221925D03*
X0270063Y0222050D03*
X0264188Y0211425D03*
X0256562Y0211425D03*
X0243687Y0222050D03*
X0256937Y0231550D03*
D46*
X0242000Y0220675D03*
X0241875Y0220550D03*
X0241750Y0220425D03*
X0272000Y0220425D03*
X0271000Y0211925D03*
D47*
X0271125Y0212050D03*
X0272375Y0220175D03*
X0256500Y0212050D03*
X0241625Y0220300D03*
X0241375Y0220175D03*
X0241375Y0220050D03*
D48*
X0240750Y0219425D03*
X0271375Y0212300D03*
X0273000Y0219425D03*
D49*
X0275938Y0215550D03*
X0275938Y0215425D03*
X0276938Y0212425D03*
X0259937Y0232550D03*
X0260062Y0232675D03*
X0257437Y0232925D03*
X0253687Y0232675D03*
X0237812Y0215550D03*
X0237812Y0215425D03*
X0237687Y0215300D03*
X0236812Y0212425D03*
D50*
X0251625Y0234425D03*
X0251500Y0234550D03*
X0254500Y0234050D03*
X0254625Y0233925D03*
X0255750Y0236425D03*
X0255750Y0236550D03*
X0255750Y0236675D03*
X0255750Y0236800D03*
X0258125Y0236800D03*
X0258125Y0236925D03*
X0258125Y0236675D03*
X0259375Y0234175D03*
X0259250Y0234050D03*
X0262000Y0234300D03*
X0262125Y0234425D03*
X0262250Y0234550D03*
X0262500Y0234675D03*
X0277000Y0213675D03*
X0277000Y0213550D03*
D51*
X0276813Y0213800D03*
X0276813Y0213925D03*
X0261812Y0234175D03*
X0259187Y0233925D03*
X0259062Y0233675D03*
X0257937Y0235925D03*
X0257937Y0236050D03*
X0258062Y0236175D03*
X0258062Y0236300D03*
X0258062Y0236425D03*
X0258062Y0236550D03*
X0255812Y0236300D03*
X0255812Y0236175D03*
X0255812Y0236050D03*
X0255937Y0235425D03*
X0254687Y0233800D03*
X0252062Y0234050D03*
X0251937Y0234175D03*
X0251812Y0234300D03*
X0252437Y0231550D03*
X0237062Y0214050D03*
X0236937Y0213925D03*
X0236937Y0213800D03*
X0236812Y0213675D03*
X0236812Y0213550D03*
D52*
X0237125Y0214175D03*
X0237125Y0214300D03*
X0252500Y0233675D03*
X0254750Y0233675D03*
X0254875Y0233550D03*
X0255000Y0233300D03*
X0256000Y0235175D03*
X0256000Y0235300D03*
X0255875Y0235550D03*
X0255875Y0235675D03*
X0255875Y0235800D03*
X0255875Y0235925D03*
X0257875Y0235800D03*
X0257875Y0235675D03*
X0257875Y0235550D03*
X0257875Y0235425D03*
X0257875Y0235300D03*
X0257750Y0234925D03*
X0257750Y0234800D03*
X0257750Y0234675D03*
X0259125Y0233800D03*
X0259000Y0233550D03*
X0261250Y0233675D03*
X0261500Y0233800D03*
X0261500Y0233925D03*
X0261750Y0234050D03*
X0261250Y0231550D03*
X0276750Y0214050D03*
D53*
X0276688Y0214175D03*
X0276688Y0214300D03*
X0276563Y0214425D03*
X0261062Y0233550D03*
X0258937Y0233425D03*
X0258812Y0233300D03*
X0257687Y0234425D03*
X0257687Y0234550D03*
X0257812Y0235050D03*
X0257812Y0235175D03*
X0256062Y0235050D03*
X0256062Y0234925D03*
X0256062Y0234800D03*
X0256062Y0234675D03*
X0254937Y0233425D03*
X0255062Y0233175D03*
X0252312Y0233800D03*
X0252312Y0233925D03*
D54*
X0253062Y0233175D03*
X0253312Y0233050D03*
X0253562Y0232800D03*
X0255312Y0232800D03*
X0255437Y0232550D03*
X0256312Y0233175D03*
X0256312Y0233300D03*
X0256312Y0233550D03*
X0256187Y0233675D03*
X0256187Y0233800D03*
X0256187Y0233925D03*
X0257562Y0233675D03*
X0258562Y0232925D03*
X0258562Y0232800D03*
X0260687Y0233175D03*
X0276313Y0214925D03*
X0237437Y0214925D03*
D55*
X0237500Y0215050D03*
X0237625Y0215175D03*
X0253500Y0232925D03*
X0255250Y0232925D03*
X0255375Y0232675D03*
X0256375Y0232925D03*
X0256375Y0233050D03*
X0256250Y0233425D03*
X0257500Y0233425D03*
X0257500Y0233550D03*
X0257500Y0233300D03*
X0257500Y0233175D03*
X0257500Y0233050D03*
X0258375Y0232675D03*
X0258375Y0232550D03*
X0260250Y0232800D03*
X0260375Y0232925D03*
X0260500Y0233050D03*
X0276125Y0215300D03*
X0276125Y0215175D03*
X0276250Y0215050D03*
D56*
X0273750Y0218675D03*
X0240000Y0218675D03*
X0240000Y0218550D03*
D57*
X0240937Y0219550D03*
X0240937Y0219675D03*
X0272813Y0219675D03*
X0272938Y0219550D03*
D58*
X0269813Y0222175D03*
X0243937Y0222175D03*
D59*
X0256875Y0230425D03*
X0269625Y0222300D03*
D60*
X0269438Y0222425D03*
X0256937Y0231800D03*
X0244312Y0222425D03*
X0244187Y0222300D03*
D61*
X0269250Y0222550D03*
D62*
X0269063Y0222675D03*
X0244687Y0222675D03*
X0244562Y0222550D03*
D63*
X0268875Y0222800D03*
D64*
X0244937Y0222800D03*
D65*
X0268438Y0223050D03*
X0268563Y0222925D03*
D66*
X0256875Y0229050D03*
X0256875Y0229550D03*
X0256875Y0230800D03*
X0245250Y0222925D03*
D67*
X0245375Y0223050D03*
D68*
X0245625Y0223175D03*
X0256875Y0230925D03*
X0268125Y0223175D03*
D69*
X0267938Y0223300D03*
D70*
X0245875Y0223300D03*
D71*
X0256875Y0230300D03*
X0267625Y0223425D03*
D72*
X0246187Y0223425D03*
D73*
X0246750Y0223675D03*
X0267250Y0223550D03*
D74*
X0246562Y0223550D03*
D75*
X0267063Y0223675D03*
D76*
X0266625Y0223800D03*
X0247250Y0223800D03*
D77*
X0266438Y0223925D03*
D78*
X0256875Y0228800D03*
X0256875Y0229675D03*
X0247375Y0223925D03*
D79*
X0247937Y0224050D03*
X0265813Y0224050D03*
D80*
X0265125Y0224175D03*
D81*
X0248562Y0224175D03*
D82*
X0256875Y0228550D03*
X0264625Y0224300D03*
D83*
X0256937Y0230175D03*
X0249062Y0224300D03*
D84*
X0256875Y0224425D03*
D85*
X0256875Y0224550D03*
D86*
X0256937Y0224675D03*
D87*
X0256875Y0224800D03*
D88*
X0256875Y0224925D03*
D89*
X0256937Y0225050D03*
D90*
X0256937Y0225175D03*
D91*
X0256875Y0225300D03*
D92*
X0256875Y0225425D03*
D93*
X0256875Y0225550D03*
D94*
X0256937Y0225675D03*
D95*
X0256875Y0225800D03*
D96*
X0256875Y0225925D03*
D97*
X0256937Y0226050D03*
D98*
X0256875Y0226175D03*
D99*
X0256875Y0226300D03*
D100*
X0256937Y0226425D03*
D101*
X0256875Y0226550D03*
D102*
X0256875Y0226675D03*
D103*
X0256875Y0226800D03*
D104*
X0256875Y0226925D03*
D105*
X0256875Y0227050D03*
D106*
X0256875Y0227175D03*
D107*
X0256875Y0227300D03*
D108*
X0256937Y0227425D03*
D109*
X0256875Y0227550D03*
D110*
X0256875Y0227675D03*
D111*
X0256937Y0227800D03*
D112*
X0256875Y0227925D03*
D113*
X0256875Y0228050D03*
D114*
X0256812Y0228175D03*
D115*
X0256875Y0228300D03*
D116*
X0256875Y0228425D03*
D117*
X0256875Y0228675D03*
X0256875Y0229800D03*
D118*
X0256875Y0228925D03*
D119*
X0256937Y0229175D03*
X0256937Y0230675D03*
D120*
X0256875Y0230550D03*
X0256875Y0229300D03*
X0256875Y0231925D03*
D121*
X0256875Y0231675D03*
X0256875Y0229425D03*
D122*
X0256875Y0229925D03*
D123*
X0257000Y0230050D03*
D124*
X0256937Y0231050D03*
D125*
X0256875Y0231175D03*
M02*
