G75*
%MOIN*%
%OFA0B0*%
%FSLAX25Y25*%
%IPPOS*%
%LPD*%
%AMOC8*
5,1,8,0,0,1.08239X$1,22.5*
%
%ADD10C,0.13300*%
%ADD11C,0.00500*%
%ADD12C,0.08200*%
%ADD13R,0.03556X0.04343*%
%ADD14R,0.03556X0.07493*%
%ADD15R,0.05800X0.03000*%
%ADD16R,0.03000X0.05800*%
%ADD17R,0.02375X0.05131*%
%ADD18R,0.05918X0.05918*%
%ADD19R,0.03950X0.05524*%
%ADD20R,0.05131X0.04737*%
D10*
X0019200Y0161500D03*
X0324200Y0161500D03*
D11*
X0120903Y0104195D02*
X0120628Y0104480D01*
X0120423Y0104819D01*
X0120298Y0105195D01*
X0120260Y0105590D01*
X0120307Y0105973D01*
X0120437Y0106337D01*
X0120646Y0106662D01*
X0120921Y0106933D01*
X0121250Y0107136D01*
X0121616Y0107260D01*
X0122000Y0107300D01*
X0122382Y0107266D01*
X0122746Y0107148D01*
X0123075Y0106952D01*
X0123352Y0106687D01*
X0123563Y0106368D01*
X0123698Y0106009D01*
X0123750Y0105630D01*
X0123715Y0105229D01*
X0123592Y0104847D01*
X0123386Y0104501D01*
X0123109Y0104210D01*
X0122774Y0103987D01*
X0122398Y0103845D01*
X0122000Y0103790D01*
X0121607Y0103841D01*
X0121235Y0103978D01*
X0120903Y0104195D01*
X0120637Y0104470D02*
X0123357Y0104470D01*
X0123631Y0104968D02*
X0120373Y0104968D01*
X0120272Y0105467D02*
X0123736Y0105467D01*
X0123704Y0105965D02*
X0120306Y0105965D01*
X0120519Y0106464D02*
X0123500Y0106464D01*
X0123058Y0106962D02*
X0120969Y0106962D01*
X0121255Y0103971D02*
X0122732Y0103971D01*
X0126260Y0104340D02*
X0126307Y0104723D01*
X0126437Y0105087D01*
X0126646Y0105412D01*
X0126921Y0105683D01*
X0127250Y0105886D01*
X0127616Y0106010D01*
X0128000Y0106050D01*
X0128382Y0106016D01*
X0128746Y0105898D01*
X0129075Y0105702D01*
X0129352Y0105437D01*
X0129563Y0105118D01*
X0129698Y0104759D01*
X0129750Y0104380D01*
X0129715Y0103979D01*
X0129592Y0103597D01*
X0129386Y0103251D01*
X0129109Y0102960D01*
X0128774Y0102737D01*
X0128398Y0102595D01*
X0128000Y0102540D01*
X0127607Y0102591D01*
X0127235Y0102728D01*
X0126903Y0102945D01*
X0126628Y0103230D01*
X0126423Y0103569D01*
X0126298Y0103945D01*
X0126260Y0104340D01*
X0126276Y0104470D02*
X0129738Y0104470D01*
X0129712Y0103971D02*
X0126295Y0103971D01*
X0126481Y0103473D02*
X0129518Y0103473D01*
X0129123Y0102974D02*
X0126875Y0102974D01*
X0126395Y0104968D02*
X0129620Y0104968D01*
X0129321Y0105467D02*
X0126701Y0105467D01*
X0127484Y0105965D02*
X0128538Y0105965D01*
X0132260Y0105590D02*
X0132307Y0105973D01*
X0132437Y0106337D01*
X0132646Y0106662D01*
X0132921Y0106933D01*
X0133250Y0107136D01*
X0133616Y0107260D01*
X0134000Y0107300D01*
X0134382Y0107266D01*
X0134746Y0107148D01*
X0135075Y0106952D01*
X0135352Y0106687D01*
X0135563Y0106368D01*
X0135698Y0106009D01*
X0135750Y0105630D01*
X0135715Y0105229D01*
X0135592Y0104847D01*
X0135386Y0104501D01*
X0135109Y0104210D01*
X0134774Y0103987D01*
X0134398Y0103845D01*
X0134000Y0103790D01*
X0133607Y0103841D01*
X0133235Y0103978D01*
X0132903Y0104195D01*
X0132628Y0104480D01*
X0132423Y0104819D01*
X0132298Y0105195D01*
X0132260Y0105590D01*
X0132272Y0105467D02*
X0135736Y0105467D01*
X0135704Y0105965D02*
X0132306Y0105965D01*
X0132519Y0106464D02*
X0135500Y0106464D01*
X0135058Y0106962D02*
X0132969Y0106962D01*
X0132373Y0104968D02*
X0135631Y0104968D01*
X0135357Y0104470D02*
X0132637Y0104470D01*
X0133255Y0103971D02*
X0134732Y0103971D01*
X0138260Y0104340D02*
X0138307Y0104723D01*
X0138437Y0105087D01*
X0138646Y0105412D01*
X0138921Y0105683D01*
X0139250Y0105886D01*
X0139616Y0106010D01*
X0140000Y0106050D01*
X0140382Y0106016D01*
X0140746Y0105898D01*
X0141075Y0105702D01*
X0141352Y0105437D01*
X0141563Y0105118D01*
X0141698Y0104759D01*
X0141750Y0104380D01*
X0141715Y0103979D01*
X0141592Y0103597D01*
X0141386Y0103251D01*
X0141109Y0102960D01*
X0140774Y0102737D01*
X0140398Y0102595D01*
X0140000Y0102540D01*
X0139607Y0102591D01*
X0139235Y0102728D01*
X0138903Y0102945D01*
X0138628Y0103230D01*
X0138423Y0103569D01*
X0138298Y0103945D01*
X0138260Y0104340D01*
X0138276Y0104470D02*
X0141738Y0104470D01*
X0141712Y0103971D02*
X0138295Y0103971D01*
X0138481Y0103473D02*
X0141518Y0103473D01*
X0141123Y0102974D02*
X0138875Y0102974D01*
X0138395Y0104968D02*
X0141620Y0104968D01*
X0141321Y0105467D02*
X0138701Y0105467D01*
X0139484Y0105965D02*
X0140538Y0105965D01*
X0160437Y0094837D02*
X0160646Y0095162D01*
X0160921Y0095433D01*
X0161250Y0095636D01*
X0161616Y0095760D01*
X0162000Y0095800D01*
X0162382Y0095766D01*
X0162746Y0095648D01*
X0163075Y0095452D01*
X0163352Y0095187D01*
X0163563Y0094868D01*
X0163698Y0094509D01*
X0163750Y0094130D01*
X0163715Y0093729D01*
X0163592Y0093347D01*
X0163386Y0093001D01*
X0163109Y0092710D01*
X0162774Y0092487D01*
X0162398Y0092345D01*
X0162000Y0092290D01*
X0161607Y0092341D01*
X0161235Y0092478D01*
X0160903Y0092695D01*
X0160628Y0092980D01*
X0160423Y0093319D01*
X0160298Y0093695D01*
X0160260Y0094090D01*
X0160307Y0094473D01*
X0160437Y0094837D01*
X0160541Y0094998D02*
X0163477Y0094998D01*
X0163700Y0094499D02*
X0160316Y0094499D01*
X0160269Y0094001D02*
X0163739Y0094001D01*
X0163642Y0093502D02*
X0160362Y0093502D01*
X0160613Y0093004D02*
X0163388Y0093004D01*
X0162802Y0092505D02*
X0161194Y0092505D01*
X0161024Y0095497D02*
X0163000Y0095497D01*
X0166437Y0093587D02*
X0166646Y0093912D01*
X0166921Y0094183D01*
X0167250Y0094386D01*
X0167616Y0094510D01*
X0168000Y0094550D01*
X0168382Y0094516D01*
X0168746Y0094398D01*
X0169075Y0094202D01*
X0169352Y0093937D01*
X0169563Y0093618D01*
X0169698Y0093259D01*
X0169750Y0092880D01*
X0169715Y0092479D01*
X0169592Y0092097D01*
X0169386Y0091751D01*
X0169109Y0091460D01*
X0168774Y0091237D01*
X0168398Y0091095D01*
X0168000Y0091040D01*
X0167607Y0091091D01*
X0167235Y0091228D01*
X0166903Y0091445D01*
X0166628Y0091730D01*
X0166423Y0092069D01*
X0166298Y0092445D01*
X0166260Y0092840D01*
X0166307Y0093223D01*
X0166437Y0093587D01*
X0166407Y0093502D02*
X0169607Y0093502D01*
X0169733Y0093004D02*
X0166280Y0093004D01*
X0166292Y0092505D02*
X0169717Y0092505D01*
X0169538Y0092007D02*
X0166460Y0092007D01*
X0166842Y0091508D02*
X0169156Y0091508D01*
X0169285Y0094001D02*
X0166736Y0094001D01*
X0167585Y0094499D02*
X0168433Y0094499D01*
X0172260Y0094090D02*
X0172307Y0094473D01*
X0172437Y0094837D01*
X0172646Y0095162D01*
X0172921Y0095433D01*
X0173250Y0095636D01*
X0173616Y0095760D01*
X0174000Y0095800D01*
X0174382Y0095766D01*
X0174746Y0095648D01*
X0175075Y0095452D01*
X0175352Y0095187D01*
X0175563Y0094868D01*
X0175698Y0094509D01*
X0175750Y0094130D01*
X0175715Y0093729D01*
X0175592Y0093347D01*
X0175386Y0093001D01*
X0175109Y0092710D01*
X0174774Y0092487D01*
X0174398Y0092345D01*
X0174000Y0092290D01*
X0173607Y0092341D01*
X0173235Y0092478D01*
X0172903Y0092695D01*
X0172628Y0092980D01*
X0172423Y0093319D01*
X0172298Y0093695D01*
X0172260Y0094090D01*
X0172269Y0094001D02*
X0175739Y0094001D01*
X0175700Y0094499D02*
X0172316Y0094499D01*
X0172541Y0094998D02*
X0175477Y0094998D01*
X0175000Y0095497D02*
X0173024Y0095497D01*
X0172362Y0093502D02*
X0175642Y0093502D01*
X0175388Y0093004D02*
X0172613Y0093004D01*
X0173194Y0092505D02*
X0174802Y0092505D01*
X0178260Y0092840D02*
X0178307Y0093223D01*
X0178437Y0093587D01*
X0178646Y0093912D01*
X0178921Y0094183D01*
X0179250Y0094386D01*
X0179616Y0094510D01*
X0180000Y0094550D01*
X0180382Y0094516D01*
X0180746Y0094398D01*
X0181075Y0094202D01*
X0181352Y0093937D01*
X0181563Y0093618D01*
X0181698Y0093259D01*
X0181750Y0092880D01*
X0181715Y0092479D01*
X0181592Y0092097D01*
X0181386Y0091751D01*
X0181109Y0091460D01*
X0180774Y0091237D01*
X0180398Y0091095D01*
X0180000Y0091040D01*
X0179607Y0091091D01*
X0179235Y0091228D01*
X0178903Y0091445D01*
X0178628Y0091730D01*
X0178423Y0092069D01*
X0178298Y0092445D01*
X0178260Y0092840D01*
X0178280Y0093004D02*
X0181733Y0093004D01*
X0181717Y0092505D02*
X0178292Y0092505D01*
X0178460Y0092007D02*
X0181538Y0092007D01*
X0181156Y0091508D02*
X0178842Y0091508D01*
X0178407Y0093502D02*
X0181607Y0093502D01*
X0181285Y0094001D02*
X0178736Y0094001D01*
X0179585Y0094499D02*
X0180433Y0094499D01*
X0200423Y0104819D02*
X0200298Y0105195D01*
X0200260Y0105590D01*
X0200307Y0105973D01*
X0200437Y0106337D01*
X0200646Y0106662D01*
X0200921Y0106933D01*
X0201250Y0107136D01*
X0201616Y0107260D01*
X0202000Y0107300D01*
X0202382Y0107266D01*
X0202746Y0107148D01*
X0203075Y0106952D01*
X0203352Y0106687D01*
X0203563Y0106368D01*
X0203698Y0106009D01*
X0203750Y0105630D01*
X0203715Y0105229D01*
X0203592Y0104847D01*
X0203386Y0104501D01*
X0203109Y0104210D01*
X0202774Y0103987D01*
X0202398Y0103845D01*
X0202000Y0103790D01*
X0201607Y0103841D01*
X0201235Y0103978D01*
X0200903Y0104195D01*
X0200628Y0104480D01*
X0200423Y0104819D01*
X0200373Y0104968D02*
X0203631Y0104968D01*
X0203736Y0105467D02*
X0200272Y0105467D01*
X0200306Y0105965D02*
X0203704Y0105965D01*
X0203500Y0106464D02*
X0200519Y0106464D01*
X0200969Y0106962D02*
X0203058Y0106962D01*
X0203357Y0104470D02*
X0200637Y0104470D01*
X0201255Y0103971D02*
X0202732Y0103971D01*
X0206260Y0104340D02*
X0206307Y0104723D01*
X0206437Y0105087D01*
X0206646Y0105412D01*
X0206921Y0105683D01*
X0207250Y0105886D01*
X0207616Y0106010D01*
X0208000Y0106050D01*
X0208382Y0106016D01*
X0208746Y0105898D01*
X0209075Y0105702D01*
X0209352Y0105437D01*
X0209563Y0105118D01*
X0209698Y0104759D01*
X0209750Y0104380D01*
X0209715Y0103979D01*
X0209592Y0103597D01*
X0209386Y0103251D01*
X0209109Y0102960D01*
X0208774Y0102737D01*
X0208398Y0102595D01*
X0208000Y0102540D01*
X0207607Y0102591D01*
X0207235Y0102728D01*
X0206903Y0102945D01*
X0206628Y0103230D01*
X0206423Y0103569D01*
X0206298Y0103945D01*
X0206260Y0104340D01*
X0206276Y0104470D02*
X0209738Y0104470D01*
X0209712Y0103971D02*
X0206295Y0103971D01*
X0206481Y0103473D02*
X0209518Y0103473D01*
X0209123Y0102974D02*
X0206875Y0102974D01*
X0206395Y0104968D02*
X0209620Y0104968D01*
X0209321Y0105467D02*
X0206701Y0105467D01*
X0207484Y0105965D02*
X0208538Y0105965D01*
X0212260Y0105590D02*
X0212307Y0105973D01*
X0212437Y0106337D01*
X0212646Y0106662D01*
X0212921Y0106933D01*
X0213250Y0107136D01*
X0213616Y0107260D01*
X0214000Y0107300D01*
X0214382Y0107266D01*
X0214746Y0107148D01*
X0215075Y0106952D01*
X0215352Y0106687D01*
X0215563Y0106368D01*
X0215698Y0106009D01*
X0215750Y0105630D01*
X0215715Y0105229D01*
X0215592Y0104847D01*
X0215386Y0104501D01*
X0215109Y0104210D01*
X0214774Y0103987D01*
X0214398Y0103845D01*
X0214000Y0103790D01*
X0213607Y0103841D01*
X0213235Y0103978D01*
X0212903Y0104195D01*
X0212628Y0104480D01*
X0212423Y0104819D01*
X0212298Y0105195D01*
X0212260Y0105590D01*
X0212272Y0105467D02*
X0215736Y0105467D01*
X0215704Y0105965D02*
X0212306Y0105965D01*
X0212519Y0106464D02*
X0215500Y0106464D01*
X0215058Y0106962D02*
X0212969Y0106962D01*
X0212373Y0104968D02*
X0215631Y0104968D01*
X0215357Y0104470D02*
X0212637Y0104470D01*
X0213255Y0103971D02*
X0214732Y0103971D01*
X0218260Y0104340D02*
X0218307Y0104723D01*
X0218437Y0105087D01*
X0218646Y0105412D01*
X0218921Y0105683D01*
X0219250Y0105886D01*
X0219616Y0106010D01*
X0220000Y0106050D01*
X0220382Y0106016D01*
X0220746Y0105898D01*
X0221075Y0105702D01*
X0221352Y0105437D01*
X0221563Y0105118D01*
X0221698Y0104759D01*
X0221750Y0104380D01*
X0221715Y0103979D01*
X0221592Y0103597D01*
X0221386Y0103251D01*
X0221109Y0102960D01*
X0220774Y0102737D01*
X0220398Y0102595D01*
X0220000Y0102540D01*
X0219607Y0102591D01*
X0219235Y0102728D01*
X0218903Y0102945D01*
X0218628Y0103230D01*
X0218423Y0103569D01*
X0218298Y0103945D01*
X0218260Y0104340D01*
X0218276Y0104470D02*
X0221738Y0104470D01*
X0221712Y0103971D02*
X0218295Y0103971D01*
X0218481Y0103473D02*
X0221518Y0103473D01*
X0221123Y0102974D02*
X0218875Y0102974D01*
X0218395Y0104968D02*
X0221620Y0104968D01*
X0221321Y0105467D02*
X0218701Y0105467D01*
X0219484Y0105965D02*
X0220538Y0105965D01*
X0244222Y0097654D02*
X0244094Y0097279D01*
X0244053Y0096885D01*
X0244100Y0096492D01*
X0244234Y0096119D01*
X0244448Y0095785D01*
X0244746Y0095515D01*
X0245096Y0095318D01*
X0245482Y0095205D01*
X0245883Y0095180D01*
X0246280Y0095244D01*
X0246653Y0095396D01*
X0246982Y0095627D01*
X0247239Y0095910D01*
X0247427Y0096244D01*
X0247536Y0096611D01*
X0247561Y0096993D01*
X0247499Y0097372D01*
X0247356Y0097727D01*
X0247136Y0098041D01*
X0246859Y0098309D01*
X0246528Y0098510D01*
X0246162Y0098631D01*
X0245777Y0098668D01*
X0245394Y0098619D01*
X0245032Y0098485D01*
X0244708Y0098274D01*
X0244430Y0097992D01*
X0244222Y0097654D01*
X0244166Y0097491D02*
X0247451Y0097491D01*
X0247561Y0096992D02*
X0244064Y0096992D01*
X0244100Y0096494D02*
X0247501Y0096494D01*
X0247287Y0095995D02*
X0244313Y0095995D01*
X0244779Y0095497D02*
X0246796Y0095497D01*
X0247172Y0097989D02*
X0244428Y0097989D01*
X0245038Y0098488D02*
X0246565Y0098488D01*
X0252634Y0102706D02*
X0252420Y0103040D01*
X0252286Y0103413D01*
X0252239Y0103807D01*
X0252280Y0104201D01*
X0252408Y0104576D01*
X0252616Y0104913D01*
X0252894Y0105196D01*
X0253218Y0105407D01*
X0253580Y0105540D01*
X0253963Y0105590D01*
X0254348Y0105553D01*
X0254715Y0105431D01*
X0255045Y0105231D01*
X0255323Y0104962D01*
X0255542Y0104648D01*
X0255686Y0104293D01*
X0255747Y0103915D01*
X0255722Y0103533D01*
X0255614Y0103166D01*
X0255426Y0102832D01*
X0255168Y0102548D01*
X0254839Y0102317D01*
X0254466Y0102166D01*
X0254070Y0102101D01*
X0253668Y0102126D01*
X0253283Y0102240D01*
X0252932Y0102436D01*
X0252634Y0102706D01*
X0252462Y0102974D02*
X0255506Y0102974D01*
X0255705Y0103473D02*
X0252279Y0103473D01*
X0252256Y0103971D02*
X0255738Y0103971D01*
X0255614Y0104470D02*
X0252372Y0104470D01*
X0252670Y0104968D02*
X0255316Y0104968D01*
X0254607Y0105467D02*
X0253381Y0105467D01*
X0252889Y0102476D02*
X0255065Y0102476D01*
X0261148Y0109291D02*
X0260850Y0109561D01*
X0260636Y0109895D01*
X0260502Y0110268D01*
X0260455Y0110661D01*
X0260496Y0111055D01*
X0260624Y0111431D01*
X0260832Y0111768D01*
X0261110Y0112050D01*
X0261433Y0112261D01*
X0261796Y0112395D01*
X0262179Y0112444D01*
X0262564Y0112407D01*
X0262930Y0112286D01*
X0263261Y0112086D01*
X0263538Y0111817D01*
X0263757Y0111503D01*
X0263901Y0111148D01*
X0263963Y0110770D01*
X0263938Y0110387D01*
X0263829Y0110020D01*
X0263641Y0109686D01*
X0263384Y0109403D01*
X0263054Y0109172D01*
X0262682Y0109021D01*
X0262285Y0108956D01*
X0261884Y0108981D01*
X0261498Y0109094D01*
X0261148Y0109291D01*
X0260967Y0109455D02*
X0263431Y0109455D01*
X0263792Y0109953D02*
X0260615Y0109953D01*
X0260480Y0110452D02*
X0263942Y0110452D01*
X0263933Y0110950D02*
X0260485Y0110950D01*
X0260635Y0111449D02*
X0263779Y0111449D01*
X0263403Y0111947D02*
X0261009Y0111947D01*
X0262275Y0108956D02*
X0262289Y0108956D01*
X0248274Y0137737D02*
X0247898Y0137595D01*
X0247500Y0137540D01*
X0247107Y0137591D01*
X0246735Y0137728D01*
X0246403Y0137945D01*
X0246128Y0138230D01*
X0245923Y0138569D01*
X0245798Y0138945D01*
X0245760Y0139340D01*
X0245807Y0139723D01*
X0245937Y0140087D01*
X0246146Y0140412D01*
X0246421Y0140683D01*
X0246750Y0140886D01*
X0247116Y0141010D01*
X0247500Y0141050D01*
X0247882Y0141016D01*
X0248246Y0140898D01*
X0248575Y0140702D01*
X0248852Y0140437D01*
X0249063Y0140118D01*
X0249198Y0139759D01*
X0249250Y0139380D01*
X0249215Y0138979D01*
X0249092Y0138597D01*
X0248886Y0138251D01*
X0248609Y0137960D01*
X0248274Y0137737D01*
X0248474Y0137870D02*
X0246518Y0137870D01*
X0246044Y0138368D02*
X0248956Y0138368D01*
X0249179Y0138867D02*
X0245824Y0138867D01*
X0245763Y0139366D02*
X0249249Y0139366D01*
X0249159Y0139864D02*
X0245857Y0139864D01*
X0246114Y0140363D02*
X0248902Y0140363D01*
X0248308Y0140861D02*
X0246710Y0140861D01*
X0243250Y0140630D02*
X0243215Y0140229D01*
X0243092Y0139847D01*
X0242886Y0139501D01*
X0242609Y0139210D01*
X0242274Y0138987D01*
X0241898Y0138845D01*
X0241500Y0138790D01*
X0241107Y0138841D01*
X0240735Y0138978D01*
X0240403Y0139195D01*
X0240128Y0139480D01*
X0239923Y0139819D01*
X0239798Y0140195D01*
X0239760Y0140590D01*
X0239807Y0140973D01*
X0239937Y0141337D01*
X0240146Y0141662D01*
X0240421Y0141933D01*
X0240750Y0142136D01*
X0241116Y0142260D01*
X0241500Y0142300D01*
X0241882Y0142266D01*
X0242246Y0142148D01*
X0242575Y0141952D01*
X0242852Y0141687D01*
X0243063Y0141368D01*
X0243198Y0141009D01*
X0243250Y0140630D01*
X0243218Y0140861D02*
X0239793Y0140861D01*
X0239782Y0140363D02*
X0243227Y0140363D01*
X0243097Y0139864D02*
X0239908Y0139864D01*
X0240238Y0139366D02*
X0242757Y0139366D01*
X0241956Y0138867D02*
X0241037Y0138867D01*
X0239952Y0141360D02*
X0243067Y0141360D01*
X0242673Y0141858D02*
X0240345Y0141858D01*
X0237063Y0140118D02*
X0237198Y0139759D01*
X0237250Y0139380D01*
X0237215Y0138979D01*
X0237092Y0138597D01*
X0236886Y0138251D01*
X0236609Y0137960D01*
X0236274Y0137737D01*
X0235898Y0137595D01*
X0235500Y0137540D01*
X0235107Y0137591D01*
X0234735Y0137728D01*
X0234403Y0137945D01*
X0234128Y0138230D01*
X0233923Y0138569D01*
X0233798Y0138945D01*
X0233760Y0139340D01*
X0233807Y0139723D01*
X0233937Y0140087D01*
X0234146Y0140412D01*
X0234421Y0140683D01*
X0234750Y0140886D01*
X0235116Y0141010D01*
X0235500Y0141050D01*
X0235882Y0141016D01*
X0236246Y0140898D01*
X0236575Y0140702D01*
X0236852Y0140437D01*
X0237063Y0140118D01*
X0237159Y0139864D02*
X0233857Y0139864D01*
X0233763Y0139366D02*
X0237249Y0139366D01*
X0237179Y0138867D02*
X0233824Y0138867D01*
X0234044Y0138368D02*
X0236956Y0138368D01*
X0236474Y0137870D02*
X0234518Y0137870D01*
X0234114Y0140363D02*
X0236902Y0140363D01*
X0236308Y0140861D02*
X0234710Y0140861D01*
X0231250Y0140630D02*
X0231215Y0140229D01*
X0231092Y0139847D01*
X0230886Y0139501D01*
X0230609Y0139210D01*
X0230274Y0138987D01*
X0229898Y0138845D01*
X0229500Y0138790D01*
X0229107Y0138841D01*
X0228735Y0138978D01*
X0228403Y0139195D01*
X0228128Y0139480D01*
X0227923Y0139819D01*
X0227798Y0140195D01*
X0227760Y0140590D01*
X0227807Y0140973D01*
X0227937Y0141337D01*
X0228146Y0141662D01*
X0228421Y0141933D01*
X0228750Y0142136D01*
X0229116Y0142260D01*
X0229500Y0142300D01*
X0229882Y0142266D01*
X0230246Y0142148D01*
X0230575Y0141952D01*
X0230852Y0141687D01*
X0231063Y0141368D01*
X0231198Y0141009D01*
X0231250Y0140630D01*
X0231218Y0140861D02*
X0227793Y0140861D01*
X0227782Y0140363D02*
X0231227Y0140363D01*
X0231097Y0139864D02*
X0227908Y0139864D01*
X0228238Y0139366D02*
X0230757Y0139366D01*
X0229956Y0138867D02*
X0229037Y0138867D01*
X0227952Y0141360D02*
X0231067Y0141360D01*
X0230673Y0141858D02*
X0228345Y0141858D01*
X0262886Y0157925D02*
X0262536Y0158675D01*
X0262322Y0159475D01*
X0262250Y0160300D01*
X0262322Y0161125D01*
X0262536Y0161925D01*
X0262886Y0162675D01*
X0263361Y0163353D01*
X0263947Y0163939D01*
X0264625Y0164414D01*
X0265375Y0164764D01*
X0266175Y0164978D01*
X0267000Y0165050D01*
X0276000Y0165050D01*
X0276825Y0164978D01*
X0277625Y0164764D01*
X0278375Y0164414D01*
X0279053Y0163939D01*
X0279639Y0163353D01*
X0280114Y0162675D01*
X0280464Y0161925D01*
X0280678Y0161125D01*
X0280750Y0160300D01*
X0280678Y0159475D01*
X0280464Y0158675D01*
X0280114Y0157925D01*
X0279639Y0157247D01*
X0279053Y0156661D01*
X0278375Y0156186D01*
X0277625Y0155836D01*
X0276825Y0155622D01*
X0276000Y0155550D01*
X0271500Y0155550D01*
X0267000Y0155550D01*
X0266175Y0155622D01*
X0265375Y0155836D01*
X0264625Y0156186D01*
X0263947Y0156661D01*
X0263361Y0157247D01*
X0262886Y0157925D01*
X0262967Y0157810D02*
X0280033Y0157810D01*
X0280293Y0158309D02*
X0262707Y0158309D01*
X0262501Y0158807D02*
X0280499Y0158807D01*
X0280632Y0159306D02*
X0262367Y0159306D01*
X0262293Y0159804D02*
X0280707Y0159804D01*
X0280750Y0160303D02*
X0262250Y0160303D01*
X0262294Y0160801D02*
X0280706Y0160801D01*
X0280631Y0161300D02*
X0262369Y0161300D01*
X0262503Y0161799D02*
X0280497Y0161799D01*
X0280290Y0162297D02*
X0262710Y0162297D01*
X0262971Y0162796D02*
X0280029Y0162796D01*
X0279680Y0163294D02*
X0263320Y0163294D01*
X0263801Y0163793D02*
X0279199Y0163793D01*
X0278550Y0164291D02*
X0264450Y0164291D01*
X0265473Y0164790D02*
X0277527Y0164790D01*
X0279684Y0157312D02*
X0263316Y0157312D01*
X0263795Y0156813D02*
X0279205Y0156813D01*
X0278559Y0156315D02*
X0264441Y0156315D01*
X0265450Y0155816D02*
X0277550Y0155816D01*
X0292925Y0177398D02*
X0292648Y0177663D01*
X0292437Y0177982D01*
X0292302Y0178341D01*
X0292250Y0178720D01*
X0292285Y0179121D01*
X0292408Y0179503D01*
X0292614Y0179849D01*
X0292891Y0180140D01*
X0293226Y0180363D01*
X0293602Y0180505D01*
X0294000Y0180560D01*
X0294393Y0180509D01*
X0294765Y0180372D01*
X0295097Y0180155D01*
X0295372Y0179870D01*
X0295577Y0179531D01*
X0295702Y0179155D01*
X0295740Y0178760D01*
X0295693Y0178377D01*
X0295563Y0178013D01*
X0295354Y0177688D01*
X0295079Y0177417D01*
X0294750Y0177214D01*
X0294384Y0177090D01*
X0294000Y0177050D01*
X0293618Y0177084D01*
X0293254Y0177202D01*
X0292925Y0177398D01*
X0293170Y0177252D02*
X0294812Y0177252D01*
X0295395Y0177751D02*
X0292590Y0177751D01*
X0292336Y0178249D02*
X0295647Y0178249D01*
X0295738Y0178748D02*
X0292252Y0178748D01*
X0292326Y0179246D02*
X0295672Y0179246D01*
X0295448Y0179745D02*
X0292552Y0179745D01*
X0293046Y0180243D02*
X0294961Y0180243D01*
X0302285Y0179121D02*
X0302408Y0179503D01*
X0302614Y0179849D01*
X0302891Y0180140D01*
X0303226Y0180363D01*
X0303602Y0180505D01*
X0304000Y0180560D01*
X0304393Y0180509D01*
X0304765Y0180372D01*
X0305097Y0180155D01*
X0305372Y0179870D01*
X0305577Y0179531D01*
X0305702Y0179155D01*
X0305740Y0178760D01*
X0305693Y0178377D01*
X0305563Y0178013D01*
X0305354Y0177688D01*
X0305079Y0177417D01*
X0304750Y0177214D01*
X0304384Y0177090D01*
X0304000Y0177050D01*
X0303618Y0177084D01*
X0303254Y0177202D01*
X0302925Y0177398D01*
X0302648Y0177663D01*
X0302437Y0177982D01*
X0302302Y0178341D01*
X0302250Y0178720D01*
X0302285Y0179121D01*
X0302326Y0179246D02*
X0305672Y0179246D01*
X0305738Y0178748D02*
X0302252Y0178748D01*
X0302336Y0178249D02*
X0305647Y0178249D01*
X0305395Y0177751D02*
X0302590Y0177751D01*
X0303170Y0177252D02*
X0304812Y0177252D01*
X0305448Y0179745D02*
X0302552Y0179745D01*
X0303046Y0180243D02*
X0304961Y0180243D01*
X0281640Y0197813D02*
X0281358Y0197549D01*
X0281024Y0197355D01*
X0280655Y0197239D01*
X0280270Y0197209D01*
X0279888Y0197265D01*
X0279528Y0197405D01*
X0279208Y0197621D01*
X0278937Y0197893D01*
X0278734Y0198217D01*
X0278608Y0198579D01*
X0278566Y0198960D01*
X0278609Y0199340D01*
X0278737Y0199702D01*
X0278941Y0200026D01*
X0279225Y0200310D01*
X0279566Y0200524D01*
X0279945Y0200657D01*
X0280345Y0200702D01*
X0280744Y0200657D01*
X0281124Y0200524D01*
X0281464Y0200310D01*
X0281732Y0200018D01*
X0281929Y0199674D01*
X0282044Y0199295D01*
X0282072Y0198900D01*
X0282011Y0198508D01*
X0281865Y0198140D01*
X0281640Y0197813D01*
X0281510Y0197691D02*
X0279138Y0197691D01*
X0278751Y0198190D02*
X0281885Y0198190D01*
X0282039Y0198688D02*
X0278596Y0198688D01*
X0278592Y0199187D02*
X0282052Y0199187D01*
X0281923Y0199685D02*
X0278731Y0199685D01*
X0279099Y0200184D02*
X0281580Y0200184D01*
X0280515Y0200682D02*
X0280174Y0200682D01*
X0258616Y0217093D02*
X0258334Y0216829D01*
X0258001Y0216635D01*
X0256634Y0216635D01*
X0256504Y0216685D02*
X0256184Y0216901D01*
X0255914Y0217172D01*
X0255711Y0217497D01*
X0255585Y0217859D01*
X0255542Y0218240D01*
X0255586Y0218620D01*
X0255713Y0218981D01*
X0255917Y0219305D01*
X0256202Y0219590D01*
X0256542Y0219804D01*
X0256922Y0219937D01*
X0257321Y0219982D01*
X0257721Y0219937D01*
X0258100Y0219804D01*
X0258441Y0219590D01*
X0258709Y0219298D01*
X0258905Y0218954D01*
X0259021Y0218575D01*
X0259048Y0218179D01*
X0258988Y0217788D01*
X0258841Y0217420D01*
X0258616Y0217093D01*
X0258644Y0217133D02*
X0255953Y0217133D01*
X0255664Y0217632D02*
X0258926Y0217632D01*
X0259041Y0218130D02*
X0255555Y0218130D01*
X0255589Y0218629D02*
X0259004Y0218629D01*
X0258806Y0219127D02*
X0255805Y0219127D01*
X0256259Y0219626D02*
X0258383Y0219626D01*
X0258001Y0216635D02*
X0257632Y0216519D01*
X0257247Y0216489D01*
X0256865Y0216545D01*
X0256504Y0216685D01*
X0221750Y0216880D02*
X0221715Y0216479D01*
X0221592Y0216097D01*
X0221386Y0215751D01*
X0221109Y0215460D01*
X0220774Y0215237D01*
X0220398Y0215095D01*
X0220000Y0215040D01*
X0219607Y0215091D01*
X0219235Y0215228D01*
X0218903Y0215445D01*
X0218628Y0215730D01*
X0218423Y0216069D01*
X0218298Y0216445D01*
X0218260Y0216840D01*
X0218307Y0217223D01*
X0218437Y0217587D01*
X0218646Y0217912D01*
X0218921Y0218183D01*
X0219250Y0218386D01*
X0219616Y0218510D01*
X0220000Y0218550D01*
X0220382Y0218516D01*
X0220746Y0218398D01*
X0221075Y0218202D01*
X0221352Y0217937D01*
X0221563Y0217618D01*
X0221698Y0217259D01*
X0221750Y0216880D01*
X0221729Y0216635D02*
X0218280Y0216635D01*
X0218296Y0217133D02*
X0221715Y0217133D01*
X0221554Y0217632D02*
X0218466Y0217632D01*
X0218868Y0218130D02*
X0221150Y0218130D01*
X0221604Y0216136D02*
X0218400Y0216136D01*
X0218717Y0215638D02*
X0221279Y0215638D01*
X0220515Y0215139D02*
X0219477Y0215139D01*
X0215592Y0217347D02*
X0215386Y0217001D01*
X0215109Y0216710D01*
X0214774Y0216487D01*
X0214398Y0216345D01*
X0214000Y0216290D01*
X0213607Y0216341D01*
X0213235Y0216478D01*
X0212903Y0216695D01*
X0212628Y0216980D01*
X0212423Y0217319D01*
X0212298Y0217695D01*
X0212260Y0218090D01*
X0212307Y0218473D01*
X0212437Y0218837D01*
X0212646Y0219162D01*
X0212921Y0219433D01*
X0213250Y0219636D01*
X0213616Y0219760D01*
X0214000Y0219800D01*
X0214382Y0219766D01*
X0214746Y0219648D01*
X0215075Y0219452D01*
X0215352Y0219187D01*
X0215563Y0218868D01*
X0215698Y0218509D01*
X0215750Y0218130D01*
X0215715Y0217729D01*
X0215592Y0217347D01*
X0215465Y0217133D02*
X0212535Y0217133D01*
X0212319Y0217632D02*
X0215684Y0217632D01*
X0215750Y0218130D02*
X0212265Y0218130D01*
X0212363Y0218629D02*
X0215653Y0218629D01*
X0215392Y0219127D02*
X0212623Y0219127D01*
X0213234Y0219626D02*
X0214783Y0219626D01*
X0214996Y0216635D02*
X0212995Y0216635D01*
X0209750Y0216880D02*
X0209715Y0216479D01*
X0209592Y0216097D01*
X0209386Y0215751D01*
X0209109Y0215460D01*
X0208774Y0215237D01*
X0208398Y0215095D01*
X0208000Y0215040D01*
X0207607Y0215091D01*
X0207235Y0215228D01*
X0206903Y0215445D01*
X0206628Y0215730D01*
X0206423Y0216069D01*
X0206298Y0216445D01*
X0206260Y0216840D01*
X0206307Y0217223D01*
X0206437Y0217587D01*
X0206646Y0217912D01*
X0206921Y0218183D01*
X0207250Y0218386D01*
X0207616Y0218510D01*
X0208000Y0218550D01*
X0208382Y0218516D01*
X0208746Y0218398D01*
X0209075Y0218202D01*
X0209352Y0217937D01*
X0209563Y0217618D01*
X0209698Y0217259D01*
X0209750Y0216880D01*
X0209729Y0216635D02*
X0206280Y0216635D01*
X0206296Y0217133D02*
X0209715Y0217133D01*
X0209554Y0217632D02*
X0206466Y0217632D01*
X0206868Y0218130D02*
X0209150Y0218130D01*
X0209604Y0216136D02*
X0206400Y0216136D01*
X0206717Y0215638D02*
X0209279Y0215638D01*
X0208515Y0215139D02*
X0207477Y0215139D01*
X0203592Y0217347D02*
X0203386Y0217001D01*
X0203109Y0216710D01*
X0202774Y0216487D01*
X0202398Y0216345D01*
X0202000Y0216290D01*
X0201607Y0216341D01*
X0201235Y0216478D01*
X0200903Y0216695D01*
X0200628Y0216980D01*
X0200423Y0217319D01*
X0200298Y0217695D01*
X0200260Y0218090D01*
X0200307Y0218473D01*
X0200437Y0218837D01*
X0200646Y0219162D01*
X0200921Y0219433D01*
X0201250Y0219636D01*
X0201616Y0219760D01*
X0202000Y0219800D01*
X0202382Y0219766D01*
X0202746Y0219648D01*
X0203075Y0219452D01*
X0203352Y0219187D01*
X0203563Y0218868D01*
X0203698Y0218509D01*
X0203750Y0218130D01*
X0203715Y0217729D01*
X0203592Y0217347D01*
X0203465Y0217133D02*
X0200535Y0217133D01*
X0200319Y0217632D02*
X0203684Y0217632D01*
X0203750Y0218130D02*
X0200265Y0218130D01*
X0200363Y0218629D02*
X0203653Y0218629D01*
X0203392Y0219127D02*
X0200623Y0219127D01*
X0201234Y0219626D02*
X0202783Y0219626D01*
X0202996Y0216635D02*
X0200995Y0216635D01*
X0181386Y0228251D02*
X0181109Y0227960D01*
X0180774Y0227737D01*
X0180398Y0227595D01*
X0180000Y0227540D01*
X0179607Y0227591D01*
X0179235Y0227728D01*
X0178903Y0227945D01*
X0178628Y0228230D01*
X0178423Y0228569D01*
X0178298Y0228945D01*
X0178260Y0229340D01*
X0178307Y0229723D01*
X0178437Y0230087D01*
X0178646Y0230412D01*
X0178921Y0230683D01*
X0179250Y0230886D01*
X0179616Y0231010D01*
X0180000Y0231050D01*
X0180382Y0231016D01*
X0180746Y0230898D01*
X0181075Y0230702D01*
X0181352Y0230437D01*
X0181563Y0230118D01*
X0181698Y0229759D01*
X0181750Y0229380D01*
X0181715Y0228979D01*
X0181592Y0228597D01*
X0181386Y0228251D01*
X0181243Y0228101D02*
X0178753Y0228101D01*
X0178413Y0228599D02*
X0181592Y0228599D01*
X0181725Y0229098D02*
X0178283Y0229098D01*
X0178291Y0229596D02*
X0181721Y0229596D01*
X0181572Y0230095D02*
X0178442Y0230095D01*
X0178830Y0230593D02*
X0181189Y0230593D01*
X0180416Y0227602D02*
X0179578Y0227602D01*
X0175592Y0229847D02*
X0175386Y0229501D01*
X0175109Y0229210D01*
X0174774Y0228987D01*
X0174398Y0228845D01*
X0174000Y0228790D01*
X0173607Y0228841D01*
X0173235Y0228978D01*
X0172903Y0229195D01*
X0172628Y0229480D01*
X0172423Y0229819D01*
X0172298Y0230195D01*
X0172260Y0230590D01*
X0172307Y0230973D01*
X0172437Y0231337D01*
X0172646Y0231662D01*
X0172921Y0231933D01*
X0173250Y0232136D01*
X0173616Y0232260D01*
X0174000Y0232300D01*
X0174382Y0232266D01*
X0174746Y0232148D01*
X0175075Y0231952D01*
X0175352Y0231687D01*
X0175563Y0231368D01*
X0175698Y0231009D01*
X0175750Y0230630D01*
X0175715Y0230229D01*
X0175592Y0229847D01*
X0175672Y0230095D02*
X0172331Y0230095D01*
X0172261Y0230593D02*
X0175747Y0230593D01*
X0175667Y0231092D02*
X0172349Y0231092D01*
X0172600Y0231590D02*
X0175416Y0231590D01*
X0174846Y0232089D02*
X0173174Y0232089D01*
X0172557Y0229596D02*
X0175443Y0229596D01*
X0174940Y0229098D02*
X0173052Y0229098D01*
X0169750Y0229380D02*
X0169715Y0228979D01*
X0169592Y0228597D01*
X0169386Y0228251D01*
X0169109Y0227960D01*
X0168774Y0227737D01*
X0168398Y0227595D01*
X0168000Y0227540D01*
X0167607Y0227591D01*
X0167235Y0227728D01*
X0166903Y0227945D01*
X0166628Y0228230D01*
X0166423Y0228569D01*
X0166298Y0228945D01*
X0166260Y0229340D01*
X0166307Y0229723D01*
X0166437Y0230087D01*
X0166646Y0230412D01*
X0166921Y0230683D01*
X0167250Y0230886D01*
X0167616Y0231010D01*
X0168000Y0231050D01*
X0168382Y0231016D01*
X0168746Y0230898D01*
X0169075Y0230702D01*
X0169352Y0230437D01*
X0169563Y0230118D01*
X0169698Y0229759D01*
X0169750Y0229380D01*
X0169721Y0229596D02*
X0166291Y0229596D01*
X0166283Y0229098D02*
X0169725Y0229098D01*
X0169592Y0228599D02*
X0166413Y0228599D01*
X0166753Y0228101D02*
X0169243Y0228101D01*
X0168416Y0227602D02*
X0167578Y0227602D01*
X0166442Y0230095D02*
X0169572Y0230095D01*
X0169189Y0230593D02*
X0166830Y0230593D01*
X0163750Y0230630D02*
X0163715Y0230229D01*
X0163592Y0229847D01*
X0163386Y0229501D01*
X0163109Y0229210D01*
X0162774Y0228987D01*
X0162398Y0228845D01*
X0162000Y0228790D01*
X0161607Y0228841D01*
X0161235Y0228978D01*
X0160903Y0229195D01*
X0160628Y0229480D01*
X0160423Y0229819D01*
X0160298Y0230195D01*
X0160260Y0230590D01*
X0160307Y0230973D01*
X0160437Y0231337D01*
X0160646Y0231662D01*
X0160921Y0231933D01*
X0161250Y0232136D01*
X0161616Y0232260D01*
X0162000Y0232300D01*
X0162382Y0232266D01*
X0162746Y0232148D01*
X0163075Y0231952D01*
X0163352Y0231687D01*
X0163563Y0231368D01*
X0163698Y0231009D01*
X0163750Y0230630D01*
X0163747Y0230593D02*
X0160261Y0230593D01*
X0160331Y0230095D02*
X0163672Y0230095D01*
X0163443Y0229596D02*
X0160557Y0229596D01*
X0161052Y0229098D02*
X0162940Y0229098D01*
X0163667Y0231092D02*
X0160349Y0231092D01*
X0160600Y0231590D02*
X0163416Y0231590D01*
X0162846Y0232089D02*
X0161174Y0232089D01*
X0141352Y0215437D02*
X0141563Y0215118D01*
X0141698Y0214759D01*
X0141750Y0214380D01*
X0141715Y0213979D01*
X0141592Y0213597D01*
X0141386Y0213251D01*
X0141109Y0212960D01*
X0140774Y0212737D01*
X0140398Y0212595D01*
X0140000Y0212540D01*
X0139607Y0212591D01*
X0139235Y0212728D01*
X0138903Y0212945D01*
X0138628Y0213230D01*
X0138423Y0213569D01*
X0138298Y0213945D01*
X0138260Y0214340D01*
X0138307Y0214723D01*
X0138437Y0215087D01*
X0138646Y0215412D01*
X0138921Y0215683D01*
X0139250Y0215886D01*
X0139616Y0216010D01*
X0140000Y0216050D01*
X0140382Y0216016D01*
X0140746Y0215898D01*
X0141075Y0215702D01*
X0141352Y0215437D01*
X0141142Y0215638D02*
X0138875Y0215638D01*
X0138471Y0215139D02*
X0141549Y0215139D01*
X0141714Y0214641D02*
X0138297Y0214641D01*
X0138279Y0214142D02*
X0141729Y0214142D01*
X0141607Y0213644D02*
X0138398Y0213644D01*
X0138710Y0213145D02*
X0141286Y0213145D01*
X0140535Y0212647D02*
X0139457Y0212647D01*
X0135592Y0214847D02*
X0135386Y0214501D01*
X0135109Y0214210D01*
X0134774Y0213987D01*
X0134398Y0213845D01*
X0134000Y0213790D01*
X0133607Y0213841D01*
X0133235Y0213978D01*
X0132903Y0214195D01*
X0132628Y0214480D01*
X0132423Y0214819D01*
X0132298Y0215195D01*
X0132260Y0215590D01*
X0132307Y0215973D01*
X0132437Y0216337D01*
X0132646Y0216662D01*
X0132921Y0216933D01*
X0133250Y0217136D01*
X0133616Y0217260D01*
X0134000Y0217300D01*
X0134382Y0217266D01*
X0134746Y0217148D01*
X0135075Y0216952D01*
X0135352Y0216687D01*
X0135563Y0216368D01*
X0135698Y0216009D01*
X0135750Y0215630D01*
X0135715Y0215229D01*
X0135592Y0214847D01*
X0135469Y0214641D02*
X0132530Y0214641D01*
X0132316Y0215139D02*
X0135686Y0215139D01*
X0135749Y0215638D02*
X0132266Y0215638D01*
X0132365Y0216136D02*
X0135651Y0216136D01*
X0135387Y0216635D02*
X0132628Y0216635D01*
X0133246Y0217133D02*
X0134771Y0217133D01*
X0135008Y0214142D02*
X0132984Y0214142D01*
X0129750Y0214380D02*
X0129715Y0213979D01*
X0129592Y0213597D01*
X0129386Y0213251D01*
X0129109Y0212960D01*
X0128774Y0212737D01*
X0128398Y0212595D01*
X0128000Y0212540D01*
X0127607Y0212591D01*
X0127235Y0212728D01*
X0126903Y0212945D01*
X0126628Y0213230D01*
X0126423Y0213569D01*
X0126298Y0213945D01*
X0126260Y0214340D01*
X0126307Y0214723D01*
X0126437Y0215087D01*
X0126646Y0215412D01*
X0126921Y0215683D01*
X0127250Y0215886D01*
X0127616Y0216010D01*
X0128000Y0216050D01*
X0128382Y0216016D01*
X0128746Y0215898D01*
X0129075Y0215702D01*
X0129352Y0215437D01*
X0129563Y0215118D01*
X0129698Y0214759D01*
X0129750Y0214380D01*
X0129729Y0214142D02*
X0126279Y0214142D01*
X0126297Y0214641D02*
X0129714Y0214641D01*
X0129549Y0215139D02*
X0126471Y0215139D01*
X0126875Y0215638D02*
X0129142Y0215638D01*
X0129607Y0213644D02*
X0126398Y0213644D01*
X0126710Y0213145D02*
X0129286Y0213145D01*
X0128535Y0212647D02*
X0127457Y0212647D01*
X0123592Y0214847D02*
X0123386Y0214501D01*
X0123109Y0214210D01*
X0122774Y0213987D01*
X0122398Y0213845D01*
X0122000Y0213790D01*
X0121607Y0213841D01*
X0121235Y0213978D01*
X0120903Y0214195D01*
X0120628Y0214480D01*
X0120423Y0214819D01*
X0120298Y0215195D01*
X0120260Y0215590D01*
X0120307Y0215973D01*
X0120437Y0216337D01*
X0120646Y0216662D01*
X0120921Y0216933D01*
X0121250Y0217136D01*
X0121616Y0217260D01*
X0122000Y0217300D01*
X0122382Y0217266D01*
X0122746Y0217148D01*
X0123075Y0216952D01*
X0123352Y0216687D01*
X0123563Y0216368D01*
X0123698Y0216009D01*
X0123750Y0215630D01*
X0123715Y0215229D01*
X0123592Y0214847D01*
X0123469Y0214641D02*
X0120530Y0214641D01*
X0120316Y0215139D02*
X0123686Y0215139D01*
X0123749Y0215638D02*
X0120266Y0215638D01*
X0120365Y0216136D02*
X0123651Y0216136D01*
X0123387Y0216635D02*
X0120628Y0216635D01*
X0121246Y0217133D02*
X0122771Y0217133D01*
X0123008Y0214142D02*
X0120984Y0214142D01*
X0088665Y0217279D02*
X0088542Y0216897D01*
X0088336Y0216551D01*
X0088059Y0216260D01*
X0087724Y0216037D01*
X0087348Y0215895D01*
X0086950Y0215840D01*
X0086557Y0215891D01*
X0086185Y0216028D01*
X0085853Y0216245D01*
X0085578Y0216530D01*
X0085373Y0216869D01*
X0085248Y0217245D01*
X0085210Y0217640D01*
X0085257Y0218023D01*
X0085387Y0218387D01*
X0085596Y0218712D01*
X0085871Y0218983D01*
X0086200Y0219186D01*
X0086566Y0219310D01*
X0086950Y0219350D01*
X0087332Y0219316D01*
X0087696Y0219198D01*
X0088025Y0219002D01*
X0088302Y0218737D01*
X0088513Y0218418D01*
X0088648Y0218059D01*
X0088700Y0217680D01*
X0088665Y0217279D01*
X0088618Y0217133D02*
X0085285Y0217133D01*
X0085211Y0217632D02*
X0088696Y0217632D01*
X0088622Y0218130D02*
X0085295Y0218130D01*
X0085542Y0218629D02*
X0088374Y0218629D01*
X0087815Y0219127D02*
X0086105Y0219127D01*
X0085514Y0216635D02*
X0088386Y0216635D01*
X0087873Y0216136D02*
X0086020Y0216136D01*
X0086950Y0201350D02*
X0086566Y0201310D01*
X0086200Y0201186D01*
X0085871Y0200983D01*
X0085596Y0200712D01*
X0085387Y0200387D01*
X0085257Y0200023D01*
X0085210Y0199640D01*
X0085248Y0199245D01*
X0085373Y0198869D01*
X0085578Y0198530D01*
X0085853Y0198245D01*
X0086185Y0198028D01*
X0086557Y0197891D01*
X0086950Y0197840D01*
X0087348Y0197895D01*
X0087724Y0198037D01*
X0088059Y0198260D01*
X0088336Y0198551D01*
X0088542Y0198897D01*
X0088665Y0199279D01*
X0088700Y0199680D01*
X0088648Y0200059D01*
X0088513Y0200418D01*
X0088302Y0200737D01*
X0088025Y0201002D01*
X0087696Y0201198D01*
X0087332Y0201316D01*
X0086950Y0201350D01*
X0086192Y0201181D02*
X0087725Y0201181D01*
X0088338Y0200682D02*
X0085577Y0200682D01*
X0085314Y0200184D02*
X0088601Y0200184D01*
X0088699Y0199685D02*
X0085216Y0199685D01*
X0085267Y0199187D02*
X0088635Y0199187D01*
X0088418Y0198688D02*
X0085482Y0198688D01*
X0085938Y0198190D02*
X0087954Y0198190D01*
X0096250Y0182136D02*
X0096616Y0182260D01*
X0097000Y0182300D01*
X0097382Y0182266D01*
X0097746Y0182148D01*
X0098075Y0181952D01*
X0098352Y0181687D01*
X0098563Y0181368D01*
X0098698Y0181009D01*
X0098750Y0180630D01*
X0098715Y0180229D01*
X0098592Y0179847D01*
X0098386Y0179501D01*
X0098109Y0179210D01*
X0097774Y0178987D01*
X0097398Y0178845D01*
X0097000Y0178790D01*
X0096607Y0178841D01*
X0096235Y0178978D01*
X0095903Y0179195D01*
X0095628Y0179480D01*
X0095423Y0179819D01*
X0095298Y0180195D01*
X0095260Y0180590D01*
X0095307Y0180973D01*
X0095437Y0181337D01*
X0095646Y0181662D01*
X0095921Y0181933D01*
X0096250Y0182136D01*
X0096549Y0182237D02*
X0097470Y0182237D01*
X0098298Y0181739D02*
X0095724Y0181739D01*
X0095403Y0181240D02*
X0098611Y0181240D01*
X0098735Y0180742D02*
X0095279Y0180742D01*
X0095293Y0180243D02*
X0098716Y0180243D01*
X0098531Y0179745D02*
X0095467Y0179745D01*
X0095853Y0179246D02*
X0098144Y0179246D01*
X0101260Y0179340D02*
X0101307Y0179723D01*
X0101437Y0180087D01*
X0101646Y0180412D01*
X0101921Y0180683D01*
X0102250Y0180886D01*
X0102616Y0181010D01*
X0103000Y0181050D01*
X0103382Y0181016D01*
X0103746Y0180898D01*
X0104075Y0180702D01*
X0104352Y0180437D01*
X0104563Y0180118D01*
X0104698Y0179759D01*
X0104750Y0179380D01*
X0104715Y0178979D01*
X0104592Y0178597D01*
X0104386Y0178251D01*
X0104109Y0177960D01*
X0103774Y0177737D01*
X0103398Y0177595D01*
X0103000Y0177540D01*
X0102607Y0177591D01*
X0102235Y0177728D01*
X0101903Y0177945D01*
X0101628Y0178230D01*
X0101423Y0178569D01*
X0101298Y0178945D01*
X0101260Y0179340D01*
X0101269Y0179246D02*
X0104738Y0179246D01*
X0104700Y0179745D02*
X0101315Y0179745D01*
X0101538Y0180243D02*
X0104480Y0180243D01*
X0104008Y0180742D02*
X0102017Y0180742D01*
X0101363Y0178748D02*
X0104640Y0178748D01*
X0104385Y0178249D02*
X0101616Y0178249D01*
X0102201Y0177751D02*
X0103795Y0177751D01*
X0107423Y0179819D02*
X0107298Y0180195D01*
X0107260Y0180590D01*
X0107307Y0180973D01*
X0107437Y0181337D01*
X0107646Y0181662D01*
X0107921Y0181933D01*
X0108250Y0182136D01*
X0108616Y0182260D01*
X0109000Y0182300D01*
X0109382Y0182266D01*
X0109746Y0182148D01*
X0110075Y0181952D01*
X0110352Y0181687D01*
X0110563Y0181368D01*
X0110698Y0181009D01*
X0110750Y0180630D01*
X0110715Y0180229D01*
X0110592Y0179847D01*
X0110386Y0179501D01*
X0110109Y0179210D01*
X0109774Y0178987D01*
X0109398Y0178845D01*
X0109000Y0178790D01*
X0108607Y0178841D01*
X0108235Y0178978D01*
X0107903Y0179195D01*
X0107628Y0179480D01*
X0107423Y0179819D01*
X0107467Y0179745D02*
X0110531Y0179745D01*
X0110716Y0180243D02*
X0107293Y0180243D01*
X0107279Y0180742D02*
X0110735Y0180742D01*
X0110611Y0181240D02*
X0107403Y0181240D01*
X0107724Y0181739D02*
X0110298Y0181739D01*
X0109470Y0182237D02*
X0108549Y0182237D01*
X0107853Y0179246D02*
X0110144Y0179246D01*
X0113260Y0179340D02*
X0113307Y0179723D01*
X0113437Y0180087D01*
X0113646Y0180412D01*
X0113921Y0180683D01*
X0114250Y0180886D01*
X0114616Y0181010D01*
X0115000Y0181050D01*
X0115382Y0181016D01*
X0115746Y0180898D01*
X0116075Y0180702D01*
X0116352Y0180437D01*
X0116563Y0180118D01*
X0116698Y0179759D01*
X0116750Y0179380D01*
X0116715Y0178979D01*
X0116592Y0178597D01*
X0116386Y0178251D01*
X0116109Y0177960D01*
X0115774Y0177737D01*
X0115398Y0177595D01*
X0115000Y0177540D01*
X0114607Y0177591D01*
X0114235Y0177728D01*
X0113903Y0177945D01*
X0113628Y0178230D01*
X0113423Y0178569D01*
X0113298Y0178945D01*
X0113260Y0179340D01*
X0113269Y0179246D02*
X0116738Y0179246D01*
X0116700Y0179745D02*
X0113315Y0179745D01*
X0113538Y0180243D02*
X0116480Y0180243D01*
X0116008Y0180742D02*
X0114017Y0180742D01*
X0113363Y0178748D02*
X0116640Y0178748D01*
X0116385Y0178249D02*
X0113616Y0178249D01*
X0114201Y0177751D02*
X0115795Y0177751D01*
X0080464Y0161925D02*
X0080678Y0161125D01*
X0080750Y0160300D01*
X0080678Y0159475D01*
X0080464Y0158675D01*
X0080114Y0157925D01*
X0079639Y0157247D01*
X0079053Y0156661D01*
X0078375Y0156186D01*
X0077625Y0155836D01*
X0076825Y0155622D01*
X0076000Y0155550D01*
X0071500Y0155550D01*
X0067000Y0155550D01*
X0066175Y0155622D01*
X0065375Y0155836D01*
X0064625Y0156186D01*
X0063947Y0156661D01*
X0063361Y0157247D01*
X0062886Y0157925D01*
X0062536Y0158675D01*
X0062322Y0159475D01*
X0062250Y0160300D01*
X0062322Y0161125D01*
X0062536Y0161925D01*
X0062886Y0162675D01*
X0063361Y0163353D01*
X0063947Y0163939D01*
X0064625Y0164414D01*
X0065375Y0164764D01*
X0066175Y0164978D01*
X0067000Y0165050D01*
X0076000Y0165050D01*
X0076825Y0164978D01*
X0077625Y0164764D01*
X0078375Y0164414D01*
X0079053Y0163939D01*
X0079639Y0163353D01*
X0080114Y0162675D01*
X0080464Y0161925D01*
X0080497Y0161799D02*
X0062503Y0161799D01*
X0062369Y0161300D02*
X0080631Y0161300D01*
X0080706Y0160801D02*
X0062294Y0160801D01*
X0062250Y0160303D02*
X0080750Y0160303D01*
X0080707Y0159804D02*
X0062293Y0159804D01*
X0062367Y0159306D02*
X0080632Y0159306D01*
X0080499Y0158807D02*
X0062501Y0158807D01*
X0062707Y0158309D02*
X0080293Y0158309D01*
X0080033Y0157810D02*
X0062967Y0157810D01*
X0063316Y0157312D02*
X0079684Y0157312D01*
X0079205Y0156813D02*
X0063795Y0156813D01*
X0064441Y0156315D02*
X0078559Y0156315D01*
X0077550Y0155816D02*
X0065450Y0155816D01*
X0062710Y0162297D02*
X0080290Y0162297D01*
X0080029Y0162796D02*
X0062971Y0162796D01*
X0063320Y0163294D02*
X0079680Y0163294D01*
X0079199Y0163793D02*
X0063801Y0163793D01*
X0064450Y0164291D02*
X0078550Y0164291D01*
X0077527Y0164790D02*
X0065473Y0164790D01*
X0052575Y0145202D02*
X0052852Y0144937D01*
X0053063Y0144618D01*
X0053198Y0144259D01*
X0053250Y0143880D01*
X0053215Y0143479D01*
X0053092Y0143097D01*
X0052886Y0142751D01*
X0052609Y0142460D01*
X0052274Y0142237D01*
X0051898Y0142095D01*
X0051500Y0142040D01*
X0051107Y0142091D01*
X0050735Y0142228D01*
X0050403Y0142445D01*
X0050128Y0142730D01*
X0049923Y0143069D01*
X0049798Y0143445D01*
X0049760Y0143840D01*
X0049807Y0144223D01*
X0049937Y0144587D01*
X0050146Y0144912D01*
X0050421Y0145183D01*
X0050750Y0145386D01*
X0051116Y0145510D01*
X0051500Y0145550D01*
X0051882Y0145516D01*
X0052246Y0145398D01*
X0052575Y0145202D01*
X0052330Y0145348D02*
X0050688Y0145348D01*
X0050105Y0144849D02*
X0052910Y0144849D01*
X0053164Y0144351D02*
X0049853Y0144351D01*
X0049762Y0143852D02*
X0053248Y0143852D01*
X0053174Y0143354D02*
X0049828Y0143354D01*
X0050052Y0142855D02*
X0052948Y0142855D01*
X0052454Y0142357D02*
X0050539Y0142357D01*
X0043215Y0143479D02*
X0043092Y0143097D01*
X0042886Y0142751D01*
X0042609Y0142460D01*
X0042274Y0142237D01*
X0041898Y0142095D01*
X0041500Y0142040D01*
X0041107Y0142091D01*
X0040735Y0142228D01*
X0040403Y0142445D01*
X0040128Y0142730D01*
X0039923Y0143069D01*
X0039798Y0143445D01*
X0039760Y0143840D01*
X0039807Y0144223D01*
X0039937Y0144587D01*
X0040146Y0144912D01*
X0040421Y0145183D01*
X0040750Y0145386D01*
X0041116Y0145510D01*
X0041500Y0145550D01*
X0041882Y0145516D01*
X0042246Y0145398D01*
X0042575Y0145202D01*
X0042852Y0144937D01*
X0043063Y0144618D01*
X0043198Y0144259D01*
X0043250Y0143880D01*
X0043215Y0143479D01*
X0043174Y0143354D02*
X0039828Y0143354D01*
X0039762Y0143852D02*
X0043248Y0143852D01*
X0043164Y0144351D02*
X0039853Y0144351D01*
X0040105Y0144849D02*
X0042910Y0144849D01*
X0042330Y0145348D02*
X0040688Y0145348D01*
X0040052Y0142855D02*
X0042948Y0142855D01*
X0042454Y0142357D02*
X0040539Y0142357D01*
X0033215Y0143479D02*
X0033092Y0143097D01*
X0032886Y0142751D01*
X0032609Y0142460D01*
X0032274Y0142237D01*
X0031898Y0142095D01*
X0031500Y0142040D01*
X0031107Y0142091D01*
X0030735Y0142228D01*
X0030403Y0142445D01*
X0030128Y0142730D01*
X0029923Y0143069D01*
X0029798Y0143445D01*
X0029760Y0143840D01*
X0029807Y0144223D01*
X0029937Y0144587D01*
X0030146Y0144912D01*
X0030421Y0145183D01*
X0030750Y0145386D01*
X0031116Y0145510D01*
X0031500Y0145550D01*
X0031882Y0145516D01*
X0032246Y0145398D01*
X0032575Y0145202D01*
X0032852Y0144937D01*
X0033063Y0144618D01*
X0033198Y0144259D01*
X0033250Y0143880D01*
X0033215Y0143479D01*
X0033174Y0143354D02*
X0029828Y0143354D01*
X0029762Y0143852D02*
X0033248Y0143852D01*
X0033164Y0144351D02*
X0029853Y0144351D01*
X0030105Y0144849D02*
X0032910Y0144849D01*
X0032330Y0145348D02*
X0030688Y0145348D01*
X0030052Y0142855D02*
X0032948Y0142855D01*
X0032454Y0142357D02*
X0030539Y0142357D01*
X0060685Y0198028D02*
X0060353Y0198245D01*
X0060078Y0198530D01*
X0059873Y0198869D01*
X0059748Y0199245D01*
X0059710Y0199640D01*
X0059757Y0200023D01*
X0059887Y0200387D01*
X0060096Y0200712D01*
X0060371Y0200983D01*
X0060700Y0201186D01*
X0061066Y0201310D01*
X0061450Y0201350D01*
X0061832Y0201316D01*
X0062196Y0201198D01*
X0062525Y0201002D01*
X0062802Y0200737D01*
X0063013Y0200418D01*
X0063148Y0200059D01*
X0063200Y0199680D01*
X0063165Y0199279D01*
X0063042Y0198897D01*
X0062836Y0198551D01*
X0062559Y0198260D01*
X0062224Y0198037D01*
X0061848Y0197895D01*
X0061450Y0197840D01*
X0061057Y0197891D01*
X0060685Y0198028D01*
X0060438Y0198190D02*
X0062454Y0198190D01*
X0062918Y0198688D02*
X0059982Y0198688D01*
X0059767Y0199187D02*
X0063135Y0199187D01*
X0063199Y0199685D02*
X0059716Y0199685D01*
X0059814Y0200184D02*
X0063101Y0200184D01*
X0062838Y0200682D02*
X0060077Y0200682D01*
X0060692Y0201181D02*
X0062225Y0201181D01*
X0061450Y0215840D02*
X0061057Y0215891D01*
X0060685Y0216028D01*
X0060353Y0216245D01*
X0060078Y0216530D01*
X0059873Y0216869D01*
X0059748Y0217245D01*
X0059710Y0217640D01*
X0059757Y0218023D01*
X0059887Y0218387D01*
X0060096Y0218712D01*
X0060371Y0218983D01*
X0060700Y0219186D01*
X0061066Y0219310D01*
X0061450Y0219350D01*
X0061832Y0219316D01*
X0062196Y0219198D01*
X0062525Y0219002D01*
X0062802Y0218737D01*
X0063013Y0218418D01*
X0063148Y0218059D01*
X0063200Y0217680D01*
X0063165Y0217279D01*
X0063042Y0216897D01*
X0062836Y0216551D01*
X0062559Y0216260D01*
X0062224Y0216037D01*
X0061848Y0215895D01*
X0061450Y0215840D01*
X0062373Y0216136D02*
X0060520Y0216136D01*
X0060014Y0216635D02*
X0062886Y0216635D01*
X0063118Y0217133D02*
X0059785Y0217133D01*
X0059711Y0217632D02*
X0063196Y0217632D01*
X0063122Y0218130D02*
X0059795Y0218130D01*
X0060042Y0218629D02*
X0062874Y0218629D01*
X0062315Y0219127D02*
X0060605Y0219127D01*
X0096250Y0142136D02*
X0096616Y0142260D01*
X0097000Y0142300D01*
X0097382Y0142266D01*
X0097746Y0142148D01*
X0098075Y0141952D01*
X0098352Y0141687D01*
X0098563Y0141368D01*
X0098698Y0141009D01*
X0098750Y0140630D01*
X0098715Y0140229D01*
X0098592Y0139847D01*
X0098386Y0139501D01*
X0098109Y0139210D01*
X0097774Y0138987D01*
X0097398Y0138845D01*
X0097000Y0138790D01*
X0096607Y0138841D01*
X0096235Y0138978D01*
X0095903Y0139195D01*
X0095628Y0139480D01*
X0095423Y0139819D01*
X0095298Y0140195D01*
X0095260Y0140590D01*
X0095307Y0140973D01*
X0095437Y0141337D01*
X0095646Y0141662D01*
X0095921Y0141933D01*
X0096250Y0142136D01*
X0095845Y0141858D02*
X0098173Y0141858D01*
X0098567Y0141360D02*
X0095452Y0141360D01*
X0095293Y0140861D02*
X0098718Y0140861D01*
X0098727Y0140363D02*
X0095282Y0140363D01*
X0095408Y0139864D02*
X0098597Y0139864D01*
X0098257Y0139366D02*
X0095738Y0139366D01*
X0096537Y0138867D02*
X0097456Y0138867D01*
X0101260Y0139340D02*
X0101307Y0139723D01*
X0101437Y0140087D01*
X0101646Y0140412D01*
X0101921Y0140683D01*
X0102250Y0140886D01*
X0102616Y0141010D01*
X0103000Y0141050D01*
X0103382Y0141016D01*
X0103746Y0140898D01*
X0104075Y0140702D01*
X0104352Y0140437D01*
X0104563Y0140118D01*
X0104698Y0139759D01*
X0104750Y0139380D01*
X0104715Y0138979D01*
X0104592Y0138597D01*
X0104386Y0138251D01*
X0104109Y0137960D01*
X0103774Y0137737D01*
X0103398Y0137595D01*
X0103000Y0137540D01*
X0102607Y0137591D01*
X0102235Y0137728D01*
X0101903Y0137945D01*
X0101628Y0138230D01*
X0101423Y0138569D01*
X0101298Y0138945D01*
X0101260Y0139340D01*
X0101263Y0139366D02*
X0104749Y0139366D01*
X0104679Y0138867D02*
X0101324Y0138867D01*
X0101544Y0138368D02*
X0104456Y0138368D01*
X0103974Y0137870D02*
X0102018Y0137870D01*
X0101357Y0139864D02*
X0104659Y0139864D01*
X0104402Y0140363D02*
X0101614Y0140363D01*
X0102210Y0140861D02*
X0103808Y0140861D01*
X0107260Y0140590D02*
X0107307Y0140973D01*
X0107437Y0141337D01*
X0107646Y0141662D01*
X0107921Y0141933D01*
X0108250Y0142136D01*
X0108616Y0142260D01*
X0109000Y0142300D01*
X0109382Y0142266D01*
X0109746Y0142148D01*
X0110075Y0141952D01*
X0110352Y0141687D01*
X0110563Y0141368D01*
X0110698Y0141009D01*
X0110750Y0140630D01*
X0110715Y0140229D01*
X0110592Y0139847D01*
X0110386Y0139501D01*
X0110109Y0139210D01*
X0109774Y0138987D01*
X0109398Y0138845D01*
X0109000Y0138790D01*
X0108607Y0138841D01*
X0108235Y0138978D01*
X0107903Y0139195D01*
X0107628Y0139480D01*
X0107423Y0139819D01*
X0107298Y0140195D01*
X0107260Y0140590D01*
X0107282Y0140363D02*
X0110727Y0140363D01*
X0110718Y0140861D02*
X0107293Y0140861D01*
X0107452Y0141360D02*
X0110567Y0141360D01*
X0110173Y0141858D02*
X0107845Y0141858D01*
X0107408Y0139864D02*
X0110597Y0139864D01*
X0110257Y0139366D02*
X0107738Y0139366D01*
X0108537Y0138867D02*
X0109456Y0138867D01*
X0113260Y0139340D02*
X0113307Y0139723D01*
X0113437Y0140087D01*
X0113646Y0140412D01*
X0113921Y0140683D01*
X0114250Y0140886D01*
X0114616Y0141010D01*
X0115000Y0141050D01*
X0115382Y0141016D01*
X0115746Y0140898D01*
X0116075Y0140702D01*
X0116352Y0140437D01*
X0116563Y0140118D01*
X0116698Y0139759D01*
X0116750Y0139380D01*
X0116715Y0138979D01*
X0116592Y0138597D01*
X0116386Y0138251D01*
X0116109Y0137960D01*
X0115774Y0137737D01*
X0115398Y0137595D01*
X0115000Y0137540D01*
X0114607Y0137591D01*
X0114235Y0137728D01*
X0113903Y0137945D01*
X0113628Y0138230D01*
X0113423Y0138569D01*
X0113298Y0138945D01*
X0113260Y0139340D01*
X0113263Y0139366D02*
X0116749Y0139366D01*
X0116679Y0138867D02*
X0113324Y0138867D01*
X0113544Y0138368D02*
X0116456Y0138368D01*
X0115974Y0137870D02*
X0114018Y0137870D01*
X0113357Y0139864D02*
X0116659Y0139864D01*
X0116402Y0140363D02*
X0113614Y0140363D01*
X0114210Y0140861D02*
X0115808Y0140861D01*
X0227923Y0179819D02*
X0227798Y0180195D01*
X0227760Y0180590D01*
X0227807Y0180973D01*
X0227937Y0181337D01*
X0228146Y0181662D01*
X0228421Y0181933D01*
X0228750Y0182136D01*
X0229116Y0182260D01*
X0229500Y0182300D01*
X0229882Y0182266D01*
X0230246Y0182148D01*
X0230575Y0181952D01*
X0230852Y0181687D01*
X0231063Y0181368D01*
X0231198Y0181009D01*
X0231250Y0180630D01*
X0231215Y0180229D01*
X0231092Y0179847D01*
X0230886Y0179501D01*
X0230609Y0179210D01*
X0230274Y0178987D01*
X0229898Y0178845D01*
X0229500Y0178790D01*
X0229107Y0178841D01*
X0228735Y0178978D01*
X0228403Y0179195D01*
X0228128Y0179480D01*
X0227923Y0179819D01*
X0227967Y0179745D02*
X0231031Y0179745D01*
X0231216Y0180243D02*
X0227793Y0180243D01*
X0227779Y0180742D02*
X0231235Y0180742D01*
X0231111Y0181240D02*
X0227903Y0181240D01*
X0228224Y0181739D02*
X0230798Y0181739D01*
X0229970Y0182237D02*
X0229049Y0182237D01*
X0228353Y0179246D02*
X0230644Y0179246D01*
X0233760Y0179340D02*
X0233807Y0179723D01*
X0233937Y0180087D01*
X0234146Y0180412D01*
X0234421Y0180683D01*
X0234750Y0180886D01*
X0235116Y0181010D01*
X0235500Y0181050D01*
X0235882Y0181016D01*
X0236246Y0180898D01*
X0236575Y0180702D01*
X0236852Y0180437D01*
X0237063Y0180118D01*
X0237198Y0179759D01*
X0237250Y0179380D01*
X0237215Y0178979D01*
X0237092Y0178597D01*
X0236886Y0178251D01*
X0236609Y0177960D01*
X0236274Y0177737D01*
X0235898Y0177595D01*
X0235500Y0177540D01*
X0235107Y0177591D01*
X0234735Y0177728D01*
X0234403Y0177945D01*
X0234128Y0178230D01*
X0233923Y0178569D01*
X0233798Y0178945D01*
X0233760Y0179340D01*
X0233769Y0179246D02*
X0237238Y0179246D01*
X0237200Y0179745D02*
X0233815Y0179745D01*
X0234038Y0180243D02*
X0236980Y0180243D01*
X0236508Y0180742D02*
X0234517Y0180742D01*
X0233863Y0178748D02*
X0237140Y0178748D01*
X0236885Y0178249D02*
X0234116Y0178249D01*
X0234701Y0177751D02*
X0236295Y0177751D01*
X0239923Y0179819D02*
X0239798Y0180195D01*
X0239760Y0180590D01*
X0239807Y0180973D01*
X0239937Y0181337D01*
X0240146Y0181662D01*
X0240421Y0181933D01*
X0240750Y0182136D01*
X0241116Y0182260D01*
X0241500Y0182300D01*
X0241882Y0182266D01*
X0242246Y0182148D01*
X0242575Y0181952D01*
X0242852Y0181687D01*
X0243063Y0181368D01*
X0243198Y0181009D01*
X0243250Y0180630D01*
X0243215Y0180229D01*
X0243092Y0179847D01*
X0242886Y0179501D01*
X0242609Y0179210D01*
X0242274Y0178987D01*
X0241898Y0178845D01*
X0241500Y0178790D01*
X0241107Y0178841D01*
X0240735Y0178978D01*
X0240403Y0179195D01*
X0240128Y0179480D01*
X0239923Y0179819D01*
X0239967Y0179745D02*
X0243031Y0179745D01*
X0243216Y0180243D02*
X0239793Y0180243D01*
X0239779Y0180742D02*
X0243235Y0180742D01*
X0243111Y0181240D02*
X0239903Y0181240D01*
X0240224Y0181739D02*
X0242798Y0181739D01*
X0241970Y0182237D02*
X0241049Y0182237D01*
X0240353Y0179246D02*
X0242644Y0179246D01*
X0245760Y0179340D02*
X0245807Y0179723D01*
X0245937Y0180087D01*
X0246146Y0180412D01*
X0246421Y0180683D01*
X0246750Y0180886D01*
X0247116Y0181010D01*
X0247500Y0181050D01*
X0247882Y0181016D01*
X0248246Y0180898D01*
X0248575Y0180702D01*
X0248852Y0180437D01*
X0249063Y0180118D01*
X0249198Y0179759D01*
X0249250Y0179380D01*
X0249215Y0178979D01*
X0249092Y0178597D01*
X0248886Y0178251D01*
X0248609Y0177960D01*
X0248274Y0177737D01*
X0247898Y0177595D01*
X0247500Y0177540D01*
X0247107Y0177591D01*
X0246735Y0177728D01*
X0246403Y0177945D01*
X0246128Y0178230D01*
X0245923Y0178569D01*
X0245798Y0178945D01*
X0245760Y0179340D01*
X0245769Y0179246D02*
X0249238Y0179246D01*
X0249200Y0179745D02*
X0245815Y0179745D01*
X0246038Y0180243D02*
X0248980Y0180243D01*
X0248508Y0180742D02*
X0246517Y0180742D01*
X0245863Y0178748D02*
X0249140Y0178748D01*
X0248885Y0178249D02*
X0246116Y0178249D01*
X0246701Y0177751D02*
X0248295Y0177751D01*
D12*
X0196500Y0199550D03*
X0186500Y0199550D03*
X0176500Y0199550D03*
X0166500Y0199550D03*
X0156500Y0199550D03*
X0146500Y0199550D03*
D13*
G36*
X0148602Y0172833D02*
X0146087Y0170318D01*
X0143018Y0173387D01*
X0145533Y0175902D01*
X0148602Y0172833D01*
G37*
G36*
X0144982Y0169213D02*
X0142467Y0166698D01*
X0139398Y0169767D01*
X0141913Y0172282D01*
X0144982Y0169213D01*
G37*
G36*
X0141913Y0150318D02*
X0139398Y0152833D01*
X0142467Y0155902D01*
X0144982Y0153387D01*
X0141913Y0150318D01*
G37*
G36*
X0145533Y0146698D02*
X0143018Y0149213D01*
X0146087Y0152282D01*
X0148602Y0149767D01*
X0145533Y0146698D01*
G37*
G36*
X0185413Y0180318D02*
X0182898Y0182833D01*
X0185967Y0185902D01*
X0188482Y0183387D01*
X0185413Y0180318D01*
G37*
G36*
X0189033Y0176698D02*
X0186518Y0179213D01*
X0189587Y0182282D01*
X0192102Y0179767D01*
X0189033Y0176698D01*
G37*
G36*
X0197467Y0175902D02*
X0199982Y0173387D01*
X0196913Y0170318D01*
X0194398Y0172833D01*
X0197467Y0175902D01*
G37*
G36*
X0201087Y0172282D02*
X0203602Y0169767D01*
X0200533Y0166698D01*
X0198018Y0169213D01*
X0201087Y0172282D01*
G37*
D14*
G36*
X0157550Y0144047D02*
X0160065Y0141532D01*
X0154768Y0136235D01*
X0152253Y0138750D01*
X0157550Y0144047D01*
G37*
G36*
X0160891Y0140706D02*
X0163406Y0138191D01*
X0158109Y0132894D01*
X0155594Y0135409D01*
X0160891Y0140706D01*
G37*
G36*
X0164232Y0137365D02*
X0166747Y0134850D01*
X0161450Y0129553D01*
X0158935Y0132068D01*
X0164232Y0137365D01*
G37*
D15*
G36*
X0170456Y0142544D02*
X0166356Y0138444D01*
X0164234Y0140566D01*
X0168334Y0144666D01*
X0170456Y0142544D01*
G37*
G36*
X0168229Y0144771D02*
X0164129Y0140671D01*
X0162007Y0142793D01*
X0166107Y0146893D01*
X0168229Y0144771D01*
G37*
G36*
X0166002Y0146998D02*
X0161902Y0142898D01*
X0159780Y0145020D01*
X0163880Y0149120D01*
X0166002Y0146998D01*
G37*
G36*
X0163774Y0149225D02*
X0159674Y0145125D01*
X0157552Y0147247D01*
X0161652Y0151347D01*
X0163774Y0149225D01*
G37*
G36*
X0161547Y0151452D02*
X0157447Y0147352D01*
X0155325Y0149474D01*
X0159425Y0153574D01*
X0161547Y0151452D01*
G37*
G36*
X0159320Y0153680D02*
X0155220Y0149580D01*
X0153098Y0151702D01*
X0157198Y0155802D01*
X0159320Y0153680D01*
G37*
G36*
X0157093Y0155907D02*
X0152993Y0151807D01*
X0150871Y0153929D01*
X0154971Y0158029D01*
X0157093Y0155907D01*
G37*
G36*
X0154866Y0158134D02*
X0150766Y0154034D01*
X0148644Y0156156D01*
X0152744Y0160256D01*
X0154866Y0158134D01*
G37*
G36*
X0183220Y0177580D02*
X0179120Y0173480D01*
X0176998Y0175602D01*
X0181098Y0179702D01*
X0183220Y0177580D01*
G37*
G36*
X0185448Y0175353D02*
X0181348Y0171253D01*
X0179226Y0173375D01*
X0183326Y0177475D01*
X0185448Y0175353D01*
G37*
G36*
X0187675Y0173126D02*
X0183575Y0169026D01*
X0181453Y0171148D01*
X0185553Y0175248D01*
X0187675Y0173126D01*
G37*
G36*
X0189902Y0170898D02*
X0185802Y0166798D01*
X0183680Y0168920D01*
X0187780Y0173020D01*
X0189902Y0170898D01*
G37*
G36*
X0192129Y0168671D02*
X0188029Y0164571D01*
X0185907Y0166693D01*
X0190007Y0170793D01*
X0192129Y0168671D01*
G37*
G36*
X0194356Y0166444D02*
X0190256Y0162344D01*
X0188134Y0164466D01*
X0192234Y0168566D01*
X0194356Y0166444D01*
G37*
G36*
X0180993Y0179807D02*
X0176893Y0175707D01*
X0174771Y0177829D01*
X0178871Y0181929D01*
X0180993Y0179807D01*
G37*
G36*
X0178766Y0182034D02*
X0174666Y0177934D01*
X0172544Y0180056D01*
X0176644Y0184156D01*
X0178766Y0182034D01*
G37*
D16*
G36*
X0170456Y0180056D02*
X0168334Y0177934D01*
X0164234Y0182034D01*
X0166356Y0184156D01*
X0170456Y0180056D01*
G37*
G36*
X0168229Y0177829D02*
X0166107Y0175707D01*
X0162007Y0179807D01*
X0164129Y0181929D01*
X0168229Y0177829D01*
G37*
G36*
X0166002Y0175602D02*
X0163880Y0173480D01*
X0159780Y0177580D01*
X0161902Y0179702D01*
X0166002Y0175602D01*
G37*
G36*
X0163774Y0173375D02*
X0161652Y0171253D01*
X0157552Y0175353D01*
X0159674Y0177475D01*
X0163774Y0173375D01*
G37*
G36*
X0161547Y0171148D02*
X0159425Y0169026D01*
X0155325Y0173126D01*
X0157447Y0175248D01*
X0161547Y0171148D01*
G37*
G36*
X0159320Y0168920D02*
X0157198Y0166798D01*
X0153098Y0170898D01*
X0155220Y0173020D01*
X0159320Y0168920D01*
G37*
G36*
X0157093Y0166693D02*
X0154971Y0164571D01*
X0150871Y0168671D01*
X0152993Y0170793D01*
X0157093Y0166693D01*
G37*
G36*
X0154866Y0164466D02*
X0152744Y0162344D01*
X0148644Y0166444D01*
X0150766Y0168566D01*
X0154866Y0164466D01*
G37*
G36*
X0178766Y0140566D02*
X0176644Y0138444D01*
X0172544Y0142544D01*
X0174666Y0144666D01*
X0178766Y0140566D01*
G37*
G36*
X0180993Y0142793D02*
X0178871Y0140671D01*
X0174771Y0144771D01*
X0176893Y0146893D01*
X0180993Y0142793D01*
G37*
G36*
X0183220Y0145020D02*
X0181098Y0142898D01*
X0176998Y0146998D01*
X0179120Y0149120D01*
X0183220Y0145020D01*
G37*
G36*
X0185448Y0147247D02*
X0183326Y0145125D01*
X0179226Y0149225D01*
X0181348Y0151347D01*
X0185448Y0147247D01*
G37*
G36*
X0187675Y0149474D02*
X0185553Y0147352D01*
X0181453Y0151452D01*
X0183575Y0153574D01*
X0187675Y0149474D01*
G37*
G36*
X0189902Y0151702D02*
X0187780Y0149580D01*
X0183680Y0153680D01*
X0185802Y0155802D01*
X0189902Y0151702D01*
G37*
G36*
X0192129Y0153929D02*
X0190007Y0151807D01*
X0185907Y0155907D01*
X0188029Y0158029D01*
X0192129Y0153929D01*
G37*
G36*
X0194356Y0156156D02*
X0192234Y0154034D01*
X0188134Y0158134D01*
X0190256Y0160256D01*
X0194356Y0156156D01*
G37*
D17*
G36*
X0286548Y0125098D02*
X0284869Y0126777D01*
X0288496Y0130404D01*
X0290175Y0128725D01*
X0286548Y0125098D01*
G37*
G36*
X0288357Y0123288D02*
X0286678Y0124967D01*
X0290305Y0128594D01*
X0291984Y0126915D01*
X0288357Y0123288D01*
G37*
G36*
X0290167Y0121478D02*
X0288488Y0123157D01*
X0292115Y0126784D01*
X0293794Y0125105D01*
X0290167Y0121478D01*
G37*
G36*
X0291977Y0119669D02*
X0290298Y0121348D01*
X0293925Y0124975D01*
X0295604Y0123296D01*
X0291977Y0119669D01*
G37*
G36*
X0304504Y0132196D02*
X0302825Y0133875D01*
X0306452Y0137502D01*
X0308131Y0135823D01*
X0304504Y0132196D01*
G37*
G36*
X0302694Y0134006D02*
X0301015Y0135685D01*
X0304642Y0139312D01*
X0306321Y0137633D01*
X0302694Y0134006D01*
G37*
G36*
X0300885Y0135815D02*
X0299206Y0137494D01*
X0302833Y0141121D01*
X0304512Y0139442D01*
X0300885Y0135815D01*
G37*
G36*
X0299075Y0137625D02*
X0297396Y0139304D01*
X0301023Y0142931D01*
X0302702Y0141252D01*
X0299075Y0137625D01*
G37*
D18*
G36*
X0290676Y0149660D02*
X0294860Y0145476D01*
X0290676Y0141292D01*
X0286492Y0145476D01*
X0290676Y0149660D01*
G37*
G36*
X0282324Y0141308D02*
X0286508Y0137124D01*
X0282324Y0132940D01*
X0278140Y0137124D01*
X0282324Y0141308D01*
G37*
D19*
G36*
X0277051Y0124654D02*
X0279844Y0121861D01*
X0275939Y0117956D01*
X0273146Y0120749D01*
X0277051Y0124654D01*
G37*
G36*
X0282061Y0119644D02*
X0284854Y0116851D01*
X0280949Y0112946D01*
X0278156Y0115739D01*
X0282061Y0119644D01*
G37*
G36*
X0312439Y0146456D02*
X0309646Y0149249D01*
X0313551Y0153154D01*
X0316344Y0150361D01*
X0312439Y0146456D01*
G37*
G36*
X0317449Y0141446D02*
X0314656Y0144239D01*
X0318561Y0148144D01*
X0321354Y0145351D01*
X0317449Y0141446D01*
G37*
D20*
G36*
X0311227Y0142422D02*
X0314854Y0138795D01*
X0311505Y0135446D01*
X0307878Y0139073D01*
X0311227Y0142422D01*
G37*
G36*
X0306495Y0147154D02*
X0310122Y0143527D01*
X0306773Y0140178D01*
X0303146Y0143805D01*
X0306495Y0147154D01*
G37*
G36*
X0309854Y0126305D02*
X0306227Y0122678D01*
X0302878Y0126027D01*
X0306505Y0129654D01*
X0309854Y0126305D01*
G37*
G36*
X0305122Y0121573D02*
X0301495Y0117946D01*
X0298146Y0121295D01*
X0301773Y0124922D01*
X0305122Y0121573D01*
G37*
M02*
