%
M48
M72
T01C0.0150
T02C0.0300
T03C0.0320
T04C0.0400
T05C0.0500
T06C0.1250
%
T01
X15300Y13030
X14950Y14180
X14650Y15580
X14650Y16130
X12750Y17480
X13050Y18280
X12550Y18980
X11750Y19580
X14850Y17580
X17150Y17630
X18750Y16030
X19350Y16180
X19650Y15830
X20450Y16630
X20850Y17230
X20150Y18080
X20150Y18505
X19900Y19130
X19450Y18830
X21450Y20630
X23050Y19680
X23550Y20130
X22000Y16180
X24725Y15530
X27350Y13130
X29700Y14255
X31450Y13330
X32150Y14230
X30350Y11630
X29950Y11330
X19050Y14180
X18650Y13530
X17650Y15130
X16650Y15630
T02
X12200Y10549
X12800Y10424
X13400Y10549
X14000Y10424
X16200Y9399
X16800Y9274
X17400Y9399
X18000Y9274
X20200Y10549
X20800Y10424
X21400Y10549
X22000Y10424
X22950Y14049
X23550Y13924
X24150Y14049
X24750Y13924
X24750Y17924
X24150Y18049
X23550Y17924
X22950Y18049
X22000Y21674
X21400Y21799
X20800Y21674
X20200Y21799
X18000Y22924
X17400Y23049
X16800Y22924
X16200Y23049
X14000Y21424
X13400Y21549
X12800Y21424
X12200Y21549
X11500Y17924
X10900Y18049
X10300Y17924
X9700Y18049
X9700Y14049
X10300Y13924
X10900Y14049
X11500Y13924
T03
X29400Y17880
X30400Y17880
T04
X28029Y19896
X25731Y21824
X19650Y19955
X18650Y19955
X17650Y19955
X16650Y19955
X15650Y19955
X14650Y19955
X8700Y19970
X8700Y21750
X6140Y21750
X6140Y19970
X5150Y14380
X4150Y14380
X3150Y14380
X24580Y9692
X25400Y10380
X26220Y11068
T05
X27150Y16030
X7150Y16030
T06
X1920Y16150
X32420Y16150
M30
