G75*
%MOIN*%
%OFA0B0*%
%FSLAX24Y24*%
%IPPOS*%
%LPD*%
%AMOC8*
5,1,8,0,0,1.08239X$1,22.5*
%
%ADD10C,0.0170*%
%ADD11C,0.0080*%
%ADD12C,0.0110*%
%ADD13C,0.0100*%
%ADD14R,0.1600X0.0400*%
D10*
X020311Y025566D02*
X020139Y025738D01*
X020139Y026597D01*
X020655Y026597D01*
X020827Y026425D01*
X020827Y026082D01*
X020655Y025910D01*
X020139Y025910D01*
X020311Y025566D02*
X020483Y025566D01*
X019722Y026082D02*
X019550Y026254D01*
X019034Y026254D01*
X019034Y026425D02*
X019034Y025910D01*
X019550Y025910D01*
X019722Y026082D01*
X019550Y026597D02*
X019206Y026597D01*
X019034Y026425D01*
X018617Y026425D02*
X018617Y026082D01*
X018445Y025910D01*
X018101Y025910D01*
X017929Y026254D02*
X018617Y026254D01*
X018617Y026425D02*
X018445Y026597D01*
X018101Y026597D01*
X017929Y026425D01*
X017929Y026254D01*
X017512Y026082D02*
X017340Y026254D01*
X016825Y026254D01*
X016825Y026425D02*
X016825Y025910D01*
X017340Y025910D01*
X017512Y026082D01*
X017340Y026597D02*
X016996Y026597D01*
X016825Y026425D01*
X015302Y026254D02*
X014786Y026254D01*
X014615Y026425D01*
X014615Y026769D01*
X014786Y026941D01*
X015302Y026941D01*
X015302Y025910D01*
X014197Y026082D02*
X014197Y026769D01*
X014025Y026941D01*
X013682Y026941D01*
X013510Y026769D01*
X013092Y026941D02*
X012577Y026941D01*
X012405Y026769D01*
X012405Y026597D01*
X012577Y026425D01*
X013092Y026425D01*
X013092Y025910D02*
X012577Y025910D01*
X012405Y026082D01*
X012405Y026254D01*
X012577Y026425D01*
X013092Y025910D02*
X013092Y026941D01*
X013510Y026082D02*
X013682Y025910D01*
X014025Y025910D01*
X014197Y026082D01*
X021244Y026082D02*
X021244Y026425D01*
X021416Y026597D01*
X021760Y026597D01*
X021932Y026425D01*
X021932Y026082D01*
X021760Y025910D01*
X021416Y025910D01*
X021244Y026082D01*
X022349Y026082D02*
X022521Y025910D01*
X023037Y025910D01*
X023037Y025566D02*
X023037Y026597D01*
X022521Y026597D01*
X022349Y026425D01*
X022349Y026082D01*
X023454Y025910D02*
X023454Y026597D01*
X023798Y026941D01*
X024141Y026597D01*
X024141Y025910D01*
X024141Y026425D02*
X023454Y026425D01*
X025664Y026769D02*
X025664Y026941D01*
X025664Y026769D02*
X026008Y026425D01*
X026008Y025910D01*
X026008Y026425D02*
X026351Y026769D01*
X026351Y026941D01*
X026744Y026941D02*
X027088Y026941D01*
X026916Y026941D02*
X026916Y025910D01*
X027088Y025910D02*
X026744Y025910D01*
X027506Y026082D02*
X027506Y026769D01*
X027677Y026941D01*
X028193Y026941D01*
X028193Y025910D01*
X027677Y025910D01*
X027506Y026082D01*
D11*
X013798Y015635D02*
X013798Y015115D01*
X013711Y015375D02*
X014058Y015375D01*
X013798Y015635D01*
X014437Y015635D02*
X014437Y015115D01*
X014610Y015115D02*
X014263Y015115D01*
X014610Y015462D02*
X014437Y015635D01*
X014816Y015549D02*
X014816Y015202D01*
X014903Y015115D01*
X015076Y015115D01*
X015163Y015202D01*
X014816Y015549D01*
X014903Y015635D01*
X015076Y015635D01*
X015163Y015549D01*
X015163Y015202D01*
X015368Y015115D02*
X015715Y015115D01*
X015368Y015462D01*
X015368Y015549D01*
X015455Y015635D01*
X015628Y015635D01*
X015715Y015549D01*
X016463Y015202D02*
X016549Y015202D01*
X016549Y015115D01*
X016463Y015115D01*
X016463Y015202D01*
X016463Y015115D02*
X016636Y014942D01*
X016842Y015202D02*
X016928Y015115D01*
X017188Y015115D01*
X017188Y015635D01*
X016928Y015635D01*
X016842Y015549D01*
X016842Y015462D01*
X016928Y015375D01*
X017188Y015375D01*
X016928Y015375D02*
X016842Y015288D01*
X016842Y015202D01*
X017946Y015115D02*
X018293Y015115D01*
X018293Y015635D01*
X017946Y015635D01*
X018120Y015375D02*
X018293Y015375D01*
X019041Y015115D02*
X019214Y015115D01*
X019127Y015115D02*
X019127Y015635D01*
X019214Y015635D01*
X019420Y015375D02*
X019420Y015288D01*
X019767Y015288D01*
X019767Y015202D02*
X019767Y015375D01*
X019680Y015462D01*
X019506Y015462D01*
X019420Y015375D01*
X019506Y015115D02*
X019680Y015115D01*
X019767Y015202D01*
X019972Y015202D02*
X019972Y015375D01*
X020059Y015462D01*
X020232Y015462D01*
X020319Y015375D01*
X020319Y015202D01*
X020232Y015115D01*
X020059Y015115D01*
X019972Y015202D01*
X020525Y015635D02*
X020698Y015635D01*
X020611Y015635D02*
X020611Y015202D01*
X020698Y015115D01*
X020785Y015115D01*
X020872Y015202D01*
X021630Y015115D02*
X021890Y015115D01*
X021977Y015202D01*
X021977Y015462D01*
X022182Y015375D02*
X022269Y015462D01*
X022529Y015462D01*
X022529Y015635D02*
X022529Y015115D01*
X022269Y015115D01*
X022182Y015202D01*
X022182Y015375D01*
X021630Y015462D02*
X021630Y015028D01*
X021716Y014942D01*
X021803Y014942D01*
X023287Y015115D02*
X023547Y015115D01*
X023634Y015202D01*
X023634Y015375D01*
X023547Y015462D01*
X023287Y015462D01*
X023287Y015635D02*
X023287Y015115D01*
X023840Y015288D02*
X024186Y015288D01*
X024186Y015202D02*
X024186Y015375D01*
X024100Y015462D01*
X023926Y015462D01*
X023840Y015375D01*
X023840Y015288D01*
X023926Y015115D02*
X024100Y015115D01*
X024186Y015202D01*
X024381Y015115D02*
X024468Y015202D01*
X024468Y015549D01*
X024555Y015462D02*
X024381Y015462D01*
X024760Y015375D02*
X024760Y015115D01*
X025021Y015115D01*
X025107Y015202D01*
X025021Y015288D01*
X024760Y015288D01*
X024760Y015375D02*
X024847Y015462D01*
X025021Y015462D01*
X025313Y015462D02*
X025573Y015462D01*
X025660Y015375D01*
X025660Y015202D01*
X025573Y015115D01*
X025313Y015115D01*
X025313Y015635D01*
X025865Y015375D02*
X025865Y015202D01*
X025952Y015115D01*
X026212Y015115D01*
X026212Y014942D02*
X026212Y015462D01*
X025952Y015462D01*
X025865Y015375D01*
X026418Y015202D02*
X026418Y015635D01*
X026765Y015635D02*
X026765Y015202D01*
X026678Y015115D01*
X026504Y015115D01*
X026418Y015202D01*
X025855Y017642D02*
X025768Y017642D01*
X025681Y017728D01*
X025681Y018162D01*
X025941Y018162D01*
X026028Y018075D01*
X026028Y017902D01*
X025941Y017815D01*
X025681Y017815D01*
X025476Y017815D02*
X025476Y018162D01*
X025215Y018162D01*
X025129Y018075D01*
X025129Y017815D01*
X024923Y017902D02*
X024923Y018075D01*
X024836Y018162D01*
X024663Y018162D01*
X024576Y018075D01*
X024576Y017988D01*
X024923Y017988D01*
X024923Y017902D02*
X024836Y017815D01*
X024663Y017815D01*
X024371Y017902D02*
X024371Y018075D01*
X024284Y018162D01*
X024024Y018162D01*
X024024Y018335D02*
X024024Y017815D01*
X024284Y017815D01*
X024371Y017902D01*
X023266Y017815D02*
X023005Y017815D01*
X022919Y017902D01*
X022919Y018075D01*
X023005Y018162D01*
X023266Y018162D01*
X023266Y018335D02*
X023266Y017815D01*
X022713Y017902D02*
X022713Y018162D01*
X022713Y017902D02*
X022626Y017815D01*
X022366Y017815D01*
X022366Y017728D02*
X022453Y017642D01*
X022540Y017642D01*
X022366Y017728D02*
X022366Y018162D01*
X021608Y017902D02*
X021522Y017815D01*
X021435Y017815D01*
X021348Y017902D01*
X021348Y018335D01*
X021435Y018335D02*
X021261Y018335D01*
X021056Y018075D02*
X021056Y017902D01*
X020969Y017815D01*
X020796Y017815D01*
X020709Y017902D01*
X020709Y018075D01*
X020796Y018162D01*
X020969Y018162D01*
X021056Y018075D01*
X020503Y018075D02*
X020417Y018162D01*
X020243Y018162D01*
X020156Y018075D01*
X020156Y017815D01*
X019951Y017815D02*
X019951Y018162D01*
X019691Y018162D01*
X019604Y018075D01*
X019604Y017815D01*
X018846Y017815D02*
X018499Y017815D01*
X018293Y017815D02*
X018293Y018162D01*
X018033Y018162D01*
X017946Y018075D01*
X017946Y017815D01*
X017741Y017902D02*
X017654Y017815D01*
X017394Y017815D01*
X017394Y017728D02*
X017394Y018162D01*
X017654Y018162D01*
X017741Y018075D01*
X017741Y017902D01*
X017567Y017642D02*
X017481Y017642D01*
X017394Y017728D01*
X017188Y017815D02*
X017015Y017815D01*
X017102Y017815D02*
X017102Y018335D01*
X017188Y018335D01*
X016820Y018162D02*
X016733Y018162D01*
X016733Y017815D01*
X016647Y017815D02*
X016820Y017815D01*
X016452Y017815D02*
X016192Y017815D01*
X016105Y017902D01*
X016192Y017988D01*
X016365Y017988D01*
X016452Y018075D01*
X016365Y018162D01*
X016105Y018162D01*
X015899Y018075D02*
X015813Y018162D01*
X015639Y018162D01*
X015552Y018075D01*
X015552Y017815D01*
X015347Y017642D02*
X015173Y017815D01*
X015260Y017815D01*
X015260Y017902D01*
X015173Y017902D01*
X015173Y017815D01*
X015899Y017815D02*
X015899Y018335D01*
X016733Y018335D02*
X016733Y018422D01*
X018499Y018335D02*
X018846Y018335D01*
X018846Y017815D01*
X018846Y018075D02*
X018672Y018075D01*
X020503Y018335D02*
X020503Y017815D01*
X020425Y023175D02*
X020925Y023175D01*
X021175Y023425D01*
X021175Y024925D01*
X021425Y025175D01*
X021925Y025175D01*
X022175Y024925D01*
X022175Y023425D01*
X021925Y023175D01*
X021425Y023175D01*
X021175Y023425D01*
X020425Y023175D02*
X020175Y023425D01*
X020175Y024925D01*
X020425Y025175D01*
X020925Y025175D01*
X021175Y024925D01*
X020175Y024925D02*
X019925Y025175D01*
X019425Y025175D01*
X019175Y024925D01*
X019175Y023425D01*
X019425Y023175D01*
X019925Y023175D01*
X020175Y023425D01*
X019925Y025307D02*
X019425Y025307D01*
X014339Y018335D02*
X014426Y018249D01*
X014339Y018335D02*
X014166Y018335D01*
X014079Y018249D01*
X014079Y018162D01*
X014426Y017815D01*
X014079Y017815D01*
X013874Y017902D02*
X013527Y018249D01*
X013527Y017902D01*
X013613Y017815D01*
X013787Y017815D01*
X013874Y017902D01*
X013874Y018249D01*
X013787Y018335D01*
X013613Y018335D01*
X013527Y018249D01*
X013321Y018162D02*
X013148Y018335D01*
X013148Y017815D01*
X013321Y017815D02*
X012974Y017815D01*
X012769Y017902D02*
X012682Y017815D01*
X012508Y017815D01*
X012422Y017902D01*
X012422Y017988D01*
X012508Y018075D01*
X012422Y018162D01*
X012422Y018249D01*
X012508Y018335D01*
X012682Y018335D01*
X012769Y018249D01*
X012595Y018075D02*
X012508Y018075D01*
X026223Y017815D02*
X026396Y017815D01*
X026310Y017815D02*
X026310Y018162D01*
X026396Y018162D01*
X026310Y018335D02*
X026310Y018422D01*
X026602Y018162D02*
X026862Y018162D01*
X026949Y018075D01*
X026862Y017988D01*
X026689Y017988D01*
X026602Y017902D01*
X026689Y017815D01*
X026949Y017815D01*
X027154Y017988D02*
X027501Y017988D01*
X027501Y017902D02*
X027501Y018075D01*
X027415Y018162D01*
X027241Y018162D01*
X027154Y018075D01*
X027154Y017988D01*
X027241Y017815D02*
X027415Y017815D01*
X027501Y017902D01*
X027707Y017902D02*
X027707Y018249D01*
X027794Y018335D01*
X028054Y018335D01*
X028054Y017815D01*
X027794Y017815D01*
X027707Y017902D01*
D12*
X027666Y021780D02*
X027535Y021912D01*
X027535Y022307D01*
X027233Y022307D02*
X027233Y021912D01*
X027101Y021780D01*
X026970Y021912D01*
X026838Y021780D01*
X026706Y021912D01*
X026706Y022307D01*
X026404Y021912D02*
X026273Y021912D01*
X026273Y021780D01*
X026404Y021780D01*
X026404Y021912D01*
X025990Y021912D02*
X025858Y021780D01*
X025463Y021780D01*
X025463Y021648D02*
X025463Y022307D01*
X025858Y022307D01*
X025990Y022175D01*
X025990Y021912D01*
X025726Y021516D02*
X025595Y021516D01*
X025463Y021648D01*
X025161Y021780D02*
X024898Y021780D01*
X025030Y021780D02*
X025030Y022307D01*
X025161Y022307D01*
X025030Y022571D02*
X025030Y022702D01*
X024609Y022307D02*
X024345Y022307D01*
X024477Y022439D02*
X024477Y021912D01*
X024345Y021780D01*
X024056Y021780D02*
X024056Y022571D01*
X023925Y022307D02*
X023661Y022307D01*
X023529Y022175D01*
X023529Y021780D01*
X023228Y021912D02*
X023096Y021780D01*
X022701Y021780D01*
X022701Y022307D01*
X022399Y022307D02*
X022004Y022307D01*
X021872Y022175D01*
X021872Y021912D01*
X022004Y021780D01*
X022399Y021780D01*
X022399Y022571D01*
X023228Y022307D02*
X023228Y021912D01*
X023925Y022307D02*
X024056Y022175D01*
X021570Y021912D02*
X021570Y021780D01*
X021438Y021780D01*
X021438Y021912D01*
X021570Y021912D01*
X021156Y021912D02*
X021024Y021780D01*
X020629Y021780D01*
X020327Y021912D02*
X020195Y021780D01*
X019932Y021780D01*
X019800Y021912D01*
X019800Y022175D01*
X019932Y022307D01*
X020195Y022307D01*
X020327Y022175D01*
X020327Y021912D01*
X020629Y022307D02*
X021024Y022307D01*
X021156Y022175D01*
X021156Y021912D01*
X019498Y021780D02*
X019498Y022307D01*
X019367Y022307D01*
X019235Y022175D01*
X019103Y022307D01*
X018971Y022175D01*
X018971Y021780D01*
X019235Y021780D02*
X019235Y022175D01*
X018670Y021780D02*
X018143Y022571D01*
X017709Y022307D02*
X017446Y022307D01*
X017314Y022175D01*
X017314Y021780D01*
X017709Y021780D01*
X017841Y021912D01*
X017709Y022044D01*
X017314Y022044D01*
X017012Y022307D02*
X016617Y022307D01*
X016485Y022175D01*
X016485Y021912D01*
X016617Y021780D01*
X017012Y021780D01*
X017012Y021516D02*
X017012Y022307D01*
X016184Y022175D02*
X016184Y021912D01*
X016052Y021780D01*
X015788Y021780D01*
X015657Y021912D01*
X015657Y022175D01*
X015788Y022307D01*
X016052Y022307D01*
X016184Y022175D01*
X015355Y022307D02*
X014960Y022307D01*
X014828Y022175D01*
X014828Y021912D01*
X014960Y021780D01*
X015355Y021780D01*
X015355Y022571D01*
X014526Y022175D02*
X014526Y021912D01*
X014394Y021780D01*
X014131Y021780D01*
X013999Y021912D01*
X013999Y022175D01*
X014131Y022307D01*
X014394Y022307D01*
X014526Y022175D01*
X013698Y021912D02*
X013566Y021780D01*
X013170Y021780D01*
X013170Y022175D01*
X013302Y022307D01*
X013566Y022307D01*
X013566Y022044D02*
X013170Y022044D01*
X012869Y022044D02*
X012605Y022307D01*
X012473Y022307D01*
X012178Y022175D02*
X012046Y022307D01*
X011651Y022307D01*
X011651Y022571D02*
X011651Y021780D01*
X012046Y021780D01*
X012178Y021912D01*
X012178Y022175D01*
X012869Y022307D02*
X012869Y021780D01*
X013566Y022044D02*
X013698Y021912D01*
X027666Y021780D02*
X027798Y021912D01*
X027930Y021780D01*
X028062Y021912D01*
X028062Y022307D01*
X028363Y022307D02*
X028363Y021912D01*
X028495Y021780D01*
X028627Y021912D01*
X028759Y021780D01*
X028890Y021912D01*
X028890Y022307D01*
D13*
X033395Y025865D02*
X034955Y025865D01*
X035016Y025907D01*
X035076Y025953D01*
X035132Y026002D01*
X035186Y026053D01*
X035237Y026107D01*
X035286Y026164D01*
X035331Y026224D01*
X035373Y026285D01*
X035412Y026349D01*
X035448Y026415D01*
X035480Y026482D01*
X035508Y026551D01*
X035533Y026621D01*
X035554Y026693D01*
X035571Y026766D01*
X035585Y026839D01*
X035594Y026913D01*
X035600Y026987D01*
X035602Y027062D01*
X035600Y027137D01*
X035594Y027211D01*
X035584Y027285D01*
X035570Y027358D01*
X035553Y027431D01*
X035532Y027503D01*
X035507Y027573D01*
X035478Y027642D01*
X035446Y027709D01*
X035410Y027775D01*
X035371Y027838D01*
X035329Y027900D01*
X035283Y027959D01*
X035235Y028016D01*
X035183Y028070D01*
X035129Y028121D01*
X035072Y028170D01*
X035013Y028215D01*
X034952Y028257D01*
X034888Y028296D01*
X034822Y028332D01*
X034755Y028364D01*
X034686Y028392D01*
X034616Y028417D01*
X034544Y028438D01*
X034471Y028456D01*
X034398Y028469D01*
X034324Y028479D01*
X034250Y028485D01*
X034175Y028487D01*
X034100Y028485D01*
X034026Y028479D01*
X033952Y028469D01*
X033879Y028456D01*
X033806Y028438D01*
X033734Y028417D01*
X033664Y028392D01*
X033595Y028364D01*
X033528Y028332D01*
X033462Y028296D01*
X033398Y028257D01*
X033337Y028215D01*
X033278Y028170D01*
X033221Y028121D01*
X033167Y028070D01*
X033115Y028016D01*
X033067Y027959D01*
X033021Y027900D01*
X032979Y027838D01*
X032940Y027775D01*
X032904Y027709D01*
X032872Y027642D01*
X032843Y027573D01*
X032818Y027503D01*
X032797Y027431D01*
X032780Y027358D01*
X032766Y027285D01*
X032756Y027211D01*
X032750Y027137D01*
X032748Y027062D01*
X032750Y026987D01*
X032756Y026913D01*
X032765Y026839D01*
X032779Y026766D01*
X032796Y026693D01*
X032817Y026621D01*
X032842Y026551D01*
X032870Y026482D01*
X032902Y026415D01*
X032938Y026349D01*
X032977Y026285D01*
X033019Y026224D01*
X033064Y026164D01*
X033113Y026107D01*
X033164Y026053D01*
X033218Y026002D01*
X033274Y025953D01*
X033334Y025907D01*
X033395Y025865D01*
X020955Y003865D02*
X021016Y003907D01*
X021076Y003953D01*
X021132Y004002D01*
X021186Y004053D01*
X021237Y004107D01*
X021286Y004164D01*
X021331Y004224D01*
X021373Y004285D01*
X021412Y004349D01*
X021448Y004415D01*
X021480Y004482D01*
X021508Y004551D01*
X021533Y004621D01*
X021554Y004693D01*
X021571Y004766D01*
X021585Y004839D01*
X021594Y004913D01*
X021600Y004987D01*
X021602Y005062D01*
X021600Y005137D01*
X021594Y005211D01*
X021584Y005285D01*
X021570Y005358D01*
X021553Y005431D01*
X021532Y005503D01*
X021507Y005573D01*
X021478Y005642D01*
X021446Y005709D01*
X021410Y005775D01*
X021371Y005838D01*
X021329Y005900D01*
X021283Y005959D01*
X021235Y006016D01*
X021183Y006070D01*
X021129Y006121D01*
X021072Y006170D01*
X021013Y006215D01*
X020952Y006257D01*
X020888Y006296D01*
X020822Y006332D01*
X020755Y006364D01*
X020686Y006392D01*
X020616Y006417D01*
X020544Y006438D01*
X020471Y006456D01*
X020398Y006469D01*
X020324Y006479D01*
X020250Y006485D01*
X020175Y006487D01*
X020100Y006485D01*
X020026Y006479D01*
X019952Y006469D01*
X019879Y006456D01*
X019806Y006438D01*
X019734Y006417D01*
X019664Y006392D01*
X019595Y006364D01*
X019528Y006332D01*
X019462Y006296D01*
X019398Y006257D01*
X019337Y006215D01*
X019278Y006170D01*
X019221Y006121D01*
X019167Y006070D01*
X019115Y006016D01*
X019067Y005959D01*
X019021Y005900D01*
X018979Y005838D01*
X018940Y005775D01*
X018904Y005709D01*
X018872Y005642D01*
X018843Y005573D01*
X018818Y005503D01*
X018797Y005431D01*
X018780Y005358D01*
X018766Y005285D01*
X018756Y005211D01*
X018750Y005137D01*
X018748Y005062D01*
X018750Y004987D01*
X018756Y004913D01*
X018765Y004839D01*
X018779Y004766D01*
X018796Y004693D01*
X018817Y004621D01*
X018842Y004551D01*
X018870Y004482D01*
X018902Y004415D01*
X018938Y004349D01*
X018977Y004285D01*
X019019Y004224D01*
X019064Y004164D01*
X019113Y004107D01*
X019164Y004053D01*
X019218Y004002D01*
X019274Y003953D01*
X019334Y003907D01*
X019395Y003865D01*
X020955Y003865D01*
X006955Y025865D02*
X005395Y025865D01*
X005334Y025907D01*
X005274Y025953D01*
X005218Y026002D01*
X005164Y026053D01*
X005113Y026107D01*
X005064Y026164D01*
X005019Y026224D01*
X004977Y026285D01*
X004938Y026349D01*
X004902Y026415D01*
X004870Y026482D01*
X004842Y026551D01*
X004817Y026621D01*
X004796Y026693D01*
X004779Y026766D01*
X004765Y026839D01*
X004756Y026913D01*
X004750Y026987D01*
X004748Y027062D01*
X004750Y027137D01*
X004756Y027211D01*
X004766Y027285D01*
X004780Y027358D01*
X004797Y027431D01*
X004818Y027503D01*
X004843Y027573D01*
X004872Y027642D01*
X004904Y027709D01*
X004940Y027775D01*
X004979Y027838D01*
X005021Y027900D01*
X005067Y027959D01*
X005115Y028016D01*
X005167Y028070D01*
X005221Y028121D01*
X005278Y028170D01*
X005337Y028215D01*
X005398Y028257D01*
X005462Y028296D01*
X005528Y028332D01*
X005595Y028364D01*
X005664Y028392D01*
X005734Y028417D01*
X005806Y028438D01*
X005879Y028456D01*
X005952Y028469D01*
X006026Y028479D01*
X006100Y028485D01*
X006175Y028487D01*
X006250Y028485D01*
X006324Y028479D01*
X006398Y028469D01*
X006471Y028456D01*
X006544Y028438D01*
X006616Y028417D01*
X006686Y028392D01*
X006755Y028364D01*
X006822Y028332D01*
X006888Y028296D01*
X006952Y028257D01*
X007013Y028215D01*
X007072Y028170D01*
X007129Y028121D01*
X007183Y028070D01*
X007235Y028016D01*
X007283Y027959D01*
X007329Y027900D01*
X007371Y027838D01*
X007410Y027775D01*
X007446Y027709D01*
X007478Y027642D01*
X007507Y027573D01*
X007532Y027503D01*
X007553Y027431D01*
X007570Y027358D01*
X007584Y027285D01*
X007594Y027211D01*
X007600Y027137D01*
X007602Y027062D01*
X007600Y026987D01*
X007594Y026913D01*
X007585Y026839D01*
X007571Y026766D01*
X007554Y026693D01*
X007533Y026621D01*
X007508Y026551D01*
X007480Y026482D01*
X007448Y026415D01*
X007412Y026349D01*
X007373Y026285D01*
X007331Y026224D01*
X007286Y026164D01*
X007237Y026107D01*
X007186Y026053D01*
X007132Y026002D01*
X007076Y025953D01*
X007016Y025907D01*
X006955Y025865D01*
D14*
X006175Y026775D03*
X020175Y004775D03*
X034175Y026775D03*
M02*
