G75*
%MOIN*%
%OFA0B0*%
%FSLAX24Y24*%
%IPPOS*%
%LPD*%
%AMOC8*
5,1,8,0,0,1.08239X$1,22.5*
%
%ADD10C,0.0000*%
%ADD11C,0.0591*%
%ADD12C,0.0740*%
%ADD13C,0.0800*%
%ADD14C,0.0480*%
%ADD15C,0.0650*%
%ADD16R,0.0413X0.0217*%
%ADD17C,0.0495*%
%ADD18C,0.0915*%
%ADD19OC8,0.0740*%
%ADD20C,0.0900*%
%ADD21C,0.0240*%
%ADD22C,0.0150*%
%ADD23C,0.0360*%
%ADD24C,0.0300*%
%ADD25C,0.0220*%
%ADD26C,0.0320*%
%ADD27C,0.0100*%
D10*
X008675Y013175D02*
X014690Y012712D01*
X015445Y012270D02*
X018675Y007425D01*
X018590Y007366D01*
X018508Y007304D01*
X018428Y007239D01*
X018351Y007171D01*
X018276Y007100D01*
X018204Y007026D01*
X018135Y006950D01*
X018069Y006871D01*
X018006Y006789D01*
X017946Y006705D01*
X017889Y006619D01*
X017836Y006531D01*
X017786Y006441D01*
X017739Y006349D01*
X017696Y006256D01*
X017657Y006160D01*
X017621Y006064D01*
X017589Y005966D01*
X017561Y005867D01*
X017536Y005766D01*
X017516Y005666D01*
X017499Y005564D01*
X017486Y005462D01*
X017477Y005359D01*
X017472Y005256D01*
X017471Y005153D01*
X017474Y005050D01*
X017481Y004947D01*
X017491Y004845D01*
X017506Y004743D01*
X017524Y004641D01*
X017546Y004541D01*
X017573Y004441D01*
X017602Y004342D01*
X017636Y004245D01*
X017673Y004149D01*
X017714Y004054D01*
X017759Y003961D01*
X017807Y003870D01*
X017858Y003781D01*
X017913Y003693D01*
X017971Y003608D01*
X018032Y003526D01*
X018097Y003445D01*
X018164Y003367D01*
X018235Y003292D01*
X018308Y003219D01*
X018384Y003150D01*
X018462Y003083D01*
X018543Y003019D01*
X018626Y002958D01*
X018712Y002901D01*
X018800Y002847D01*
X018889Y002796D01*
X018981Y002749D01*
X019074Y002705D01*
X019169Y002665D01*
X019266Y002629D01*
X019363Y002596D01*
X019462Y002567D01*
X019562Y002541D01*
X019663Y002520D01*
X019764Y002502D01*
X019866Y002489D01*
X019969Y002479D01*
X020072Y002473D01*
X020175Y002471D01*
X020278Y002473D01*
X020381Y002479D01*
X020484Y002489D01*
X020586Y002502D01*
X020687Y002520D01*
X020788Y002541D01*
X020888Y002567D01*
X020987Y002596D01*
X021084Y002629D01*
X021181Y002665D01*
X021276Y002705D01*
X021369Y002749D01*
X021461Y002796D01*
X021550Y002847D01*
X021638Y002901D01*
X021724Y002958D01*
X021807Y003019D01*
X021888Y003083D01*
X021966Y003150D01*
X022042Y003219D01*
X022115Y003292D01*
X022186Y003367D01*
X022253Y003445D01*
X022318Y003526D01*
X022379Y003608D01*
X022437Y003693D01*
X022492Y003781D01*
X022543Y003870D01*
X022591Y003961D01*
X022636Y004054D01*
X022677Y004149D01*
X022714Y004245D01*
X022748Y004342D01*
X022777Y004441D01*
X022804Y004541D01*
X022826Y004641D01*
X022844Y004743D01*
X022859Y004845D01*
X022869Y004947D01*
X022876Y005050D01*
X022879Y005153D01*
X022878Y005256D01*
X022873Y005359D01*
X022864Y005462D01*
X022851Y005564D01*
X022834Y005666D01*
X022814Y005766D01*
X022789Y005867D01*
X022761Y005966D01*
X022729Y006064D01*
X022693Y006160D01*
X022654Y006256D01*
X022611Y006349D01*
X022564Y006441D01*
X022514Y006531D01*
X022461Y006619D01*
X022404Y006705D01*
X022344Y006789D01*
X022281Y006871D01*
X022215Y006950D01*
X022146Y007026D01*
X022074Y007100D01*
X021999Y007171D01*
X021922Y007239D01*
X021842Y007304D01*
X021760Y007366D01*
X021675Y007425D01*
X024905Y012270D01*
X025660Y012712D02*
X031675Y013175D01*
X031674Y013175D02*
X031682Y013072D01*
X031694Y012970D01*
X031709Y012868D01*
X031729Y012767D01*
X031752Y012667D01*
X031779Y012568D01*
X031810Y012469D01*
X031844Y012372D01*
X031883Y012277D01*
X031924Y012183D01*
X031970Y012090D01*
X032019Y012000D01*
X032071Y011911D01*
X032126Y011824D01*
X032185Y011740D01*
X032247Y011658D01*
X032313Y011578D01*
X032381Y011501D01*
X032452Y011427D01*
X032526Y011355D01*
X032602Y011286D01*
X032681Y011220D01*
X032763Y011157D01*
X032846Y011097D01*
X032932Y011041D01*
X033021Y010988D01*
X033111Y010938D01*
X033203Y010892D01*
X033296Y010849D01*
X033392Y010810D01*
X033488Y010774D01*
X033586Y010743D01*
X033685Y010715D01*
X033785Y010690D01*
X033886Y010670D01*
X033988Y010653D01*
X034090Y010641D01*
X034192Y010632D01*
X034295Y010627D01*
X034398Y010626D01*
X034501Y010629D01*
X034604Y010636D01*
X034706Y010647D01*
X034808Y010662D01*
X034909Y010680D01*
X035010Y010703D01*
X035109Y010729D01*
X035208Y010759D01*
X035305Y010793D01*
X035401Y010830D01*
X035495Y010871D01*
X035588Y010916D01*
X035679Y010964D01*
X035768Y011015D01*
X035855Y011070D01*
X035940Y011129D01*
X036023Y011190D01*
X036103Y011254D01*
X036181Y011322D01*
X036256Y011392D01*
X036328Y011466D01*
X036398Y011541D01*
X036464Y011620D01*
X036528Y011701D01*
X036588Y011784D01*
X036645Y011870D01*
X036699Y011958D01*
X036750Y012047D01*
X036797Y012139D01*
X036840Y012232D01*
X036880Y012327D01*
X036916Y012423D01*
X036949Y012521D01*
X036978Y012620D01*
X037003Y012720D01*
X037024Y012820D01*
X037041Y012922D01*
X037055Y013024D01*
X037065Y013126D01*
X037070Y013229D01*
X037072Y013332D01*
X037070Y013435D01*
X037064Y013538D01*
X037054Y013640D01*
X037040Y013742D01*
X037022Y013844D01*
X037001Y013944D01*
X036975Y014044D01*
X036946Y014143D01*
X036913Y014240D01*
X036876Y014336D01*
X036836Y014431D01*
X036792Y014524D01*
X036745Y014616D01*
X036694Y014705D01*
X036640Y014793D01*
X036582Y014878D01*
X036522Y014961D01*
X036458Y015042D01*
X036391Y015120D01*
X036321Y015196D01*
X036248Y015269D01*
X036173Y015339D01*
X036095Y015406D01*
X036015Y015470D01*
X035932Y015531D01*
X035847Y015589D01*
X035759Y015644D01*
X035670Y015695D01*
X035579Y015743D01*
X035486Y015787D01*
X035391Y015828D01*
X035295Y015865D01*
X035198Y015898D01*
X035099Y015928D01*
X035000Y015954D01*
X034899Y015976D01*
X034798Y015994D01*
X034696Y016008D01*
X034594Y016019D01*
X034491Y016025D01*
X034388Y016028D01*
X034285Y016027D01*
X034182Y016021D01*
X034080Y016012D01*
X033978Y015999D01*
X033876Y015982D01*
X033775Y015961D01*
X033675Y015937D01*
X033576Y015908D01*
X033478Y015876D01*
X033382Y015840D01*
X033287Y015801D01*
X033193Y015758D01*
X033194Y015757D02*
X030561Y019610D01*
X030560Y019611D02*
X030528Y019661D01*
X030499Y019714D01*
X030473Y019768D01*
X030450Y019823D01*
X030431Y019880D01*
X030415Y019938D01*
X030402Y019996D01*
X030393Y020056D01*
X030388Y020115D01*
X030386Y020175D01*
X030388Y020235D01*
X030393Y020295D01*
X030402Y020354D01*
X030415Y020413D01*
X030431Y020471D01*
X030450Y020527D01*
X030473Y020583D01*
X030499Y020637D01*
X030528Y020689D01*
X030561Y020740D01*
X030561Y020739D02*
X033314Y024764D01*
X033409Y024728D01*
X033505Y024695D01*
X033603Y024666D01*
X033701Y024641D01*
X033801Y024619D01*
X033901Y024602D01*
X034002Y024588D01*
X034103Y024579D01*
X034204Y024573D01*
X034306Y024571D01*
X034408Y024573D01*
X034509Y024579D01*
X034610Y024589D01*
X034711Y024603D01*
X034811Y024621D01*
X034911Y024642D01*
X035009Y024668D01*
X035106Y024697D01*
X035203Y024730D01*
X035297Y024766D01*
X035391Y024807D01*
X035482Y024851D01*
X035572Y024898D01*
X035660Y024949D01*
X035747Y025003D01*
X035830Y025060D01*
X035912Y025121D01*
X035991Y025185D01*
X036068Y025252D01*
X036142Y025321D01*
X036213Y025394D01*
X036281Y025469D01*
X036347Y025547D01*
X036409Y025627D01*
X036468Y025710D01*
X036524Y025795D01*
X036577Y025882D01*
X036626Y025971D01*
X036672Y026062D01*
X036714Y026154D01*
X036753Y026248D01*
X036788Y026344D01*
X036819Y026440D01*
X036847Y026538D01*
X036870Y026637D01*
X036890Y026737D01*
X036906Y026837D01*
X036918Y026938D01*
X036926Y027040D01*
X036930Y027141D01*
X036931Y027243D01*
X036927Y027344D01*
X036919Y027446D01*
X036908Y027547D01*
X036892Y027647D01*
X036873Y027747D01*
X036850Y027846D01*
X036823Y027944D01*
X036792Y028041D01*
X036758Y028137D01*
X036720Y028231D01*
X036678Y028324D01*
X036633Y028415D01*
X036584Y028504D01*
X036532Y028591D01*
X036476Y028676D01*
X036418Y028759D01*
X036356Y028840D01*
X036291Y028918D01*
X036223Y028994D01*
X036152Y029067D01*
X036078Y029137D01*
X036002Y029204D01*
X035923Y029268D01*
X035842Y029329D01*
X035758Y029387D01*
X035673Y029442D01*
X035585Y029493D01*
X035495Y029541D01*
X035404Y029585D01*
X035310Y029626D01*
X035216Y029663D01*
X035120Y029697D01*
X035023Y029727D01*
X034924Y029753D01*
X034825Y029775D01*
X034725Y029793D01*
X034624Y029807D01*
X034523Y029818D01*
X034422Y029824D01*
X034320Y029827D01*
X034218Y029826D01*
X034117Y029820D01*
X034016Y029811D01*
X033915Y029798D01*
X033815Y029781D01*
X033715Y029760D01*
X033616Y029736D01*
X033519Y029707D01*
X033422Y029675D01*
X033327Y029639D01*
X033234Y029600D01*
X033141Y029556D01*
X033051Y029510D01*
X032963Y029460D01*
X032876Y029406D01*
X032792Y029349D01*
X032710Y029289D01*
X032630Y029226D01*
X032553Y029160D01*
X032479Y029091D01*
X032407Y029019D01*
X032338Y028944D01*
X032272Y028867D01*
X032209Y028787D01*
X032149Y028705D01*
X032092Y028620D01*
X032039Y028534D01*
X031989Y028445D01*
X031943Y028355D01*
X031900Y028262D01*
X031860Y028169D01*
X031825Y028073D01*
X031793Y027977D01*
X031765Y027879D01*
X031740Y027780D01*
X031720Y027681D01*
X031703Y027581D01*
X031690Y027480D01*
X031681Y027378D01*
X031676Y027277D01*
X031675Y027175D01*
X025660Y027638D01*
X024905Y028080D02*
X021675Y032925D01*
X019175Y035175D02*
X019177Y035238D01*
X019183Y035300D01*
X019193Y035362D01*
X019206Y035424D01*
X019224Y035484D01*
X019245Y035543D01*
X019270Y035601D01*
X019299Y035657D01*
X019331Y035711D01*
X019366Y035763D01*
X019404Y035812D01*
X019446Y035860D01*
X019490Y035904D01*
X019538Y035946D01*
X019587Y035984D01*
X019639Y036019D01*
X019693Y036051D01*
X019749Y036080D01*
X019807Y036105D01*
X019866Y036126D01*
X019926Y036144D01*
X019988Y036157D01*
X020050Y036167D01*
X020112Y036173D01*
X020175Y036175D01*
X020238Y036173D01*
X020300Y036167D01*
X020362Y036157D01*
X020424Y036144D01*
X020484Y036126D01*
X020543Y036105D01*
X020601Y036080D01*
X020657Y036051D01*
X020711Y036019D01*
X020763Y035984D01*
X020812Y035946D01*
X020860Y035904D01*
X020904Y035860D01*
X020946Y035812D01*
X020984Y035763D01*
X021019Y035711D01*
X021051Y035657D01*
X021080Y035601D01*
X021105Y035543D01*
X021126Y035484D01*
X021144Y035424D01*
X021157Y035362D01*
X021167Y035300D01*
X021173Y035238D01*
X021175Y035175D01*
X021173Y035112D01*
X021167Y035050D01*
X021157Y034988D01*
X021144Y034926D01*
X021126Y034866D01*
X021105Y034807D01*
X021080Y034749D01*
X021051Y034693D01*
X021019Y034639D01*
X020984Y034587D01*
X020946Y034538D01*
X020904Y034490D01*
X020860Y034446D01*
X020812Y034404D01*
X020763Y034366D01*
X020711Y034331D01*
X020657Y034299D01*
X020601Y034270D01*
X020543Y034245D01*
X020484Y034224D01*
X020424Y034206D01*
X020362Y034193D01*
X020300Y034183D01*
X020238Y034177D01*
X020175Y034175D01*
X020112Y034177D01*
X020050Y034183D01*
X019988Y034193D01*
X019926Y034206D01*
X019866Y034224D01*
X019807Y034245D01*
X019749Y034270D01*
X019693Y034299D01*
X019639Y034331D01*
X019587Y034366D01*
X019538Y034404D01*
X019490Y034446D01*
X019446Y034490D01*
X019404Y034538D01*
X019366Y034587D01*
X019331Y034639D01*
X019299Y034693D01*
X019270Y034749D01*
X019245Y034807D01*
X019224Y034866D01*
X019206Y034926D01*
X019193Y034988D01*
X019183Y035050D01*
X019177Y035112D01*
X019175Y035175D01*
X018675Y032925D02*
X018590Y032984D01*
X018508Y033046D01*
X018428Y033111D01*
X018351Y033179D01*
X018276Y033250D01*
X018204Y033324D01*
X018135Y033400D01*
X018069Y033479D01*
X018006Y033561D01*
X017946Y033645D01*
X017889Y033731D01*
X017836Y033819D01*
X017786Y033909D01*
X017739Y034001D01*
X017696Y034094D01*
X017657Y034190D01*
X017621Y034286D01*
X017589Y034384D01*
X017561Y034483D01*
X017536Y034584D01*
X017516Y034684D01*
X017499Y034786D01*
X017486Y034888D01*
X017477Y034991D01*
X017472Y035094D01*
X017471Y035197D01*
X017474Y035300D01*
X017481Y035403D01*
X017491Y035505D01*
X017506Y035607D01*
X017524Y035709D01*
X017546Y035809D01*
X017573Y035909D01*
X017602Y036008D01*
X017636Y036105D01*
X017673Y036201D01*
X017714Y036296D01*
X017759Y036389D01*
X017807Y036480D01*
X017858Y036569D01*
X017913Y036657D01*
X017971Y036742D01*
X018032Y036824D01*
X018097Y036905D01*
X018164Y036983D01*
X018235Y037058D01*
X018308Y037131D01*
X018384Y037200D01*
X018462Y037267D01*
X018543Y037331D01*
X018626Y037392D01*
X018712Y037449D01*
X018800Y037503D01*
X018889Y037554D01*
X018981Y037601D01*
X019074Y037645D01*
X019169Y037685D01*
X019266Y037721D01*
X019363Y037754D01*
X019462Y037783D01*
X019562Y037809D01*
X019663Y037830D01*
X019764Y037848D01*
X019866Y037861D01*
X019969Y037871D01*
X020072Y037877D01*
X020175Y037879D01*
X020278Y037877D01*
X020381Y037871D01*
X020484Y037861D01*
X020586Y037848D01*
X020687Y037830D01*
X020788Y037809D01*
X020888Y037783D01*
X020987Y037754D01*
X021084Y037721D01*
X021181Y037685D01*
X021276Y037645D01*
X021369Y037601D01*
X021461Y037554D01*
X021550Y037503D01*
X021638Y037449D01*
X021724Y037392D01*
X021807Y037331D01*
X021888Y037267D01*
X021966Y037200D01*
X022042Y037131D01*
X022115Y037058D01*
X022186Y036983D01*
X022253Y036905D01*
X022318Y036824D01*
X022379Y036742D01*
X022437Y036657D01*
X022492Y036569D01*
X022543Y036480D01*
X022591Y036389D01*
X022636Y036296D01*
X022677Y036201D01*
X022714Y036105D01*
X022748Y036008D01*
X022777Y035909D01*
X022804Y035809D01*
X022826Y035709D01*
X022844Y035607D01*
X022859Y035505D01*
X022869Y035403D01*
X022876Y035300D01*
X022879Y035197D01*
X022878Y035094D01*
X022873Y034991D01*
X022864Y034888D01*
X022851Y034786D01*
X022834Y034684D01*
X022814Y034584D01*
X022789Y034483D01*
X022761Y034384D01*
X022729Y034286D01*
X022693Y034190D01*
X022654Y034094D01*
X022611Y034001D01*
X022564Y033909D01*
X022514Y033819D01*
X022461Y033731D01*
X022404Y033645D01*
X022344Y033561D01*
X022281Y033479D01*
X022215Y033400D01*
X022146Y033324D01*
X022074Y033250D01*
X021999Y033179D01*
X021922Y033111D01*
X021842Y033046D01*
X021760Y032984D01*
X021675Y032925D01*
X018675Y032925D02*
X015445Y028080D01*
X014690Y027638D02*
X008675Y027175D01*
X008673Y027274D01*
X008667Y027374D01*
X008657Y027473D01*
X008643Y027572D01*
X008625Y027670D01*
X008603Y027767D01*
X008578Y027863D01*
X008549Y027958D01*
X008516Y028052D01*
X008479Y028145D01*
X008439Y028236D01*
X008395Y028325D01*
X008348Y028413D01*
X008298Y028499D01*
X008244Y028583D01*
X008186Y028664D01*
X008126Y028743D01*
X008063Y028820D01*
X007996Y028894D01*
X007927Y028966D01*
X007855Y029035D01*
X007780Y029101D01*
X007703Y029164D01*
X007624Y029223D01*
X007542Y029280D01*
X007458Y029334D01*
X007372Y029384D01*
X007284Y029430D01*
X007194Y029474D01*
X007103Y029513D01*
X007010Y029549D01*
X006916Y029581D01*
X006820Y029610D01*
X006724Y029635D01*
X006626Y029656D01*
X006528Y029673D01*
X006430Y029686D01*
X006330Y029696D01*
X006231Y029701D01*
X006131Y029703D01*
X006032Y029701D01*
X005933Y029694D01*
X005833Y029684D01*
X005735Y029670D01*
X005637Y029653D01*
X005540Y029631D01*
X005443Y029605D01*
X005348Y029576D01*
X005254Y029543D01*
X005162Y029507D01*
X005071Y029466D01*
X004981Y029423D01*
X004893Y029375D01*
X004808Y029325D01*
X004724Y029271D01*
X004643Y029213D01*
X004563Y029153D01*
X004487Y029090D01*
X004412Y029023D01*
X004341Y028954D01*
X004272Y028882D01*
X004206Y028807D01*
X004143Y028730D01*
X004084Y028650D01*
X004027Y028568D01*
X003974Y028484D01*
X003924Y028398D01*
X003877Y028310D01*
X003834Y028220D01*
X003794Y028129D01*
X003758Y028036D01*
X003726Y027942D01*
X003698Y027847D01*
X003673Y027750D01*
X003652Y027653D01*
X003635Y027555D01*
X003621Y027456D01*
X003612Y027357D01*
X003607Y027257D01*
X003605Y027158D01*
X003607Y027058D01*
X003614Y026959D01*
X003624Y026860D01*
X003638Y026761D01*
X003656Y026663D01*
X003677Y026566D01*
X003703Y026470D01*
X003732Y026375D01*
X003765Y026281D01*
X003802Y026188D01*
X003842Y026097D01*
X003886Y026008D01*
X003933Y025920D01*
X003984Y025834D01*
X004038Y025751D01*
X004096Y025669D01*
X004156Y025590D01*
X004219Y025513D01*
X004286Y025439D01*
X004355Y025368D01*
X004427Y025299D01*
X004502Y025233D01*
X004579Y025170D01*
X004659Y025111D01*
X004741Y025054D01*
X004825Y025001D01*
X004911Y024951D01*
X004999Y024904D01*
X005089Y024861D01*
X005180Y024822D01*
X005273Y024786D01*
X005368Y024754D01*
X005463Y024725D01*
X005559Y024700D01*
X005657Y024679D01*
X005755Y024662D01*
X005854Y024649D01*
X005953Y024640D01*
X006052Y024635D01*
X006152Y024633D01*
X006251Y024635D01*
X006351Y024642D01*
X006450Y024652D01*
X006548Y024666D01*
X006646Y024684D01*
X006743Y024706D01*
X006840Y024731D01*
X006935Y024761D01*
X007029Y024794D01*
X007121Y024831D01*
X007121Y024830D02*
X009808Y020735D01*
X009808Y020734D02*
X009841Y020682D01*
X009870Y020627D01*
X009895Y020570D01*
X009917Y020512D01*
X009936Y020453D01*
X009950Y020392D01*
X009961Y020331D01*
X009968Y020270D01*
X009972Y020208D01*
X009971Y020146D01*
X009967Y020084D01*
X009958Y020022D01*
X009946Y019961D01*
X009931Y019901D01*
X009911Y019842D01*
X009888Y019785D01*
X009861Y019729D01*
X009831Y019674D01*
X009798Y019622D01*
X009797Y019622D02*
X007156Y015757D01*
X007157Y015757D02*
X007064Y015800D01*
X006969Y015840D01*
X006872Y015875D01*
X006774Y015908D01*
X006675Y015936D01*
X006575Y015961D01*
X006475Y015981D01*
X006373Y015998D01*
X006271Y016011D01*
X006169Y016020D01*
X006066Y016026D01*
X005963Y016027D01*
X005860Y016024D01*
X005757Y016018D01*
X005655Y016007D01*
X005553Y015993D01*
X005452Y015975D01*
X005351Y015953D01*
X005252Y015927D01*
X005153Y015897D01*
X005056Y015864D01*
X004960Y015827D01*
X004865Y015786D01*
X004772Y015742D01*
X004681Y015694D01*
X004592Y015643D01*
X004505Y015588D01*
X004420Y015531D01*
X004337Y015469D01*
X004256Y015405D01*
X004179Y015338D01*
X004103Y015268D01*
X004031Y015195D01*
X003961Y015119D01*
X003894Y015041D01*
X003830Y014961D01*
X003770Y014877D01*
X003712Y014792D01*
X003658Y014705D01*
X003607Y014615D01*
X003560Y014524D01*
X003516Y014431D01*
X003476Y014336D01*
X003439Y014240D01*
X003406Y014142D01*
X003377Y014044D01*
X003351Y013944D01*
X003330Y013843D01*
X003312Y013742D01*
X003298Y013640D01*
X003288Y013538D01*
X003282Y013435D01*
X003280Y013332D01*
X003282Y013229D01*
X003287Y013126D01*
X003297Y013024D01*
X003311Y012922D01*
X003328Y012820D01*
X003349Y012720D01*
X003374Y012620D01*
X003403Y012521D01*
X003436Y012424D01*
X003472Y012327D01*
X003512Y012232D01*
X003555Y012139D01*
X003602Y012048D01*
X003653Y011958D01*
X003707Y011870D01*
X003764Y011785D01*
X003824Y011701D01*
X003888Y011620D01*
X003954Y011542D01*
X004024Y011466D01*
X004096Y011393D01*
X004171Y011323D01*
X004249Y011255D01*
X004329Y011191D01*
X004412Y011129D01*
X004497Y011071D01*
X004584Y011016D01*
X004673Y010965D01*
X004764Y010917D01*
X004856Y010872D01*
X004951Y010831D01*
X005047Y010794D01*
X005144Y010760D01*
X005242Y010730D01*
X005342Y010704D01*
X005442Y010681D01*
X005543Y010663D01*
X005645Y010648D01*
X005747Y010637D01*
X005850Y010630D01*
X005953Y010627D01*
X006056Y010628D01*
X006159Y010633D01*
X006261Y010642D01*
X006363Y010654D01*
X006465Y010671D01*
X006566Y010691D01*
X006666Y010716D01*
X006765Y010744D01*
X006863Y010775D01*
X006959Y010811D01*
X007054Y010850D01*
X007148Y010893D01*
X007240Y010939D01*
X007330Y010989D01*
X007418Y011042D01*
X007504Y011098D01*
X007588Y011158D01*
X007669Y011221D01*
X007748Y011287D01*
X007825Y011356D01*
X007899Y011427D01*
X007970Y011502D01*
X008038Y011579D01*
X008103Y011659D01*
X008165Y011741D01*
X008224Y011825D01*
X008279Y011912D01*
X008332Y012000D01*
X008380Y012091D01*
X008426Y012183D01*
X008468Y012277D01*
X008506Y012373D01*
X008540Y012470D01*
X008571Y012568D01*
X008598Y012667D01*
X008621Y012768D01*
X008641Y012869D01*
X008656Y012970D01*
X008668Y013073D01*
X008676Y013175D01*
X004975Y013325D02*
X004977Y013388D01*
X004983Y013450D01*
X004993Y013512D01*
X005006Y013574D01*
X005024Y013634D01*
X005045Y013693D01*
X005070Y013751D01*
X005099Y013807D01*
X005131Y013861D01*
X005166Y013913D01*
X005204Y013962D01*
X005246Y014010D01*
X005290Y014054D01*
X005338Y014096D01*
X005387Y014134D01*
X005439Y014169D01*
X005493Y014201D01*
X005549Y014230D01*
X005607Y014255D01*
X005666Y014276D01*
X005726Y014294D01*
X005788Y014307D01*
X005850Y014317D01*
X005912Y014323D01*
X005975Y014325D01*
X006038Y014323D01*
X006100Y014317D01*
X006162Y014307D01*
X006224Y014294D01*
X006284Y014276D01*
X006343Y014255D01*
X006401Y014230D01*
X006457Y014201D01*
X006511Y014169D01*
X006563Y014134D01*
X006612Y014096D01*
X006660Y014054D01*
X006704Y014010D01*
X006746Y013962D01*
X006784Y013913D01*
X006819Y013861D01*
X006851Y013807D01*
X006880Y013751D01*
X006905Y013693D01*
X006926Y013634D01*
X006944Y013574D01*
X006957Y013512D01*
X006967Y013450D01*
X006973Y013388D01*
X006975Y013325D01*
X006973Y013262D01*
X006967Y013200D01*
X006957Y013138D01*
X006944Y013076D01*
X006926Y013016D01*
X006905Y012957D01*
X006880Y012899D01*
X006851Y012843D01*
X006819Y012789D01*
X006784Y012737D01*
X006746Y012688D01*
X006704Y012640D01*
X006660Y012596D01*
X006612Y012554D01*
X006563Y012516D01*
X006511Y012481D01*
X006457Y012449D01*
X006401Y012420D01*
X006343Y012395D01*
X006284Y012374D01*
X006224Y012356D01*
X006162Y012343D01*
X006100Y012333D01*
X006038Y012327D01*
X005975Y012325D01*
X005912Y012327D01*
X005850Y012333D01*
X005788Y012343D01*
X005726Y012356D01*
X005666Y012374D01*
X005607Y012395D01*
X005549Y012420D01*
X005493Y012449D01*
X005439Y012481D01*
X005387Y012516D01*
X005338Y012554D01*
X005290Y012596D01*
X005246Y012640D01*
X005204Y012688D01*
X005166Y012737D01*
X005131Y012789D01*
X005099Y012843D01*
X005070Y012899D01*
X005045Y012957D01*
X005024Y013016D01*
X005006Y013076D01*
X004993Y013138D01*
X004983Y013200D01*
X004977Y013262D01*
X004975Y013325D01*
X014690Y012712D02*
X014750Y012706D01*
X014809Y012696D01*
X014868Y012682D01*
X014926Y012665D01*
X014983Y012644D01*
X015038Y012620D01*
X015092Y012593D01*
X015144Y012562D01*
X015194Y012529D01*
X015242Y012492D01*
X015288Y012453D01*
X015331Y012411D01*
X015372Y012366D01*
X015410Y012319D01*
X015445Y012270D01*
X024905Y012270D02*
X024940Y012319D01*
X024978Y012366D01*
X025019Y012411D01*
X025062Y012453D01*
X025108Y012492D01*
X025156Y012529D01*
X025206Y012562D01*
X025258Y012593D01*
X025312Y012620D01*
X025367Y012644D01*
X025424Y012665D01*
X025482Y012682D01*
X025541Y012696D01*
X025600Y012706D01*
X025660Y012712D01*
X033375Y013325D02*
X033377Y013388D01*
X033383Y013450D01*
X033393Y013512D01*
X033406Y013574D01*
X033424Y013634D01*
X033445Y013693D01*
X033470Y013751D01*
X033499Y013807D01*
X033531Y013861D01*
X033566Y013913D01*
X033604Y013962D01*
X033646Y014010D01*
X033690Y014054D01*
X033738Y014096D01*
X033787Y014134D01*
X033839Y014169D01*
X033893Y014201D01*
X033949Y014230D01*
X034007Y014255D01*
X034066Y014276D01*
X034126Y014294D01*
X034188Y014307D01*
X034250Y014317D01*
X034312Y014323D01*
X034375Y014325D01*
X034438Y014323D01*
X034500Y014317D01*
X034562Y014307D01*
X034624Y014294D01*
X034684Y014276D01*
X034743Y014255D01*
X034801Y014230D01*
X034857Y014201D01*
X034911Y014169D01*
X034963Y014134D01*
X035012Y014096D01*
X035060Y014054D01*
X035104Y014010D01*
X035146Y013962D01*
X035184Y013913D01*
X035219Y013861D01*
X035251Y013807D01*
X035280Y013751D01*
X035305Y013693D01*
X035326Y013634D01*
X035344Y013574D01*
X035357Y013512D01*
X035367Y013450D01*
X035373Y013388D01*
X035375Y013325D01*
X035373Y013262D01*
X035367Y013200D01*
X035357Y013138D01*
X035344Y013076D01*
X035326Y013016D01*
X035305Y012957D01*
X035280Y012899D01*
X035251Y012843D01*
X035219Y012789D01*
X035184Y012737D01*
X035146Y012688D01*
X035104Y012640D01*
X035060Y012596D01*
X035012Y012554D01*
X034963Y012516D01*
X034911Y012481D01*
X034857Y012449D01*
X034801Y012420D01*
X034743Y012395D01*
X034684Y012374D01*
X034624Y012356D01*
X034562Y012343D01*
X034500Y012333D01*
X034438Y012327D01*
X034375Y012325D01*
X034312Y012327D01*
X034250Y012333D01*
X034188Y012343D01*
X034126Y012356D01*
X034066Y012374D01*
X034007Y012395D01*
X033949Y012420D01*
X033893Y012449D01*
X033839Y012481D01*
X033787Y012516D01*
X033738Y012554D01*
X033690Y012596D01*
X033646Y012640D01*
X033604Y012688D01*
X033566Y012737D01*
X033531Y012789D01*
X033499Y012843D01*
X033470Y012899D01*
X033445Y012957D01*
X033424Y013016D01*
X033406Y013076D01*
X033393Y013138D01*
X033383Y013200D01*
X033377Y013262D01*
X033375Y013325D01*
X025660Y027638D02*
X025600Y027644D01*
X025541Y027654D01*
X025482Y027668D01*
X025424Y027685D01*
X025367Y027706D01*
X025312Y027730D01*
X025258Y027757D01*
X025206Y027788D01*
X025156Y027821D01*
X025108Y027858D01*
X025062Y027897D01*
X025019Y027939D01*
X024978Y027984D01*
X024940Y028031D01*
X024905Y028080D01*
X015445Y028080D02*
X015410Y028031D01*
X015372Y027984D01*
X015331Y027939D01*
X015288Y027897D01*
X015242Y027858D01*
X015194Y027821D01*
X015144Y027788D01*
X015092Y027757D01*
X015038Y027730D01*
X014983Y027706D01*
X014926Y027685D01*
X014868Y027668D01*
X014809Y027654D01*
X014750Y027644D01*
X014690Y027638D01*
D11*
X006175Y027569D03*
X006175Y028356D03*
X006175Y026781D03*
X006175Y025994D03*
X020175Y006356D03*
X020175Y005569D03*
X020175Y004781D03*
X020175Y003994D03*
X034175Y025994D03*
X034175Y026781D03*
X034175Y027569D03*
X034175Y028356D03*
D12*
X021675Y027675D03*
X018675Y027675D03*
X010621Y019720D03*
X010062Y018891D03*
X009503Y018062D03*
X008943Y017233D03*
X008384Y016404D03*
X007825Y015575D03*
X019045Y011465D03*
X019045Y009685D03*
X021605Y009685D03*
X021605Y011465D03*
D13*
X019125Y014175D03*
X018025Y014175D03*
X016175Y014175D03*
X013175Y014175D03*
X011725Y014175D03*
X010625Y014175D03*
X016925Y027625D03*
X016925Y028725D03*
X023425Y028725D03*
X023425Y027625D03*
X027875Y016625D03*
X027875Y015525D03*
X027875Y014425D03*
X030875Y014425D03*
X030875Y015525D03*
X030875Y016625D03*
D14*
X026425Y016665D02*
X026425Y016185D01*
X025425Y016185D02*
X025425Y016665D01*
X024425Y016665D02*
X024425Y016185D01*
X023425Y016185D02*
X023425Y016665D01*
X022425Y016665D02*
X022425Y016185D01*
X021425Y016185D02*
X021425Y016665D01*
X020425Y016665D02*
X020425Y016185D01*
X019425Y016185D02*
X019425Y016665D01*
X018425Y016665D02*
X018425Y016185D01*
X017425Y016185D02*
X017425Y016665D01*
X016425Y016665D02*
X016425Y016185D01*
X015425Y016185D02*
X015425Y016665D01*
X014425Y016665D02*
X014425Y016185D01*
X013425Y016185D02*
X013425Y016665D01*
X013425Y019185D02*
X013425Y019665D01*
X014425Y019665D02*
X014425Y019185D01*
X015425Y019185D02*
X015425Y019665D01*
X016425Y019665D02*
X016425Y019185D01*
X017425Y019185D02*
X017425Y019665D01*
X018425Y019665D02*
X018425Y019185D01*
X019425Y019185D02*
X019425Y019665D01*
X020425Y019665D02*
X020425Y019185D01*
X021425Y019185D02*
X021425Y019665D01*
X022425Y019665D02*
X022425Y019185D01*
X023425Y019185D02*
X023425Y019665D01*
X024425Y019665D02*
X024425Y019185D01*
X025425Y019185D02*
X025425Y019665D01*
X026425Y019665D02*
X026425Y019185D01*
D15*
X022935Y014175D03*
X021935Y014175D03*
X020935Y014175D03*
X020175Y031090D03*
X020175Y033060D03*
D16*
X021374Y030199D03*
X021374Y029825D03*
X021374Y029451D03*
X022476Y029451D03*
X022476Y030199D03*
D17*
X031028Y023024D03*
X031475Y023675D03*
X031922Y024326D03*
D18*
X032390Y025006D03*
X030560Y022344D03*
D19*
X021675Y023675D03*
X020675Y023675D03*
X020675Y024675D03*
X021675Y024675D03*
X019675Y024675D03*
X019675Y023675D03*
D20*
X027425Y023925D03*
X010625Y023925D03*
D21*
X020425Y019425D02*
X021425Y019425D01*
X021425Y016425D02*
X021425Y014665D01*
X020935Y014175D01*
X022425Y014685D02*
X022935Y014175D01*
X022425Y014685D02*
X022425Y016425D01*
D22*
X005096Y011069D02*
X004621Y011319D01*
X004212Y011667D01*
X003890Y012097D01*
X003670Y012588D01*
X003564Y013115D01*
X003577Y013652D01*
X003707Y014173D01*
X003949Y014653D01*
X004291Y015067D01*
X004716Y015396D01*
X005203Y015624D01*
X005728Y015738D01*
X006265Y015735D01*
X006788Y015613D01*
X007023Y015515D01*
X007046Y015499D01*
X007067Y015494D01*
X007086Y015485D01*
X007120Y015483D01*
X007154Y015476D01*
X007174Y015480D01*
X007195Y015479D01*
X007227Y015490D01*
X007230Y015491D01*
X007230Y015457D01*
X007321Y015238D01*
X007488Y015071D01*
X007707Y014980D01*
X007943Y014980D01*
X007980Y014995D01*
X009055Y013921D01*
X009165Y013875D01*
X010073Y013875D01*
X010095Y013821D01*
X010271Y013645D01*
X010501Y013550D01*
X010749Y013550D01*
X010979Y013645D01*
X011155Y013821D01*
X011175Y013870D01*
X011195Y013821D01*
X011371Y013645D01*
X011601Y013550D01*
X011849Y013550D01*
X012079Y013645D01*
X012255Y013821D01*
X012277Y013875D01*
X012623Y013875D01*
X012645Y013821D01*
X012821Y013645D01*
X013051Y013550D01*
X013299Y013550D01*
X013529Y013645D01*
X013705Y013821D01*
X013800Y014051D01*
X013800Y014299D01*
X013705Y014529D01*
X013529Y014705D01*
X013475Y014727D01*
X013475Y014851D01*
X013679Y015055D01*
X013725Y015165D01*
X013725Y015827D01*
X013819Y015922D01*
X013890Y016093D01*
X013890Y016757D01*
X013819Y016928D01*
X013688Y017059D01*
X013517Y017130D01*
X013333Y017130D01*
X013162Y017059D01*
X013031Y016928D01*
X012960Y016757D01*
X012960Y016093D01*
X013031Y015922D01*
X013125Y015827D01*
X013125Y015349D01*
X013005Y015229D01*
X012921Y015145D01*
X012875Y015035D01*
X012875Y014727D01*
X012821Y014705D01*
X012645Y014529D01*
X012623Y014475D01*
X012277Y014475D01*
X012255Y014529D01*
X012079Y014705D01*
X011849Y014800D01*
X011601Y014800D01*
X011371Y014705D01*
X011195Y014529D01*
X011175Y014480D01*
X011155Y014529D01*
X010979Y014705D01*
X010749Y014800D01*
X010501Y014800D01*
X010271Y014705D01*
X010095Y014529D01*
X010073Y014475D01*
X009349Y014475D01*
X008405Y015420D01*
X008420Y015457D01*
X008420Y015693D01*
X008372Y015809D01*
X008503Y015809D01*
X008721Y015900D01*
X008889Y016067D01*
X008979Y016286D01*
X008979Y016522D01*
X008931Y016638D01*
X009062Y016638D01*
X009280Y016729D01*
X009448Y016896D01*
X009538Y017115D01*
X009538Y017351D01*
X009490Y017467D01*
X009621Y017467D01*
X009840Y017558D01*
X009969Y017687D01*
X017383Y017687D01*
X017713Y017357D01*
X017850Y017300D01*
X019050Y017300D01*
X019050Y016948D01*
X019031Y016928D01*
X018960Y016757D01*
X018960Y016093D01*
X019019Y015950D01*
X017848Y014778D01*
X017671Y014705D01*
X017516Y014550D01*
X016684Y014550D01*
X016529Y014705D01*
X016299Y014800D01*
X016051Y014800D01*
X015821Y014705D01*
X015675Y014559D01*
X015675Y014651D01*
X016679Y015655D01*
X016725Y015765D01*
X016725Y015827D01*
X016819Y015922D01*
X016890Y016093D01*
X016890Y016757D01*
X016819Y016928D01*
X016688Y017059D01*
X016517Y017130D01*
X016333Y017130D01*
X016162Y017059D01*
X016031Y016928D01*
X015960Y016757D01*
X015960Y016093D01*
X016031Y015922D01*
X016064Y015888D01*
X015205Y015029D01*
X015121Y014945D01*
X015075Y014835D01*
X015075Y013715D01*
X015121Y013605D01*
X017431Y011295D01*
X017515Y011211D01*
X017625Y011165D01*
X018525Y011165D01*
X018541Y011128D01*
X018708Y010961D01*
X018927Y010870D01*
X019163Y010870D01*
X019382Y010961D01*
X019549Y011128D01*
X019640Y011347D01*
X019640Y011583D01*
X019549Y011802D01*
X019382Y011969D01*
X019163Y012060D01*
X018927Y012060D01*
X018708Y011969D01*
X018541Y011802D01*
X018525Y011765D01*
X017809Y011765D01*
X016006Y013569D01*
X016051Y013550D01*
X016299Y013550D01*
X016529Y013645D01*
X016684Y013800D01*
X017516Y013800D01*
X017671Y013645D01*
X017901Y013550D01*
X018149Y013550D01*
X018379Y013645D01*
X018555Y013821D01*
X018602Y013935D01*
X018633Y013874D01*
X018686Y013800D01*
X018750Y013736D01*
X018824Y013683D01*
X018904Y013642D01*
X018990Y013614D01*
X019080Y013600D01*
X019100Y013600D01*
X019100Y014150D01*
X019150Y014150D01*
X019150Y014200D01*
X019100Y014200D01*
X019100Y014750D01*
X019080Y014750D01*
X018990Y014736D01*
X018904Y014708D01*
X018824Y014667D01*
X018750Y014614D01*
X018686Y014550D01*
X018633Y014476D01*
X018602Y014415D01*
X018585Y014455D01*
X019743Y015613D01*
X019800Y015750D01*
X019800Y015902D01*
X019819Y015922D01*
X019890Y016093D01*
X019890Y016757D01*
X019819Y016928D01*
X019800Y016948D01*
X019800Y017520D01*
X020743Y018463D01*
X020800Y018600D01*
X020800Y018902D01*
X020819Y018922D01*
X020885Y019080D01*
X020965Y019080D01*
X021031Y018922D01*
X021162Y018791D01*
X021333Y018720D01*
X021517Y018720D01*
X021688Y018791D01*
X021819Y018922D01*
X021890Y019093D01*
X021890Y019757D01*
X021819Y019928D01*
X021688Y020059D01*
X021517Y020130D01*
X021333Y020130D01*
X021162Y020059D01*
X021031Y019928D01*
X020965Y019770D01*
X020885Y019770D01*
X020819Y019928D01*
X020800Y019948D01*
X020800Y022000D01*
X020743Y022137D01*
X020050Y022830D01*
X020050Y023209D01*
X020175Y023334D01*
X020429Y023080D01*
X020921Y023080D01*
X021210Y023369D01*
X021449Y023130D01*
X021650Y023130D01*
X021650Y023650D01*
X021700Y023650D01*
X021700Y023130D01*
X021901Y023130D01*
X022150Y023379D01*
X022150Y020048D01*
X022031Y019928D01*
X021960Y019757D01*
X021960Y019093D01*
X022031Y018922D01*
X022162Y018791D01*
X022333Y018720D01*
X022517Y018720D01*
X022688Y018791D01*
X022819Y018922D01*
X022890Y019093D01*
X022890Y019757D01*
X022819Y019928D01*
X022700Y020048D01*
X022700Y020561D01*
X023150Y020111D01*
X023150Y020048D01*
X023031Y019928D01*
X022960Y019757D01*
X022960Y019093D01*
X023031Y018922D01*
X023162Y018791D01*
X023333Y018720D01*
X023517Y018720D01*
X023688Y018791D01*
X023819Y018922D01*
X023890Y019093D01*
X023890Y019757D01*
X023819Y019928D01*
X023700Y020048D01*
X023700Y020280D01*
X023658Y020381D01*
X022950Y021089D01*
X022950Y025230D01*
X022908Y025331D01*
X022831Y025408D01*
X022831Y025408D01*
X022508Y025731D01*
X022431Y025808D01*
X022330Y025850D01*
X020520Y025850D01*
X020419Y025808D01*
X020342Y025731D01*
X020342Y025731D01*
X019881Y025270D01*
X019429Y025270D01*
X019080Y024921D01*
X019080Y024429D01*
X019334Y024175D01*
X019269Y024111D01*
X019050Y024330D01*
X019050Y027209D01*
X019179Y027338D01*
X019270Y027557D01*
X019270Y027793D01*
X019269Y027795D01*
X020590Y029116D01*
X021440Y029116D01*
X021445Y029118D01*
X021674Y029118D01*
X021806Y029250D01*
X021806Y029652D01*
X021756Y029702D01*
X021756Y029825D01*
X021374Y029825D01*
X021756Y029825D01*
X021756Y029948D01*
X021806Y029998D01*
X021806Y030400D01*
X021674Y030532D01*
X021445Y030532D01*
X021440Y030534D01*
X021205Y030534D01*
X020725Y031014D01*
X020725Y031199D01*
X020641Y031402D01*
X020487Y031556D01*
X020284Y031640D01*
X020066Y031640D01*
X019863Y031556D01*
X019709Y031402D01*
X019625Y031199D01*
X019625Y030981D01*
X019709Y030778D01*
X019863Y030624D01*
X020066Y030540D01*
X020251Y030540D01*
X020876Y029915D01*
X020992Y029867D01*
X020992Y029825D01*
X021374Y029825D01*
X021374Y029825D01*
X020992Y029825D01*
X020992Y029786D01*
X020384Y029786D01*
X020261Y029735D01*
X018795Y028269D01*
X018793Y028270D01*
X018624Y028270D01*
X017843Y029051D01*
X017702Y029110D01*
X017424Y029110D01*
X017279Y029255D01*
X017049Y029350D01*
X016801Y029350D01*
X016571Y029255D01*
X016534Y029218D01*
X018873Y032727D01*
X018873Y032727D01*
X018900Y032767D01*
X018934Y032818D01*
X018955Y032925D01*
X018934Y033033D01*
X018873Y033123D01*
X018828Y033154D01*
X018612Y033316D01*
X018241Y033705D01*
X017965Y034168D01*
X017797Y034679D01*
X017746Y035215D01*
X017815Y035749D01*
X017999Y036255D01*
X018290Y036707D01*
X018674Y037085D01*
X019131Y037369D01*
X019640Y037545D01*
X020175Y037604D01*
X020710Y037545D01*
X021219Y037369D01*
X021676Y037085D01*
X022060Y036707D01*
X022351Y036255D01*
X022535Y035749D01*
X022604Y035215D01*
X022553Y034679D01*
X022385Y034168D01*
X022109Y033705D01*
X021738Y033316D01*
X021522Y033154D01*
X021479Y033125D01*
X021477Y033123D01*
X021416Y033033D01*
X021395Y032925D01*
X021396Y032919D01*
X021416Y032818D01*
X021446Y032773D01*
X021477Y032727D01*
X022466Y031243D01*
X020725Y032984D01*
X020725Y033169D01*
X020641Y033372D01*
X020487Y033526D01*
X020284Y033610D01*
X020066Y033610D01*
X019863Y033526D01*
X019709Y033372D01*
X019625Y033169D01*
X019625Y032951D01*
X019709Y032748D01*
X019863Y032594D01*
X020066Y032510D01*
X020251Y032510D01*
X022141Y030620D01*
X022141Y030497D01*
X022044Y030400D01*
X022044Y029998D01*
X022141Y029901D01*
X022141Y029749D01*
X022044Y029652D01*
X022044Y029250D01*
X022176Y029118D01*
X022405Y029118D01*
X022410Y029116D01*
X022560Y029116D01*
X022808Y028868D01*
X022800Y028849D01*
X022800Y028601D01*
X022895Y028371D01*
X023071Y028195D01*
X023185Y028148D01*
X023124Y028117D01*
X023050Y028064D01*
X022986Y028000D01*
X022933Y027926D01*
X022892Y027846D01*
X022864Y027760D01*
X022850Y027670D01*
X022850Y027650D01*
X023400Y027650D01*
X023400Y027600D01*
X023450Y027600D01*
X023450Y027650D01*
X024000Y027650D01*
X024000Y027670D01*
X023986Y027760D01*
X023958Y027846D01*
X023917Y027926D01*
X023864Y028000D01*
X023800Y028064D01*
X023726Y028117D01*
X023665Y028148D01*
X023776Y028194D01*
X024150Y027820D01*
X024150Y027000D01*
X024207Y026863D01*
X025407Y025663D01*
X025513Y025557D01*
X025650Y025500D01*
X027120Y025500D01*
X028570Y024050D01*
X028530Y024050D01*
X028337Y024243D01*
X028200Y024300D01*
X028000Y024300D01*
X027997Y024307D01*
X027807Y024497D01*
X027559Y024600D01*
X027291Y024600D01*
X027043Y024497D01*
X026853Y024307D01*
X026750Y024059D01*
X026750Y023791D01*
X026853Y023543D01*
X027043Y023353D01*
X027291Y023250D01*
X027559Y023250D01*
X027807Y023353D01*
X027987Y023533D01*
X028057Y023463D01*
X028163Y023357D01*
X028300Y023300D01*
X030635Y023300D01*
X030627Y023292D01*
X030555Y023118D01*
X030555Y023027D01*
X030424Y023027D01*
X030174Y022923D01*
X029982Y022731D01*
X029878Y022480D01*
X029878Y022208D01*
X029982Y021957D01*
X022950Y021957D01*
X022950Y021809D02*
X030131Y021809D01*
X030174Y021765D02*
X029982Y021957D01*
X029920Y022106D02*
X022950Y022106D01*
X022950Y022254D02*
X029878Y022254D01*
X029878Y022403D02*
X022950Y022403D01*
X022950Y022551D02*
X029907Y022551D01*
X029969Y022700D02*
X022950Y022700D01*
X022950Y022848D02*
X030099Y022848D01*
X030352Y022997D02*
X022950Y022997D01*
X022950Y023145D02*
X030566Y023145D01*
X030629Y023294D02*
X027664Y023294D01*
X027897Y023442D02*
X028078Y023442D01*
X028396Y024185D02*
X028435Y024185D01*
X028287Y024333D02*
X027972Y024333D01*
X027823Y024482D02*
X028138Y024482D01*
X027990Y024630D02*
X022950Y024630D01*
X022950Y024482D02*
X027027Y024482D01*
X026878Y024333D02*
X022950Y024333D01*
X022950Y024185D02*
X026802Y024185D01*
X026750Y024036D02*
X022950Y024036D01*
X022950Y023888D02*
X026750Y023888D01*
X026771Y023739D02*
X022950Y023739D01*
X022950Y023591D02*
X026833Y023591D01*
X026953Y023442D02*
X022950Y023442D01*
X022950Y023294D02*
X027186Y023294D01*
X027841Y024779D02*
X022950Y024779D01*
X022950Y024927D02*
X027693Y024927D01*
X027544Y025076D02*
X022950Y025076D01*
X022950Y025224D02*
X027396Y025224D01*
X027247Y025373D02*
X022866Y025373D01*
X022718Y025521D02*
X025600Y025521D01*
X025400Y025670D02*
X022569Y025670D01*
X022508Y025731D02*
X022508Y025731D01*
X022407Y025818D02*
X025252Y025818D01*
X025103Y025967D02*
X019050Y025967D01*
X019050Y026115D02*
X024955Y026115D01*
X024806Y026264D02*
X019050Y026264D01*
X019050Y026412D02*
X024658Y026412D01*
X024509Y026561D02*
X019050Y026561D01*
X019050Y026709D02*
X024361Y026709D01*
X024212Y026858D02*
X019050Y026858D01*
X019050Y027006D02*
X024150Y027006D01*
X024150Y027155D02*
X023756Y027155D01*
X023726Y027133D02*
X023800Y027186D01*
X023864Y027250D01*
X023917Y027324D01*
X023958Y027404D01*
X023986Y027490D01*
X024000Y027580D01*
X024000Y027600D01*
X023450Y027600D01*
X023450Y027050D01*
X023470Y027050D01*
X023560Y027064D01*
X023646Y027092D01*
X023726Y027133D01*
X023902Y027303D02*
X024150Y027303D01*
X024150Y027452D02*
X023973Y027452D01*
X024150Y027600D02*
X023450Y027600D01*
X023400Y027600D02*
X023400Y027050D01*
X023380Y027050D01*
X023290Y027064D01*
X023204Y027092D01*
X023124Y027133D01*
X023050Y027186D01*
X022986Y027250D01*
X022933Y027324D01*
X022892Y027404D01*
X022864Y027490D01*
X022850Y027580D01*
X022850Y027600D01*
X023400Y027600D01*
X022270Y027600D01*
X022270Y027557D02*
X022179Y027338D01*
X022012Y027171D01*
X021793Y027080D01*
X021557Y027080D01*
X021338Y027171D01*
X021171Y027338D01*
X021080Y027557D01*
X021080Y027793D01*
X021171Y028012D01*
X021338Y028179D01*
X021557Y028270D01*
X021793Y028270D01*
X022012Y028179D01*
X022179Y028012D01*
X022270Y027793D01*
X022270Y027557D01*
X022226Y027452D02*
X022877Y027452D01*
X022948Y027303D02*
X022144Y027303D01*
X021973Y027155D02*
X023094Y027155D01*
X023400Y027155D02*
X023450Y027155D01*
X023450Y027303D02*
X023400Y027303D01*
X023400Y027452D02*
X023450Y027452D01*
X023988Y027749D02*
X024150Y027749D01*
X024073Y027897D02*
X023932Y027897D01*
X023924Y028046D02*
X023818Y028046D01*
X023074Y028194D02*
X021977Y028194D01*
X022146Y028046D02*
X023032Y028046D01*
X022918Y027897D02*
X022227Y027897D01*
X022270Y027749D02*
X022862Y027749D01*
X022924Y028343D02*
X019816Y028343D01*
X019965Y028491D02*
X022845Y028491D01*
X022800Y028640D02*
X020113Y028640D01*
X020262Y028788D02*
X022800Y028788D01*
X022740Y028937D02*
X020410Y028937D01*
X020559Y029085D02*
X022591Y029085D01*
X022060Y029234D02*
X021790Y029234D01*
X021806Y029382D02*
X022044Y029382D01*
X022044Y029531D02*
X021806Y029531D01*
X021779Y029679D02*
X022071Y029679D01*
X022141Y029828D02*
X021756Y029828D01*
X021784Y029976D02*
X022066Y029976D01*
X022044Y030125D02*
X021806Y030125D01*
X021806Y030273D02*
X022044Y030273D01*
X022066Y030422D02*
X021784Y030422D01*
X022141Y030570D02*
X021169Y030570D01*
X021020Y030719D02*
X022043Y030719D01*
X021894Y030867D02*
X020872Y030867D01*
X020725Y031016D02*
X021746Y031016D01*
X021597Y031164D02*
X020725Y031164D01*
X020678Y031313D02*
X021449Y031313D01*
X021300Y031461D02*
X020582Y031461D01*
X020358Y031610D02*
X021152Y031610D01*
X021003Y031758D02*
X018228Y031758D01*
X018327Y031907D02*
X020855Y031907D01*
X020706Y032055D02*
X018426Y032055D01*
X018525Y032204D02*
X020558Y032204D01*
X020409Y032352D02*
X018624Y032352D01*
X018723Y032501D02*
X020261Y032501D01*
X019808Y032649D02*
X018822Y032649D01*
X018921Y032798D02*
X019688Y032798D01*
X019627Y032946D02*
X018951Y032946D01*
X018892Y033095D02*
X019625Y033095D01*
X019655Y033243D02*
X018709Y033243D01*
X018540Y033392D02*
X019729Y033392D01*
X019897Y033540D02*
X018398Y033540D01*
X018257Y033689D02*
X022093Y033689D01*
X022188Y033837D02*
X018162Y033837D01*
X018073Y033986D02*
X019688Y033986D01*
X019683Y033987D02*
X020007Y033900D01*
X020343Y033900D01*
X020667Y033987D01*
X020958Y034155D01*
X021195Y034392D01*
X021363Y034683D01*
X021450Y035007D01*
X021450Y035343D01*
X021363Y035667D01*
X021195Y035958D01*
X020958Y036195D01*
X020667Y036363D01*
X020343Y036450D01*
X020007Y036450D01*
X019683Y036363D01*
X019392Y036195D01*
X019155Y035958D01*
X018987Y035667D01*
X018900Y035343D01*
X018900Y035007D01*
X018987Y034683D01*
X019155Y034392D01*
X019392Y034155D01*
X019683Y033987D01*
X019428Y034134D02*
X017985Y034134D01*
X017927Y034283D02*
X019264Y034283D01*
X019132Y034431D02*
X017878Y034431D01*
X017830Y034580D02*
X019047Y034580D01*
X018975Y034728D02*
X017792Y034728D01*
X017778Y034877D02*
X018935Y034877D01*
X018900Y035025D02*
X017764Y035025D01*
X017750Y035174D02*
X018900Y035174D01*
X018900Y035322D02*
X017760Y035322D01*
X017779Y035471D02*
X018934Y035471D01*
X018974Y035619D02*
X017798Y035619D01*
X017821Y035768D02*
X019045Y035768D01*
X019131Y035916D02*
X017876Y035916D01*
X017930Y036065D02*
X019261Y036065D01*
X019423Y036213D02*
X017984Y036213D01*
X018068Y036362D02*
X019680Y036362D01*
X019225Y037401D02*
X021125Y037401D01*
X021406Y037253D02*
X018944Y037253D01*
X018705Y037104D02*
X021645Y037104D01*
X021808Y036956D02*
X018542Y036956D01*
X018391Y036807D02*
X021959Y036807D01*
X022091Y036659D02*
X018259Y036659D01*
X018163Y036510D02*
X022187Y036510D01*
X022282Y036362D02*
X020670Y036362D01*
X020927Y036213D02*
X022366Y036213D01*
X022420Y036065D02*
X021089Y036065D01*
X021219Y035916D02*
X022474Y035916D01*
X022529Y035768D02*
X021305Y035768D01*
X021376Y035619D02*
X022552Y035619D01*
X022571Y035471D02*
X021416Y035471D01*
X021450Y035322D02*
X022590Y035322D01*
X022600Y035174D02*
X021450Y035174D01*
X021450Y035025D02*
X022586Y035025D01*
X022572Y034877D02*
X021415Y034877D01*
X021375Y034728D02*
X022558Y034728D01*
X022520Y034580D02*
X021303Y034580D01*
X021218Y034431D02*
X022472Y034431D01*
X022423Y034283D02*
X021086Y034283D01*
X020922Y034134D02*
X022365Y034134D01*
X022277Y033986D02*
X020662Y033986D01*
X020453Y033540D02*
X021952Y033540D01*
X021810Y033392D02*
X020621Y033392D01*
X020695Y033243D02*
X021641Y033243D01*
X021458Y033095D02*
X020725Y033095D01*
X020763Y032946D02*
X021399Y032946D01*
X021429Y032798D02*
X020911Y032798D01*
X021060Y032649D02*
X021528Y032649D01*
X021477Y032727D02*
X021477Y032727D01*
X021627Y032501D02*
X021208Y032501D01*
X021357Y032352D02*
X021726Y032352D01*
X021825Y032204D02*
X021505Y032204D01*
X021654Y032055D02*
X021924Y032055D01*
X022023Y031907D02*
X021802Y031907D01*
X021951Y031758D02*
X022122Y031758D01*
X022099Y031610D02*
X022221Y031610D01*
X022248Y031461D02*
X022320Y031461D01*
X022396Y031313D02*
X022419Y031313D01*
X022811Y030725D02*
X023816Y029218D01*
X023779Y029255D01*
X023549Y029350D01*
X023301Y029350D01*
X023282Y029342D01*
X022889Y029735D01*
X022811Y029767D01*
X022811Y029901D01*
X022908Y029998D01*
X022908Y030400D01*
X022811Y030497D01*
X022811Y030725D01*
X022811Y030719D02*
X022815Y030719D01*
X022811Y030570D02*
X022914Y030570D01*
X022887Y030422D02*
X023013Y030422D01*
X023112Y030273D02*
X022908Y030273D01*
X022908Y030125D02*
X023211Y030125D01*
X023310Y029976D02*
X022886Y029976D01*
X022811Y029828D02*
X023409Y029828D01*
X023508Y029679D02*
X022945Y029679D01*
X023093Y029531D02*
X023607Y029531D01*
X023706Y029382D02*
X023242Y029382D01*
X023800Y029234D02*
X023805Y029234D01*
X024900Y027672D02*
X025085Y027522D01*
X025085Y027522D01*
X025446Y027378D01*
X025585Y027368D01*
X025585Y027368D01*
X025634Y027364D01*
X025639Y027363D01*
X025694Y027359D01*
X031612Y026904D01*
X031623Y026900D01*
X031666Y026900D01*
X031708Y026897D01*
X031720Y026900D01*
X031732Y026901D01*
X031772Y026917D01*
X031812Y026931D01*
X031822Y026939D01*
X031833Y026943D01*
X031863Y026974D01*
X031895Y027002D01*
X031901Y027013D01*
X031910Y027021D01*
X031926Y027061D01*
X031945Y027099D01*
X031946Y027112D01*
X031950Y027123D01*
X031950Y027166D01*
X031953Y027208D01*
X031952Y027214D01*
X031962Y027438D01*
X032072Y027948D01*
X032292Y028421D01*
X032611Y028834D01*
X033012Y029166D01*
X033477Y029402D01*
X033983Y029530D01*
X034504Y029543D01*
X035015Y029441D01*
X035492Y029229D01*
X035910Y028918D01*
X036249Y028522D01*
X036493Y028061D01*
X036629Y027557D01*
X036650Y027036D01*
X036557Y026523D01*
X036353Y026043D01*
X036048Y025620D01*
X035658Y025275D01*
X035201Y025024D01*
X034700Y024879D01*
X034179Y024849D01*
X033665Y024934D01*
X033440Y025011D01*
X033424Y025022D01*
X033395Y025028D01*
X033367Y025039D01*
X033342Y025039D01*
X033317Y025044D01*
X033288Y025039D01*
X033257Y025038D01*
X033234Y025029D01*
X033210Y025024D01*
X033184Y025008D01*
X033157Y024996D01*
X033139Y024978D01*
X033118Y024964D01*
X033101Y024939D01*
X033080Y024918D01*
X033072Y024899D01*
X033072Y025142D01*
X032968Y025393D01*
X032776Y025585D01*
X032526Y025688D01*
X032254Y025688D01*
X032003Y025585D01*
X031811Y025393D01*
X031707Y025142D01*
X031707Y024870D01*
X031750Y024766D01*
X031655Y024727D01*
X031629Y024701D01*
X028979Y024701D01*
X027593Y026087D01*
X027487Y026193D01*
X027350Y026250D01*
X025880Y026250D01*
X024900Y027230D01*
X024900Y027672D01*
X024900Y027600D02*
X024989Y027600D01*
X024900Y027452D02*
X025262Y027452D01*
X025446Y027378D02*
X025446Y027378D01*
X025124Y027006D02*
X030286Y027006D01*
X031898Y027006D02*
X033762Y027006D01*
X033773Y027028D02*
X033739Y026962D01*
X033716Y026891D01*
X033705Y026818D01*
X033705Y026805D01*
X034152Y026805D01*
X034152Y026758D01*
X033705Y026758D01*
X033705Y026744D01*
X033716Y026671D01*
X033739Y026601D01*
X033773Y026535D01*
X033816Y026475D01*
X033868Y026423D01*
X033734Y026289D01*
X033655Y026097D01*
X033655Y025890D01*
X033734Y025699D01*
X033880Y025553D01*
X034072Y025474D01*
X034278Y025474D01*
X034470Y025553D01*
X034616Y025699D01*
X034695Y025890D01*
X034695Y026097D01*
X034616Y026289D01*
X034482Y026423D01*
X034534Y026475D01*
X034577Y026535D01*
X034611Y026601D01*
X034634Y026671D01*
X034645Y026744D01*
X034645Y026758D01*
X034198Y026758D01*
X034198Y026805D01*
X034645Y026805D01*
X034645Y026818D01*
X034634Y026891D01*
X034611Y026962D01*
X034577Y027028D01*
X034534Y027088D01*
X034482Y027140D01*
X034616Y027274D01*
X034695Y027465D01*
X034695Y027672D01*
X034616Y027863D01*
X034517Y027962D01*
X034616Y028061D01*
X034695Y028253D01*
X034695Y028460D01*
X034616Y028651D01*
X034470Y028797D01*
X034278Y028876D01*
X034072Y028876D01*
X033880Y028797D01*
X033734Y028651D01*
X033655Y028460D01*
X033655Y028253D01*
X033734Y028061D01*
X033833Y027962D01*
X033734Y027863D01*
X033655Y027672D01*
X033655Y027465D01*
X033734Y027274D01*
X033868Y027140D01*
X033816Y027088D01*
X033773Y027028D01*
X033853Y027155D02*
X031950Y027155D01*
X031956Y027303D02*
X033722Y027303D01*
X033660Y027452D02*
X031965Y027452D01*
X031997Y027600D02*
X033655Y027600D01*
X033686Y027749D02*
X032029Y027749D01*
X032061Y027897D02*
X033768Y027897D01*
X033750Y028046D02*
X032118Y028046D01*
X032187Y028194D02*
X033679Y028194D01*
X033655Y028343D02*
X032256Y028343D01*
X032346Y028491D02*
X033668Y028491D01*
X033729Y028640D02*
X032461Y028640D01*
X032575Y028788D02*
X033871Y028788D01*
X033438Y029382D02*
X035149Y029382D01*
X035482Y029234D02*
X033145Y029234D01*
X032914Y029085D02*
X035685Y029085D01*
X035885Y028937D02*
X032735Y028937D01*
X034007Y029531D02*
X034568Y029531D01*
X034479Y028788D02*
X036021Y028788D01*
X036148Y028640D02*
X034621Y028640D01*
X034682Y028491D02*
X036265Y028491D01*
X036344Y028343D02*
X034695Y028343D01*
X034671Y028194D02*
X036422Y028194D01*
X036497Y028046D02*
X034600Y028046D01*
X034582Y027897D02*
X036537Y027897D01*
X036577Y027749D02*
X034664Y027749D01*
X034695Y027600D02*
X036617Y027600D01*
X036633Y027452D02*
X034690Y027452D01*
X034628Y027303D02*
X036639Y027303D01*
X036645Y027155D02*
X034497Y027155D01*
X034588Y027006D02*
X036645Y027006D01*
X036618Y026858D02*
X034639Y026858D01*
X034640Y026709D02*
X036591Y026709D01*
X036564Y026561D02*
X034590Y026561D01*
X034493Y026412D02*
X036510Y026412D01*
X036446Y026264D02*
X034626Y026264D01*
X034688Y026115D02*
X036383Y026115D01*
X036297Y025967D02*
X034695Y025967D01*
X034665Y025818D02*
X036190Y025818D01*
X036084Y025670D02*
X034586Y025670D01*
X034393Y025521D02*
X035936Y025521D01*
X035768Y025373D02*
X032977Y025373D01*
X033038Y025224D02*
X035565Y025224D01*
X035295Y025076D02*
X033072Y025076D01*
X033072Y024927D02*
X033089Y024927D01*
X033706Y024927D02*
X034865Y024927D01*
X033957Y025521D02*
X032840Y025521D01*
X032571Y025670D02*
X033764Y025670D01*
X033685Y025818D02*
X027862Y025818D01*
X027714Y025967D02*
X033655Y025967D01*
X033662Y026115D02*
X027565Y026115D01*
X028011Y025670D02*
X032208Y025670D01*
X031940Y025521D02*
X028159Y025521D01*
X028308Y025373D02*
X031803Y025373D01*
X031741Y025224D02*
X028456Y025224D01*
X028605Y025076D02*
X031707Y025076D01*
X031707Y024927D02*
X028753Y024927D01*
X028902Y024779D02*
X031745Y024779D01*
X033724Y026264D02*
X025867Y026264D01*
X025718Y026412D02*
X033857Y026412D01*
X033760Y026561D02*
X025570Y026561D01*
X025421Y026709D02*
X033710Y026709D01*
X033711Y026858D02*
X025273Y026858D01*
X024976Y027155D02*
X028356Y027155D01*
X026425Y027303D02*
X024900Y027303D01*
X021377Y027155D02*
X019050Y027155D01*
X019144Y027303D02*
X021206Y027303D01*
X021124Y027452D02*
X019226Y027452D01*
X019270Y027600D02*
X021080Y027600D01*
X021080Y027749D02*
X019270Y027749D01*
X019371Y027897D02*
X021123Y027897D01*
X021204Y028046D02*
X019519Y028046D01*
X019668Y028194D02*
X021373Y028194D01*
X019908Y029382D02*
X016644Y029382D01*
X016550Y029234D02*
X016545Y029234D01*
X016743Y029531D02*
X020057Y029531D01*
X020205Y029679D02*
X016842Y029679D01*
X016941Y029828D02*
X020992Y029828D01*
X020815Y029976D02*
X017040Y029976D01*
X017139Y030125D02*
X020667Y030125D01*
X020518Y030273D02*
X017238Y030273D01*
X017337Y030422D02*
X020370Y030422D01*
X019993Y030570D02*
X017436Y030570D01*
X017535Y030719D02*
X019769Y030719D01*
X019672Y030867D02*
X017634Y030867D01*
X017733Y031016D02*
X019625Y031016D01*
X019625Y031164D02*
X017832Y031164D01*
X017931Y031313D02*
X019672Y031313D01*
X019768Y031461D02*
X018030Y031461D01*
X018129Y031610D02*
X019992Y031610D01*
X021374Y029825D02*
X021374Y029825D01*
X019760Y029234D02*
X017300Y029234D01*
X017762Y029085D02*
X019611Y029085D01*
X019463Y028937D02*
X017958Y028937D01*
X018106Y028788D02*
X019314Y028788D01*
X019166Y028640D02*
X018255Y028640D01*
X018403Y028491D02*
X019017Y028491D01*
X018869Y028343D02*
X018552Y028343D01*
X017909Y027897D02*
X017432Y027897D01*
X017417Y027926D02*
X017364Y028000D01*
X017300Y028064D01*
X017226Y028117D01*
X017165Y028148D01*
X017279Y028195D01*
X017424Y028340D01*
X017466Y028340D01*
X018080Y027726D01*
X018080Y027557D01*
X018171Y027338D01*
X018300Y027209D01*
X018300Y024100D01*
X018357Y023963D01*
X018963Y023357D01*
X019100Y023300D01*
X019209Y023300D01*
X019300Y023209D01*
X019300Y022600D01*
X019357Y022463D01*
X019463Y022357D01*
X020050Y021770D01*
X020050Y019948D01*
X020031Y019928D01*
X019960Y019757D01*
X019960Y019093D01*
X020031Y018922D01*
X020050Y018902D01*
X020050Y018830D01*
X019270Y018050D01*
X018080Y018050D01*
X017750Y018380D01*
X017612Y018437D01*
X010364Y018437D01*
X010417Y018475D01*
X010477Y018536D01*
X010499Y018566D01*
X010069Y018856D01*
X010096Y018898D01*
X010055Y018926D01*
X010296Y019283D01*
X010586Y019713D01*
X010628Y019685D01*
X010656Y019727D01*
X011088Y019436D01*
X011126Y019511D01*
X011153Y019593D01*
X011166Y019677D01*
X011166Y019763D01*
X011153Y019848D01*
X011126Y019929D01*
X011087Y020006D01*
X011037Y020075D01*
X010976Y020136D01*
X010946Y020158D01*
X010656Y019727D01*
X010614Y019755D01*
X010906Y020187D01*
X010830Y020225D01*
X010749Y020252D01*
X010664Y020265D01*
X010578Y020265D01*
X010493Y020252D01*
X010412Y020225D01*
X010335Y020186D01*
X010266Y020136D01*
X010246Y020116D01*
X010248Y020364D01*
X010142Y020727D01*
X010068Y020840D01*
X007365Y024960D01*
X007354Y024987D01*
X007335Y025005D01*
X007321Y025027D01*
X007297Y025044D01*
X007276Y025064D01*
X007252Y025074D01*
X007231Y025089D01*
X007202Y025095D01*
X007175Y025106D01*
X007149Y025106D01*
X007124Y025111D01*
X007095Y025105D01*
X007065Y025105D01*
X007041Y025095D01*
X007016Y025090D01*
X006997Y025078D01*
X006767Y024997D01*
X006251Y024911D01*
X005729Y024945D01*
X005228Y025100D01*
X004777Y025365D01*
X004399Y025727D01*
X004114Y026166D01*
X003937Y026659D01*
X003879Y027179D01*
X003943Y027699D01*
X004124Y028190D01*
X004413Y028627D01*
X004795Y028985D01*
X005249Y029245D01*
X005751Y029395D01*
X006273Y029425D01*
X006789Y029333D01*
X007269Y029126D01*
X007690Y028813D01*
X008027Y028413D01*
X008262Y027945D01*
X008384Y027436D01*
X008398Y027212D01*
X008397Y027208D01*
X008400Y027164D01*
X008400Y027120D01*
X008404Y027110D01*
X008405Y027099D01*
X008425Y027060D01*
X008442Y027019D01*
X008450Y027011D01*
X008455Y027002D01*
X008488Y026973D01*
X008520Y026941D01*
X008530Y026937D01*
X008538Y026931D01*
X008580Y026917D01*
X008621Y026900D01*
X008632Y026900D01*
X008642Y026897D01*
X008686Y026900D01*
X008730Y026900D01*
X008740Y026904D01*
X014656Y027359D01*
X014663Y027360D01*
X014765Y027368D01*
X014904Y027378D01*
X014904Y027378D01*
X015265Y027522D01*
X015566Y027766D01*
X015566Y027766D01*
X015643Y027882D01*
X015643Y027882D01*
X016319Y028895D01*
X016300Y028849D01*
X016300Y028601D01*
X016395Y028371D01*
X016571Y028195D01*
X016685Y028148D01*
X016624Y028117D01*
X016550Y028064D01*
X016486Y028000D01*
X016433Y027926D01*
X016392Y027846D01*
X016364Y027760D01*
X016350Y027670D01*
X016350Y027650D01*
X016900Y027650D01*
X016900Y027600D01*
X016950Y027600D01*
X016950Y027650D01*
X017500Y027650D01*
X017500Y027670D01*
X017486Y027760D01*
X017458Y027846D01*
X017417Y027926D01*
X017318Y028046D02*
X017760Y028046D01*
X017612Y028194D02*
X017276Y028194D01*
X017488Y027749D02*
X018057Y027749D01*
X018080Y027600D02*
X016950Y027600D01*
X017500Y027600D01*
X017500Y027580D01*
X017486Y027490D01*
X017458Y027404D01*
X017417Y027324D01*
X017364Y027250D01*
X017300Y027186D01*
X017226Y027133D01*
X017146Y027092D01*
X017060Y027064D01*
X016970Y027050D01*
X016950Y027050D01*
X016950Y027600D01*
X016900Y027600D02*
X016900Y027050D01*
X016880Y027050D01*
X016790Y027064D01*
X016704Y027092D01*
X016624Y027133D01*
X016550Y027186D01*
X016486Y027250D01*
X016433Y027324D01*
X016392Y027404D01*
X016364Y027490D01*
X016350Y027580D01*
X016350Y027600D01*
X016900Y027600D01*
X015361Y027600D01*
X015265Y027522D02*
X015265Y027522D01*
X015088Y027452D02*
X016377Y027452D01*
X016448Y027303D02*
X013925Y027303D01*
X014765Y027368D02*
X014765Y027368D01*
X015545Y027749D02*
X016362Y027749D01*
X016418Y027897D02*
X015654Y027897D01*
X015566Y027766D02*
X015566Y027766D01*
X015753Y028046D02*
X016532Y028046D01*
X016574Y028194D02*
X015852Y028194D01*
X015951Y028343D02*
X016424Y028343D01*
X016345Y028491D02*
X016050Y028491D01*
X016149Y028640D02*
X016300Y028640D01*
X016300Y028788D02*
X016248Y028788D01*
X016900Y027452D02*
X016950Y027452D01*
X016950Y027303D02*
X016900Y027303D01*
X016900Y027155D02*
X016950Y027155D01*
X017256Y027155D02*
X018300Y027155D01*
X018300Y027006D02*
X010064Y027006D01*
X008452Y027006D02*
X006588Y027006D01*
X006577Y027028D02*
X006534Y027088D01*
X006482Y027140D01*
X006616Y027274D01*
X006695Y027465D01*
X006695Y027672D01*
X006616Y027863D01*
X006517Y027962D01*
X006616Y028061D01*
X006695Y028253D01*
X006695Y028460D01*
X006616Y028651D01*
X006470Y028797D01*
X006278Y028876D01*
X006072Y028876D01*
X005880Y028797D01*
X005734Y028651D01*
X005655Y028460D01*
X005655Y028253D01*
X005734Y028061D01*
X005833Y027962D01*
X005734Y027863D01*
X005655Y027672D01*
X005655Y027465D01*
X005734Y027274D01*
X005868Y027140D01*
X005816Y027088D01*
X005773Y027028D01*
X005739Y026962D01*
X005716Y026891D01*
X005705Y026818D01*
X005705Y026805D01*
X006152Y026805D01*
X006152Y026758D01*
X005705Y026758D01*
X005705Y026744D01*
X005716Y026671D01*
X005739Y026601D01*
X005773Y026535D01*
X005816Y026475D01*
X005868Y026423D01*
X005734Y026289D01*
X005655Y026097D01*
X005655Y025890D01*
X005734Y025699D01*
X005880Y025553D01*
X006072Y025474D01*
X006278Y025474D01*
X006470Y025553D01*
X006616Y025699D01*
X006695Y025890D01*
X006695Y026097D01*
X006616Y026289D01*
X006482Y026423D01*
X006534Y026475D01*
X006577Y026535D01*
X006611Y026601D01*
X006634Y026671D01*
X006645Y026744D01*
X006645Y026758D01*
X006198Y026758D01*
X006198Y026805D01*
X006645Y026805D01*
X006645Y026818D01*
X006634Y026891D01*
X006611Y026962D01*
X006577Y027028D01*
X006497Y027155D02*
X008400Y027155D01*
X008392Y027303D02*
X006628Y027303D01*
X006690Y027452D02*
X008380Y027452D01*
X008345Y027600D02*
X006695Y027600D01*
X006664Y027749D02*
X008309Y027749D01*
X008274Y027897D02*
X006582Y027897D01*
X006600Y028046D02*
X008212Y028046D01*
X008137Y028194D02*
X006671Y028194D01*
X006695Y028343D02*
X008062Y028343D01*
X007961Y028491D02*
X006682Y028491D01*
X006621Y028640D02*
X007836Y028640D01*
X007711Y028788D02*
X006479Y028788D01*
X006513Y029382D02*
X005708Y029382D01*
X005871Y028788D02*
X004585Y028788D01*
X004743Y028937D02*
X007524Y028937D01*
X007324Y029085D02*
X004969Y029085D01*
X005228Y029234D02*
X007020Y029234D01*
X005729Y028640D02*
X004427Y028640D01*
X004323Y028491D02*
X005668Y028491D01*
X005655Y028343D02*
X004225Y028343D01*
X004126Y028194D02*
X005679Y028194D01*
X005750Y028046D02*
X004070Y028046D01*
X004016Y027897D02*
X005768Y027897D01*
X005686Y027749D02*
X003961Y027749D01*
X003930Y027600D02*
X005655Y027600D01*
X005660Y027452D02*
X003912Y027452D01*
X003894Y027303D02*
X005722Y027303D01*
X005853Y027155D02*
X003882Y027155D01*
X003899Y027006D02*
X005762Y027006D01*
X005711Y026858D02*
X003915Y026858D01*
X003932Y026709D02*
X005710Y026709D01*
X005760Y026561D02*
X003973Y026561D01*
X004026Y026412D02*
X005857Y026412D01*
X005724Y026264D02*
X004079Y026264D01*
X004147Y026115D02*
X005662Y026115D01*
X005655Y025967D02*
X004243Y025967D01*
X004339Y025818D02*
X005685Y025818D01*
X005764Y025670D02*
X004458Y025670D01*
X004614Y025521D02*
X005957Y025521D01*
X006393Y025521D02*
X018300Y025521D01*
X018300Y025373D02*
X004769Y025373D01*
X005017Y025224D02*
X018300Y025224D01*
X018300Y025076D02*
X007250Y025076D01*
X007387Y024927D02*
X018300Y024927D01*
X018300Y024779D02*
X007484Y024779D01*
X007582Y024630D02*
X018300Y024630D01*
X018300Y024482D02*
X010909Y024482D01*
X010953Y024460D02*
X010865Y024504D01*
X010771Y024535D01*
X010675Y024550D01*
X010675Y023975D01*
X011250Y023975D01*
X011235Y024071D01*
X011204Y024165D01*
X011160Y024253D01*
X011102Y024332D01*
X011032Y024402D01*
X010953Y024460D01*
X011101Y024333D02*
X018300Y024333D01*
X018300Y024185D02*
X011194Y024185D01*
X011240Y024036D02*
X018327Y024036D01*
X018432Y023888D02*
X010675Y023888D01*
X010675Y023875D02*
X010675Y023975D01*
X010575Y023975D01*
X010575Y024550D01*
X010479Y024535D01*
X010385Y024504D01*
X010297Y024460D01*
X010218Y024402D01*
X010148Y024332D01*
X010090Y024253D01*
X010046Y024165D01*
X010015Y024071D01*
X010000Y023975D01*
X010575Y023975D01*
X010575Y023875D01*
X010675Y023875D01*
X011250Y023875D01*
X011235Y023779D01*
X011204Y023685D01*
X011160Y023597D01*
X011102Y023518D01*
X011032Y023448D01*
X010953Y023390D01*
X010865Y023346D01*
X010771Y023315D01*
X010675Y023300D01*
X010675Y023875D01*
X010575Y023875D02*
X010575Y023300D01*
X010479Y023315D01*
X010385Y023346D01*
X010297Y023390D01*
X010218Y023448D01*
X010148Y023518D01*
X010090Y023597D01*
X010046Y023685D01*
X010015Y023779D01*
X010000Y023875D01*
X010575Y023875D01*
X010575Y023888D02*
X008069Y023888D01*
X007971Y024036D02*
X010010Y024036D01*
X010056Y024185D02*
X007874Y024185D01*
X007776Y024333D02*
X010149Y024333D01*
X010341Y024482D02*
X007679Y024482D01*
X008166Y023739D02*
X010028Y023739D01*
X010095Y023591D02*
X008263Y023591D01*
X008361Y023442D02*
X010226Y023442D01*
X010575Y023442D02*
X010675Y023442D01*
X010675Y023591D02*
X010575Y023591D01*
X010575Y023739D02*
X010675Y023739D01*
X010675Y024036D02*
X010575Y024036D01*
X010575Y024185D02*
X010675Y024185D01*
X010675Y024333D02*
X010575Y024333D01*
X010575Y024482D02*
X010675Y024482D01*
X011222Y023739D02*
X018581Y023739D01*
X018729Y023591D02*
X011155Y023591D01*
X011024Y023442D02*
X018878Y023442D01*
X019215Y023294D02*
X008458Y023294D01*
X008556Y023145D02*
X019300Y023145D01*
X019300Y022997D02*
X008653Y022997D01*
X008750Y022848D02*
X019300Y022848D01*
X019300Y022700D02*
X008848Y022700D01*
X008945Y022551D02*
X019320Y022551D01*
X019417Y022403D02*
X009043Y022403D01*
X009140Y022254D02*
X019566Y022254D01*
X019714Y022106D02*
X009238Y022106D01*
X009335Y021957D02*
X019863Y021957D01*
X020011Y021809D02*
X009432Y021809D01*
X009530Y021660D02*
X020050Y021660D01*
X020050Y021512D02*
X009627Y021512D01*
X009725Y021363D02*
X020050Y021363D01*
X020050Y021215D02*
X009822Y021215D01*
X009919Y021066D02*
X020050Y021066D01*
X020050Y020918D02*
X010017Y020918D01*
X010068Y020840D02*
X010068Y020840D01*
X010114Y020769D02*
X020050Y020769D01*
X020050Y020621D02*
X010173Y020621D01*
X010142Y020727D02*
X010142Y020727D01*
X010217Y020472D02*
X020050Y020472D01*
X020050Y020324D02*
X010248Y020324D01*
X010248Y020364D02*
X010248Y020364D01*
X010247Y020175D02*
X010320Y020175D01*
X010697Y019878D02*
X010758Y019878D01*
X010797Y020026D02*
X010858Y020026D01*
X010898Y020175D02*
X020050Y020175D01*
X020050Y020026D02*
X019630Y020026D01*
X019643Y020020D02*
X019584Y020050D01*
X019522Y020070D01*
X019458Y020080D01*
X019430Y020080D01*
X019430Y019430D01*
X019840Y019430D01*
X019840Y019698D01*
X019830Y019762D01*
X019810Y019824D01*
X019780Y019883D01*
X019742Y019935D01*
X019695Y019982D01*
X019643Y020020D01*
X019782Y019878D02*
X020010Y019878D01*
X019960Y019729D02*
X019835Y019729D01*
X019840Y019581D02*
X019960Y019581D01*
X019960Y019432D02*
X019840Y019432D01*
X019840Y019420D02*
X019430Y019420D01*
X019430Y019430D01*
X019420Y019430D01*
X019420Y020080D01*
X019392Y020080D01*
X019328Y020070D01*
X019266Y020050D01*
X019207Y020020D01*
X019155Y019982D01*
X019108Y019935D01*
X019070Y019883D01*
X019040Y019824D01*
X019020Y019762D01*
X019010Y019698D01*
X019010Y019430D01*
X019420Y019430D01*
X019420Y019420D01*
X019430Y019420D01*
X019430Y018770D01*
X019458Y018770D01*
X019522Y018780D01*
X019584Y018800D01*
X019643Y018830D01*
X019695Y018868D01*
X019742Y018915D01*
X019780Y018967D01*
X019810Y019026D01*
X019830Y019088D01*
X019840Y019152D01*
X019840Y019420D01*
X019840Y019284D02*
X019960Y019284D01*
X019960Y019135D02*
X019837Y019135D01*
X019790Y018987D02*
X020004Y018987D01*
X020050Y018838D02*
X019654Y018838D01*
X019430Y018838D02*
X019420Y018838D01*
X019420Y018770D02*
X019420Y019420D01*
X019010Y019420D01*
X019010Y019152D01*
X019020Y019088D01*
X019040Y019026D01*
X019070Y018967D01*
X019108Y018915D01*
X019155Y018868D01*
X019207Y018830D01*
X019266Y018800D01*
X019328Y018780D01*
X019392Y018770D01*
X019420Y018770D01*
X019420Y018987D02*
X019430Y018987D01*
X019420Y019135D02*
X019430Y019135D01*
X019420Y019284D02*
X019430Y019284D01*
X019420Y019432D02*
X019430Y019432D01*
X019420Y019581D02*
X019430Y019581D01*
X019420Y019729D02*
X019430Y019729D01*
X019420Y019878D02*
X019430Y019878D01*
X019420Y020026D02*
X019430Y020026D01*
X019220Y020026D02*
X018721Y020026D01*
X018688Y020059D02*
X018517Y020130D01*
X018333Y020130D01*
X018162Y020059D01*
X018031Y019928D01*
X017960Y019757D01*
X017960Y019093D01*
X018031Y018922D01*
X018162Y018791D01*
X018333Y018720D01*
X018517Y018720D01*
X018688Y018791D01*
X018819Y018922D01*
X018890Y019093D01*
X018890Y019757D01*
X018819Y019928D01*
X018688Y020059D01*
X018840Y019878D02*
X019068Y019878D01*
X019015Y019729D02*
X018890Y019729D01*
X018890Y019581D02*
X019010Y019581D01*
X019010Y019432D02*
X018890Y019432D01*
X018890Y019284D02*
X019010Y019284D01*
X019013Y019135D02*
X018890Y019135D01*
X018846Y018987D02*
X019060Y018987D01*
X019196Y018838D02*
X018736Y018838D01*
X018114Y018838D02*
X017736Y018838D01*
X017688Y018791D02*
X017819Y018922D01*
X017890Y019093D01*
X017890Y019757D01*
X017819Y019928D01*
X017688Y020059D01*
X017517Y020130D01*
X017333Y020130D01*
X017162Y020059D01*
X017031Y019928D01*
X016960Y019757D01*
X016960Y019093D01*
X017031Y018922D01*
X017162Y018791D01*
X017333Y018720D01*
X017517Y018720D01*
X017688Y018791D01*
X017846Y018987D02*
X018004Y018987D01*
X017960Y019135D02*
X017890Y019135D01*
X017890Y019284D02*
X017960Y019284D01*
X017960Y019432D02*
X017890Y019432D01*
X017890Y019581D02*
X017960Y019581D01*
X017960Y019729D02*
X017890Y019729D01*
X017840Y019878D02*
X018010Y019878D01*
X018129Y020026D02*
X017721Y020026D01*
X017129Y020026D02*
X016721Y020026D01*
X016688Y020059D02*
X016517Y020130D01*
X016333Y020130D01*
X016162Y020059D01*
X016031Y019928D01*
X015960Y019757D01*
X015960Y019093D01*
X016031Y018922D01*
X016162Y018791D01*
X016333Y018720D01*
X016517Y018720D01*
X016688Y018791D01*
X016819Y018922D01*
X016890Y019093D01*
X016890Y019757D01*
X016819Y019928D01*
X016688Y020059D01*
X016840Y019878D02*
X017010Y019878D01*
X016960Y019729D02*
X016890Y019729D01*
X016890Y019581D02*
X016960Y019581D01*
X016960Y019432D02*
X016890Y019432D01*
X016890Y019284D02*
X016960Y019284D01*
X016960Y019135D02*
X016890Y019135D01*
X016846Y018987D02*
X017004Y018987D01*
X017114Y018838D02*
X016736Y018838D01*
X016114Y018838D02*
X015736Y018838D01*
X015688Y018791D02*
X015819Y018922D01*
X015890Y019093D01*
X015890Y019757D01*
X015819Y019928D01*
X015688Y020059D01*
X015517Y020130D01*
X015333Y020130D01*
X015162Y020059D01*
X015031Y019928D01*
X014960Y019757D01*
X014960Y019093D01*
X015031Y018922D01*
X015162Y018791D01*
X015333Y018720D01*
X015517Y018720D01*
X015688Y018791D01*
X015846Y018987D02*
X016004Y018987D01*
X015960Y019135D02*
X015890Y019135D01*
X015890Y019284D02*
X015960Y019284D01*
X015960Y019432D02*
X015890Y019432D01*
X015890Y019581D02*
X015960Y019581D01*
X015960Y019729D02*
X015890Y019729D01*
X015840Y019878D02*
X016010Y019878D01*
X016129Y020026D02*
X015721Y020026D01*
X015129Y020026D02*
X014721Y020026D01*
X014688Y020059D02*
X014517Y020130D01*
X014333Y020130D01*
X014162Y020059D01*
X014031Y019928D01*
X013960Y019757D01*
X013960Y019093D01*
X014031Y018922D01*
X014162Y018791D01*
X014333Y018720D01*
X014517Y018720D01*
X014688Y018791D01*
X014819Y018922D01*
X014890Y019093D01*
X014890Y019757D01*
X014819Y019928D01*
X014688Y020059D01*
X014840Y019878D02*
X015010Y019878D01*
X014960Y019729D02*
X014890Y019729D01*
X014890Y019581D02*
X014960Y019581D01*
X014960Y019432D02*
X014890Y019432D01*
X014890Y019284D02*
X014960Y019284D01*
X014960Y019135D02*
X014890Y019135D01*
X014846Y018987D02*
X015004Y018987D01*
X015114Y018838D02*
X014736Y018838D01*
X014114Y018838D02*
X013736Y018838D01*
X013688Y018791D02*
X013819Y018922D01*
X013890Y019093D01*
X013890Y019757D01*
X013819Y019928D01*
X013688Y020059D01*
X013517Y020130D01*
X013333Y020130D01*
X013162Y020059D01*
X013031Y019928D01*
X012960Y019757D01*
X012960Y019093D01*
X013031Y018922D01*
X013162Y018791D01*
X013333Y018720D01*
X013517Y018720D01*
X013688Y018791D01*
X013846Y018987D02*
X014004Y018987D01*
X013960Y019135D02*
X013890Y019135D01*
X013890Y019284D02*
X013960Y019284D01*
X013960Y019432D02*
X013890Y019432D01*
X013890Y019581D02*
X013960Y019581D01*
X013960Y019729D02*
X013890Y019729D01*
X013840Y019878D02*
X014010Y019878D01*
X014129Y020026D02*
X013721Y020026D01*
X013129Y020026D02*
X011072Y020026D01*
X011143Y019878D02*
X013010Y019878D01*
X012960Y019729D02*
X011166Y019729D01*
X011149Y019581D02*
X012960Y019581D01*
X012960Y019432D02*
X011003Y019432D01*
X011058Y019395D02*
X010628Y019685D01*
X010380Y019318D01*
X010096Y018898D01*
X010528Y018607D01*
X010567Y018682D01*
X010593Y018764D01*
X010607Y018848D01*
X010607Y018934D01*
X010593Y019019D01*
X010567Y019100D01*
X010528Y019177D01*
X010523Y019184D01*
X010578Y019175D01*
X010664Y019175D01*
X010749Y019189D01*
X010830Y019215D01*
X010907Y019254D01*
X010976Y019304D01*
X011037Y019365D01*
X011058Y019395D01*
X010948Y019284D02*
X012960Y019284D01*
X012960Y019135D02*
X010549Y019135D01*
X010598Y018987D02*
X013004Y018987D01*
X013114Y018838D02*
X010605Y018838D01*
X010569Y018690D02*
X019910Y018690D01*
X019761Y018541D02*
X010481Y018541D01*
X010405Y018690D02*
X010315Y018690D01*
X010185Y018838D02*
X010095Y018838D01*
X010096Y018987D02*
X010157Y018987D01*
X010196Y019135D02*
X010257Y019135D01*
X010297Y019284D02*
X010357Y019284D01*
X010397Y019432D02*
X010457Y019432D01*
X010497Y019581D02*
X010557Y019581D01*
X010652Y019729D02*
X010657Y019729D01*
X010783Y019581D02*
X010872Y019581D01*
X009932Y017650D02*
X017419Y017650D01*
X017568Y017502D02*
X009705Y017502D01*
X009538Y017353D02*
X017721Y017353D01*
X017688Y017059D02*
X017517Y017130D01*
X017333Y017130D01*
X017162Y017059D01*
X017031Y016928D01*
X016960Y016757D01*
X016960Y016093D01*
X017031Y015922D01*
X017162Y015791D01*
X017333Y015720D01*
X017517Y015720D01*
X017688Y015791D01*
X017819Y015922D01*
X017890Y016093D01*
X017890Y016757D01*
X017819Y016928D01*
X017688Y017059D01*
X017691Y017056D02*
X018159Y017056D01*
X018162Y017059D02*
X018031Y016928D01*
X017960Y016757D01*
X017960Y016093D01*
X018031Y015922D01*
X018162Y015791D01*
X018333Y015720D01*
X018517Y015720D01*
X018688Y015791D01*
X018819Y015922D01*
X018890Y016093D01*
X018890Y016757D01*
X018819Y016928D01*
X018688Y017059D01*
X018517Y017130D01*
X018333Y017130D01*
X018162Y017059D01*
X018022Y016908D02*
X017828Y016908D01*
X017889Y016759D02*
X017961Y016759D01*
X017960Y016611D02*
X017890Y016611D01*
X017890Y016462D02*
X017960Y016462D01*
X017960Y016314D02*
X017890Y016314D01*
X017890Y016165D02*
X017960Y016165D01*
X017991Y016017D02*
X017859Y016017D01*
X017766Y015868D02*
X018084Y015868D01*
X018493Y015423D02*
X016447Y015423D01*
X016299Y015274D02*
X018344Y015274D01*
X018196Y015126D02*
X016150Y015126D01*
X016002Y014977D02*
X018047Y014977D01*
X017899Y014829D02*
X015853Y014829D01*
X015797Y014680D02*
X015705Y014680D01*
X015375Y014775D02*
X015375Y013775D01*
X017685Y011465D01*
X019045Y011465D01*
X018800Y012007D02*
X017567Y012007D01*
X017715Y011859D02*
X018598Y011859D01*
X019290Y012007D02*
X021360Y012007D01*
X021268Y011969D02*
X021101Y011802D01*
X021010Y011583D01*
X021010Y011347D01*
X021101Y011128D01*
X021268Y010961D01*
X021487Y010870D01*
X021723Y010870D01*
X021942Y010961D01*
X022109Y011128D01*
X022200Y011347D01*
X022200Y011583D01*
X022109Y011802D01*
X021942Y011969D01*
X021723Y012060D01*
X021487Y012060D01*
X021268Y011969D01*
X021158Y011859D02*
X019492Y011859D01*
X019587Y011710D02*
X021063Y011710D01*
X021010Y011562D02*
X019640Y011562D01*
X019640Y011413D02*
X021010Y011413D01*
X021044Y011265D02*
X019606Y011265D01*
X019538Y011116D02*
X021112Y011116D01*
X021261Y010968D02*
X019389Y010968D01*
X018701Y010968D02*
X016644Y010968D01*
X016743Y010819D02*
X023607Y010819D01*
X023508Y010671D02*
X016842Y010671D01*
X016941Y010522D02*
X023409Y010522D01*
X023310Y010374D02*
X017040Y010374D01*
X017139Y010225D02*
X018974Y010225D01*
X019002Y010230D02*
X018917Y010217D01*
X018836Y010190D01*
X018759Y010151D01*
X018690Y010101D01*
X018629Y010040D01*
X018579Y009971D01*
X018540Y009894D01*
X018513Y009813D01*
X018500Y009728D01*
X018500Y009710D01*
X019020Y009710D01*
X019020Y010230D01*
X019002Y010230D01*
X019020Y010225D02*
X019070Y010225D01*
X019070Y010230D02*
X019088Y010230D01*
X019173Y010217D01*
X019254Y010190D01*
X019331Y010151D01*
X019400Y010101D01*
X019461Y010040D01*
X019511Y009971D01*
X019550Y009894D01*
X019577Y009813D01*
X019590Y009728D01*
X019590Y009710D01*
X019070Y009710D01*
X019070Y009660D01*
X019590Y009660D01*
X019590Y009642D01*
X019577Y009557D01*
X019550Y009476D01*
X019511Y009399D01*
X019461Y009330D01*
X019400Y009269D01*
X019331Y009219D01*
X019254Y009180D01*
X019173Y009153D01*
X019088Y009140D01*
X019070Y009140D01*
X019070Y009660D01*
X019020Y009660D01*
X019020Y009140D01*
X019002Y009140D01*
X018917Y009153D01*
X018836Y009180D01*
X018759Y009219D01*
X018690Y009269D01*
X018629Y009330D01*
X018579Y009399D01*
X018540Y009476D01*
X018513Y009557D01*
X018500Y009642D01*
X018500Y009660D01*
X019020Y009660D01*
X019020Y009710D01*
X019070Y009710D01*
X019070Y010230D01*
X019116Y010225D02*
X021355Y010225D01*
X021268Y010189D02*
X021101Y010022D01*
X021010Y009803D01*
X021010Y009567D01*
X021101Y009348D01*
X021268Y009181D01*
X021487Y009090D01*
X021723Y009090D01*
X021942Y009181D01*
X022109Y009348D01*
X022200Y009567D01*
X022200Y009803D01*
X022109Y010022D01*
X021942Y010189D01*
X021723Y010280D01*
X021487Y010280D01*
X021268Y010189D01*
X021156Y010077D02*
X019424Y010077D01*
X019533Y009928D02*
X021062Y009928D01*
X021010Y009780D02*
X019582Y009780D01*
X019588Y009631D02*
X021010Y009631D01*
X021045Y009483D02*
X019552Y009483D01*
X019464Y009334D02*
X021114Y009334D01*
X021263Y009186D02*
X019266Y009186D01*
X019070Y009186D02*
X019020Y009186D01*
X019020Y009334D02*
X019070Y009334D01*
X019070Y009483D02*
X019020Y009483D01*
X019020Y009631D02*
X019070Y009631D01*
X019070Y009780D02*
X019020Y009780D01*
X019020Y009928D02*
X019070Y009928D01*
X019070Y010077D02*
X019020Y010077D01*
X018666Y010077D02*
X017238Y010077D01*
X017337Y009928D02*
X018557Y009928D01*
X018508Y009780D02*
X017436Y009780D01*
X017535Y009631D02*
X018502Y009631D01*
X018538Y009483D02*
X017634Y009483D01*
X017733Y009334D02*
X018626Y009334D01*
X018824Y009186D02*
X017832Y009186D01*
X017931Y009037D02*
X022419Y009037D01*
X022320Y008889D02*
X018030Y008889D01*
X018129Y008740D02*
X022221Y008740D01*
X022122Y008592D02*
X018228Y008592D01*
X018327Y008443D02*
X022023Y008443D01*
X021924Y008295D02*
X018426Y008295D01*
X018525Y008146D02*
X021825Y008146D01*
X021726Y007998D02*
X018624Y007998D01*
X018723Y007849D02*
X021627Y007849D01*
X021528Y007701D02*
X018822Y007701D01*
X018873Y007623D02*
X015643Y012468D01*
X015566Y012584D01*
X015265Y012828D01*
X015265Y012828D01*
X014904Y012972D01*
X014765Y012982D01*
X014765Y012982D01*
X014712Y012986D01*
X014711Y012987D01*
X014656Y012991D01*
X008748Y013445D01*
X008745Y013446D01*
X008693Y013449D01*
X008642Y013453D01*
X008639Y013452D01*
X008636Y013453D01*
X008587Y013436D01*
X008538Y013419D01*
X008535Y013417D01*
X008533Y013417D01*
X008494Y013382D01*
X008455Y013348D01*
X008453Y013346D01*
X008451Y013344D01*
X008428Y013297D01*
X008405Y013251D01*
X008405Y013248D01*
X008404Y013245D01*
X008401Y013193D01*
X008400Y013189D01*
X008370Y012923D01*
X008223Y012406D01*
X007965Y011935D01*
X007610Y011532D01*
X007174Y011217D01*
X006680Y011006D01*
X006152Y010908D01*
X005615Y010930D01*
X005096Y011069D01*
X005005Y011116D02*
X006940Y011116D01*
X007241Y011265D02*
X004723Y011265D01*
X004509Y011413D02*
X007446Y011413D01*
X007636Y011562D02*
X004335Y011562D01*
X004179Y011710D02*
X007767Y011710D01*
X007898Y011859D02*
X004068Y011859D01*
X003957Y012007D02*
X008005Y012007D01*
X008086Y012156D02*
X006500Y012156D01*
X006467Y012137D02*
X006758Y012305D01*
X006995Y012542D01*
X007163Y012833D01*
X007250Y013157D01*
X007250Y013493D01*
X007163Y013817D01*
X006995Y014108D01*
X006758Y014345D01*
X006467Y014513D01*
X006143Y014600D01*
X005807Y014600D01*
X005483Y014513D01*
X005192Y014345D01*
X004955Y014108D01*
X004787Y013817D01*
X004700Y013493D01*
X004700Y013157D01*
X004787Y012833D01*
X004955Y012542D01*
X005192Y012305D01*
X005483Y012137D01*
X005807Y012050D01*
X006143Y012050D01*
X006467Y012137D01*
X006757Y012304D02*
X008167Y012304D01*
X008236Y012453D02*
X006906Y012453D01*
X007030Y012601D02*
X008279Y012601D01*
X008321Y012750D02*
X007115Y012750D01*
X007181Y012898D02*
X008363Y012898D01*
X008384Y013047D02*
X007220Y013047D01*
X007250Y013195D02*
X008401Y013195D01*
X008451Y013344D02*
X007250Y013344D01*
X007250Y013492D02*
X015233Y013492D01*
X015106Y013641D02*
X013519Y013641D01*
X013673Y013789D02*
X015075Y013789D01*
X015075Y013938D02*
X013753Y013938D01*
X013800Y014086D02*
X015075Y014086D01*
X015075Y014235D02*
X013800Y014235D01*
X013765Y014383D02*
X015075Y014383D01*
X015075Y014532D02*
X013702Y014532D01*
X013553Y014680D02*
X015075Y014680D01*
X015075Y014829D02*
X013475Y014829D01*
X013602Y014977D02*
X015153Y014977D01*
X015302Y015126D02*
X013709Y015126D01*
X013725Y015274D02*
X015450Y015274D01*
X015599Y015423D02*
X013725Y015423D01*
X013725Y015571D02*
X015747Y015571D01*
X015896Y015720D02*
X013725Y015720D01*
X013766Y015868D02*
X014084Y015868D01*
X014031Y015922D02*
X014162Y015791D01*
X014333Y015720D01*
X014517Y015720D01*
X014688Y015791D01*
X014819Y015922D01*
X014890Y016093D01*
X014890Y016757D01*
X014819Y016928D01*
X014688Y017059D01*
X014517Y017130D01*
X014333Y017130D01*
X014162Y017059D01*
X014031Y016928D01*
X013960Y016757D01*
X013960Y016093D01*
X014031Y015922D01*
X013991Y016017D02*
X013859Y016017D01*
X013890Y016165D02*
X013960Y016165D01*
X013960Y016314D02*
X013890Y016314D01*
X013890Y016462D02*
X013960Y016462D01*
X013960Y016611D02*
X013890Y016611D01*
X013889Y016759D02*
X013961Y016759D01*
X014022Y016908D02*
X013828Y016908D01*
X013691Y017056D02*
X014159Y017056D01*
X014691Y017056D02*
X015159Y017056D01*
X015162Y017059D02*
X015031Y016928D01*
X014960Y016757D01*
X014960Y016093D01*
X015031Y015922D01*
X015162Y015791D01*
X015333Y015720D01*
X015517Y015720D01*
X015688Y015791D01*
X015819Y015922D01*
X015890Y016093D01*
X015890Y016757D01*
X015819Y016928D01*
X015688Y017059D01*
X015517Y017130D01*
X015333Y017130D01*
X015162Y017059D01*
X015022Y016908D02*
X014828Y016908D01*
X014889Y016759D02*
X014961Y016759D01*
X014960Y016611D02*
X014890Y016611D01*
X014890Y016462D02*
X014960Y016462D01*
X014960Y016314D02*
X014890Y016314D01*
X014890Y016165D02*
X014960Y016165D01*
X014991Y016017D02*
X014859Y016017D01*
X014766Y015868D02*
X015084Y015868D01*
X015766Y015868D02*
X016044Y015868D01*
X015991Y016017D02*
X015859Y016017D01*
X015890Y016165D02*
X015960Y016165D01*
X015960Y016314D02*
X015890Y016314D01*
X015890Y016462D02*
X015960Y016462D01*
X015960Y016611D02*
X015890Y016611D01*
X015889Y016759D02*
X015961Y016759D01*
X016022Y016908D02*
X015828Y016908D01*
X015691Y017056D02*
X016159Y017056D01*
X016691Y017056D02*
X017159Y017056D01*
X017022Y016908D02*
X016828Y016908D01*
X016889Y016759D02*
X016961Y016759D01*
X016960Y016611D02*
X016890Y016611D01*
X016890Y016462D02*
X016960Y016462D01*
X016960Y016314D02*
X016890Y016314D01*
X016890Y016165D02*
X016960Y016165D01*
X016991Y016017D02*
X016859Y016017D01*
X016766Y015868D02*
X017084Y015868D01*
X016706Y015720D02*
X018790Y015720D01*
X018766Y015868D02*
X018938Y015868D01*
X018991Y016017D02*
X018859Y016017D01*
X018890Y016165D02*
X018960Y016165D01*
X018960Y016314D02*
X018890Y016314D01*
X018890Y016462D02*
X018960Y016462D01*
X018960Y016611D02*
X018890Y016611D01*
X018889Y016759D02*
X018961Y016759D01*
X019022Y016908D02*
X018828Y016908D01*
X018691Y017056D02*
X019050Y017056D01*
X019050Y017205D02*
X009538Y017205D01*
X009514Y017056D02*
X013159Y017056D01*
X013022Y016908D02*
X009453Y016908D01*
X009311Y016759D02*
X012961Y016759D01*
X012960Y016611D02*
X008942Y016611D01*
X008979Y016462D02*
X012960Y016462D01*
X012960Y016314D02*
X008979Y016314D01*
X008929Y016165D02*
X012960Y016165D01*
X012991Y016017D02*
X008839Y016017D01*
X008646Y015868D02*
X013084Y015868D01*
X013125Y015720D02*
X008409Y015720D01*
X008420Y015571D02*
X013125Y015571D01*
X013125Y015423D02*
X008406Y015423D01*
X008550Y015274D02*
X013050Y015274D01*
X012913Y015126D02*
X008698Y015126D01*
X008847Y014977D02*
X012875Y014977D01*
X012875Y014829D02*
X008995Y014829D01*
X009144Y014680D02*
X010247Y014680D01*
X010098Y014532D02*
X009292Y014532D01*
X009225Y014175D02*
X007825Y015575D01*
X007433Y015126D02*
X004367Y015126D01*
X004217Y014977D02*
X007998Y014977D01*
X008147Y014829D02*
X004095Y014829D01*
X003972Y014680D02*
X008295Y014680D01*
X008444Y014532D02*
X006397Y014532D01*
X006692Y014383D02*
X008592Y014383D01*
X008741Y014235D02*
X006868Y014235D01*
X007008Y014086D02*
X008889Y014086D01*
X009038Y013938D02*
X007093Y013938D01*
X007171Y013789D02*
X010127Y013789D01*
X010281Y013641D02*
X007210Y013641D01*
X007305Y015274D02*
X004559Y015274D01*
X004773Y015423D02*
X007244Y015423D01*
X006887Y015571D02*
X005091Y015571D01*
X005643Y015720D02*
X006328Y015720D01*
X006788Y015613D02*
X006788Y015613D01*
X005553Y014532D02*
X003889Y014532D01*
X003814Y014383D02*
X005258Y014383D01*
X005082Y014235D02*
X003739Y014235D01*
X003686Y014086D02*
X004942Y014086D01*
X004857Y013938D02*
X003648Y013938D01*
X003611Y013789D02*
X004779Y013789D01*
X004740Y013641D02*
X003576Y013641D01*
X003573Y013492D02*
X004700Y013492D01*
X004700Y013344D02*
X003570Y013344D01*
X003566Y013195D02*
X004700Y013195D01*
X004730Y013047D02*
X003578Y013047D01*
X003608Y012898D02*
X004769Y012898D01*
X004835Y012750D02*
X003638Y012750D01*
X003667Y012601D02*
X004920Y012601D01*
X005044Y012453D02*
X003731Y012453D01*
X003797Y012304D02*
X005193Y012304D01*
X005450Y012156D02*
X003863Y012156D01*
X005472Y010968D02*
X006476Y010968D01*
X009225Y014175D02*
X010625Y014175D01*
X011123Y013789D02*
X011227Y013789D01*
X011381Y013641D02*
X010969Y013641D01*
X011725Y014175D02*
X013175Y014175D01*
X013175Y014975D01*
X013425Y015225D01*
X013425Y016425D01*
X012797Y014680D02*
X012103Y014680D01*
X012252Y014532D02*
X012648Y014532D01*
X012677Y013789D02*
X012223Y013789D01*
X012069Y013641D02*
X012831Y013641D01*
X011994Y013195D02*
X015530Y013195D01*
X015679Y013047D02*
X013925Y013047D01*
X014904Y012972D02*
X014904Y012972D01*
X015088Y012898D02*
X015827Y012898D01*
X015976Y012750D02*
X015361Y012750D01*
X015545Y012601D02*
X016124Y012601D01*
X016273Y012453D02*
X015654Y012453D01*
X015643Y012468D02*
X015643Y012468D01*
X015566Y012584D02*
X015566Y012584D01*
X015753Y012304D02*
X016421Y012304D01*
X016570Y012156D02*
X015852Y012156D01*
X015951Y012007D02*
X016718Y012007D01*
X016867Y011859D02*
X016050Y011859D01*
X016149Y011710D02*
X017015Y011710D01*
X017164Y011562D02*
X016248Y011562D01*
X016347Y011413D02*
X017312Y011413D01*
X017461Y011265D02*
X016446Y011265D01*
X016545Y011116D02*
X018552Y011116D01*
X017418Y012156D02*
X024498Y012156D01*
X024399Y012007D02*
X021850Y012007D01*
X022052Y011859D02*
X024300Y011859D01*
X024201Y011710D02*
X022147Y011710D01*
X022200Y011562D02*
X024102Y011562D01*
X024003Y011413D02*
X022200Y011413D01*
X022166Y011265D02*
X023904Y011265D01*
X023805Y011116D02*
X022098Y011116D01*
X021949Y010968D02*
X023706Y010968D01*
X023211Y010225D02*
X021855Y010225D01*
X022054Y010077D02*
X023112Y010077D01*
X023013Y009928D02*
X022148Y009928D01*
X022200Y009780D02*
X022914Y009780D01*
X022815Y009631D02*
X022200Y009631D01*
X022165Y009483D02*
X022716Y009483D01*
X022617Y009334D02*
X022096Y009334D01*
X021947Y009186D02*
X022518Y009186D01*
X021477Y007623D02*
X021477Y007623D01*
X024707Y012468D01*
X024707Y012468D01*
X024784Y012584D01*
X024784Y012584D01*
X025085Y012828D01*
X025085Y012828D01*
X025446Y012972D01*
X025446Y012972D01*
X025585Y012982D01*
X025585Y012982D01*
X025638Y012986D01*
X025639Y012987D01*
X025640Y012987D01*
X025694Y012991D01*
X025694Y012991D01*
X031602Y013445D01*
X031605Y013446D01*
X031657Y013449D01*
X031708Y013453D01*
X031711Y013452D01*
X031714Y013453D01*
X031763Y013436D01*
X031812Y013419D01*
X031815Y013417D01*
X031817Y013417D01*
X031856Y013382D01*
X031895Y013348D01*
X031897Y013346D01*
X031899Y013344D01*
X031922Y013297D01*
X031945Y013251D01*
X031945Y013248D01*
X031946Y013245D01*
X031949Y013193D01*
X031950Y013189D01*
X031980Y012923D01*
X032127Y012406D01*
X032385Y011935D01*
X032741Y011531D01*
X033176Y011216D01*
X033670Y011005D01*
X034199Y010908D01*
X034736Y010929D01*
X035255Y011068D01*
X035731Y011318D01*
X036140Y011667D01*
X036462Y012097D01*
X036681Y012588D01*
X036787Y013115D01*
X036775Y013652D01*
X036644Y014174D01*
X036402Y014653D01*
X036060Y015068D01*
X035635Y015397D01*
X035148Y015625D01*
X034623Y015739D01*
X034086Y015736D01*
X033562Y015614D01*
X033328Y015516D01*
X033304Y015499D01*
X033283Y015495D01*
X033265Y015486D01*
X033230Y015484D01*
X033197Y015477D01*
X033176Y015481D01*
X033155Y015480D01*
X033123Y015491D01*
X033089Y015497D01*
X033072Y015509D01*
X033052Y015516D01*
X033026Y015538D01*
X032998Y015557D01*
X032986Y015574D01*
X032970Y015588D01*
X032955Y015619D01*
X030303Y019500D01*
X030303Y019500D01*
X030225Y019614D01*
X030225Y019614D01*
X030111Y019982D01*
X030111Y019982D01*
X030111Y020368D01*
X030111Y020368D01*
X030225Y020736D01*
X030225Y020736D01*
X030303Y020849D01*
X030923Y021756D01*
X030696Y021662D01*
X030424Y021662D01*
X030174Y021765D01*
X030655Y021363D02*
X022950Y021363D01*
X022950Y021215D02*
X030553Y021215D01*
X030451Y021066D02*
X022973Y021066D01*
X023121Y020918D02*
X030350Y020918D01*
X030248Y020769D02*
X023270Y020769D01*
X023418Y020621D02*
X030190Y020621D01*
X030144Y020472D02*
X023567Y020472D01*
X023682Y020324D02*
X030111Y020324D01*
X030111Y020175D02*
X023700Y020175D01*
X023721Y020026D02*
X024129Y020026D01*
X024162Y020059D02*
X024031Y019928D01*
X023960Y019757D01*
X023960Y019093D01*
X024031Y018922D01*
X024162Y018791D01*
X024333Y018720D01*
X024517Y018720D01*
X024688Y018791D01*
X024819Y018922D01*
X024890Y019093D01*
X024890Y019757D01*
X024819Y019928D01*
X024688Y020059D01*
X024517Y020130D01*
X024333Y020130D01*
X024162Y020059D01*
X024010Y019878D02*
X023840Y019878D01*
X023890Y019729D02*
X023960Y019729D01*
X023960Y019581D02*
X023890Y019581D01*
X023890Y019432D02*
X023960Y019432D01*
X023960Y019284D02*
X023890Y019284D01*
X023890Y019135D02*
X023960Y019135D01*
X024004Y018987D02*
X023846Y018987D01*
X023736Y018838D02*
X024114Y018838D01*
X024736Y018838D02*
X025114Y018838D01*
X025125Y018827D02*
X025125Y018665D01*
X025171Y018555D01*
X025521Y018205D01*
X025605Y018121D01*
X025715Y018075D01*
X026251Y018075D01*
X026875Y017451D01*
X026875Y016794D01*
X026819Y016928D01*
X026688Y017059D01*
X026517Y017130D01*
X026333Y017130D01*
X026162Y017059D01*
X026031Y016928D01*
X025960Y016757D01*
X025960Y016093D01*
X026031Y015922D01*
X026162Y015791D01*
X026333Y015720D01*
X026517Y015720D01*
X026688Y015791D01*
X026819Y015922D01*
X026875Y016056D01*
X026875Y015815D01*
X026921Y015705D01*
X027268Y015358D01*
X027345Y015171D01*
X027521Y014995D01*
X027570Y014975D01*
X027521Y014955D01*
X027345Y014779D01*
X027250Y014549D01*
X027250Y014301D01*
X027345Y014071D01*
X027521Y013895D01*
X027751Y013800D01*
X027999Y013800D01*
X028229Y013895D01*
X028405Y014071D01*
X028427Y014125D01*
X028485Y014125D01*
X028595Y014171D01*
X028829Y014405D01*
X028929Y014505D01*
X029029Y014605D01*
X029075Y014715D01*
X029075Y017635D01*
X029029Y017745D01*
X028945Y017829D01*
X027095Y019679D01*
X026985Y019725D01*
X026890Y019725D01*
X026890Y019757D01*
X026819Y019928D01*
X026688Y020059D01*
X026517Y020130D01*
X026333Y020130D01*
X026162Y020059D01*
X026031Y019928D01*
X025960Y019757D01*
X025960Y019093D01*
X026031Y018922D01*
X026162Y018791D01*
X026333Y018720D01*
X026517Y018720D01*
X026688Y018791D01*
X026819Y018922D01*
X026873Y019052D01*
X028475Y017451D01*
X028475Y016810D01*
X028405Y016979D01*
X028229Y017155D01*
X027999Y017250D01*
X027751Y017250D01*
X027521Y017155D01*
X027475Y017109D01*
X027475Y017635D01*
X027429Y017745D01*
X027345Y017829D01*
X026545Y018629D01*
X026435Y018675D01*
X025899Y018675D01*
X025736Y018838D01*
X025819Y018922D01*
X025890Y019093D01*
X025890Y019757D01*
X025819Y019928D01*
X025688Y020059D01*
X025517Y020130D01*
X025333Y020130D01*
X025162Y020059D01*
X025031Y019928D01*
X024960Y019757D01*
X024960Y019093D01*
X025031Y018922D01*
X025125Y018827D01*
X025125Y018690D02*
X020800Y018690D01*
X020800Y018838D02*
X021114Y018838D01*
X021004Y018987D02*
X020846Y018987D01*
X020776Y018541D02*
X025184Y018541D01*
X025333Y018393D02*
X020673Y018393D01*
X020525Y018244D02*
X025481Y018244D01*
X025521Y018205D02*
X025521Y018205D01*
X025665Y018096D02*
X020376Y018096D01*
X020228Y017947D02*
X026378Y017947D01*
X026527Y017799D02*
X020079Y017799D01*
X019931Y017650D02*
X026675Y017650D01*
X026824Y017502D02*
X019800Y017502D01*
X019800Y017353D02*
X026875Y017353D01*
X026875Y017205D02*
X019800Y017205D01*
X019800Y017056D02*
X020287Y017056D01*
X020266Y017050D02*
X020207Y017020D01*
X020155Y016982D01*
X020108Y016935D01*
X020070Y016883D01*
X020040Y016824D01*
X020020Y016762D01*
X020010Y016698D01*
X020010Y016430D01*
X020420Y016430D01*
X020420Y017080D01*
X020392Y017080D01*
X020328Y017070D01*
X020266Y017050D01*
X020420Y017056D02*
X020430Y017056D01*
X020430Y017080D02*
X020430Y016430D01*
X020840Y016430D01*
X020840Y016698D01*
X020830Y016762D01*
X020810Y016824D01*
X020780Y016883D01*
X020742Y016935D01*
X020695Y016982D01*
X020643Y017020D01*
X020584Y017050D01*
X020522Y017070D01*
X020458Y017080D01*
X020430Y017080D01*
X020563Y017056D02*
X021159Y017056D01*
X021162Y017059D02*
X021031Y016928D01*
X020960Y016757D01*
X020960Y016093D01*
X021031Y015922D01*
X021080Y015872D01*
X021080Y014808D01*
X020997Y014725D01*
X020826Y014725D01*
X020623Y014641D01*
X020469Y014487D01*
X020385Y014284D01*
X020385Y014066D01*
X020469Y013863D01*
X020623Y013709D01*
X020826Y013625D01*
X021044Y013625D01*
X021247Y013709D01*
X021401Y013863D01*
X021462Y014011D01*
X021472Y013983D01*
X021507Y013913D01*
X021554Y013849D01*
X021609Y013794D01*
X021673Y013747D01*
X021743Y013712D01*
X021818Y013687D01*
X021896Y013675D01*
X021927Y013675D01*
X021927Y014167D01*
X021943Y014167D01*
X021943Y013675D01*
X021974Y013675D01*
X022052Y013687D01*
X022127Y013712D01*
X022197Y013747D01*
X022261Y013794D01*
X022316Y013849D01*
X022363Y013913D01*
X022398Y013983D01*
X022408Y014011D01*
X022469Y013863D01*
X022623Y013709D01*
X022826Y013625D01*
X023044Y013625D01*
X023247Y013709D01*
X023401Y013863D01*
X023485Y014066D01*
X023485Y014284D01*
X023401Y014487D01*
X023247Y014641D01*
X023044Y014725D01*
X022873Y014725D01*
X022770Y014828D01*
X022770Y015872D01*
X022819Y015922D01*
X022890Y016093D01*
X022890Y016757D01*
X022819Y016928D01*
X022688Y017059D01*
X022517Y017130D01*
X022333Y017130D01*
X022162Y017059D01*
X022031Y016928D01*
X021960Y016757D01*
X021960Y016093D01*
X022031Y015922D01*
X022080Y015872D01*
X022080Y014654D01*
X022052Y014663D01*
X021974Y014675D01*
X021943Y014675D01*
X021943Y014183D01*
X021927Y014183D01*
X021927Y014675D01*
X021896Y014675D01*
X021818Y014663D01*
X021770Y014647D01*
X021770Y015872D01*
X021819Y015922D01*
X021890Y016093D01*
X021890Y016757D01*
X021819Y016928D01*
X021688Y017059D01*
X021517Y017130D01*
X021333Y017130D01*
X021162Y017059D01*
X021022Y016908D02*
X020761Y016908D01*
X020830Y016759D02*
X020961Y016759D01*
X020960Y016611D02*
X020840Y016611D01*
X020840Y016462D02*
X020960Y016462D01*
X020840Y016420D02*
X020430Y016420D01*
X020430Y016430D01*
X020420Y016430D01*
X020420Y016420D01*
X020430Y016420D01*
X020430Y015770D01*
X020458Y015770D01*
X020522Y015780D01*
X020584Y015800D01*
X020643Y015830D01*
X020695Y015868D01*
X020742Y015915D01*
X020780Y015967D01*
X020810Y016026D01*
X020830Y016088D01*
X020840Y016152D01*
X020840Y016420D01*
X020840Y016314D02*
X020960Y016314D01*
X020960Y016165D02*
X020840Y016165D01*
X020805Y016017D02*
X020991Y016017D01*
X021080Y015868D02*
X020695Y015868D01*
X020430Y015868D02*
X020420Y015868D01*
X020420Y015770D02*
X020420Y016420D01*
X020010Y016420D01*
X020010Y016152D01*
X020020Y016088D01*
X020040Y016026D01*
X020070Y015967D01*
X020108Y015915D01*
X020155Y015868D01*
X020207Y015830D01*
X020266Y015800D01*
X020328Y015780D01*
X020392Y015770D01*
X020420Y015770D01*
X020420Y016017D02*
X020430Y016017D01*
X020420Y016165D02*
X020430Y016165D01*
X020420Y016314D02*
X020430Y016314D01*
X020420Y016462D02*
X020430Y016462D01*
X020420Y016611D02*
X020430Y016611D01*
X020420Y016759D02*
X020430Y016759D01*
X020420Y016908D02*
X020430Y016908D01*
X020089Y016908D02*
X019828Y016908D01*
X019889Y016759D02*
X020020Y016759D01*
X020010Y016611D02*
X019890Y016611D01*
X019890Y016462D02*
X020010Y016462D01*
X020010Y016314D02*
X019890Y016314D01*
X019890Y016165D02*
X020010Y016165D01*
X020045Y016017D02*
X019859Y016017D01*
X019800Y015868D02*
X020155Y015868D01*
X019787Y015720D02*
X021080Y015720D01*
X021080Y015571D02*
X019702Y015571D01*
X019553Y015423D02*
X021080Y015423D01*
X021080Y015274D02*
X019405Y015274D01*
X019256Y015126D02*
X021080Y015126D01*
X021080Y014977D02*
X019108Y014977D01*
X018959Y014829D02*
X021080Y014829D01*
X020718Y014680D02*
X019399Y014680D01*
X019426Y014667D02*
X019346Y014708D01*
X019260Y014736D01*
X019170Y014750D01*
X019150Y014750D01*
X019150Y014200D01*
X019700Y014200D01*
X019700Y014220D01*
X019686Y014310D01*
X019658Y014396D01*
X019617Y014476D01*
X019564Y014550D01*
X019500Y014614D01*
X019426Y014667D01*
X019576Y014532D02*
X020514Y014532D01*
X020426Y014383D02*
X019662Y014383D01*
X019698Y014235D02*
X020385Y014235D01*
X020385Y014086D02*
X019693Y014086D01*
X019700Y014130D02*
X019686Y014040D01*
X019658Y013954D01*
X019617Y013874D01*
X019564Y013800D01*
X019500Y013736D01*
X019426Y013683D01*
X019346Y013642D01*
X019260Y013614D01*
X019170Y013600D01*
X019150Y013600D01*
X019150Y014150D01*
X019700Y014150D01*
X019700Y014130D01*
X019650Y013938D02*
X020438Y013938D01*
X020543Y013789D02*
X019553Y013789D01*
X019342Y013641D02*
X020787Y013641D01*
X021083Y013641D02*
X022787Y013641D01*
X022543Y013789D02*
X022255Y013789D01*
X022375Y013938D02*
X022438Y013938D01*
X021943Y013938D02*
X021927Y013938D01*
X021927Y014086D02*
X021943Y014086D01*
X021927Y014235D02*
X021943Y014235D01*
X021927Y014383D02*
X021943Y014383D01*
X021927Y014532D02*
X021943Y014532D01*
X022080Y014680D02*
X021770Y014680D01*
X021770Y014829D02*
X022080Y014829D01*
X022080Y014977D02*
X021770Y014977D01*
X021770Y015126D02*
X022080Y015126D01*
X022080Y015274D02*
X021770Y015274D01*
X021770Y015423D02*
X022080Y015423D01*
X022080Y015571D02*
X021770Y015571D01*
X021770Y015720D02*
X022080Y015720D01*
X022080Y015868D02*
X021770Y015868D01*
X021859Y016017D02*
X021991Y016017D01*
X021960Y016165D02*
X021890Y016165D01*
X021890Y016314D02*
X021960Y016314D01*
X021960Y016462D02*
X021890Y016462D01*
X021890Y016611D02*
X021960Y016611D01*
X021961Y016759D02*
X021889Y016759D01*
X021828Y016908D02*
X022022Y016908D01*
X022159Y017056D02*
X021691Y017056D01*
X022691Y017056D02*
X023159Y017056D01*
X023162Y017059D02*
X023031Y016928D01*
X022960Y016757D01*
X022960Y016093D01*
X023031Y015922D01*
X023162Y015791D01*
X023333Y015720D01*
X023517Y015720D01*
X023688Y015791D01*
X023819Y015922D01*
X023890Y016093D01*
X023890Y016757D01*
X023819Y016928D01*
X023688Y017059D01*
X023517Y017130D01*
X023333Y017130D01*
X023162Y017059D01*
X023022Y016908D02*
X022828Y016908D01*
X022889Y016759D02*
X022961Y016759D01*
X022960Y016611D02*
X022890Y016611D01*
X022890Y016462D02*
X022960Y016462D01*
X022960Y016314D02*
X022890Y016314D01*
X022890Y016165D02*
X022960Y016165D01*
X022991Y016017D02*
X022859Y016017D01*
X022770Y015868D02*
X023084Y015868D01*
X022770Y015720D02*
X026914Y015720D01*
X026875Y015868D02*
X026766Y015868D01*
X026859Y016017D02*
X026875Y016017D01*
X027175Y015875D02*
X027525Y015525D01*
X027875Y015525D01*
X027564Y014977D02*
X022770Y014977D01*
X022770Y014829D02*
X027395Y014829D01*
X027304Y014680D02*
X023152Y014680D01*
X023356Y014532D02*
X027250Y014532D01*
X027250Y014383D02*
X023444Y014383D01*
X023485Y014235D02*
X027277Y014235D01*
X027339Y014086D02*
X023485Y014086D01*
X023432Y013938D02*
X027478Y013938D01*
X027875Y014425D02*
X028425Y014425D01*
X028575Y014575D01*
X028675Y014675D01*
X028775Y014775D01*
X028775Y017575D01*
X026925Y019425D01*
X026425Y019425D01*
X025960Y019432D02*
X025890Y019432D01*
X025890Y019284D02*
X025960Y019284D01*
X025960Y019135D02*
X025890Y019135D01*
X025846Y018987D02*
X026004Y018987D01*
X026114Y018838D02*
X025736Y018838D01*
X025884Y018690D02*
X027236Y018690D01*
X027384Y018541D02*
X026633Y018541D01*
X026781Y018393D02*
X027533Y018393D01*
X027681Y018244D02*
X026930Y018244D01*
X027078Y018096D02*
X027830Y018096D01*
X027978Y017947D02*
X027227Y017947D01*
X027375Y017799D02*
X028127Y017799D01*
X028275Y017650D02*
X027468Y017650D01*
X027475Y017502D02*
X028424Y017502D01*
X028475Y017353D02*
X027475Y017353D01*
X027475Y017205D02*
X027642Y017205D01*
X028108Y017205D02*
X028475Y017205D01*
X028475Y017056D02*
X028327Y017056D01*
X028434Y016908D02*
X028475Y016908D01*
X029075Y016908D02*
X030316Y016908D01*
X030345Y016979D02*
X030250Y016749D01*
X030250Y016501D01*
X030345Y016271D01*
X030521Y016095D01*
X030570Y016075D01*
X030521Y016055D01*
X030345Y015879D01*
X030250Y015649D01*
X030250Y015401D01*
X030345Y015171D01*
X030521Y014995D01*
X030570Y014975D01*
X030521Y014955D01*
X030345Y014779D01*
X030250Y014549D01*
X030250Y014301D01*
X030345Y014071D01*
X030521Y013895D01*
X030751Y013800D01*
X030999Y013800D01*
X031229Y013895D01*
X031405Y014071D01*
X031500Y014301D01*
X031500Y014549D01*
X031405Y014779D01*
X031229Y014955D01*
X031180Y014975D01*
X031229Y014995D01*
X031405Y015171D01*
X031500Y015401D01*
X031500Y015649D01*
X031405Y015879D01*
X031229Y016055D01*
X031180Y016075D01*
X031229Y016095D01*
X031405Y016271D01*
X031500Y016501D01*
X031500Y016749D01*
X031405Y016979D01*
X031229Y017155D01*
X030999Y017250D01*
X030751Y017250D01*
X030521Y017155D01*
X030345Y016979D01*
X030423Y017056D02*
X029075Y017056D01*
X029075Y017205D02*
X030642Y017205D01*
X030254Y016759D02*
X029075Y016759D01*
X029075Y016611D02*
X030250Y016611D01*
X030266Y016462D02*
X029075Y016462D01*
X029075Y016314D02*
X030327Y016314D01*
X030451Y016165D02*
X029075Y016165D01*
X029075Y016017D02*
X030483Y016017D01*
X030341Y015868D02*
X029075Y015868D01*
X029075Y015720D02*
X030279Y015720D01*
X030250Y015571D02*
X029075Y015571D01*
X029075Y015423D02*
X030250Y015423D01*
X030302Y015274D02*
X029075Y015274D01*
X029075Y015126D02*
X030390Y015126D01*
X030564Y014977D02*
X029075Y014977D01*
X029075Y014829D02*
X030395Y014829D01*
X030304Y014680D02*
X029061Y014680D01*
X028956Y014532D02*
X030250Y014532D01*
X030250Y014383D02*
X028808Y014383D01*
X028659Y014235D02*
X030277Y014235D01*
X030339Y014086D02*
X028411Y014086D01*
X028272Y013938D02*
X030478Y013938D01*
X030286Y013344D02*
X016230Y013344D01*
X016082Y013492D02*
X033100Y013492D01*
X033100Y013493D02*
X033100Y013157D01*
X033187Y012833D01*
X033355Y012542D01*
X033592Y012305D01*
X033883Y012137D01*
X034207Y012050D01*
X034543Y012050D01*
X034867Y012137D01*
X035158Y012305D01*
X035395Y012542D01*
X035563Y012833D01*
X035650Y013157D01*
X035650Y013493D01*
X035563Y013817D01*
X035395Y014108D01*
X035158Y014345D01*
X034867Y014513D01*
X034543Y014600D01*
X034207Y014600D01*
X033883Y014513D01*
X033592Y014345D01*
X033355Y014108D01*
X033187Y013817D01*
X033100Y013493D01*
X033100Y013344D02*
X031899Y013344D01*
X031949Y013195D02*
X033100Y013195D01*
X033130Y013047D02*
X031966Y013047D01*
X031987Y012898D02*
X033169Y012898D01*
X033235Y012750D02*
X032029Y012750D01*
X032071Y012601D02*
X033320Y012601D01*
X033444Y012453D02*
X032114Y012453D01*
X032183Y012304D02*
X033593Y012304D01*
X033850Y012156D02*
X032264Y012156D01*
X032345Y012007D02*
X036395Y012007D01*
X036488Y012156D02*
X034900Y012156D01*
X035157Y012304D02*
X036555Y012304D01*
X036621Y012453D02*
X035306Y012453D01*
X035430Y012601D02*
X036684Y012601D01*
X036714Y012750D02*
X035515Y012750D01*
X035581Y012898D02*
X036744Y012898D01*
X036774Y013047D02*
X035620Y013047D01*
X035650Y013195D02*
X036786Y013195D01*
X036782Y013344D02*
X035650Y013344D01*
X035650Y013492D02*
X036779Y013492D01*
X036775Y013641D02*
X035610Y013641D01*
X035571Y013789D02*
X036740Y013789D01*
X036703Y013938D02*
X035493Y013938D01*
X035408Y014086D02*
X036666Y014086D01*
X036613Y014235D02*
X035268Y014235D01*
X035092Y014383D02*
X036538Y014383D01*
X036463Y014532D02*
X034797Y014532D01*
X033953Y014532D02*
X031500Y014532D01*
X031500Y014383D02*
X033658Y014383D01*
X033482Y014235D02*
X031473Y014235D01*
X031411Y014086D02*
X033342Y014086D01*
X033257Y013938D02*
X031272Y013938D01*
X031446Y014680D02*
X036380Y014680D01*
X036257Y014829D02*
X031355Y014829D01*
X031186Y014977D02*
X036135Y014977D01*
X035985Y015126D02*
X031360Y015126D01*
X031448Y015274D02*
X035794Y015274D01*
X035580Y015423D02*
X031500Y015423D01*
X031500Y015571D02*
X032988Y015571D01*
X032886Y015720D02*
X031471Y015720D01*
X031409Y015868D02*
X032785Y015868D01*
X032683Y016017D02*
X031267Y016017D01*
X031299Y016165D02*
X032582Y016165D01*
X032480Y016314D02*
X031423Y016314D01*
X031484Y016462D02*
X032379Y016462D01*
X032277Y016611D02*
X031500Y016611D01*
X031496Y016759D02*
X032176Y016759D01*
X032075Y016908D02*
X031434Y016908D01*
X031327Y017056D02*
X031973Y017056D01*
X031872Y017205D02*
X031108Y017205D01*
X031669Y017502D02*
X029075Y017502D01*
X029075Y017353D02*
X031770Y017353D01*
X031567Y017650D02*
X029068Y017650D01*
X028975Y017799D02*
X031466Y017799D01*
X031364Y017947D02*
X028827Y017947D01*
X028678Y018096D02*
X031263Y018096D01*
X031161Y018244D02*
X028530Y018244D01*
X028381Y018393D02*
X031060Y018393D01*
X030958Y018541D02*
X028233Y018541D01*
X028084Y018690D02*
X030857Y018690D01*
X030755Y018838D02*
X027936Y018838D01*
X027787Y018987D02*
X030654Y018987D01*
X030552Y019135D02*
X027639Y019135D01*
X027490Y019284D02*
X030451Y019284D01*
X030349Y019432D02*
X027342Y019432D01*
X027193Y019581D02*
X030248Y019581D01*
X030189Y019729D02*
X026890Y019729D01*
X026840Y019878D02*
X030144Y019878D01*
X030111Y020026D02*
X026721Y020026D01*
X026129Y020026D02*
X025721Y020026D01*
X025840Y019878D02*
X026010Y019878D01*
X025960Y019729D02*
X025890Y019729D01*
X025890Y019581D02*
X025960Y019581D01*
X025425Y019425D02*
X025425Y018725D01*
X025775Y018375D01*
X026375Y018375D01*
X027175Y017575D01*
X027175Y015875D01*
X027054Y015571D02*
X022770Y015571D01*
X022770Y015423D02*
X027203Y015423D01*
X027302Y015274D02*
X022770Y015274D01*
X022770Y015126D02*
X027390Y015126D01*
X026084Y015868D02*
X025766Y015868D01*
X025819Y015922D02*
X025890Y016093D01*
X025890Y016757D01*
X025819Y016928D01*
X025688Y017059D01*
X025517Y017130D01*
X025333Y017130D01*
X025162Y017059D01*
X025031Y016928D01*
X024960Y016757D01*
X024960Y016093D01*
X025031Y015922D01*
X025162Y015791D01*
X025333Y015720D01*
X025517Y015720D01*
X025688Y015791D01*
X025819Y015922D01*
X025859Y016017D02*
X025991Y016017D01*
X025960Y016165D02*
X025890Y016165D01*
X025890Y016314D02*
X025960Y016314D01*
X025960Y016462D02*
X025890Y016462D01*
X025890Y016611D02*
X025960Y016611D01*
X025961Y016759D02*
X025889Y016759D01*
X025828Y016908D02*
X026022Y016908D01*
X026159Y017056D02*
X025691Y017056D01*
X025159Y017056D02*
X024691Y017056D01*
X024688Y017059D02*
X024517Y017130D01*
X024333Y017130D01*
X024162Y017059D01*
X024031Y016928D01*
X023960Y016757D01*
X023960Y016093D01*
X024031Y015922D01*
X024162Y015791D01*
X024333Y015720D01*
X024517Y015720D01*
X024688Y015791D01*
X024819Y015922D01*
X024890Y016093D01*
X024890Y016757D01*
X024819Y016928D01*
X024688Y017059D01*
X024828Y016908D02*
X025022Y016908D01*
X024961Y016759D02*
X024889Y016759D01*
X024890Y016611D02*
X024960Y016611D01*
X024960Y016462D02*
X024890Y016462D01*
X024890Y016314D02*
X024960Y016314D01*
X024960Y016165D02*
X024890Y016165D01*
X024859Y016017D02*
X024991Y016017D01*
X025084Y015868D02*
X024766Y015868D01*
X024084Y015868D02*
X023766Y015868D01*
X023859Y016017D02*
X023991Y016017D01*
X023960Y016165D02*
X023890Y016165D01*
X023890Y016314D02*
X023960Y016314D01*
X023960Y016462D02*
X023890Y016462D01*
X023890Y016611D02*
X023960Y016611D01*
X023961Y016759D02*
X023889Y016759D01*
X023828Y016908D02*
X024022Y016908D01*
X024159Y017056D02*
X023691Y017056D01*
X023114Y018838D02*
X022736Y018838D01*
X022846Y018987D02*
X023004Y018987D01*
X022960Y019135D02*
X022890Y019135D01*
X022890Y019284D02*
X022960Y019284D01*
X022960Y019432D02*
X022890Y019432D01*
X022890Y019581D02*
X022960Y019581D01*
X022960Y019729D02*
X022890Y019729D01*
X022840Y019878D02*
X023010Y019878D01*
X023129Y020026D02*
X022721Y020026D01*
X022700Y020175D02*
X023086Y020175D01*
X022938Y020324D02*
X022700Y020324D01*
X022700Y020472D02*
X022789Y020472D01*
X022150Y020472D02*
X020800Y020472D01*
X020800Y020324D02*
X022150Y020324D01*
X022150Y020175D02*
X020800Y020175D01*
X020800Y020026D02*
X021129Y020026D01*
X021010Y019878D02*
X020840Y019878D01*
X020800Y020621D02*
X022150Y020621D01*
X022150Y020769D02*
X020800Y020769D01*
X020800Y020918D02*
X022150Y020918D01*
X022150Y021066D02*
X020800Y021066D01*
X020800Y021215D02*
X022150Y021215D01*
X022150Y021363D02*
X020800Y021363D01*
X020800Y021512D02*
X022150Y021512D01*
X022150Y021660D02*
X020800Y021660D01*
X020800Y021809D02*
X022150Y021809D01*
X022150Y021957D02*
X020800Y021957D01*
X020756Y022106D02*
X022150Y022106D01*
X022150Y022254D02*
X020626Y022254D01*
X020478Y022403D02*
X022150Y022403D01*
X022150Y022551D02*
X020329Y022551D01*
X020181Y022700D02*
X022150Y022700D01*
X022150Y022848D02*
X020050Y022848D01*
X020050Y022997D02*
X022150Y022997D01*
X022150Y023145D02*
X021916Y023145D01*
X022064Y023294D02*
X022150Y023294D01*
X021700Y023294D02*
X021650Y023294D01*
X021650Y023442D02*
X021700Y023442D01*
X021700Y023591D02*
X021650Y023591D01*
X021650Y023145D02*
X021700Y023145D01*
X021434Y023145D02*
X020986Y023145D01*
X021135Y023294D02*
X021286Y023294D01*
X020364Y023145D02*
X020050Y023145D01*
X020135Y023294D02*
X020215Y023294D01*
X019324Y024185D02*
X019196Y024185D01*
X019176Y024333D02*
X019050Y024333D01*
X019050Y024482D02*
X019080Y024482D01*
X019080Y024630D02*
X019050Y024630D01*
X019050Y024779D02*
X019080Y024779D01*
X019086Y024927D02*
X019050Y024927D01*
X019050Y025076D02*
X019234Y025076D01*
X019383Y025224D02*
X019050Y025224D01*
X019050Y025373D02*
X019984Y025373D01*
X020132Y025521D02*
X019050Y025521D01*
X019050Y025670D02*
X020281Y025670D01*
X020443Y025818D02*
X019050Y025818D01*
X018300Y025818D02*
X006665Y025818D01*
X006695Y025967D02*
X018300Y025967D01*
X018300Y026115D02*
X006688Y026115D01*
X006626Y026264D02*
X018300Y026264D01*
X018300Y026412D02*
X006493Y026412D01*
X006590Y026561D02*
X018300Y026561D01*
X018300Y026709D02*
X006640Y026709D01*
X006639Y026858D02*
X018300Y026858D01*
X018206Y027303D02*
X017402Y027303D01*
X017473Y027452D02*
X018124Y027452D01*
X016594Y027155D02*
X011994Y027155D01*
X006991Y025076D02*
X005307Y025076D01*
X005228Y025100D02*
X005228Y025100D01*
X006004Y024927D02*
X006350Y024927D01*
X006586Y025670D02*
X018300Y025670D01*
X022950Y021660D02*
X030858Y021660D01*
X030756Y021512D02*
X022950Y021512D01*
X022129Y020026D02*
X021721Y020026D01*
X021840Y019878D02*
X022010Y019878D01*
X021960Y019729D02*
X021890Y019729D01*
X021890Y019581D02*
X021960Y019581D01*
X021960Y019432D02*
X021890Y019432D01*
X021890Y019284D02*
X021960Y019284D01*
X021960Y019135D02*
X021890Y019135D01*
X021846Y018987D02*
X022004Y018987D01*
X022114Y018838D02*
X021736Y018838D01*
X019613Y018393D02*
X017719Y018393D01*
X017886Y018244D02*
X019464Y018244D01*
X019316Y018096D02*
X018034Y018096D01*
X016425Y016425D02*
X016425Y015825D01*
X015375Y014775D01*
X016553Y014680D02*
X017647Y014680D01*
X017527Y013789D02*
X016673Y013789D01*
X016519Y013641D02*
X017681Y013641D01*
X018369Y013641D02*
X018908Y013641D01*
X019100Y013641D02*
X019150Y013641D01*
X019150Y013789D02*
X019100Y013789D01*
X019100Y013938D02*
X019150Y013938D01*
X019150Y014086D02*
X019100Y014086D01*
X019100Y014235D02*
X019150Y014235D01*
X019150Y014383D02*
X019100Y014383D01*
X019100Y014532D02*
X019150Y014532D01*
X019150Y014680D02*
X019100Y014680D01*
X018851Y014680D02*
X018811Y014680D01*
X018674Y014532D02*
X018662Y014532D01*
X018697Y013789D02*
X018523Y013789D01*
X016973Y012601D02*
X024805Y012601D01*
X024784Y012584D02*
X024784Y012584D01*
X024696Y012453D02*
X017121Y012453D01*
X017270Y012304D02*
X024597Y012304D01*
X024989Y012750D02*
X016824Y012750D01*
X016676Y012898D02*
X025262Y012898D01*
X026425Y013047D02*
X016527Y013047D01*
X016379Y013195D02*
X028356Y013195D01*
X026875Y016908D02*
X026828Y016908D01*
X026875Y017056D02*
X026691Y017056D01*
X026736Y018838D02*
X027087Y018838D01*
X026939Y018987D02*
X026846Y018987D01*
X025129Y020026D02*
X024721Y020026D01*
X024840Y019878D02*
X025010Y019878D01*
X024960Y019729D02*
X024890Y019729D01*
X024890Y019581D02*
X024960Y019581D01*
X024960Y019432D02*
X024890Y019432D01*
X024890Y019284D02*
X024960Y019284D01*
X024960Y019135D02*
X024890Y019135D01*
X024846Y018987D02*
X025004Y018987D01*
X023327Y013789D02*
X033179Y013789D01*
X033140Y013641D02*
X023083Y013641D01*
X021943Y013789D02*
X021927Y013789D01*
X021615Y013789D02*
X021327Y013789D01*
X021432Y013938D02*
X021495Y013938D01*
X018641Y015571D02*
X016596Y015571D01*
X015382Y013344D02*
X010064Y013344D01*
X011152Y014532D02*
X011198Y014532D01*
X011347Y014680D02*
X011003Y014680D01*
X018873Y007623D02*
X018873Y007623D01*
X018904Y007577D01*
X018934Y007532D01*
X018954Y007431D01*
X018955Y007425D01*
X018934Y007317D01*
X018873Y007227D01*
X018872Y007226D01*
X018828Y007196D01*
X018612Y007034D01*
X018241Y006645D01*
X017965Y006182D01*
X017797Y005671D01*
X017746Y005135D01*
X017815Y004601D01*
X017999Y004095D01*
X018290Y003643D01*
X018674Y003265D01*
X019131Y002981D01*
X019640Y002805D01*
X020175Y002746D01*
X020710Y002805D01*
X021219Y002981D01*
X021676Y003265D01*
X022060Y003643D01*
X022060Y003643D01*
X022351Y004095D01*
X022535Y004601D01*
X022604Y005135D01*
X022553Y005671D01*
X022385Y006182D01*
X022109Y006645D01*
X021738Y007034D01*
X021522Y007196D01*
X021477Y007227D01*
X021416Y007317D01*
X021395Y007425D01*
X021416Y007532D01*
X021448Y007580D01*
X021477Y007623D01*
X021429Y007552D02*
X018921Y007552D01*
X018951Y007404D02*
X021399Y007404D01*
X021458Y007255D02*
X018892Y007255D01*
X018709Y007107D02*
X021641Y007107D01*
X021810Y006958D02*
X018540Y006958D01*
X018398Y006810D02*
X019911Y006810D01*
X019880Y006797D02*
X019734Y006651D01*
X019655Y006460D01*
X019655Y006253D01*
X019734Y006061D01*
X019833Y005962D01*
X019734Y005863D01*
X019655Y005672D01*
X019655Y005465D01*
X019734Y005274D01*
X019868Y005140D01*
X019816Y005088D01*
X019773Y005028D01*
X017760Y005028D01*
X017750Y005176D02*
X019831Y005176D01*
X019773Y005028D02*
X019739Y004962D01*
X019716Y004891D01*
X019705Y004818D01*
X019705Y004805D01*
X020152Y004805D01*
X020152Y004758D01*
X019705Y004758D01*
X019705Y004744D01*
X019716Y004671D01*
X019739Y004601D01*
X019773Y004535D01*
X019816Y004475D01*
X019868Y004423D01*
X019734Y004289D01*
X019655Y004097D01*
X019655Y003890D01*
X019734Y003699D01*
X019880Y003553D01*
X020072Y003474D01*
X020278Y003474D01*
X020470Y003553D01*
X020616Y003699D01*
X020695Y003890D01*
X020695Y004097D01*
X020616Y004289D01*
X020482Y004423D01*
X020534Y004475D01*
X020577Y004535D01*
X020611Y004601D01*
X020634Y004671D01*
X020645Y004744D01*
X020645Y004758D01*
X020198Y004758D01*
X020198Y004805D01*
X020645Y004805D01*
X020645Y004818D01*
X020634Y004891D01*
X020611Y004962D01*
X020577Y005028D01*
X022590Y005028D01*
X022600Y005176D02*
X020519Y005176D01*
X020482Y005140D02*
X020616Y005274D01*
X020695Y005465D01*
X020695Y005672D01*
X020616Y005863D01*
X020517Y005962D01*
X020616Y006061D01*
X020695Y006253D01*
X020695Y006460D01*
X020616Y006651D01*
X020470Y006797D01*
X020278Y006876D01*
X020072Y006876D01*
X019880Y006797D01*
X019745Y006661D02*
X018257Y006661D01*
X018162Y006513D02*
X019677Y006513D01*
X019655Y006364D02*
X018073Y006364D01*
X017985Y006216D02*
X019670Y006216D01*
X019731Y006067D02*
X017927Y006067D01*
X017878Y005919D02*
X019789Y005919D01*
X019695Y005770D02*
X017830Y005770D01*
X017792Y005622D02*
X019655Y005622D01*
X019655Y005473D02*
X017778Y005473D01*
X017764Y005325D02*
X019713Y005325D01*
X019714Y004879D02*
X017779Y004879D01*
X017798Y004731D02*
X019707Y004731D01*
X019749Y004582D02*
X017821Y004582D01*
X017876Y004434D02*
X019857Y004434D01*
X019733Y004285D02*
X017930Y004285D01*
X017984Y004137D02*
X019671Y004137D01*
X019655Y003988D02*
X018068Y003988D01*
X018163Y003840D02*
X019676Y003840D01*
X019742Y003691D02*
X018259Y003691D01*
X018391Y003543D02*
X019904Y003543D01*
X020446Y003543D02*
X021959Y003543D01*
X022091Y003691D02*
X020608Y003691D01*
X020674Y003840D02*
X022187Y003840D01*
X022282Y003988D02*
X020695Y003988D01*
X020679Y004137D02*
X022366Y004137D01*
X022420Y004285D02*
X020617Y004285D01*
X020493Y004434D02*
X022474Y004434D01*
X022529Y004582D02*
X020601Y004582D01*
X020643Y004731D02*
X022552Y004731D01*
X022571Y004879D02*
X020636Y004879D01*
X020577Y005028D02*
X020534Y005088D01*
X020482Y005140D01*
X020637Y005325D02*
X022586Y005325D01*
X022572Y005473D02*
X020695Y005473D01*
X020695Y005622D02*
X022558Y005622D01*
X022520Y005770D02*
X020655Y005770D01*
X020561Y005919D02*
X022472Y005919D01*
X022423Y006067D02*
X020619Y006067D01*
X020680Y006216D02*
X022365Y006216D01*
X022277Y006364D02*
X020695Y006364D01*
X020673Y006513D02*
X022188Y006513D01*
X022093Y006661D02*
X020605Y006661D01*
X020439Y006810D02*
X021952Y006810D01*
X021808Y003394D02*
X018542Y003394D01*
X018705Y003246D02*
X021645Y003246D01*
X021406Y003097D02*
X018944Y003097D01*
X019225Y002949D02*
X021125Y002949D01*
X020665Y002800D02*
X019685Y002800D01*
X032452Y011859D02*
X036283Y011859D01*
X036172Y011710D02*
X032583Y011710D01*
X032714Y011562D02*
X036017Y011562D01*
X035842Y011413D02*
X032904Y011413D01*
X033109Y011265D02*
X035629Y011265D01*
X035347Y011116D02*
X033410Y011116D01*
X033871Y010968D02*
X034881Y010968D01*
X035262Y015571D02*
X033461Y015571D01*
X034018Y015720D02*
X034712Y015720D01*
X020665Y037550D02*
X019685Y037550D01*
D23*
X020175Y037375D03*
X019475Y030275D03*
X019475Y029575D03*
X023275Y029775D03*
X024575Y023875D03*
X028275Y018975D03*
X030375Y018975D03*
X025275Y014875D03*
X023375Y010875D03*
X020175Y008125D03*
X020175Y002975D03*
X004475Y011775D03*
X004475Y028375D03*
X030375Y025775D03*
X036075Y028375D03*
X036275Y012275D03*
D24*
X031475Y023675D02*
X028375Y023675D01*
X028125Y023925D01*
X027425Y023925D01*
X028824Y024326D02*
X027275Y025875D01*
X025725Y025875D01*
X024525Y027075D01*
X024525Y027975D01*
X023775Y028725D01*
X023425Y028725D01*
X018675Y027675D02*
X018675Y024175D01*
X019175Y023675D01*
X019675Y023675D01*
X019675Y022675D01*
X020425Y021925D01*
X020425Y019425D01*
X020425Y018675D01*
X019425Y017675D01*
X017925Y017675D01*
X017538Y018062D01*
X009503Y018062D01*
X016175Y014175D02*
X018025Y014175D01*
X018025Y014425D01*
X019425Y015825D01*
X019425Y016425D01*
X019425Y017675D01*
X028824Y024326D02*
X031922Y024326D01*
D25*
X023425Y028725D02*
X022699Y029451D01*
X022476Y029451D01*
X022476Y030199D01*
X022476Y030759D01*
X020175Y033060D01*
X020175Y031090D02*
X021066Y030199D01*
X021374Y030199D01*
X021374Y029451D02*
X020451Y029451D01*
X018675Y027675D01*
D26*
X017625Y028725D01*
X016925Y028725D01*
D27*
X020575Y025575D02*
X022275Y025575D01*
X022675Y025175D01*
X022675Y020975D01*
X023425Y020225D01*
X023425Y019425D01*
X022425Y019425D02*
X022425Y025125D01*
X022175Y025375D01*
X021375Y025375D01*
X020675Y024675D01*
X020575Y025575D02*
X019675Y024675D01*
M02*
