G75*
%MOIN*%
%OFA0B0*%
%FSLAX24Y24*%
%IPPOS*%
%LPD*%
%AMOC8*
5,1,8,0,0,1.08239X$1,22.5*
%
%ADD10R,0.1600X0.0400*%
%ADD11C,0.0100*%
%ADD12C,0.0070*%
%ADD13C,0.0090*%
%ADD14C,0.0080*%
%ADD15C,0.0160*%
%ADD16C,0.0110*%
%ADD17C,0.0050*%
%ADD18C,0.0177*%
D10*
X020175Y004775D03*
X006175Y026775D03*
X034175Y026775D03*
D11*
X010125Y014675D02*
X010125Y013675D01*
X012225Y013675D01*
X012225Y014675D01*
X010125Y014675D01*
X011175Y014425D02*
X011175Y013925D01*
X011317Y014875D02*
X011500Y014875D01*
X011592Y014967D01*
X011824Y014967D02*
X011915Y014875D01*
X012099Y014875D01*
X012190Y014967D01*
X012190Y015058D01*
X012099Y015150D01*
X012007Y015150D01*
X012099Y015150D02*
X012190Y015242D01*
X012190Y015334D01*
X012099Y015425D01*
X011915Y015425D01*
X011824Y015334D01*
X011592Y015334D02*
X011500Y015425D01*
X011317Y015425D01*
X011225Y015334D01*
X011225Y014967D01*
X011317Y014875D01*
X013575Y014175D02*
X013675Y014175D01*
X013675Y014675D01*
X015675Y014675D01*
X015675Y014175D01*
X015775Y014175D01*
X015675Y014175D02*
X015675Y013675D01*
X013675Y013675D01*
X013675Y014175D01*
X017525Y013675D02*
X017525Y014675D01*
X019625Y014675D01*
X019625Y013675D01*
X017525Y013675D01*
X018575Y013925D02*
X018575Y014425D01*
X018767Y014875D02*
X018950Y014875D01*
X019042Y014967D01*
X018767Y014875D02*
X018675Y014967D01*
X018675Y015334D01*
X018767Y015425D01*
X018950Y015425D01*
X019042Y015334D01*
X019274Y015150D02*
X019640Y015150D01*
X019549Y014875D02*
X019549Y015425D01*
X019274Y015150D01*
X025925Y023425D02*
X025925Y024425D01*
X025425Y023925D02*
X026425Y023925D01*
X025090Y027150D02*
X024724Y027150D01*
X024907Y027150D02*
X024907Y027700D01*
X024724Y027517D01*
X024492Y027609D02*
X024400Y027700D01*
X024217Y027700D01*
X024125Y027609D01*
X024125Y027242D01*
X024217Y027150D01*
X024400Y027150D01*
X024492Y027242D01*
X023925Y027125D02*
X022925Y027125D01*
X022925Y029225D01*
X023925Y029225D01*
X023925Y027125D01*
X023675Y028175D02*
X023175Y028175D01*
X021263Y031800D02*
X021263Y032350D01*
X021263Y032075D02*
X020896Y032075D01*
X020664Y032167D02*
X020664Y031800D01*
X020389Y031800D01*
X020297Y031892D01*
X020297Y032167D01*
X020065Y032167D02*
X020065Y032259D01*
X019974Y032350D01*
X019790Y032350D01*
X019699Y032259D01*
X019467Y032259D02*
X019375Y032350D01*
X019192Y032350D01*
X019100Y032259D01*
X019467Y032259D02*
X019467Y032167D01*
X019100Y031800D01*
X019467Y031800D01*
X019699Y031800D02*
X020065Y032167D01*
X020065Y031800D02*
X019699Y031800D01*
X020896Y031800D02*
X020896Y032350D01*
X017425Y029225D02*
X016425Y029225D01*
X016425Y027125D01*
X017425Y027125D01*
X017425Y029225D01*
X017175Y028175D02*
X016675Y028175D01*
X016174Y027650D02*
X015990Y027650D01*
X015899Y027559D01*
X015667Y027559D02*
X015575Y027650D01*
X015392Y027650D01*
X015300Y027559D01*
X015300Y027192D01*
X015392Y027100D01*
X015575Y027100D01*
X015667Y027192D01*
X015899Y027100D02*
X016265Y027467D01*
X016265Y027559D01*
X016174Y027650D01*
X016265Y027100D02*
X015899Y027100D01*
X012425Y023925D02*
X011425Y023925D01*
X028375Y017125D02*
X028375Y016625D01*
X028275Y016625D01*
X028375Y016625D02*
X028375Y016125D01*
X030375Y016125D01*
X030375Y016625D01*
X030475Y016625D01*
X030375Y016625D02*
X030375Y017125D01*
X028375Y017125D01*
X028375Y016025D02*
X028375Y015525D01*
X028275Y015525D01*
X028375Y015525D02*
X028375Y015025D01*
X030375Y015025D01*
X030375Y015525D01*
X030475Y015525D01*
X030375Y015525D02*
X030375Y016025D01*
X028375Y016025D01*
X028375Y014925D02*
X028375Y014425D01*
X028275Y014425D01*
X028375Y014425D02*
X028375Y013925D01*
X030375Y013925D01*
X030375Y014425D01*
X030475Y014425D01*
X030375Y014425D02*
X030375Y014925D01*
X028375Y014925D01*
D12*
X022278Y013310D02*
X022024Y013310D01*
X022151Y013310D02*
X022151Y013690D01*
X022024Y013564D01*
X021864Y013690D02*
X021610Y013310D01*
X021864Y013310D02*
X021610Y013690D01*
X028925Y021350D02*
X009925Y021350D01*
X009881Y021352D01*
X009838Y021358D01*
X009796Y021367D01*
X009754Y021380D01*
X009714Y021397D01*
X009675Y021417D01*
X009638Y021440D01*
X009604Y021467D01*
X009571Y021496D01*
X009542Y021529D01*
X009515Y021563D01*
X009492Y021600D01*
X009472Y021639D01*
X009455Y021679D01*
X009442Y021721D01*
X009433Y021763D01*
X009427Y021806D01*
X009425Y021850D01*
X009425Y026000D01*
X009427Y026044D01*
X009433Y026087D01*
X009442Y026129D01*
X009455Y026171D01*
X009472Y026211D01*
X009492Y026250D01*
X009515Y026287D01*
X009542Y026321D01*
X009571Y026354D01*
X009604Y026383D01*
X009638Y026410D01*
X009675Y026433D01*
X009714Y026453D01*
X009754Y026470D01*
X009796Y026483D01*
X009838Y026492D01*
X009881Y026498D01*
X009925Y026500D01*
X028925Y026500D01*
X028969Y026498D01*
X029012Y026492D01*
X029054Y026483D01*
X029096Y026470D01*
X029136Y026453D01*
X029175Y026433D01*
X029212Y026410D01*
X029246Y026383D01*
X029279Y026354D01*
X029308Y026321D01*
X029335Y026287D01*
X029358Y026250D01*
X029378Y026211D01*
X029395Y026171D01*
X029408Y026129D01*
X029417Y026087D01*
X029423Y026044D01*
X029425Y026000D01*
X029425Y021850D01*
X029423Y021806D01*
X029417Y021763D01*
X029408Y021721D01*
X029395Y021679D01*
X029378Y021639D01*
X029358Y021600D01*
X029335Y021563D01*
X029308Y021529D01*
X029279Y021496D01*
X029246Y021467D01*
X029212Y021440D01*
X029175Y021417D01*
X029136Y021397D01*
X029096Y021380D01*
X029054Y021367D01*
X029012Y021358D01*
X028969Y021352D01*
X028925Y021350D01*
X022244Y029245D02*
X021606Y029245D01*
X021606Y029265D02*
X021606Y030385D01*
X021606Y030405D02*
X022244Y030405D01*
X022244Y030385D02*
X022244Y029265D01*
X022244Y029659D02*
X022244Y029991D01*
X020451Y027865D02*
X020451Y027485D01*
X020324Y027485D02*
X020578Y027485D01*
X020324Y027739D02*
X020451Y027865D01*
X020164Y027802D02*
X020100Y027865D01*
X019910Y027865D01*
X019910Y027485D01*
X020100Y027485D01*
X020164Y027548D01*
X020164Y027802D01*
D13*
X018095Y027692D02*
X017755Y028033D01*
X017670Y028033D01*
X017585Y027948D01*
X017585Y027778D01*
X017670Y027692D01*
X017670Y027480D02*
X017585Y027395D01*
X017585Y027225D01*
X017670Y027140D01*
X017670Y027480D02*
X017755Y027480D01*
X018095Y027140D01*
X018095Y027480D01*
X018095Y027692D02*
X018095Y028033D01*
X018010Y028245D02*
X018095Y028330D01*
X018095Y028585D01*
X017755Y028585D01*
X017840Y028797D02*
X017840Y028968D01*
X017585Y029138D02*
X017585Y028797D01*
X018095Y028797D01*
X018010Y028245D02*
X017755Y028245D01*
X022240Y027918D02*
X022240Y027748D01*
X022325Y027662D01*
X022325Y027450D02*
X022240Y027365D01*
X022240Y027195D01*
X022325Y027110D01*
X022325Y027450D02*
X022410Y027450D01*
X022750Y027110D01*
X022750Y027450D01*
X022750Y027662D02*
X022410Y028003D01*
X022325Y028003D01*
X022240Y027918D01*
X022410Y028215D02*
X022665Y028215D01*
X022750Y028300D01*
X022750Y028555D01*
X022410Y028555D01*
X022495Y028767D02*
X022495Y028938D01*
X022240Y029108D02*
X022240Y028767D01*
X022750Y028767D01*
X022750Y028003D02*
X022750Y027662D01*
X012418Y017647D02*
X012350Y017698D01*
X012214Y017801D02*
X011942Y018005D01*
X011967Y017614D02*
X012086Y017631D01*
X012290Y017478D01*
X012085Y017206D02*
X011678Y017513D01*
X011865Y017479D02*
X011967Y017614D01*
X011865Y017479D02*
X011881Y017359D01*
X011686Y017241D02*
X011532Y017037D01*
X011549Y016918D01*
X011685Y016816D01*
X011804Y016833D01*
X011958Y017036D01*
X011634Y016606D02*
X011514Y016590D01*
X011243Y016794D01*
X011259Y016675D02*
X011362Y016811D01*
X011200Y016455D02*
X011080Y016438D01*
X010978Y016302D01*
X010995Y016183D01*
X011131Y016080D01*
X011250Y016097D01*
X011352Y016233D01*
X011335Y016352D01*
X011200Y016455D01*
X010871Y016741D02*
X010752Y016725D01*
X010616Y016827D01*
X010600Y016946D01*
X010702Y017082D01*
X010821Y017099D01*
X010889Y017048D01*
X010684Y016776D01*
X010871Y016741D02*
X010974Y016877D01*
X010693Y016504D02*
X010489Y016658D01*
X010370Y016641D01*
X010267Y016505D01*
X010284Y016386D01*
X010097Y016279D02*
X009994Y016143D01*
X009978Y016262D02*
X010249Y016057D01*
X010369Y016074D01*
X010488Y016232D02*
X010080Y016539D01*
X009953Y016670D02*
X009530Y016955D01*
X009340Y016673D02*
X009763Y016387D01*
X009717Y016624D01*
X009953Y016670D01*
X010001Y016893D02*
X009978Y017011D01*
X010121Y017223D01*
X010050Y017270D02*
X010262Y017128D01*
X010119Y016916D01*
X010001Y016893D01*
X009837Y017106D02*
X009932Y017247D01*
X010050Y017270D01*
X010099Y017494D02*
X010194Y017635D01*
X010076Y017612D02*
X010358Y017422D01*
X010476Y017445D01*
X010516Y017656D02*
X010375Y017752D01*
X010352Y017870D01*
X010495Y018081D01*
X010684Y018210D02*
X010661Y018328D01*
X010756Y018469D01*
X010874Y018492D01*
X011086Y018349D01*
X010896Y018067D02*
X010472Y018352D01*
X010777Y017891D02*
X010634Y017679D01*
X010516Y017656D01*
X010663Y016167D02*
X011071Y015860D01*
X010458Y015895D01*
X010866Y015588D01*
X009944Y014305D02*
X009604Y014305D01*
X009604Y013795D01*
X009391Y013795D02*
X009391Y014135D01*
X009604Y014050D02*
X009774Y014050D01*
X009391Y013795D02*
X009136Y013795D01*
X009051Y013880D01*
X009051Y014135D01*
X008839Y013795D02*
X008499Y013795D01*
X008669Y013795D02*
X008669Y014305D01*
X008499Y014135D01*
X008308Y013880D02*
X008308Y013795D01*
X008222Y013795D01*
X008222Y013880D01*
X008308Y013880D01*
X008010Y013880D02*
X008010Y014220D01*
X007670Y013880D01*
X007755Y013795D01*
X007925Y013795D01*
X008010Y013880D01*
X007670Y013880D02*
X007670Y014220D01*
X007755Y014305D01*
X007925Y014305D01*
X008010Y014220D01*
X013985Y013465D02*
X014070Y013550D01*
X014240Y013550D01*
X014325Y013465D01*
X014325Y013380D01*
X013985Y013040D01*
X014325Y013040D01*
X014537Y013125D02*
X014878Y013465D01*
X014878Y013125D01*
X014793Y013040D01*
X014623Y013040D01*
X014537Y013125D01*
X014537Y013465D01*
X014623Y013550D01*
X014793Y013550D01*
X014878Y013465D01*
X015090Y013550D02*
X015090Y013040D01*
X015090Y013210D02*
X015345Y013380D01*
X015090Y013210D02*
X015345Y013040D01*
X015028Y013970D02*
X014858Y013970D01*
X014772Y014055D01*
X014772Y014225D02*
X014943Y014310D01*
X015028Y014310D01*
X015113Y014225D01*
X015113Y014055D01*
X015028Y013970D01*
X014772Y014225D02*
X014772Y014480D01*
X015113Y014480D01*
X014560Y014395D02*
X014560Y014225D01*
X014475Y014140D01*
X014220Y014140D01*
X014220Y013970D02*
X014220Y014480D01*
X014475Y014480D01*
X014560Y014395D01*
X014390Y014140D02*
X014560Y013970D01*
X017220Y013175D02*
X017560Y013175D01*
X017475Y012920D02*
X017475Y013430D01*
X017220Y013175D01*
X017772Y013005D02*
X017858Y013005D01*
X017858Y012920D01*
X017772Y012920D01*
X017772Y013005D01*
X018049Y013005D02*
X018049Y012920D01*
X018049Y013005D02*
X018389Y013345D01*
X018389Y013430D01*
X018049Y013430D01*
X018601Y013260D02*
X018601Y013005D01*
X018686Y012920D01*
X018941Y012920D01*
X018941Y013260D01*
X019154Y013175D02*
X019324Y013175D01*
X019154Y012920D02*
X019154Y013430D01*
X019494Y013430D01*
X028920Y014220D02*
X028920Y014730D01*
X029175Y014730D01*
X029260Y014645D01*
X029260Y014475D01*
X029175Y014390D01*
X028920Y014390D01*
X029090Y014390D02*
X029260Y014220D01*
X029472Y014475D02*
X029728Y014730D01*
X029728Y014220D01*
X029813Y014475D02*
X029472Y014475D01*
X029528Y015320D02*
X029442Y015405D01*
X029528Y015320D02*
X029698Y015320D01*
X029783Y015405D01*
X029783Y015490D01*
X029698Y015575D01*
X029613Y015575D01*
X029698Y015575D02*
X029783Y015660D01*
X029783Y015745D01*
X029698Y015830D01*
X029528Y015830D01*
X029442Y015745D01*
X029230Y015745D02*
X029230Y015575D01*
X029145Y015490D01*
X028890Y015490D01*
X028890Y015320D02*
X028890Y015830D01*
X029145Y015830D01*
X029230Y015745D01*
X029060Y015490D02*
X029230Y015320D01*
X029230Y016420D02*
X029060Y016590D01*
X029145Y016590D02*
X028890Y016590D01*
X028890Y016420D02*
X028890Y016930D01*
X029145Y016930D01*
X029230Y016845D01*
X029230Y016675D01*
X029145Y016590D01*
X029442Y016420D02*
X029783Y016760D01*
X029783Y016845D01*
X029698Y016930D01*
X029528Y016930D01*
X029442Y016845D01*
X029442Y016420D02*
X029783Y016420D01*
D14*
X031390Y016265D02*
X031460Y016335D01*
X031600Y016335D01*
X031670Y016265D01*
X031670Y016195D01*
X031390Y015915D01*
X031670Y015915D01*
X031850Y015985D02*
X031920Y015915D01*
X032061Y015915D01*
X032131Y015985D01*
X032131Y016125D01*
X032061Y016195D01*
X031991Y016195D01*
X031850Y016125D01*
X031850Y016335D01*
X032131Y016335D01*
X032311Y016265D02*
X032311Y015985D01*
X032591Y016265D01*
X032591Y015985D01*
X032521Y015915D01*
X032381Y015915D01*
X032311Y015985D01*
X032311Y016265D02*
X032381Y016335D01*
X032521Y016335D01*
X032591Y016265D01*
X032521Y015485D02*
X032591Y015415D01*
X032311Y015135D01*
X032381Y015065D01*
X032521Y015065D01*
X032591Y015135D01*
X032591Y015415D01*
X032521Y015485D02*
X032381Y015485D01*
X032311Y015415D01*
X032311Y015135D01*
X032131Y015135D02*
X032061Y015065D01*
X031920Y015065D01*
X031850Y015135D01*
X031850Y015275D02*
X031991Y015345D01*
X032061Y015345D01*
X032131Y015275D01*
X032131Y015135D01*
X031850Y015275D02*
X031850Y015485D01*
X032131Y015485D01*
X031670Y015415D02*
X031600Y015485D01*
X031460Y015485D01*
X031390Y015415D01*
X031670Y015415D02*
X031670Y015345D01*
X031390Y015065D01*
X031670Y015065D01*
X031630Y014685D02*
X031630Y014265D01*
X031490Y014265D02*
X031770Y014265D01*
X031950Y014265D02*
X031950Y014685D01*
X032161Y014545D02*
X031950Y014405D01*
X032161Y014265D01*
X031630Y014685D02*
X031490Y014545D01*
X026925Y016725D02*
X026825Y016725D01*
X026925Y016725D02*
X026925Y019125D01*
X026825Y019125D01*
X021175Y011775D02*
X019475Y011775D01*
X019125Y010980D02*
X019125Y010175D01*
X019475Y009375D02*
X021175Y009375D01*
X021525Y010175D02*
X021525Y010968D01*
X019625Y010575D02*
X019627Y010627D01*
X019633Y010679D01*
X019643Y010731D01*
X019656Y010781D01*
X019673Y010831D01*
X019694Y010879D01*
X019719Y010925D01*
X019747Y010969D01*
X019778Y011011D01*
X019812Y011051D01*
X019849Y011088D01*
X019889Y011122D01*
X019931Y011153D01*
X019975Y011181D01*
X020021Y011206D01*
X020069Y011227D01*
X020119Y011244D01*
X020169Y011257D01*
X020221Y011267D01*
X020273Y011273D01*
X020325Y011275D01*
X020377Y011273D01*
X020429Y011267D01*
X020481Y011257D01*
X020531Y011244D01*
X020581Y011227D01*
X020629Y011206D01*
X020675Y011181D01*
X020719Y011153D01*
X020761Y011122D01*
X020801Y011088D01*
X020838Y011051D01*
X020872Y011011D01*
X020903Y010969D01*
X020931Y010925D01*
X020956Y010879D01*
X020977Y010831D01*
X020994Y010781D01*
X021007Y010731D01*
X021017Y010679D01*
X021023Y010627D01*
X021025Y010575D01*
X021023Y010523D01*
X021017Y010471D01*
X021007Y010419D01*
X020994Y010369D01*
X020977Y010319D01*
X020956Y010271D01*
X020931Y010225D01*
X020903Y010181D01*
X020872Y010139D01*
X020838Y010099D01*
X020801Y010062D01*
X020761Y010028D01*
X020719Y009997D01*
X020675Y009969D01*
X020629Y009944D01*
X020581Y009923D01*
X020531Y009906D01*
X020481Y009893D01*
X020429Y009883D01*
X020377Y009877D01*
X020325Y009875D01*
X020273Y009877D01*
X020221Y009883D01*
X020169Y009893D01*
X020119Y009906D01*
X020069Y009923D01*
X020021Y009944D01*
X019975Y009969D01*
X019931Y009997D01*
X019889Y010028D01*
X019849Y010062D01*
X019812Y010099D01*
X019778Y010139D01*
X019747Y010181D01*
X019719Y010225D01*
X019694Y010271D01*
X019673Y010319D01*
X019656Y010369D01*
X019643Y010419D01*
X019633Y010471D01*
X019627Y010523D01*
X019625Y010575D01*
X019590Y007310D02*
X019590Y006890D01*
X019870Y006890D01*
X020050Y006890D02*
X020331Y006890D01*
X020511Y006890D02*
X020721Y006890D01*
X020791Y006960D01*
X020791Y007240D01*
X020721Y007310D01*
X020511Y007310D01*
X020511Y006890D01*
X020191Y007100D02*
X020050Y007100D01*
X020050Y007310D02*
X020050Y006890D01*
X020050Y007310D02*
X020331Y007310D01*
X013025Y016725D02*
X012925Y016725D01*
X012925Y017425D01*
X012969Y017427D01*
X013012Y017433D01*
X013054Y017442D01*
X013096Y017455D01*
X013136Y017472D01*
X013175Y017492D01*
X013212Y017515D01*
X013246Y017542D01*
X013279Y017571D01*
X013308Y017604D01*
X013335Y017638D01*
X013358Y017675D01*
X013378Y017714D01*
X013395Y017754D01*
X013408Y017796D01*
X013417Y017838D01*
X013423Y017881D01*
X013425Y017925D01*
X013423Y017969D01*
X013417Y018012D01*
X013408Y018054D01*
X013395Y018096D01*
X013378Y018136D01*
X013358Y018175D01*
X013335Y018212D01*
X013308Y018246D01*
X013279Y018279D01*
X013246Y018308D01*
X013212Y018335D01*
X013175Y018358D01*
X013136Y018378D01*
X013096Y018395D01*
X013054Y018408D01*
X013012Y018417D01*
X012969Y018423D01*
X012925Y018425D01*
X012925Y019125D01*
X013025Y019125D01*
X011415Y020046D02*
X011363Y020339D01*
X011265Y020321D02*
X011656Y020390D01*
X011426Y020551D02*
X011185Y020207D01*
X011037Y020310D02*
X010808Y020471D01*
X011049Y020815D01*
X010861Y020861D02*
X010821Y020804D01*
X010723Y020786D01*
X010551Y020907D01*
X010431Y020735D02*
X010603Y020614D01*
X010700Y020631D01*
X010741Y020689D01*
X010723Y020786D01*
X010861Y020861D02*
X010844Y020959D01*
X010672Y021079D01*
X010431Y020735D01*
X010693Y020275D02*
X010346Y020207D01*
X010067Y019793D01*
X010134Y019445D01*
X009787Y019378D01*
X009507Y018963D01*
X009575Y018616D01*
X009228Y018549D01*
X008948Y018134D01*
X009016Y017787D01*
X008669Y017720D01*
X008389Y017305D01*
X008457Y016958D01*
X008109Y016891D01*
X007830Y016476D01*
X007897Y016129D01*
X007550Y016062D01*
X007271Y015647D01*
X007338Y015300D01*
X007753Y015021D01*
X008100Y015088D01*
X008379Y015503D01*
X008312Y015850D01*
X008659Y015917D01*
X008939Y016332D01*
X008871Y016679D01*
X009218Y016746D01*
X009498Y017161D01*
X009430Y017508D01*
X009777Y017575D01*
X010057Y017990D01*
X009989Y018337D01*
X010336Y018404D01*
X010616Y018819D01*
X010549Y019166D01*
X010896Y019233D01*
X011175Y019648D01*
X011108Y019995D01*
X010693Y020275D01*
X006894Y015409D02*
X006779Y015489D01*
X006682Y015472D01*
X006521Y015242D01*
X006538Y015145D01*
X006653Y015064D01*
X006750Y015081D01*
X006831Y015196D01*
X006716Y015277D01*
X006911Y015311D02*
X006894Y015409D01*
X007099Y015265D02*
X007271Y015145D01*
X007288Y015047D01*
X007208Y014932D01*
X007110Y014915D01*
X006938Y015036D01*
X006858Y014921D02*
X007099Y015265D01*
X007053Y014955D02*
X007087Y014760D01*
X007235Y014657D02*
X007476Y015001D01*
X007465Y014496D01*
X007706Y014840D01*
X019175Y027375D02*
X019175Y027675D01*
X019075Y027675D01*
X019175Y027675D02*
X019175Y027975D01*
X021175Y027975D01*
X021175Y027675D01*
X021275Y027675D01*
X021175Y027675D02*
X021175Y027375D01*
X019175Y027375D01*
X019425Y027425D02*
X019425Y027925D01*
X006791Y028985D02*
X006791Y029265D01*
X006721Y029335D01*
X006511Y029335D01*
X006511Y028915D01*
X006721Y028915D01*
X006791Y028985D01*
X006331Y028915D02*
X006050Y028915D01*
X006050Y029335D01*
X006331Y029335D01*
X006191Y029125D02*
X006050Y029125D01*
X005870Y028915D02*
X005590Y028915D01*
X005590Y029335D01*
X033615Y029360D02*
X033615Y028940D01*
X033895Y028940D01*
X034075Y028940D02*
X034356Y028940D01*
X034536Y028940D02*
X034746Y028940D01*
X034816Y029010D01*
X034816Y029290D01*
X034746Y029360D01*
X034536Y029360D01*
X034536Y028940D01*
X034216Y029150D02*
X034075Y029150D01*
X034075Y029360D02*
X034075Y028940D01*
X034075Y029360D02*
X034356Y029360D01*
D15*
X013125Y017975D02*
X012775Y018145D01*
X012775Y017835D01*
X013125Y017975D01*
X012395Y017975D01*
D16*
X017480Y018025D02*
X017874Y018025D01*
X017874Y018124D02*
X017874Y017730D01*
X017874Y018124D02*
X017677Y018321D01*
X017480Y018124D01*
X017480Y017730D01*
X018321Y017730D02*
X018321Y018321D01*
X018125Y018321D02*
X018518Y018321D01*
X018769Y018124D02*
X018868Y018124D01*
X018966Y018025D01*
X019064Y018124D01*
X019163Y018025D01*
X019163Y017730D01*
X018966Y017730D02*
X018966Y018025D01*
X018769Y018124D02*
X018769Y017730D01*
X019414Y017828D02*
X019512Y017730D01*
X019709Y017730D01*
X019807Y017927D02*
X019414Y017927D01*
X019414Y018025D02*
X019512Y018124D01*
X019709Y018124D01*
X019807Y018025D01*
X019807Y017927D01*
X020058Y018025D02*
X020058Y017828D01*
X020157Y017730D01*
X020452Y017730D01*
X020452Y017632D02*
X020452Y018124D01*
X020157Y018124D01*
X020058Y018025D01*
X020255Y017533D02*
X020353Y017533D01*
X020452Y017632D01*
X020703Y017828D02*
X020801Y017927D01*
X021096Y017927D01*
X021096Y018025D02*
X021096Y017730D01*
X020801Y017730D01*
X020703Y017828D01*
X020801Y018124D02*
X020998Y018124D01*
X021096Y018025D01*
X021347Y017828D02*
X021446Y017730D01*
X021643Y017730D01*
X021741Y017828D01*
X021741Y017927D01*
X021643Y018025D01*
X021544Y018025D01*
X021643Y018025D02*
X021741Y018124D01*
X021741Y018222D01*
X021643Y018321D01*
X021446Y018321D01*
X021347Y018222D01*
X021992Y018222D02*
X022090Y018321D01*
X022287Y018321D01*
X022386Y018222D01*
X022386Y018124D01*
X021992Y017730D01*
X022386Y017730D01*
X022636Y017828D02*
X022636Y017927D01*
X022735Y018025D01*
X022932Y018025D01*
X023030Y017927D01*
X023030Y017828D01*
X022932Y017730D01*
X022735Y017730D01*
X022636Y017828D01*
X022735Y018025D02*
X022636Y018124D01*
X022636Y018222D01*
X022735Y018321D01*
X022932Y018321D01*
X023030Y018222D01*
X023030Y018124D01*
X022932Y018025D01*
X019414Y018025D02*
X019414Y017828D01*
X019230Y009071D02*
X019427Y008874D01*
X019624Y009071D01*
X019624Y008480D01*
X019875Y008578D02*
X019973Y008480D01*
X020170Y008480D01*
X020268Y008578D01*
X020268Y008775D01*
X020170Y008874D01*
X019973Y008874D01*
X019875Y008775D01*
X019875Y008578D01*
X020519Y008578D02*
X020519Y008775D01*
X020618Y008874D01*
X020913Y008874D01*
X020913Y009071D02*
X020913Y008480D01*
X020618Y008480D01*
X020519Y008578D01*
X021164Y008578D02*
X021164Y008775D01*
X021262Y008874D01*
X021459Y008874D01*
X021557Y008775D01*
X021557Y008677D01*
X021164Y008677D01*
X021164Y008578D02*
X021262Y008480D01*
X021459Y008480D01*
X019230Y008480D02*
X019230Y009071D01*
D17*
X019387Y003875D02*
X019326Y003919D01*
X019268Y003965D01*
X019211Y004014D01*
X019158Y004066D01*
X019107Y004121D01*
X019059Y004179D01*
X019015Y004239D01*
X018973Y004301D01*
X018935Y004365D01*
X018900Y004431D01*
X018869Y004499D01*
X018842Y004569D01*
X018818Y004640D01*
X018798Y004712D01*
X018781Y004785D01*
X018769Y004858D01*
X018760Y004933D01*
X018756Y005007D01*
X018755Y005082D01*
X018759Y005157D01*
X018766Y005231D01*
X018777Y005305D01*
X018792Y005378D01*
X018811Y005451D01*
X018833Y005522D01*
X018860Y005592D01*
X018890Y005660D01*
X018923Y005727D01*
X018960Y005792D01*
X019000Y005855D01*
X019044Y005916D01*
X019091Y005974D01*
X019141Y006030D01*
X019193Y006083D01*
X019249Y006133D01*
X019306Y006180D01*
X019367Y006225D01*
X019429Y006265D01*
X019494Y006303D01*
X019561Y006337D01*
X019629Y006368D01*
X019698Y006395D01*
X019770Y006418D01*
X019842Y006437D01*
X019915Y006453D01*
X019989Y006465D01*
X020063Y006473D01*
X020138Y006477D01*
X020212Y006477D01*
X020287Y006473D01*
X020361Y006465D01*
X020435Y006453D01*
X020508Y006437D01*
X020580Y006418D01*
X020652Y006395D01*
X020721Y006368D01*
X020789Y006337D01*
X020856Y006303D01*
X020921Y006265D01*
X020983Y006225D01*
X021044Y006180D01*
X021101Y006133D01*
X021157Y006083D01*
X021209Y006030D01*
X021259Y005974D01*
X021306Y005916D01*
X021350Y005855D01*
X021390Y005792D01*
X021427Y005727D01*
X021460Y005660D01*
X021490Y005592D01*
X021517Y005522D01*
X021539Y005451D01*
X021558Y005378D01*
X021573Y005305D01*
X021584Y005231D01*
X021591Y005157D01*
X021595Y005082D01*
X021594Y005007D01*
X021590Y004933D01*
X021581Y004858D01*
X021569Y004785D01*
X021552Y004712D01*
X021532Y004640D01*
X021508Y004569D01*
X021481Y004499D01*
X021450Y004431D01*
X021415Y004365D01*
X021377Y004301D01*
X021335Y004239D01*
X021291Y004179D01*
X021243Y004121D01*
X021192Y004066D01*
X021139Y004014D01*
X021082Y003965D01*
X021024Y003919D01*
X020963Y003875D01*
X020962Y003876D02*
X019388Y003876D01*
X020557Y013191D02*
X023313Y013191D01*
X023313Y013190D02*
X023359Y013192D01*
X023405Y013197D01*
X023451Y013206D01*
X023496Y013219D01*
X023539Y013235D01*
X023581Y013254D01*
X023622Y013277D01*
X023660Y013303D01*
X023697Y013332D01*
X023731Y013363D01*
X023762Y013397D01*
X023791Y013434D01*
X023817Y013472D01*
X023840Y013513D01*
X023859Y013555D01*
X023875Y013598D01*
X023888Y013643D01*
X023897Y013689D01*
X023902Y013735D01*
X023904Y013781D01*
X023904Y014569D01*
X023902Y014615D01*
X023897Y014661D01*
X023888Y014707D01*
X023875Y014752D01*
X023859Y014795D01*
X023840Y014837D01*
X023817Y014878D01*
X023791Y014916D01*
X023762Y014953D01*
X023731Y014987D01*
X023697Y015018D01*
X023660Y015047D01*
X023622Y015073D01*
X023581Y015096D01*
X023539Y015115D01*
X023496Y015131D01*
X023451Y015144D01*
X023405Y015153D01*
X023359Y015158D01*
X023313Y015160D01*
X023313Y015159D02*
X020557Y015159D01*
X020557Y015160D02*
X020511Y015158D01*
X020465Y015153D01*
X020419Y015144D01*
X020374Y015131D01*
X020331Y015115D01*
X020289Y015096D01*
X020248Y015073D01*
X020210Y015047D01*
X020173Y015018D01*
X020139Y014987D01*
X020108Y014953D01*
X020079Y014916D01*
X020053Y014878D01*
X020030Y014837D01*
X020011Y014795D01*
X019995Y014752D01*
X019982Y014707D01*
X019973Y014661D01*
X019968Y014615D01*
X019966Y014569D01*
X019966Y013781D01*
X019968Y013735D01*
X019973Y013689D01*
X019982Y013643D01*
X019995Y013598D01*
X020011Y013555D01*
X020030Y013513D01*
X020053Y013472D01*
X020079Y013434D01*
X020108Y013397D01*
X020139Y013363D01*
X020173Y013332D01*
X020210Y013303D01*
X020248Y013277D01*
X020289Y013254D01*
X020331Y013235D01*
X020374Y013219D01*
X020419Y013206D01*
X020465Y013197D01*
X020511Y013192D01*
X020557Y013190D01*
X029629Y022517D02*
X031055Y021537D01*
X033321Y024833D01*
X031895Y025813D01*
X029629Y022517D01*
X033388Y025876D02*
X034962Y025876D01*
X034963Y025875D02*
X035024Y025919D01*
X035082Y025965D01*
X035139Y026014D01*
X035192Y026066D01*
X035243Y026121D01*
X035291Y026179D01*
X035335Y026239D01*
X035377Y026301D01*
X035415Y026365D01*
X035450Y026431D01*
X035481Y026499D01*
X035508Y026569D01*
X035532Y026640D01*
X035552Y026712D01*
X035569Y026785D01*
X035581Y026858D01*
X035590Y026933D01*
X035594Y027007D01*
X035595Y027082D01*
X035591Y027157D01*
X035584Y027231D01*
X035573Y027305D01*
X035558Y027378D01*
X035539Y027451D01*
X035517Y027522D01*
X035490Y027592D01*
X035460Y027660D01*
X035427Y027727D01*
X035390Y027792D01*
X035350Y027855D01*
X035306Y027916D01*
X035259Y027974D01*
X035209Y028030D01*
X035157Y028083D01*
X035101Y028133D01*
X035044Y028180D01*
X034983Y028225D01*
X034921Y028265D01*
X034856Y028303D01*
X034789Y028337D01*
X034721Y028368D01*
X034652Y028395D01*
X034580Y028418D01*
X034508Y028437D01*
X034435Y028453D01*
X034361Y028465D01*
X034287Y028473D01*
X034212Y028477D01*
X034138Y028477D01*
X034063Y028473D01*
X033989Y028465D01*
X033915Y028453D01*
X033842Y028437D01*
X033770Y028418D01*
X033698Y028395D01*
X033629Y028368D01*
X033561Y028337D01*
X033494Y028303D01*
X033429Y028265D01*
X033367Y028225D01*
X033306Y028180D01*
X033249Y028133D01*
X033193Y028083D01*
X033141Y028030D01*
X033091Y027974D01*
X033044Y027916D01*
X033000Y027855D01*
X032960Y027792D01*
X032923Y027727D01*
X032890Y027660D01*
X032860Y027592D01*
X032833Y027522D01*
X032811Y027451D01*
X032792Y027378D01*
X032777Y027305D01*
X032766Y027231D01*
X032759Y027157D01*
X032755Y027082D01*
X032756Y027007D01*
X032760Y026933D01*
X032769Y026858D01*
X032781Y026785D01*
X032798Y026712D01*
X032818Y026640D01*
X032842Y026569D01*
X032869Y026499D01*
X032900Y026431D01*
X032935Y026365D01*
X032973Y026301D01*
X033015Y026239D01*
X033059Y026179D01*
X033107Y026121D01*
X033158Y026066D01*
X033211Y026014D01*
X033268Y025965D01*
X033326Y025919D01*
X033387Y025875D01*
X018500Y032075D02*
X018502Y032157D01*
X018508Y032238D01*
X018518Y032319D01*
X018532Y032399D01*
X018549Y032479D01*
X018571Y032558D01*
X018596Y032635D01*
X018626Y032711D01*
X018658Y032786D01*
X018695Y032859D01*
X018735Y032930D01*
X018778Y032999D01*
X018825Y033066D01*
X018875Y033131D01*
X018928Y033193D01*
X018983Y033252D01*
X019042Y033309D01*
X019104Y033362D01*
X019168Y033413D01*
X019234Y033461D01*
X019302Y033505D01*
X019373Y033546D01*
X019446Y033583D01*
X019520Y033617D01*
X019596Y033647D01*
X019673Y033673D01*
X019751Y033696D01*
X019831Y033714D01*
X019911Y033729D01*
X019992Y033740D01*
X020073Y033747D01*
X020155Y033750D01*
X020236Y033749D01*
X020318Y033744D01*
X020399Y033735D01*
X020479Y033722D01*
X020559Y033705D01*
X020638Y033685D01*
X020716Y033660D01*
X020792Y033632D01*
X020867Y033600D01*
X020941Y033565D01*
X021012Y033526D01*
X021082Y033483D01*
X021150Y033437D01*
X021215Y033388D01*
X021277Y033336D01*
X021338Y033281D01*
X021395Y033223D01*
X021449Y033162D01*
X021501Y033099D01*
X021549Y033033D01*
X021594Y032965D01*
X021636Y032895D01*
X021674Y032823D01*
X021708Y032749D01*
X021739Y032673D01*
X021767Y032596D01*
X021790Y032518D01*
X021810Y032439D01*
X021826Y032359D01*
X021838Y032278D01*
X021846Y032197D01*
X021850Y032116D01*
X021850Y032034D01*
X021846Y031953D01*
X021838Y031872D01*
X021826Y031791D01*
X021810Y031711D01*
X021790Y031632D01*
X021767Y031554D01*
X021739Y031477D01*
X021708Y031401D01*
X021674Y031327D01*
X021636Y031255D01*
X021594Y031185D01*
X021549Y031117D01*
X021501Y031051D01*
X021449Y030988D01*
X021395Y030927D01*
X021338Y030869D01*
X021277Y030814D01*
X021215Y030762D01*
X021150Y030713D01*
X021082Y030667D01*
X021013Y030624D01*
X020941Y030585D01*
X020867Y030550D01*
X020792Y030518D01*
X020716Y030490D01*
X020638Y030465D01*
X020559Y030445D01*
X020479Y030428D01*
X020399Y030415D01*
X020318Y030406D01*
X020236Y030401D01*
X020155Y030400D01*
X020073Y030403D01*
X019992Y030410D01*
X019911Y030421D01*
X019831Y030436D01*
X019751Y030454D01*
X019673Y030477D01*
X019596Y030503D01*
X019520Y030533D01*
X019446Y030567D01*
X019373Y030604D01*
X019302Y030645D01*
X019234Y030689D01*
X019168Y030737D01*
X019104Y030788D01*
X019042Y030841D01*
X018983Y030898D01*
X018928Y030957D01*
X018875Y031019D01*
X018825Y031084D01*
X018778Y031151D01*
X018735Y031220D01*
X018695Y031291D01*
X018658Y031364D01*
X018626Y031439D01*
X018596Y031515D01*
X018571Y031592D01*
X018549Y031671D01*
X018532Y031751D01*
X018518Y031831D01*
X018508Y031912D01*
X018502Y031993D01*
X018500Y032075D01*
X006962Y025876D02*
X005388Y025876D01*
X005387Y025875D02*
X005326Y025919D01*
X005268Y025965D01*
X005211Y026014D01*
X005158Y026066D01*
X005107Y026121D01*
X005059Y026179D01*
X005015Y026239D01*
X004973Y026301D01*
X004935Y026365D01*
X004900Y026431D01*
X004869Y026499D01*
X004842Y026569D01*
X004818Y026640D01*
X004798Y026712D01*
X004781Y026785D01*
X004769Y026858D01*
X004760Y026933D01*
X004756Y027007D01*
X004755Y027082D01*
X004759Y027157D01*
X004766Y027231D01*
X004777Y027305D01*
X004792Y027378D01*
X004811Y027451D01*
X004833Y027522D01*
X004860Y027592D01*
X004890Y027660D01*
X004923Y027727D01*
X004960Y027792D01*
X005000Y027855D01*
X005044Y027916D01*
X005091Y027974D01*
X005141Y028030D01*
X005193Y028083D01*
X005249Y028133D01*
X005306Y028180D01*
X005367Y028225D01*
X005429Y028265D01*
X005494Y028303D01*
X005561Y028337D01*
X005629Y028368D01*
X005698Y028395D01*
X005770Y028418D01*
X005842Y028437D01*
X005915Y028453D01*
X005989Y028465D01*
X006063Y028473D01*
X006138Y028477D01*
X006212Y028477D01*
X006287Y028473D01*
X006361Y028465D01*
X006435Y028453D01*
X006508Y028437D01*
X006580Y028418D01*
X006652Y028395D01*
X006721Y028368D01*
X006789Y028337D01*
X006856Y028303D01*
X006921Y028265D01*
X006983Y028225D01*
X007044Y028180D01*
X007101Y028133D01*
X007157Y028083D01*
X007209Y028030D01*
X007259Y027974D01*
X007306Y027916D01*
X007350Y027855D01*
X007390Y027792D01*
X007427Y027727D01*
X007460Y027660D01*
X007490Y027592D01*
X007517Y027522D01*
X007539Y027451D01*
X007558Y027378D01*
X007573Y027305D01*
X007584Y027231D01*
X007591Y027157D01*
X007595Y027082D01*
X007594Y027007D01*
X007590Y026933D01*
X007581Y026858D01*
X007569Y026785D01*
X007552Y026712D01*
X007532Y026640D01*
X007508Y026569D01*
X007481Y026499D01*
X007450Y026431D01*
X007415Y026365D01*
X007377Y026301D01*
X007335Y026239D01*
X007291Y026179D01*
X007243Y026121D01*
X007192Y026066D01*
X007139Y026014D01*
X007082Y025965D01*
X007024Y025919D01*
X006963Y025875D01*
D18*
X021820Y030200D03*
M02*
