G75*
%MOIN*%
%OFA0B0*%
%FSLAX24Y24*%
%IPPOS*%
%LPD*%
%AMOC8*
5,1,8,0,0,1.08239X$1,22.5*
%
%ADD10C,0.2060*%
%ADD11C,0.0651*%
%ADD12C,0.0800*%
%ADD13C,0.0050*%
%ADD14C,0.0540*%
%ADD15C,0.0360*%
%ADD16C,0.0710*%
%ADD17R,0.0473X0.0277*%
%ADD18C,0.0555*%
%ADD19C,0.0975*%
%ADD20OC8,0.0800*%
%ADD21C,0.0960*%
D10*
X005975Y013325D03*
X020175Y035175D03*
X034375Y013325D03*
D11*
X034175Y025994D03*
X034175Y026781D03*
X034175Y027569D03*
X034175Y028356D03*
X020175Y006356D03*
X020175Y005569D03*
X020175Y004781D03*
X020175Y003994D03*
X006175Y025994D03*
X006175Y026781D03*
X006175Y027569D03*
X006175Y028356D03*
D12*
X010621Y019720D03*
X010062Y018891D03*
X009503Y018062D03*
X008943Y017233D03*
X008384Y016404D03*
X007825Y015575D03*
X019045Y011465D03*
X019045Y009685D03*
X021605Y009685D03*
X021605Y011465D03*
D13*
X019232Y014039D02*
X019199Y014018D01*
X019162Y014006D01*
X019124Y014002D01*
X019086Y014005D01*
X019049Y014017D01*
X019017Y014037D01*
X018989Y014063D01*
X018968Y014095D01*
X018954Y014131D01*
X018949Y014169D01*
X018953Y014209D01*
X018965Y014247D01*
X018985Y014282D01*
X019013Y014311D01*
X019047Y014333D01*
X019084Y014347D01*
X019124Y014353D01*
X019163Y014348D01*
X019201Y014334D01*
X019234Y014312D01*
X019261Y014284D01*
X019282Y014250D01*
X019294Y014212D01*
X019298Y014173D01*
X019293Y014135D01*
X019280Y014098D01*
X019259Y014066D01*
X019232Y014039D01*
X019258Y014064D02*
X018988Y014064D01*
X018961Y014112D02*
X019285Y014112D01*
X019297Y014161D02*
X018950Y014161D01*
X018953Y014209D02*
X019295Y014209D01*
X019277Y014258D02*
X018971Y014258D01*
X019009Y014306D02*
X019240Y014306D01*
X019190Y014015D02*
X019055Y014015D01*
X018191Y014135D02*
X018178Y014098D01*
X018157Y014066D01*
X018130Y014039D01*
X018097Y014018D01*
X018060Y014006D01*
X018022Y014002D01*
X017984Y014005D01*
X017947Y014017D01*
X017915Y014037D01*
X017887Y014063D01*
X017866Y014095D01*
X017852Y014131D01*
X017847Y014169D01*
X017851Y014209D01*
X017863Y014247D01*
X017883Y014282D01*
X017911Y014311D01*
X017945Y014333D01*
X017982Y014347D01*
X018022Y014353D01*
X018061Y014348D01*
X018098Y014334D01*
X018132Y014312D01*
X018159Y014284D01*
X018180Y014250D01*
X018192Y014212D01*
X018196Y014173D01*
X018191Y014135D01*
X018183Y014112D02*
X017859Y014112D01*
X017848Y014161D02*
X018195Y014161D01*
X018192Y014209D02*
X017851Y014209D01*
X017869Y014258D02*
X018175Y014258D01*
X018138Y014306D02*
X017907Y014306D01*
X017886Y014064D02*
X018156Y014064D01*
X018088Y014015D02*
X017953Y014015D01*
X016352Y014174D02*
X016347Y014136D01*
X016334Y014099D01*
X016313Y014067D01*
X016286Y014040D01*
X016253Y014019D01*
X016216Y014007D01*
X016178Y014003D01*
X016140Y014006D01*
X016103Y014018D01*
X016070Y014038D01*
X016043Y014064D01*
X016311Y014064D01*
X016339Y014112D02*
X016016Y014112D01*
X016022Y014096D02*
X016008Y014132D01*
X016003Y014170D01*
X016006Y014210D01*
X016019Y014248D01*
X016039Y014283D01*
X016067Y014312D01*
X016101Y014334D01*
X016138Y014348D01*
X016178Y014354D01*
X016217Y014349D01*
X016254Y014335D01*
X016288Y014314D01*
X016315Y014285D01*
X016336Y014251D01*
X016348Y014213D01*
X016352Y014174D01*
X016350Y014161D02*
X016004Y014161D01*
X016006Y014209D02*
X016349Y014209D01*
X016332Y014258D02*
X016025Y014258D01*
X016062Y014306D02*
X016294Y014306D01*
X016241Y014015D02*
X016112Y014015D01*
X016043Y014064D02*
X016022Y014096D01*
X013349Y014171D02*
X013344Y014133D01*
X013331Y014096D01*
X013310Y014064D01*
X013283Y014037D01*
X013250Y014016D01*
X013213Y014004D01*
X013175Y014000D01*
X013137Y014003D01*
X013100Y014015D01*
X013068Y014035D01*
X013040Y014061D01*
X013019Y014093D01*
X013005Y014129D01*
X013000Y014167D01*
X013004Y014207D01*
X013016Y014245D01*
X013036Y014280D01*
X013064Y014309D01*
X013098Y014331D01*
X013135Y014345D01*
X013175Y014351D01*
X013214Y014346D01*
X013251Y014332D01*
X013285Y014311D01*
X013312Y014282D01*
X013333Y014248D01*
X013345Y014210D01*
X013349Y014171D01*
X013348Y014161D02*
X013001Y014161D01*
X013004Y014209D02*
X013345Y014209D01*
X013327Y014258D02*
X013023Y014258D01*
X013062Y014306D02*
X013289Y014306D01*
X013337Y014112D02*
X013011Y014112D01*
X013038Y014064D02*
X013311Y014064D01*
X013247Y014015D02*
X013100Y014015D01*
X011897Y014161D02*
X011550Y014161D01*
X011549Y014169D02*
X011553Y014209D01*
X011565Y014247D01*
X011585Y014282D01*
X011613Y014311D01*
X011647Y014333D01*
X011684Y014347D01*
X011724Y014353D01*
X011763Y014348D01*
X011801Y014334D01*
X011834Y014312D01*
X011861Y014284D01*
X011882Y014250D01*
X011894Y014212D01*
X011898Y014173D01*
X011893Y014135D01*
X011880Y014098D01*
X011859Y014066D01*
X011832Y014039D01*
X011799Y014018D01*
X011762Y014006D01*
X011724Y014002D01*
X011686Y014005D01*
X011649Y014017D01*
X011617Y014037D01*
X011589Y014063D01*
X011568Y014095D01*
X011554Y014131D01*
X011549Y014169D01*
X011553Y014209D02*
X011895Y014209D01*
X011877Y014258D02*
X011571Y014258D01*
X011609Y014306D02*
X011840Y014306D01*
X011885Y014112D02*
X011561Y014112D01*
X011588Y014064D02*
X011858Y014064D01*
X011790Y014015D02*
X011655Y014015D01*
X010791Y014135D02*
X010778Y014098D01*
X010757Y014066D01*
X010730Y014039D01*
X010697Y014018D01*
X010660Y014006D01*
X010622Y014002D01*
X010584Y014005D01*
X010547Y014017D01*
X010515Y014037D01*
X010487Y014063D01*
X010466Y014095D01*
X010452Y014131D01*
X010447Y014169D01*
X010451Y014209D01*
X010463Y014247D01*
X010483Y014282D01*
X010511Y014311D01*
X010545Y014333D01*
X010582Y014347D01*
X010622Y014353D01*
X010661Y014348D01*
X010698Y014334D01*
X010732Y014312D01*
X010759Y014284D01*
X010780Y014250D01*
X010792Y014212D01*
X010796Y014173D01*
X010791Y014135D01*
X010783Y014112D02*
X010459Y014112D01*
X010448Y014161D02*
X010795Y014161D01*
X010792Y014209D02*
X010451Y014209D01*
X010469Y014258D02*
X010775Y014258D01*
X010738Y014306D02*
X010507Y014306D01*
X010486Y014064D02*
X010756Y014064D01*
X010688Y014015D02*
X010553Y014015D01*
X016848Y027470D02*
X016816Y027491D01*
X016789Y027518D01*
X016768Y027551D01*
X016756Y027588D01*
X016752Y027626D01*
X016755Y027664D01*
X016767Y027701D01*
X016787Y027733D01*
X016813Y027761D01*
X016845Y027782D01*
X016881Y027796D01*
X016919Y027801D01*
X016959Y027797D01*
X016997Y027785D01*
X017032Y027765D01*
X017061Y027737D01*
X017083Y027703D01*
X017097Y027666D01*
X017103Y027626D01*
X017098Y027587D01*
X017084Y027549D01*
X017062Y027516D01*
X017034Y027489D01*
X017000Y027468D01*
X016962Y027456D01*
X016923Y027452D01*
X016885Y027457D01*
X016848Y027470D01*
X016808Y027499D02*
X017044Y027499D01*
X017083Y027547D02*
X016771Y027547D01*
X016755Y027596D02*
X017099Y027596D01*
X017100Y027644D02*
X016754Y027644D01*
X016765Y027693D02*
X017087Y027693D01*
X017057Y027741D02*
X016794Y027741D01*
X016864Y027790D02*
X016984Y027790D01*
X016923Y028554D02*
X016885Y028559D01*
X016848Y028572D01*
X016816Y028593D01*
X016789Y028620D01*
X016768Y028653D01*
X016756Y028690D01*
X016752Y028728D01*
X016755Y028766D01*
X016767Y028803D01*
X016787Y028835D01*
X016813Y028863D01*
X016845Y028884D01*
X016881Y028898D01*
X016919Y028903D01*
X016959Y028899D01*
X016997Y028887D01*
X017032Y028867D01*
X017061Y028839D01*
X017083Y028805D01*
X017097Y028768D01*
X017103Y028728D01*
X017098Y028689D01*
X017084Y028652D01*
X017062Y028618D01*
X017034Y028591D01*
X017000Y028570D01*
X016962Y028558D01*
X016923Y028554D01*
X016866Y028566D02*
X016986Y028566D01*
X017058Y028614D02*
X016795Y028614D01*
X016765Y028663D02*
X017088Y028663D01*
X017101Y028711D02*
X016754Y028711D01*
X016755Y028760D02*
X017099Y028760D01*
X017081Y028808D02*
X016770Y028808D01*
X016807Y028857D02*
X017042Y028857D01*
X023252Y028728D02*
X023256Y028690D01*
X023268Y028653D01*
X023289Y028620D01*
X023316Y028593D01*
X023348Y028572D01*
X023385Y028559D01*
X023423Y028554D01*
X023462Y028558D01*
X023500Y028570D01*
X023534Y028591D01*
X023562Y028618D01*
X023584Y028652D01*
X023598Y028689D01*
X023603Y028728D01*
X023597Y028768D01*
X023583Y028805D01*
X023561Y028839D01*
X023532Y028867D01*
X023497Y028887D01*
X023459Y028899D01*
X023419Y028903D01*
X023381Y028898D01*
X023345Y028884D01*
X023313Y028863D01*
X023287Y028835D01*
X023267Y028803D01*
X023255Y028766D01*
X023252Y028728D01*
X023254Y028711D02*
X023601Y028711D01*
X023599Y028760D02*
X023255Y028760D01*
X023270Y028808D02*
X023581Y028808D01*
X023542Y028857D02*
X023307Y028857D01*
X023265Y028663D02*
X023588Y028663D01*
X023558Y028614D02*
X023295Y028614D01*
X023366Y028566D02*
X023486Y028566D01*
X023419Y027801D02*
X023381Y027796D01*
X023345Y027782D01*
X023313Y027761D01*
X023287Y027733D01*
X023267Y027701D01*
X023255Y027664D01*
X023252Y027626D01*
X023256Y027588D01*
X023268Y027551D01*
X023289Y027518D01*
X023316Y027491D01*
X023348Y027470D01*
X023385Y027457D01*
X023423Y027452D01*
X023462Y027456D01*
X023500Y027468D01*
X023534Y027489D01*
X023562Y027516D01*
X023584Y027549D01*
X023598Y027587D01*
X023603Y027626D01*
X023597Y027666D01*
X023583Y027703D01*
X023561Y027737D01*
X023532Y027765D01*
X023497Y027785D01*
X023459Y027797D01*
X023419Y027801D01*
X023364Y027790D02*
X023484Y027790D01*
X023557Y027741D02*
X023294Y027741D01*
X023265Y027693D02*
X023587Y027693D01*
X023600Y027644D02*
X023254Y027644D01*
X023255Y027596D02*
X023599Y027596D01*
X023583Y027547D02*
X023271Y027547D01*
X023308Y027499D02*
X023544Y027499D01*
X027798Y016781D02*
X027835Y016795D01*
X027875Y016801D01*
X027914Y016796D01*
X027951Y016782D01*
X027985Y016761D01*
X028012Y016732D01*
X028033Y016698D01*
X028045Y016660D01*
X028049Y016621D01*
X028044Y016583D01*
X028031Y016546D01*
X028010Y016514D01*
X027983Y016487D01*
X027950Y016466D01*
X027913Y016454D01*
X027875Y016450D01*
X027837Y016453D01*
X027800Y016465D01*
X027768Y016485D01*
X027740Y016511D01*
X027719Y016543D01*
X027705Y016579D01*
X027700Y016617D01*
X027704Y016657D01*
X027716Y016695D01*
X027736Y016730D01*
X027764Y016759D01*
X027798Y016781D01*
X027796Y016780D02*
X027955Y016780D01*
X028013Y016731D02*
X027738Y016731D01*
X027712Y016683D02*
X028038Y016683D01*
X028048Y016634D02*
X027702Y016634D01*
X027704Y016586D02*
X028045Y016586D01*
X028026Y016537D02*
X027722Y016537D01*
X027763Y016489D02*
X027985Y016489D01*
X027875Y015701D02*
X027835Y015695D01*
X027798Y015681D01*
X027764Y015659D01*
X027736Y015630D01*
X027716Y015595D01*
X027704Y015557D01*
X027700Y015517D01*
X027705Y015479D01*
X027719Y015443D01*
X027740Y015411D01*
X027768Y015385D01*
X027800Y015365D01*
X027837Y015353D01*
X027875Y015350D01*
X027913Y015354D01*
X027950Y015366D01*
X027983Y015387D01*
X028010Y015414D01*
X028031Y015446D01*
X028044Y015483D01*
X028049Y015521D01*
X028045Y015560D01*
X028033Y015598D01*
X028012Y015632D01*
X027985Y015661D01*
X027951Y015682D01*
X027914Y015696D01*
X027875Y015701D01*
X027772Y015664D02*
X027979Y015664D01*
X028022Y015616D02*
X027728Y015616D01*
X027707Y015567D02*
X028043Y015567D01*
X028049Y015519D02*
X027700Y015519D01*
X027708Y015470D02*
X028040Y015470D01*
X028016Y015422D02*
X027733Y015422D01*
X027787Y015373D02*
X027961Y015373D01*
X027875Y014601D02*
X027835Y014595D01*
X027798Y014581D01*
X027764Y014559D01*
X027736Y014530D01*
X027716Y014495D01*
X027704Y014457D01*
X027700Y014417D01*
X027705Y014379D01*
X027719Y014343D01*
X027740Y014311D01*
X027768Y014285D01*
X027800Y014265D01*
X027837Y014253D01*
X027875Y014250D01*
X027913Y014254D01*
X027950Y014266D01*
X027983Y014287D01*
X028010Y014314D01*
X028031Y014346D01*
X028044Y014383D01*
X028049Y014421D01*
X028045Y014460D01*
X028033Y014498D01*
X028012Y014532D01*
X027985Y014561D01*
X027951Y014582D01*
X027914Y014596D01*
X027875Y014601D01*
X027850Y014597D02*
X027902Y014597D01*
X027996Y014549D02*
X027755Y014549D01*
X027719Y014500D02*
X028031Y014500D01*
X028046Y014452D02*
X027703Y014452D01*
X027702Y014403D02*
X028047Y014403D01*
X028034Y014355D02*
X027714Y014355D01*
X027745Y014306D02*
X028003Y014306D01*
X027925Y014258D02*
X027823Y014258D01*
X030703Y014420D02*
X030706Y014460D01*
X030719Y014498D01*
X030739Y014533D01*
X030767Y014562D01*
X030801Y014584D01*
X030838Y014598D01*
X030878Y014604D01*
X030917Y014599D01*
X030954Y014585D01*
X030988Y014564D01*
X031015Y014535D01*
X031036Y014501D01*
X031048Y014463D01*
X031052Y014424D01*
X031047Y014386D01*
X031034Y014349D01*
X031013Y014317D01*
X030986Y014290D01*
X030953Y014269D01*
X030916Y014257D01*
X030878Y014253D01*
X030840Y014256D01*
X030803Y014268D01*
X030770Y014288D01*
X030743Y014314D01*
X030722Y014346D01*
X030708Y014382D01*
X030703Y014420D01*
X030705Y014403D02*
X031049Y014403D01*
X031049Y014452D02*
X030706Y014452D01*
X030720Y014500D02*
X031036Y014500D01*
X031002Y014549D02*
X030755Y014549D01*
X030836Y014597D02*
X030921Y014597D01*
X031036Y014355D02*
X030718Y014355D01*
X030751Y014306D02*
X031003Y014306D01*
X030919Y014258D02*
X030835Y014258D01*
X030878Y015353D02*
X030916Y015357D01*
X030953Y015369D01*
X030986Y015390D01*
X031013Y015417D01*
X031034Y015449D01*
X031047Y015486D01*
X031052Y015524D01*
X031048Y015563D01*
X031036Y015601D01*
X031015Y015635D01*
X030988Y015664D01*
X030954Y015685D01*
X030917Y015699D01*
X030878Y015704D01*
X030838Y015698D01*
X030801Y015684D01*
X030767Y015662D01*
X030739Y015633D01*
X030719Y015598D01*
X030706Y015560D01*
X030703Y015520D01*
X030708Y015482D01*
X030722Y015446D01*
X030743Y015414D01*
X030770Y015388D01*
X030803Y015368D01*
X030840Y015356D01*
X030878Y015353D01*
X030960Y015373D02*
X030795Y015373D01*
X030738Y015422D02*
X031017Y015422D01*
X031042Y015470D02*
X030713Y015470D01*
X030703Y015519D02*
X031051Y015519D01*
X031047Y015567D02*
X030709Y015567D01*
X030729Y015616D02*
X031027Y015616D01*
X030986Y015664D02*
X030771Y015664D01*
X030840Y016456D02*
X030803Y016468D01*
X030770Y016488D01*
X030743Y016514D01*
X030722Y016546D01*
X030708Y016582D01*
X030703Y016620D01*
X030706Y016660D01*
X030719Y016698D01*
X030739Y016733D01*
X030767Y016762D01*
X030801Y016784D01*
X030838Y016798D01*
X030878Y016804D01*
X030917Y016799D01*
X030954Y016785D01*
X030988Y016764D01*
X031015Y016735D01*
X031036Y016701D01*
X031048Y016663D01*
X031052Y016624D01*
X031047Y016586D01*
X030708Y016586D01*
X030704Y016634D02*
X031051Y016634D01*
X031047Y016586D02*
X031034Y016549D01*
X031013Y016517D01*
X030986Y016490D01*
X030953Y016469D01*
X030916Y016457D01*
X030878Y016453D01*
X030840Y016456D01*
X030769Y016489D02*
X030985Y016489D01*
X031027Y016537D02*
X030727Y016537D01*
X030714Y016683D02*
X031042Y016683D01*
X031017Y016731D02*
X030739Y016731D01*
X030794Y016780D02*
X030962Y016780D01*
D14*
X026425Y016665D02*
X026425Y016185D01*
X025425Y016185D02*
X025425Y016665D01*
X024425Y016665D02*
X024425Y016185D01*
X023425Y016185D02*
X023425Y016665D01*
X022425Y016665D02*
X022425Y016185D01*
X021425Y016185D02*
X021425Y016665D01*
X020425Y016665D02*
X020425Y016185D01*
X019425Y016185D02*
X019425Y016665D01*
X018425Y016665D02*
X018425Y016185D01*
X017425Y016185D02*
X017425Y016665D01*
X016425Y016665D02*
X016425Y016185D01*
X015425Y016185D02*
X015425Y016665D01*
X014425Y016665D02*
X014425Y016185D01*
X013425Y016185D02*
X013425Y016665D01*
X013425Y019185D02*
X013425Y019665D01*
X014425Y019665D02*
X014425Y019185D01*
X015425Y019185D02*
X015425Y019665D01*
X016425Y019665D02*
X016425Y019185D01*
X017425Y019185D02*
X017425Y019665D01*
X018425Y019665D02*
X018425Y019185D01*
X019425Y019185D02*
X019425Y019665D01*
X020425Y019665D02*
X020425Y019185D01*
X021425Y019185D02*
X021425Y019665D01*
X022425Y019665D02*
X022425Y019185D01*
X023425Y019185D02*
X023425Y019665D01*
X024425Y019665D02*
X024425Y019185D01*
X025425Y019185D02*
X025425Y019665D01*
X026425Y019665D02*
X026425Y019185D01*
D15*
X021675Y027675D03*
X021675Y027675D03*
X018675Y027675D03*
D16*
X020175Y031090D03*
X020175Y033060D03*
X020935Y014175D03*
X021935Y014175D03*
X022935Y014175D03*
D17*
X022476Y029451D03*
X022476Y030199D03*
X021374Y030199D03*
X021374Y029825D03*
X021374Y029451D03*
D18*
X031028Y023024D03*
X031475Y023675D03*
X031922Y024326D03*
D19*
X032390Y025006D03*
X030560Y022344D03*
D20*
X021675Y023675D03*
X020675Y023675D03*
X020675Y024675D03*
X021675Y024675D03*
X019675Y024675D03*
X019675Y023675D03*
D21*
X027425Y023925D03*
X010625Y023925D03*
M02*
